G04 EAGLE Gerber RS-274X export*
G75*
%MOMM*%
%FSLAX34Y34*%
%LPD*%
%INMilling*%
%IPPOS*%
%AMOC8*
5,1,8,0,0,1.08239X$1,22.5*%
G01*
%ADD10C,0.127000*%


D10*
X121800Y351800D02*
X121800Y341800D01*
X136800Y341800D01*
X136800Y351800D01*
X121800Y351800D01*
X121800Y295800D02*
X121800Y285800D01*
X136800Y285800D01*
X136800Y295800D01*
X121800Y295800D01*
X131300Y311300D02*
X141300Y311300D01*
X141300Y326300D01*
X131300Y326300D01*
X131300Y311300D01*
X41800Y340800D02*
X41800Y352800D01*
X41800Y340800D02*
X56800Y340800D01*
X56800Y352800D01*
X41800Y352800D01*
X41800Y296800D02*
X41800Y284800D01*
X56800Y284800D01*
X56800Y296800D01*
X41800Y296800D01*
X618400Y485400D02*
X618400Y495400D01*
X603400Y495400D01*
X603400Y485400D01*
X618400Y485400D01*
X618400Y541400D02*
X618400Y551400D01*
X603400Y551400D01*
X603400Y541400D01*
X618400Y541400D01*
X608900Y525900D02*
X598900Y525900D01*
X598900Y510900D01*
X608900Y510900D01*
X608900Y525900D01*
X698400Y496400D02*
X698400Y484400D01*
X698400Y496400D02*
X683400Y496400D01*
X683400Y484400D01*
X698400Y484400D01*
X698400Y540400D02*
X698400Y552400D01*
X683400Y552400D01*
X683400Y540400D01*
X698400Y540400D01*
X121900Y453300D02*
X121900Y443300D01*
X136900Y443300D01*
X136900Y453300D01*
X121900Y453300D01*
X121900Y397300D02*
X121900Y387300D01*
X136900Y387300D01*
X136900Y397300D01*
X121900Y397300D01*
X131400Y412800D02*
X141400Y412800D01*
X141400Y427800D01*
X131400Y427800D01*
X131400Y412800D01*
X41900Y442300D02*
X41900Y454300D01*
X41900Y442300D02*
X56900Y442300D01*
X56900Y454300D01*
X41900Y454300D01*
X41900Y398300D02*
X41900Y386300D01*
X56900Y386300D01*
X56900Y398300D01*
X41900Y398300D01*
X121600Y545700D02*
X121600Y555700D01*
X121600Y545700D02*
X136600Y545700D01*
X136600Y555700D01*
X121600Y555700D01*
X121600Y499700D02*
X121600Y489700D01*
X136600Y489700D01*
X136600Y499700D01*
X121600Y499700D01*
X131100Y515200D02*
X141100Y515200D01*
X141100Y530200D01*
X131100Y530200D01*
X131100Y515200D01*
X41600Y544700D02*
X41600Y556700D01*
X41600Y544700D02*
X56600Y544700D01*
X56600Y556700D01*
X41600Y556700D01*
X41600Y500700D02*
X41600Y488700D01*
X56600Y488700D01*
X56600Y500700D01*
X41600Y500700D01*
X618000Y396300D02*
X618000Y386300D01*
X618000Y396300D02*
X603000Y396300D01*
X603000Y386300D01*
X618000Y386300D01*
X618000Y442300D02*
X618000Y452300D01*
X603000Y452300D01*
X603000Y442300D01*
X618000Y442300D01*
X608500Y426800D02*
X598500Y426800D01*
X598500Y411800D01*
X608500Y411800D01*
X608500Y426800D01*
X698000Y397300D02*
X698000Y385300D01*
X698000Y397300D02*
X683000Y397300D01*
X683000Y385300D01*
X698000Y385300D01*
X698000Y441300D02*
X698000Y453300D01*
X683000Y453300D01*
X683000Y441300D01*
X698000Y441300D01*
X619400Y296800D02*
X619400Y286800D01*
X619400Y296800D02*
X604400Y296800D01*
X604400Y286800D01*
X619400Y286800D01*
X619400Y342800D02*
X619400Y352800D01*
X604400Y352800D01*
X604400Y342800D01*
X619400Y342800D01*
X609900Y327300D02*
X599900Y327300D01*
X599900Y312300D01*
X609900Y312300D01*
X609900Y327300D01*
X699400Y297800D02*
X699400Y285800D01*
X699400Y297800D02*
X684400Y297800D01*
X684400Y285800D01*
X699400Y285800D01*
X699400Y341800D02*
X699400Y353800D01*
X684400Y353800D01*
X684400Y341800D01*
X699400Y341800D01*
X618500Y196300D02*
X618500Y186300D01*
X618500Y196300D02*
X603500Y196300D01*
X603500Y186300D01*
X618500Y186300D01*
X618500Y242300D02*
X618500Y252300D01*
X603500Y252300D01*
X603500Y242300D01*
X618500Y242300D01*
X609000Y226800D02*
X599000Y226800D01*
X599000Y211800D01*
X609000Y211800D01*
X609000Y226800D01*
X698500Y197300D02*
X698500Y185300D01*
X698500Y197300D02*
X683500Y197300D01*
X683500Y185300D01*
X698500Y185300D01*
X698500Y241300D02*
X698500Y253300D01*
X683500Y253300D01*
X683500Y241300D01*
X698500Y241300D01*
X121600Y242300D02*
X121600Y252300D01*
X121600Y242300D02*
X136600Y242300D01*
X136600Y252300D01*
X121600Y252300D01*
X121600Y196300D02*
X121600Y186300D01*
X136600Y186300D01*
X136600Y196300D01*
X121600Y196300D01*
X131100Y211800D02*
X141100Y211800D01*
X141100Y226800D01*
X131100Y226800D01*
X131100Y211800D01*
X41600Y241300D02*
X41600Y253300D01*
X41600Y241300D02*
X56600Y241300D01*
X56600Y253300D01*
X41600Y253300D01*
X41600Y197300D02*
X41600Y185300D01*
X56600Y185300D01*
X56600Y197300D01*
X41600Y197300D01*
M02*
