G04 EAGLE Gerber RS-274X export*
G75*
%MOMM*%
%FSLAX34Y34*%
%LPD*%
%INBottom Copper*%
%IPPOS*%
%AMOC8*
5,1,8,0,0,1.08239X$1,22.5*%
G01*
%ADD10C,1.303000*%
%ADD11C,1.320000*%
%ADD12C,1.500000*%
%ADD13C,1.600000*%
%ADD14C,1.800000*%
%ADD15C,1.930400*%
%ADD16C,1.600000*%
%ADD17R,1.350000X1.350000*%
%ADD18C,1.350000*%
%ADD19C,0.400000*%
%ADD20C,0.704800*%
%ADD21C,0.500000*%
%ADD22C,0.300000*%

G36*
X576030Y3064D02*
X576030Y3064D01*
X576195Y3081D01*
X576201Y3083D01*
X576208Y3084D01*
X576364Y3141D01*
X576521Y3196D01*
X576527Y3199D01*
X576533Y3202D01*
X576674Y3294D01*
X576812Y3382D01*
X576817Y3387D01*
X576822Y3391D01*
X576937Y3510D01*
X577053Y3630D01*
X577057Y3636D01*
X577061Y3641D01*
X577145Y3783D01*
X577231Y3927D01*
X577233Y3933D01*
X577236Y3939D01*
X577285Y4098D01*
X577336Y4256D01*
X577336Y4263D01*
X577338Y4269D01*
X577349Y4435D01*
X577362Y4601D01*
X577361Y4608D01*
X577362Y4614D01*
X577335Y4778D01*
X577309Y4943D01*
X577307Y4949D01*
X577306Y4955D01*
X577242Y5109D01*
X577179Y5263D01*
X577176Y5269D01*
X577173Y5275D01*
X577076Y5409D01*
X576980Y5545D01*
X576975Y5550D01*
X576971Y5555D01*
X576845Y5665D01*
X576720Y5774D01*
X576713Y5778D01*
X576710Y5782D01*
X576696Y5789D01*
X576570Y5864D01*
X575007Y7000D01*
X573650Y8357D01*
X572522Y9910D01*
X571651Y11620D01*
X571057Y13445D01*
X571001Y13801D01*
X581950Y13801D01*
X581985Y13805D01*
X582020Y13802D01*
X582156Y13825D01*
X582293Y13841D01*
X582327Y13853D01*
X582362Y13858D01*
X582489Y13911D01*
X582618Y13958D01*
X582648Y13977D01*
X582681Y13991D01*
X582793Y14072D01*
X582908Y14147D01*
X582932Y14173D01*
X582956Y14190D01*
X583047Y14103D01*
X583078Y14085D01*
X583105Y14062D01*
X583227Y13998D01*
X583345Y13928D01*
X583379Y13918D01*
X583411Y13901D01*
X583544Y13867D01*
X583676Y13826D01*
X583711Y13824D01*
X583746Y13815D01*
X583950Y13801D01*
X594899Y13801D01*
X594843Y13445D01*
X594249Y11620D01*
X593378Y9910D01*
X592250Y8357D01*
X590893Y7000D01*
X589303Y5845D01*
X589218Y5788D01*
X589078Y5697D01*
X589073Y5692D01*
X589068Y5688D01*
X588954Y5567D01*
X588839Y5446D01*
X588836Y5441D01*
X588831Y5436D01*
X588748Y5292D01*
X588664Y5148D01*
X588662Y5142D01*
X588659Y5136D01*
X588611Y4978D01*
X588562Y4818D01*
X588561Y4811D01*
X588560Y4805D01*
X588550Y4641D01*
X588538Y4473D01*
X588539Y4466D01*
X588539Y4460D01*
X588567Y4296D01*
X588594Y4132D01*
X588597Y4126D01*
X588598Y4119D01*
X588664Y3965D01*
X588727Y3813D01*
X588731Y3807D01*
X588733Y3801D01*
X588832Y3667D01*
X588929Y3532D01*
X588934Y3528D01*
X588938Y3523D01*
X589064Y3415D01*
X589190Y3306D01*
X589196Y3302D01*
X589201Y3298D01*
X589348Y3222D01*
X589496Y3145D01*
X589503Y3143D01*
X589509Y3140D01*
X589669Y3100D01*
X589831Y3058D01*
X589839Y3058D01*
X589844Y3057D01*
X589859Y3056D01*
X590036Y3044D01*
X645864Y3044D01*
X646030Y3064D01*
X646195Y3081D01*
X646201Y3083D01*
X646208Y3084D01*
X646364Y3141D01*
X646521Y3196D01*
X646527Y3199D01*
X646533Y3202D01*
X646674Y3294D01*
X646812Y3382D01*
X646817Y3387D01*
X646822Y3391D01*
X646937Y3510D01*
X647053Y3630D01*
X647057Y3636D01*
X647061Y3641D01*
X647145Y3783D01*
X647231Y3927D01*
X647233Y3933D01*
X647236Y3939D01*
X647285Y4098D01*
X647336Y4256D01*
X647336Y4263D01*
X647338Y4269D01*
X647349Y4435D01*
X647362Y4601D01*
X647361Y4608D01*
X647362Y4614D01*
X647335Y4778D01*
X647309Y4943D01*
X647307Y4949D01*
X647306Y4955D01*
X647242Y5109D01*
X647179Y5263D01*
X647176Y5269D01*
X647173Y5275D01*
X647076Y5409D01*
X646980Y5545D01*
X646975Y5550D01*
X646971Y5555D01*
X646845Y5665D01*
X646720Y5774D01*
X646713Y5778D01*
X646710Y5782D01*
X646696Y5789D01*
X646570Y5864D01*
X645007Y7000D01*
X643650Y8357D01*
X642522Y9910D01*
X641651Y11620D01*
X641057Y13445D01*
X641001Y13801D01*
X651950Y13801D01*
X651985Y13805D01*
X652020Y13802D01*
X652156Y13825D01*
X652293Y13841D01*
X652327Y13853D01*
X652362Y13858D01*
X652489Y13911D01*
X652618Y13958D01*
X652648Y13977D01*
X652681Y13991D01*
X652793Y14072D01*
X652908Y14147D01*
X652932Y14173D01*
X652961Y14193D01*
X653052Y14297D01*
X653147Y14397D01*
X653165Y14428D01*
X653188Y14454D01*
X653252Y14577D01*
X653322Y14695D01*
X653332Y14729D01*
X653349Y14760D01*
X653383Y14894D01*
X653424Y15026D01*
X653426Y15061D01*
X653435Y15095D01*
X653449Y15300D01*
X653449Y15801D01*
X653950Y15801D01*
X653985Y15805D01*
X654021Y15803D01*
X654157Y15825D01*
X654293Y15841D01*
X654327Y15853D01*
X654362Y15859D01*
X654489Y15911D01*
X654619Y15958D01*
X654648Y15978D01*
X654681Y15991D01*
X654793Y16072D01*
X654908Y16147D01*
X654933Y16173D01*
X654961Y16194D01*
X655052Y16298D01*
X655147Y16397D01*
X655165Y16428D01*
X655188Y16455D01*
X655252Y16577D01*
X655322Y16695D01*
X655332Y16729D01*
X655349Y16761D01*
X655383Y16894D01*
X655424Y17026D01*
X655426Y17061D01*
X655435Y17096D01*
X655449Y17300D01*
X655449Y28249D01*
X655805Y28193D01*
X657630Y27599D01*
X659340Y26728D01*
X660893Y25600D01*
X662250Y24243D01*
X663378Y22690D01*
X664000Y21471D01*
X664091Y21333D01*
X664182Y21193D01*
X664187Y21188D01*
X664191Y21183D01*
X664311Y21070D01*
X664433Y20955D01*
X664438Y20951D01*
X664443Y20946D01*
X664587Y20864D01*
X664731Y20780D01*
X664737Y20778D01*
X664743Y20774D01*
X664902Y20727D01*
X665061Y20677D01*
X665068Y20677D01*
X665074Y20675D01*
X665241Y20665D01*
X665406Y20654D01*
X665413Y20655D01*
X665419Y20654D01*
X665584Y20683D01*
X665747Y20710D01*
X665753Y20712D01*
X665760Y20714D01*
X665913Y20779D01*
X666066Y20842D01*
X666072Y20846D01*
X666078Y20849D01*
X666212Y20947D01*
X666347Y21045D01*
X666351Y21050D01*
X666357Y21054D01*
X666464Y21180D01*
X666573Y21306D01*
X666577Y21312D01*
X666581Y21317D01*
X666656Y21464D01*
X666734Y21612D01*
X666736Y21619D01*
X666739Y21625D01*
X666779Y21785D01*
X666821Y21947D01*
X666821Y21955D01*
X666822Y21960D01*
X666823Y21975D01*
X666835Y22151D01*
X666835Y39603D01*
X669420Y49251D01*
X674414Y57902D01*
X681477Y64965D01*
X690128Y69959D01*
X699776Y72544D01*
X734835Y72544D01*
X734871Y72548D01*
X734906Y72546D01*
X735042Y72568D01*
X735179Y72584D01*
X735212Y72596D01*
X735247Y72602D01*
X735374Y72655D01*
X735504Y72702D01*
X735534Y72721D01*
X735566Y72735D01*
X735678Y72815D01*
X735794Y72891D01*
X735818Y72916D01*
X735847Y72937D01*
X735937Y73041D01*
X736032Y73141D01*
X736050Y73171D01*
X736073Y73198D01*
X736138Y73320D01*
X736207Y73439D01*
X736218Y73473D01*
X736234Y73504D01*
X736269Y73638D01*
X736309Y73769D01*
X736312Y73805D01*
X736321Y73839D01*
X736335Y74044D01*
X736335Y665174D01*
X736331Y665209D01*
X736333Y665244D01*
X736311Y665380D01*
X736295Y665517D01*
X736283Y665550D01*
X736277Y665585D01*
X736224Y665712D01*
X736177Y665842D01*
X736158Y665872D01*
X736144Y665905D01*
X736064Y666016D01*
X735988Y666132D01*
X735963Y666156D01*
X735942Y666185D01*
X735838Y666275D01*
X735738Y666370D01*
X735708Y666388D01*
X735681Y666412D01*
X735559Y666476D01*
X735440Y666545D01*
X735406Y666556D01*
X735375Y666572D01*
X735241Y666607D01*
X735110Y666648D01*
X735074Y666650D01*
X735040Y666659D01*
X734835Y666673D01*
X699776Y666673D01*
X690128Y669258D01*
X688719Y670072D01*
X688581Y670131D01*
X688445Y670195D01*
X688423Y670200D01*
X688401Y670209D01*
X688253Y670235D01*
X688107Y670266D01*
X688084Y670266D01*
X688061Y670270D01*
X687911Y670262D01*
X687761Y670258D01*
X687739Y670252D01*
X687716Y670251D01*
X687572Y670209D01*
X687427Y670171D01*
X687406Y670160D01*
X687384Y670154D01*
X687253Y670079D01*
X687121Y670009D01*
X687104Y669994D01*
X687083Y669983D01*
X686973Y669881D01*
X686860Y669782D01*
X686847Y669764D01*
X686830Y669748D01*
X686746Y669624D01*
X686659Y669501D01*
X686650Y669480D01*
X686637Y669461D01*
X686584Y669321D01*
X686527Y669182D01*
X686523Y669159D01*
X686515Y669137D01*
X686495Y668989D01*
X686471Y668841D01*
X686473Y668817D01*
X686470Y668795D01*
X686485Y668646D01*
X686496Y668496D01*
X686503Y668474D01*
X686505Y668451D01*
X686554Y668309D01*
X686599Y668166D01*
X686610Y668146D01*
X686618Y668124D01*
X686698Y667997D01*
X686774Y667868D01*
X686794Y667845D01*
X686803Y667832D01*
X686825Y667810D01*
X686909Y667713D01*
X722614Y632008D01*
X723376Y630170D01*
X723376Y588730D01*
X722614Y586892D01*
X720997Y585275D01*
X696682Y560960D01*
X696617Y560878D01*
X696545Y560803D01*
X696510Y560743D01*
X696468Y560689D01*
X696423Y560595D01*
X696370Y560505D01*
X696350Y560439D01*
X696321Y560376D01*
X696299Y560274D01*
X696268Y560174D01*
X696264Y560105D01*
X696249Y560038D01*
X696252Y559934D01*
X696245Y559829D01*
X696256Y559761D01*
X696258Y559692D01*
X696284Y559591D01*
X696301Y559488D01*
X696327Y559424D01*
X696345Y559358D01*
X696393Y559265D01*
X696433Y559169D01*
X696474Y559113D01*
X696506Y559052D01*
X696575Y558973D01*
X696636Y558889D01*
X696688Y558843D01*
X696733Y558791D01*
X696818Y558730D01*
X696897Y558662D01*
X696958Y558630D01*
X697014Y558589D01*
X697111Y558550D01*
X697203Y558501D01*
X697270Y558484D01*
X697334Y558457D01*
X697437Y558441D01*
X697538Y558415D01*
X697642Y558408D01*
X697675Y558402D01*
X697697Y558404D01*
X697742Y558401D01*
X702287Y558401D01*
X706698Y556574D01*
X710074Y553198D01*
X711901Y548787D01*
X711901Y544013D01*
X710074Y539602D01*
X706698Y536226D01*
X702287Y534399D01*
X697400Y534399D01*
X697365Y534395D01*
X697329Y534398D01*
X697193Y534375D01*
X697057Y534359D01*
X697023Y534347D01*
X696988Y534342D01*
X696861Y534289D01*
X696731Y534242D01*
X696702Y534223D01*
X696669Y534209D01*
X696557Y534128D01*
X696442Y534053D01*
X696417Y534027D01*
X696389Y534007D01*
X696298Y533903D01*
X696203Y533803D01*
X696185Y533772D01*
X696162Y533746D01*
X696098Y533623D01*
X696028Y533505D01*
X696018Y533471D01*
X696001Y533439D01*
X695967Y533306D01*
X695926Y533174D01*
X695924Y533139D01*
X695915Y533105D01*
X695901Y532900D01*
X695901Y524010D01*
X695907Y523958D01*
X695904Y523906D01*
X695927Y523787D01*
X695941Y523667D01*
X695958Y523618D01*
X695968Y523566D01*
X696017Y523455D01*
X696058Y523342D01*
X696087Y523298D01*
X696108Y523250D01*
X696181Y523153D01*
X696247Y523052D01*
X696285Y523016D01*
X696316Y522974D01*
X696410Y522897D01*
X696497Y522813D01*
X696542Y522787D01*
X696583Y522754D01*
X696691Y522700D01*
X696795Y522638D01*
X696845Y522623D01*
X696892Y522600D01*
X697010Y522572D01*
X697126Y522536D01*
X697178Y522533D01*
X697229Y522521D01*
X697350Y522521D01*
X697471Y522513D01*
X697522Y522521D01*
X697575Y522521D01*
X697692Y522549D01*
X697812Y522569D01*
X697860Y522589D01*
X697911Y522601D01*
X698019Y522655D01*
X698131Y522701D01*
X698173Y522732D01*
X698220Y522755D01*
X698313Y522833D01*
X698411Y522904D01*
X698446Y522943D01*
X698486Y522977D01*
X698559Y523073D01*
X698606Y523128D01*
X701085Y525607D01*
X704209Y526901D01*
X707591Y526901D01*
X710715Y525607D01*
X713107Y523215D01*
X714401Y520091D01*
X714401Y516709D01*
X713107Y513585D01*
X710715Y511193D01*
X707591Y509899D01*
X704209Y509899D01*
X701085Y511193D01*
X698622Y513656D01*
X698617Y513665D01*
X698582Y513704D01*
X698553Y513748D01*
X698527Y513773D01*
X698507Y513801D01*
X698443Y513856D01*
X698384Y513921D01*
X698341Y513950D01*
X698303Y513987D01*
X698272Y514005D01*
X698246Y514027D01*
X698171Y514067D01*
X698099Y514116D01*
X698050Y514135D01*
X698005Y514162D01*
X697970Y514172D01*
X697940Y514188D01*
X697858Y514209D01*
X697776Y514241D01*
X697724Y514248D01*
X697674Y514264D01*
X697638Y514266D01*
X697605Y514275D01*
X697466Y514284D01*
X697434Y514289D01*
X697420Y514287D01*
X697400Y514289D01*
X697367Y514285D01*
X697329Y514287D01*
X697210Y514268D01*
X697090Y514256D01*
X697072Y514250D01*
X697057Y514249D01*
X697025Y514237D01*
X696988Y514231D01*
X696877Y514185D01*
X696762Y514146D01*
X696746Y514137D01*
X696731Y514131D01*
X696703Y514113D01*
X696669Y514099D01*
X696571Y514028D01*
X696468Y513964D01*
X696455Y513951D01*
X696442Y513942D01*
X696418Y513918D01*
X696389Y513896D01*
X696309Y513805D01*
X696224Y513719D01*
X696214Y513704D01*
X696203Y513692D01*
X696186Y513663D01*
X696162Y513635D01*
X696106Y513528D01*
X696042Y513425D01*
X696036Y513408D01*
X696028Y513394D01*
X696018Y513361D01*
X696001Y513329D01*
X695971Y513212D01*
X695933Y513097D01*
X695931Y513080D01*
X695926Y513064D01*
X695924Y513029D01*
X695915Y512994D01*
X695901Y512790D01*
X695901Y503900D01*
X695905Y503865D01*
X695902Y503829D01*
X695925Y503693D01*
X695941Y503557D01*
X695953Y503523D01*
X695958Y503488D01*
X696011Y503361D01*
X696058Y503231D01*
X696077Y503202D01*
X696091Y503169D01*
X696172Y503057D01*
X696247Y502942D01*
X696273Y502917D01*
X696293Y502889D01*
X696397Y502798D01*
X696497Y502703D01*
X696528Y502685D01*
X696554Y502662D01*
X696677Y502598D01*
X696795Y502528D01*
X696829Y502518D01*
X696861Y502501D01*
X696994Y502467D01*
X697126Y502426D01*
X697161Y502424D01*
X697195Y502415D01*
X697400Y502401D01*
X702287Y502401D01*
X706698Y500574D01*
X710074Y497198D01*
X711901Y492787D01*
X711901Y488013D01*
X710074Y483602D01*
X706698Y480226D01*
X702287Y478399D01*
X696885Y478399D01*
X696747Y478383D01*
X696608Y478373D01*
X696575Y478363D01*
X696542Y478359D01*
X696411Y478312D01*
X696278Y478271D01*
X696248Y478253D01*
X696217Y478242D01*
X696100Y478166D01*
X695980Y478095D01*
X695946Y478065D01*
X695927Y478053D01*
X695904Y478029D01*
X695825Y477960D01*
X686350Y468485D01*
X686339Y468471D01*
X686325Y468459D01*
X686232Y468335D01*
X686136Y468214D01*
X686128Y468197D01*
X686117Y468183D01*
X686025Y467999D01*
X685639Y467067D01*
X684233Y465661D01*
X682395Y464899D01*
X485292Y464899D01*
X485154Y464883D01*
X485015Y464873D01*
X484982Y464863D01*
X484949Y464859D01*
X484818Y464812D01*
X484685Y464771D01*
X484656Y464753D01*
X484624Y464742D01*
X484507Y464666D01*
X484387Y464595D01*
X484353Y464565D01*
X484334Y464553D01*
X484311Y464529D01*
X484232Y464460D01*
X462640Y442868D01*
X462553Y442759D01*
X462462Y442653D01*
X462446Y442623D01*
X462425Y442597D01*
X462366Y442471D01*
X462301Y442347D01*
X462293Y442314D01*
X462278Y442284D01*
X462250Y442147D01*
X462215Y442012D01*
X462212Y441967D01*
X462207Y441945D01*
X462208Y441912D01*
X462201Y441808D01*
X462201Y437155D01*
X461815Y436224D01*
X461810Y436206D01*
X461801Y436189D01*
X461762Y436039D01*
X461720Y435891D01*
X461719Y435873D01*
X461715Y435855D01*
X461701Y435650D01*
X461701Y398186D01*
X417714Y354199D01*
X395648Y354199D01*
X395509Y354183D01*
X395370Y354173D01*
X395338Y354163D01*
X395304Y354159D01*
X395173Y354112D01*
X395040Y354071D01*
X395011Y354053D01*
X394979Y354042D01*
X394862Y353966D01*
X394742Y353895D01*
X394708Y353865D01*
X394689Y353853D01*
X394666Y353829D01*
X394587Y353760D01*
X393996Y353169D01*
X391598Y352175D01*
X389002Y352175D01*
X386604Y353169D01*
X384769Y355004D01*
X383775Y357402D01*
X383775Y359998D01*
X384769Y362396D01*
X386604Y364231D01*
X389002Y365225D01*
X391598Y365225D01*
X393996Y364231D01*
X394587Y363640D01*
X394697Y363553D01*
X394802Y363462D01*
X394832Y363446D01*
X394859Y363425D01*
X394985Y363366D01*
X395108Y363301D01*
X395141Y363293D01*
X395172Y363278D01*
X395308Y363250D01*
X395443Y363215D01*
X395488Y363212D01*
X395510Y363207D01*
X395544Y363208D01*
X395648Y363201D01*
X413365Y363201D01*
X413503Y363217D01*
X413642Y363227D01*
X413675Y363237D01*
X413708Y363241D01*
X413839Y363288D01*
X413972Y363329D01*
X414002Y363347D01*
X414033Y363358D01*
X414150Y363434D01*
X414270Y363505D01*
X414304Y363535D01*
X414323Y363547D01*
X414346Y363571D01*
X414425Y363640D01*
X452260Y401475D01*
X452347Y401584D01*
X452438Y401690D01*
X452454Y401720D01*
X452475Y401746D01*
X452534Y401872D01*
X452599Y401996D01*
X452607Y402029D01*
X452622Y402059D01*
X452650Y402195D01*
X452685Y402331D01*
X452688Y402376D01*
X452693Y402398D01*
X452692Y402431D01*
X452699Y402535D01*
X452699Y435650D01*
X452697Y435668D01*
X452699Y435687D01*
X452677Y435839D01*
X452659Y435993D01*
X452653Y436011D01*
X452650Y436029D01*
X452585Y436224D01*
X452199Y437155D01*
X452199Y445495D01*
X452961Y447333D01*
X479767Y474139D01*
X481605Y474901D01*
X676758Y474901D01*
X676896Y474917D01*
X677035Y474927D01*
X677068Y474937D01*
X677101Y474941D01*
X677232Y474988D01*
X677365Y475029D01*
X677394Y475047D01*
X677426Y475058D01*
X677543Y475134D01*
X677663Y475205D01*
X677697Y475235D01*
X677716Y475247D01*
X677739Y475271D01*
X677818Y475340D01*
X678891Y476413D01*
X678988Y476535D01*
X679088Y476656D01*
X679095Y476671D01*
X679106Y476684D01*
X679172Y476826D01*
X679241Y476965D01*
X679245Y476982D01*
X679253Y476997D01*
X679285Y477150D01*
X679320Y477302D01*
X679320Y477319D01*
X679324Y477335D01*
X679320Y477492D01*
X679320Y477648D01*
X679316Y477664D01*
X679316Y477681D01*
X679276Y477833D01*
X679240Y477984D01*
X679233Y477999D01*
X679229Y478016D01*
X679155Y478154D01*
X679086Y478293D01*
X679075Y478306D01*
X679067Y478321D01*
X678964Y478439D01*
X678865Y478559D01*
X678851Y478569D01*
X678840Y478582D01*
X678714Y478673D01*
X678588Y478767D01*
X678569Y478777D01*
X678559Y478784D01*
X678534Y478794D01*
X678405Y478858D01*
X675102Y480226D01*
X671726Y483602D01*
X669899Y488013D01*
X669899Y492787D01*
X671726Y497198D01*
X675102Y500574D01*
X679513Y502401D01*
X684400Y502401D01*
X684435Y502405D01*
X684471Y502402D01*
X684607Y502425D01*
X684743Y502441D01*
X684777Y502453D01*
X684812Y502458D01*
X684939Y502511D01*
X685069Y502558D01*
X685098Y502577D01*
X685131Y502591D01*
X685243Y502672D01*
X685358Y502747D01*
X685383Y502773D01*
X685411Y502793D01*
X685502Y502897D01*
X685597Y502997D01*
X685615Y503028D01*
X685638Y503054D01*
X685702Y503177D01*
X685772Y503295D01*
X685782Y503329D01*
X685799Y503361D01*
X685833Y503494D01*
X685874Y503626D01*
X685876Y503661D01*
X685885Y503695D01*
X685899Y503900D01*
X685899Y532900D01*
X685895Y532935D01*
X685898Y532971D01*
X685875Y533107D01*
X685859Y533243D01*
X685847Y533277D01*
X685842Y533312D01*
X685789Y533439D01*
X685742Y533569D01*
X685723Y533598D01*
X685709Y533631D01*
X685628Y533743D01*
X685553Y533858D01*
X685527Y533883D01*
X685507Y533911D01*
X685403Y534002D01*
X685303Y534097D01*
X685272Y534115D01*
X685246Y534138D01*
X685123Y534202D01*
X685005Y534272D01*
X684971Y534282D01*
X684939Y534299D01*
X684806Y534333D01*
X684674Y534374D01*
X684639Y534376D01*
X684605Y534385D01*
X684400Y534399D01*
X679513Y534399D01*
X675102Y536226D01*
X671726Y539602D01*
X669899Y544013D01*
X669899Y548787D01*
X671726Y553198D01*
X675102Y556574D01*
X679513Y558401D01*
X684400Y558401D01*
X684435Y558405D01*
X684471Y558402D01*
X684607Y558425D01*
X684743Y558441D01*
X684777Y558453D01*
X684812Y558458D01*
X684939Y558511D01*
X685069Y558558D01*
X685098Y558577D01*
X685131Y558591D01*
X685243Y558672D01*
X685358Y558747D01*
X685383Y558773D01*
X685411Y558793D01*
X685502Y558897D01*
X685597Y558997D01*
X685615Y559028D01*
X685638Y559054D01*
X685702Y559177D01*
X685772Y559295D01*
X685782Y559329D01*
X685799Y559361D01*
X685833Y559494D01*
X685874Y559626D01*
X685876Y559661D01*
X685885Y559695D01*
X685899Y559900D01*
X685899Y563245D01*
X686661Y565083D01*
X712935Y591357D01*
X713022Y591466D01*
X713113Y591572D01*
X713129Y591602D01*
X713150Y591628D01*
X713209Y591754D01*
X713274Y591878D01*
X713282Y591911D01*
X713297Y591941D01*
X713325Y592078D01*
X713360Y592213D01*
X713363Y592258D01*
X713368Y592280D01*
X713367Y592313D01*
X713374Y592417D01*
X713374Y626483D01*
X713358Y626621D01*
X713348Y626760D01*
X713338Y626793D01*
X713334Y626826D01*
X713287Y626957D01*
X713246Y627090D01*
X713228Y627119D01*
X713217Y627151D01*
X713141Y627268D01*
X713070Y627388D01*
X713040Y627422D01*
X713028Y627441D01*
X713004Y627464D01*
X712935Y627543D01*
X679168Y661310D01*
X679059Y661397D01*
X678953Y661488D01*
X678923Y661504D01*
X678897Y661525D01*
X678771Y661584D01*
X678647Y661649D01*
X678614Y661657D01*
X678584Y661672D01*
X678447Y661700D01*
X678312Y661735D01*
X678267Y661738D01*
X678245Y661743D01*
X678212Y661742D01*
X678108Y661749D01*
X417598Y661749D01*
X417459Y661733D01*
X417320Y661723D01*
X417288Y661713D01*
X417254Y661709D01*
X417123Y661662D01*
X416990Y661621D01*
X416961Y661603D01*
X416929Y661592D01*
X416812Y661516D01*
X416692Y661445D01*
X416658Y661415D01*
X416639Y661403D01*
X416616Y661379D01*
X416537Y661310D01*
X416446Y661219D01*
X414048Y660225D01*
X411452Y660225D01*
X409054Y661219D01*
X407219Y663054D01*
X406225Y665452D01*
X406225Y668048D01*
X407219Y670446D01*
X409054Y672281D01*
X411452Y673275D01*
X414048Y673275D01*
X416446Y672281D01*
X416537Y672190D01*
X416647Y672103D01*
X416752Y672012D01*
X416782Y671996D01*
X416808Y671975D01*
X416934Y671916D01*
X417058Y671851D01*
X417091Y671843D01*
X417121Y671828D01*
X417258Y671800D01*
X417393Y671765D01*
X417438Y671762D01*
X417460Y671757D01*
X417494Y671758D01*
X417598Y671751D01*
X680360Y671751D01*
X680463Y671763D01*
X680567Y671765D01*
X680634Y671783D01*
X680703Y671791D01*
X680801Y671826D01*
X680902Y671852D01*
X680963Y671885D01*
X681028Y671908D01*
X681116Y671965D01*
X681208Y672014D01*
X681260Y672059D01*
X681318Y672097D01*
X681390Y672172D01*
X681468Y672241D01*
X681509Y672297D01*
X681556Y672347D01*
X681609Y672437D01*
X681670Y672522D01*
X681697Y672586D01*
X681731Y672645D01*
X681762Y672745D01*
X681802Y672841D01*
X681813Y672910D01*
X681833Y672976D01*
X681841Y673080D01*
X681857Y673183D01*
X681852Y673252D01*
X681857Y673321D01*
X681840Y673423D01*
X681833Y673528D01*
X681812Y673594D01*
X681801Y673662D01*
X681761Y673758D01*
X681730Y673858D01*
X681695Y673917D01*
X681668Y673981D01*
X681608Y674066D01*
X681554Y674155D01*
X681486Y674234D01*
X681466Y674261D01*
X681449Y674276D01*
X681420Y674310D01*
X674414Y681315D01*
X669420Y689966D01*
X666835Y699614D01*
X666835Y734674D01*
X666831Y734709D01*
X666833Y734744D01*
X666811Y734880D01*
X666795Y735017D01*
X666783Y735050D01*
X666777Y735085D01*
X666724Y735212D01*
X666677Y735342D01*
X666658Y735372D01*
X666644Y735405D01*
X666564Y735516D01*
X666488Y735632D01*
X666463Y735656D01*
X666442Y735685D01*
X666338Y735775D01*
X666238Y735870D01*
X666208Y735888D01*
X666181Y735912D01*
X666059Y735976D01*
X665940Y736045D01*
X665906Y736056D01*
X665875Y736072D01*
X665741Y736107D01*
X665610Y736148D01*
X665574Y736150D01*
X665540Y736159D01*
X665335Y736173D01*
X74205Y736173D01*
X74170Y736169D01*
X74135Y736171D01*
X73999Y736149D01*
X73862Y736133D01*
X73829Y736121D01*
X73794Y736115D01*
X73667Y736062D01*
X73537Y736016D01*
X73507Y735996D01*
X73474Y735983D01*
X73363Y735902D01*
X73247Y735827D01*
X73223Y735801D01*
X73194Y735780D01*
X73104Y735676D01*
X73009Y735577D01*
X72991Y735546D01*
X72967Y735519D01*
X72903Y735397D01*
X72834Y735278D01*
X72823Y735245D01*
X72807Y735213D01*
X72772Y735079D01*
X72731Y734948D01*
X72729Y734913D01*
X72720Y734878D01*
X72706Y734674D01*
X72706Y699614D01*
X70121Y689966D01*
X65127Y681315D01*
X58064Y674252D01*
X49413Y669258D01*
X39765Y666673D01*
X5135Y666673D01*
X5100Y666669D01*
X5064Y666671D01*
X4928Y666649D01*
X4792Y666633D01*
X4758Y666621D01*
X4723Y666615D01*
X4596Y666562D01*
X4466Y666516D01*
X4437Y666496D01*
X4404Y666483D01*
X4292Y666402D01*
X4177Y666327D01*
X4152Y666301D01*
X4124Y666280D01*
X4033Y666176D01*
X3938Y666077D01*
X3920Y666046D01*
X3897Y666019D01*
X3833Y665897D01*
X3763Y665778D01*
X3753Y665745D01*
X3736Y665713D01*
X3702Y665579D01*
X3661Y665448D01*
X3659Y665413D01*
X3650Y665378D01*
X3636Y665174D01*
X3636Y150135D01*
X3640Y150100D01*
X3637Y150064D01*
X3660Y149928D01*
X3676Y149792D01*
X3688Y149758D01*
X3693Y149723D01*
X3746Y149596D01*
X3793Y149466D01*
X3812Y149437D01*
X3826Y149404D01*
X3907Y149292D01*
X3982Y149177D01*
X4008Y149152D01*
X4028Y149124D01*
X4132Y149033D01*
X4232Y148938D01*
X4263Y148920D01*
X4289Y148897D01*
X4412Y148833D01*
X4530Y148763D01*
X4564Y148753D01*
X4596Y148736D01*
X4729Y148702D01*
X4861Y148661D01*
X4896Y148659D01*
X4930Y148650D01*
X5135Y148636D01*
X22712Y148636D01*
X27724Y146560D01*
X31560Y142724D01*
X33636Y137712D01*
X33636Y102288D01*
X31560Y97276D01*
X27724Y93440D01*
X22712Y91364D01*
X5135Y91364D01*
X5100Y91360D01*
X5064Y91363D01*
X4928Y91340D01*
X4792Y91324D01*
X4758Y91312D01*
X4723Y91307D01*
X4596Y91254D01*
X4466Y91207D01*
X4437Y91188D01*
X4404Y91174D01*
X4292Y91093D01*
X4177Y91018D01*
X4152Y90992D01*
X4124Y90972D01*
X4033Y90868D01*
X3938Y90768D01*
X3920Y90737D01*
X3897Y90711D01*
X3833Y90588D01*
X3763Y90470D01*
X3753Y90436D01*
X3736Y90404D01*
X3702Y90271D01*
X3661Y90139D01*
X3659Y90104D01*
X3650Y90070D01*
X3636Y89865D01*
X3636Y74044D01*
X3640Y74008D01*
X3637Y73973D01*
X3660Y73837D01*
X3676Y73700D01*
X3688Y73667D01*
X3693Y73632D01*
X3746Y73505D01*
X3793Y73375D01*
X3812Y73345D01*
X3826Y73313D01*
X3907Y73201D01*
X3982Y73085D01*
X4008Y73061D01*
X4028Y73032D01*
X4132Y72942D01*
X4232Y72847D01*
X4263Y72829D01*
X4289Y72806D01*
X4412Y72741D01*
X4530Y72672D01*
X4564Y72661D01*
X4596Y72645D01*
X4729Y72610D01*
X4861Y72570D01*
X4896Y72567D01*
X4930Y72558D01*
X5135Y72544D01*
X39765Y72544D01*
X49413Y69959D01*
X58063Y64965D01*
X65127Y57902D01*
X70121Y49251D01*
X72706Y39603D01*
X72706Y4544D01*
X72710Y4508D01*
X72708Y4473D01*
X72730Y4337D01*
X72746Y4200D01*
X72758Y4167D01*
X72764Y4132D01*
X72817Y4005D01*
X72863Y3875D01*
X72883Y3845D01*
X72896Y3813D01*
X72977Y3701D01*
X73052Y3585D01*
X73078Y3561D01*
X73099Y3532D01*
X73203Y3442D01*
X73302Y3347D01*
X73333Y3329D01*
X73360Y3306D01*
X73482Y3241D01*
X73601Y3172D01*
X73634Y3161D01*
X73666Y3145D01*
X73800Y3110D01*
X73931Y3070D01*
X73966Y3067D01*
X74001Y3058D01*
X74205Y3044D01*
X575864Y3044D01*
X576030Y3064D01*
G37*
%LPC*%
G36*
X570202Y526875D02*
X570202Y526875D01*
X567804Y527869D01*
X565969Y529704D01*
X564975Y532102D01*
X564975Y532939D01*
X564959Y533077D01*
X564949Y533216D01*
X564939Y533249D01*
X564935Y533282D01*
X564888Y533413D01*
X564847Y533546D01*
X564829Y533576D01*
X564818Y533607D01*
X564742Y533724D01*
X564671Y533844D01*
X564641Y533878D01*
X564629Y533897D01*
X564605Y533920D01*
X564536Y533999D01*
X512925Y585610D01*
X512816Y585697D01*
X512710Y585788D01*
X512680Y585804D01*
X512654Y585825D01*
X512528Y585884D01*
X512404Y585949D01*
X512371Y585957D01*
X512341Y585972D01*
X512205Y586000D01*
X512069Y586035D01*
X512024Y586038D01*
X512002Y586043D01*
X511969Y586042D01*
X511865Y586049D01*
X370785Y586049D01*
X370647Y586033D01*
X370508Y586023D01*
X370475Y586013D01*
X370442Y586009D01*
X370311Y585962D01*
X370178Y585921D01*
X370148Y585903D01*
X370117Y585892D01*
X370000Y585816D01*
X369880Y585745D01*
X369846Y585715D01*
X369827Y585703D01*
X369804Y585679D01*
X369725Y585610D01*
X338414Y554299D01*
X162686Y554299D01*
X138859Y578126D01*
X138859Y673954D01*
X145320Y680415D01*
X145406Y680524D01*
X145498Y680630D01*
X145514Y680660D01*
X145535Y680686D01*
X145594Y680812D01*
X145659Y680936D01*
X145667Y680969D01*
X145682Y680999D01*
X145710Y681135D01*
X145745Y681271D01*
X145748Y681316D01*
X145753Y681338D01*
X145752Y681371D01*
X145759Y681475D01*
X145759Y712053D01*
X145749Y712140D01*
X145749Y712227D01*
X145729Y712311D01*
X145719Y712396D01*
X145690Y712479D01*
X145669Y712564D01*
X145631Y712641D01*
X145602Y712721D01*
X145554Y712795D01*
X145515Y712873D01*
X145460Y712939D01*
X145413Y713011D01*
X145350Y713071D01*
X145294Y713139D01*
X145225Y713190D01*
X145163Y713250D01*
X145087Y713294D01*
X145017Y713347D01*
X144889Y713411D01*
X144873Y713420D01*
X142193Y716100D01*
X140744Y719597D01*
X140744Y723383D01*
X142193Y726880D01*
X144870Y729557D01*
X148367Y731006D01*
X152153Y731006D01*
X155650Y729557D01*
X158327Y726880D01*
X159776Y723383D01*
X159776Y719597D01*
X158327Y716100D01*
X155639Y713411D01*
X155610Y713395D01*
X155529Y713362D01*
X155459Y713311D01*
X155384Y713270D01*
X155320Y713211D01*
X155249Y713159D01*
X155192Y713095D01*
X155129Y713037D01*
X155079Y712964D01*
X155022Y712898D01*
X154982Y712822D01*
X154933Y712751D01*
X154902Y712670D01*
X154861Y712592D01*
X154840Y712509D01*
X154809Y712429D01*
X154797Y712342D01*
X154775Y712257D01*
X154765Y712114D01*
X154761Y712087D01*
X154762Y712075D01*
X154761Y712053D01*
X154761Y677126D01*
X148300Y670665D01*
X148213Y670556D01*
X148122Y670450D01*
X148106Y670420D01*
X148085Y670394D01*
X148026Y670268D01*
X147961Y670144D01*
X147953Y670111D01*
X147938Y670081D01*
X147910Y669945D01*
X147875Y669809D01*
X147872Y669764D01*
X147867Y669742D01*
X147868Y669709D01*
X147861Y669605D01*
X147861Y582475D01*
X147877Y582337D01*
X147887Y582198D01*
X147897Y582165D01*
X147901Y582132D01*
X147948Y582001D01*
X147989Y581868D01*
X148007Y581838D01*
X148018Y581807D01*
X148094Y581690D01*
X148165Y581570D01*
X148195Y581536D01*
X148207Y581517D01*
X148231Y581494D01*
X148300Y581415D01*
X165975Y563740D01*
X166084Y563653D01*
X166190Y563562D01*
X166220Y563546D01*
X166246Y563525D01*
X166372Y563466D01*
X166496Y563401D01*
X166529Y563393D01*
X166559Y563378D01*
X166695Y563350D01*
X166831Y563315D01*
X166876Y563312D01*
X166898Y563307D01*
X166931Y563308D01*
X167035Y563301D01*
X334065Y563301D01*
X334203Y563317D01*
X334342Y563327D01*
X334375Y563337D01*
X334408Y563341D01*
X334539Y563388D01*
X334672Y563429D01*
X334702Y563447D01*
X334733Y563458D01*
X334850Y563534D01*
X334970Y563605D01*
X335004Y563635D01*
X335023Y563647D01*
X335046Y563671D01*
X335125Y563740D01*
X366436Y595051D01*
X516214Y595051D01*
X570901Y540364D01*
X571010Y540277D01*
X571116Y540186D01*
X571146Y540170D01*
X571172Y540149D01*
X571298Y540090D01*
X571422Y540025D01*
X571455Y540017D01*
X571485Y540002D01*
X571621Y539974D01*
X571757Y539939D01*
X571802Y539936D01*
X571824Y539931D01*
X571857Y539932D01*
X571961Y539925D01*
X572798Y539925D01*
X575196Y538931D01*
X577031Y537096D01*
X578025Y534698D01*
X578025Y532102D01*
X577031Y529704D01*
X575196Y527869D01*
X572798Y526875D01*
X570202Y526875D01*
G37*
%LPD*%
%LPC*%
G36*
X174803Y22397D02*
X174803Y22397D01*
X174772Y22415D01*
X174745Y22438D01*
X174623Y22502D01*
X174505Y22572D01*
X174471Y22582D01*
X174439Y22599D01*
X174306Y22633D01*
X174174Y22674D01*
X174139Y22676D01*
X174104Y22685D01*
X173900Y22699D01*
X164629Y22699D01*
X165132Y24246D01*
X165885Y25725D01*
X166860Y27067D01*
X168033Y28240D01*
X168507Y28584D01*
X168619Y28688D01*
X168734Y28788D01*
X168746Y28804D01*
X168761Y28818D01*
X168847Y28944D01*
X168936Y29069D01*
X168944Y29087D01*
X168955Y29104D01*
X169010Y29247D01*
X169068Y29388D01*
X169071Y29408D01*
X169078Y29427D01*
X169099Y29578D01*
X169123Y29730D01*
X169122Y29750D01*
X169124Y29770D01*
X169110Y29921D01*
X169099Y30074D01*
X169093Y30094D01*
X169091Y30114D01*
X169041Y30259D01*
X168996Y30405D01*
X168986Y30422D01*
X168979Y30441D01*
X168898Y30571D01*
X168820Y30702D01*
X168803Y30722D01*
X168796Y30734D01*
X168774Y30755D01*
X168686Y30857D01*
X165574Y33969D01*
X165448Y34274D01*
X165405Y34350D01*
X165371Y34431D01*
X165321Y34501D01*
X165279Y34576D01*
X165220Y34640D01*
X165169Y34711D01*
X165104Y34768D01*
X165046Y34831D01*
X164974Y34881D01*
X164908Y34938D01*
X164832Y34978D01*
X164761Y35027D01*
X164680Y35058D01*
X164602Y35099D01*
X164519Y35120D01*
X164439Y35151D01*
X164352Y35163D01*
X164267Y35185D01*
X164124Y35195D01*
X164096Y35199D01*
X164084Y35198D01*
X164063Y35199D01*
X135738Y35199D01*
X135651Y35189D01*
X135563Y35189D01*
X135479Y35169D01*
X135394Y35159D01*
X135312Y35130D01*
X135227Y35110D01*
X135150Y35071D01*
X135069Y35042D01*
X134996Y34994D01*
X134917Y34955D01*
X134851Y34900D01*
X134779Y34853D01*
X134719Y34790D01*
X134652Y34734D01*
X134600Y34665D01*
X134541Y34603D01*
X134496Y34527D01*
X134444Y34457D01*
X134380Y34329D01*
X134366Y34305D01*
X134362Y34293D01*
X134352Y34274D01*
X134226Y33969D01*
X131114Y30857D01*
X131020Y30738D01*
X130921Y30620D01*
X130912Y30602D01*
X130900Y30586D01*
X130835Y30448D01*
X130766Y30311D01*
X130762Y30291D01*
X130753Y30273D01*
X130721Y30123D01*
X130686Y29975D01*
X130686Y29955D01*
X130682Y29935D01*
X130685Y29781D01*
X130685Y29629D01*
X130689Y29609D01*
X130690Y29589D01*
X130728Y29440D01*
X130763Y29292D01*
X130772Y29274D01*
X130777Y29254D01*
X130848Y29119D01*
X130916Y28982D01*
X130929Y28967D01*
X130938Y28949D01*
X131039Y28834D01*
X131136Y28716D01*
X131156Y28699D01*
X131165Y28688D01*
X131190Y28671D01*
X131293Y28584D01*
X131767Y28240D01*
X132940Y27067D01*
X133915Y25725D01*
X134668Y24246D01*
X135171Y22699D01*
X125900Y22699D01*
X125865Y22695D01*
X125830Y22698D01*
X125694Y22675D01*
X125557Y22659D01*
X125523Y22647D01*
X125488Y22642D01*
X125361Y22589D01*
X125232Y22542D01*
X125202Y22523D01*
X125169Y22509D01*
X125057Y22428D01*
X124942Y22353D01*
X124918Y22327D01*
X124894Y22310D01*
X124803Y22397D01*
X124772Y22415D01*
X124745Y22438D01*
X124623Y22502D01*
X124505Y22572D01*
X124471Y22582D01*
X124439Y22599D01*
X124306Y22633D01*
X124174Y22674D01*
X124139Y22676D01*
X124104Y22685D01*
X123900Y22699D01*
X114629Y22699D01*
X115132Y24246D01*
X115885Y25725D01*
X116860Y27067D01*
X118033Y28240D01*
X118507Y28584D01*
X118619Y28688D01*
X118734Y28788D01*
X118746Y28804D01*
X118761Y28818D01*
X118847Y28944D01*
X118936Y29069D01*
X118944Y29087D01*
X118955Y29104D01*
X119010Y29247D01*
X119068Y29388D01*
X119071Y29408D01*
X119078Y29427D01*
X119099Y29578D01*
X119123Y29730D01*
X119122Y29750D01*
X119124Y29770D01*
X119110Y29921D01*
X119099Y30074D01*
X119093Y30094D01*
X119091Y30114D01*
X119041Y30259D01*
X118996Y30405D01*
X118986Y30422D01*
X118979Y30441D01*
X118898Y30571D01*
X118820Y30702D01*
X118803Y30722D01*
X118796Y30734D01*
X118774Y30755D01*
X118686Y30857D01*
X115574Y33969D01*
X113899Y38012D01*
X113899Y42388D01*
X115574Y46431D01*
X118282Y49140D01*
X118304Y49168D01*
X118331Y49191D01*
X118412Y49303D01*
X118497Y49411D01*
X118512Y49443D01*
X118533Y49472D01*
X118586Y49599D01*
X118644Y49724D01*
X118651Y49759D01*
X118665Y49791D01*
X118687Y49928D01*
X118715Y50062D01*
X118714Y50098D01*
X118720Y50133D01*
X118710Y50270D01*
X118707Y50408D01*
X118698Y50442D01*
X118696Y50478D01*
X118655Y50609D01*
X118620Y50742D01*
X118604Y50774D01*
X118593Y50808D01*
X118523Y50926D01*
X118459Y51048D01*
X118435Y51075D01*
X118417Y51105D01*
X118282Y51260D01*
X115574Y53969D01*
X113899Y58012D01*
X113899Y62388D01*
X115574Y66431D01*
X118669Y69526D01*
X122712Y71201D01*
X127088Y71201D01*
X131131Y69526D01*
X134226Y66431D01*
X135901Y62388D01*
X135901Y58012D01*
X134226Y53969D01*
X131518Y51260D01*
X131496Y51232D01*
X131469Y51209D01*
X131388Y51097D01*
X131303Y50989D01*
X131288Y50957D01*
X131267Y50928D01*
X131214Y50801D01*
X131156Y50676D01*
X131149Y50641D01*
X131135Y50609D01*
X131113Y50472D01*
X131085Y50338D01*
X131086Y50302D01*
X131080Y50267D01*
X131090Y50130D01*
X131093Y49992D01*
X131102Y49958D01*
X131104Y49922D01*
X131145Y49791D01*
X131180Y49658D01*
X131197Y49626D01*
X131207Y49592D01*
X131277Y49473D01*
X131341Y49352D01*
X131365Y49325D01*
X131383Y49295D01*
X131518Y49140D01*
X134226Y46431D01*
X134352Y46126D01*
X134395Y46050D01*
X134429Y45969D01*
X134479Y45899D01*
X134521Y45824D01*
X134580Y45760D01*
X134631Y45689D01*
X134696Y45632D01*
X134754Y45569D01*
X134826Y45519D01*
X134892Y45462D01*
X134968Y45422D01*
X135039Y45373D01*
X135121Y45342D01*
X135198Y45301D01*
X135281Y45280D01*
X135361Y45249D01*
X135448Y45237D01*
X135533Y45215D01*
X135676Y45205D01*
X135704Y45201D01*
X135716Y45202D01*
X135738Y45201D01*
X164063Y45201D01*
X164149Y45211D01*
X164237Y45211D01*
X164321Y45231D01*
X164406Y45241D01*
X164488Y45270D01*
X164574Y45291D01*
X164650Y45329D01*
X164731Y45358D01*
X164805Y45406D01*
X164883Y45445D01*
X164949Y45500D01*
X165021Y45547D01*
X165081Y45610D01*
X165148Y45666D01*
X165200Y45735D01*
X165259Y45797D01*
X165304Y45873D01*
X165356Y45943D01*
X165420Y46072D01*
X165434Y46095D01*
X165438Y46107D01*
X165448Y46126D01*
X165574Y46431D01*
X168282Y49140D01*
X168304Y49168D01*
X168331Y49191D01*
X168412Y49303D01*
X168497Y49411D01*
X168512Y49443D01*
X168533Y49472D01*
X168586Y49599D01*
X168644Y49724D01*
X168651Y49759D01*
X168665Y49791D01*
X168687Y49928D01*
X168715Y50062D01*
X168714Y50098D01*
X168720Y50133D01*
X168710Y50270D01*
X168707Y50408D01*
X168698Y50442D01*
X168696Y50478D01*
X168655Y50609D01*
X168620Y50742D01*
X168604Y50774D01*
X168593Y50808D01*
X168523Y50926D01*
X168459Y51048D01*
X168435Y51075D01*
X168417Y51105D01*
X168282Y51260D01*
X165574Y53969D01*
X163899Y58012D01*
X163899Y62388D01*
X165574Y66431D01*
X168669Y69526D01*
X172712Y71201D01*
X177088Y71201D01*
X181131Y69526D01*
X184226Y66431D01*
X185901Y62388D01*
X185901Y58012D01*
X184226Y53969D01*
X181518Y51260D01*
X181496Y51232D01*
X181469Y51209D01*
X181388Y51097D01*
X181303Y50989D01*
X181288Y50957D01*
X181267Y50928D01*
X181214Y50801D01*
X181156Y50676D01*
X181149Y50641D01*
X181135Y50609D01*
X181113Y50472D01*
X181085Y50338D01*
X181086Y50302D01*
X181080Y50267D01*
X181090Y50130D01*
X181093Y49992D01*
X181102Y49958D01*
X181104Y49922D01*
X181145Y49791D01*
X181180Y49658D01*
X181197Y49626D01*
X181207Y49592D01*
X181277Y49473D01*
X181341Y49352D01*
X181365Y49325D01*
X181383Y49295D01*
X181518Y49140D01*
X184226Y46431D01*
X184559Y45626D01*
X184602Y45550D01*
X184636Y45469D01*
X184686Y45399D01*
X184728Y45324D01*
X184787Y45259D01*
X184838Y45189D01*
X184903Y45132D01*
X184961Y45069D01*
X185033Y45019D01*
X185099Y44962D01*
X185175Y44922D01*
X185246Y44873D01*
X185328Y44842D01*
X185405Y44801D01*
X185488Y44780D01*
X185568Y44749D01*
X185655Y44737D01*
X185740Y44715D01*
X185883Y44705D01*
X185911Y44701D01*
X185923Y44702D01*
X185945Y44701D01*
X277715Y44701D01*
X277853Y44717D01*
X277992Y44727D01*
X278025Y44737D01*
X278058Y44741D01*
X278189Y44788D01*
X278322Y44829D01*
X278352Y44847D01*
X278383Y44858D01*
X278500Y44934D01*
X278620Y45005D01*
X278654Y45035D01*
X278673Y45047D01*
X278696Y45071D01*
X278775Y45140D01*
X305060Y71425D01*
X305147Y71534D01*
X305238Y71640D01*
X305254Y71670D01*
X305275Y71696D01*
X305334Y71822D01*
X305399Y71946D01*
X305407Y71979D01*
X305422Y72009D01*
X305450Y72145D01*
X305485Y72281D01*
X305488Y72326D01*
X305493Y72348D01*
X305492Y72381D01*
X305499Y72485D01*
X305499Y184652D01*
X305483Y184790D01*
X305473Y184930D01*
X305463Y184962D01*
X305459Y184996D01*
X305412Y185127D01*
X305371Y185260D01*
X305353Y185289D01*
X305342Y185321D01*
X305266Y185438D01*
X305195Y185558D01*
X305165Y185592D01*
X305153Y185611D01*
X305129Y185634D01*
X305060Y185712D01*
X304469Y186304D01*
X303475Y188702D01*
X303475Y191298D01*
X304469Y193696D01*
X306304Y195531D01*
X308702Y196525D01*
X311298Y196525D01*
X313696Y195531D01*
X315531Y193696D01*
X316525Y191298D01*
X316525Y188702D01*
X315531Y186304D01*
X314940Y185712D01*
X314853Y185603D01*
X314762Y185498D01*
X314746Y185468D01*
X314725Y185441D01*
X314666Y185315D01*
X314601Y185192D01*
X314593Y185159D01*
X314578Y185128D01*
X314550Y184992D01*
X314515Y184857D01*
X314512Y184812D01*
X314507Y184790D01*
X314508Y184756D01*
X314501Y184652D01*
X314501Y68136D01*
X282064Y35699D01*
X185945Y35699D01*
X185858Y35689D01*
X185770Y35689D01*
X185686Y35669D01*
X185601Y35659D01*
X185519Y35630D01*
X185434Y35610D01*
X185357Y35571D01*
X185276Y35542D01*
X185203Y35494D01*
X185124Y35455D01*
X185058Y35400D01*
X184986Y35353D01*
X184926Y35290D01*
X184859Y35234D01*
X184807Y35165D01*
X184748Y35103D01*
X184703Y35027D01*
X184651Y34957D01*
X184587Y34829D01*
X184573Y34805D01*
X184569Y34793D01*
X184559Y34774D01*
X184226Y33969D01*
X181114Y30857D01*
X181020Y30738D01*
X180921Y30620D01*
X180912Y30602D01*
X180900Y30586D01*
X180835Y30448D01*
X180766Y30311D01*
X180762Y30291D01*
X180753Y30273D01*
X180721Y30123D01*
X180686Y29975D01*
X180686Y29955D01*
X180682Y29935D01*
X180685Y29781D01*
X180685Y29629D01*
X180689Y29609D01*
X180690Y29589D01*
X180728Y29440D01*
X180763Y29292D01*
X180772Y29274D01*
X180777Y29254D01*
X180848Y29119D01*
X180916Y28982D01*
X180929Y28967D01*
X180938Y28949D01*
X181039Y28834D01*
X181136Y28716D01*
X181156Y28699D01*
X181165Y28688D01*
X181190Y28671D01*
X181293Y28584D01*
X181767Y28240D01*
X182940Y27067D01*
X183915Y25725D01*
X184668Y24246D01*
X185171Y22699D01*
X175900Y22699D01*
X175865Y22695D01*
X175830Y22698D01*
X175694Y22675D01*
X175557Y22659D01*
X175523Y22647D01*
X175488Y22642D01*
X175361Y22589D01*
X175232Y22542D01*
X175202Y22523D01*
X175169Y22509D01*
X175057Y22428D01*
X174942Y22353D01*
X174918Y22327D01*
X174894Y22310D01*
X174803Y22397D01*
G37*
%LPD*%
%LPC*%
G36*
X156602Y588275D02*
X156602Y588275D01*
X154204Y589269D01*
X152369Y591104D01*
X151375Y593502D01*
X151375Y596098D01*
X152369Y598496D01*
X154204Y600331D01*
X156602Y601325D01*
X159198Y601325D01*
X161395Y600415D01*
X161412Y600410D01*
X161429Y600401D01*
X161579Y600362D01*
X161727Y600320D01*
X161746Y600319D01*
X161764Y600315D01*
X161968Y600301D01*
X200201Y600301D01*
X200339Y600317D01*
X200478Y600327D01*
X200510Y600337D01*
X200544Y600341D01*
X200675Y600388D01*
X200808Y600429D01*
X200837Y600447D01*
X200869Y600458D01*
X200986Y600534D01*
X201106Y600605D01*
X201140Y600635D01*
X201159Y600647D01*
X201182Y600671D01*
X201261Y600740D01*
X253284Y652763D01*
X255306Y653601D01*
X319801Y653601D01*
X319939Y653617D01*
X320078Y653627D01*
X320110Y653637D01*
X320144Y653641D01*
X320275Y653688D01*
X320408Y653729D01*
X320437Y653747D01*
X320469Y653758D01*
X320586Y653834D01*
X320706Y653905D01*
X320740Y653935D01*
X320759Y653947D01*
X320782Y653971D01*
X320861Y654040D01*
X339674Y672853D01*
X341696Y673691D01*
X350522Y673691D01*
X350660Y673707D01*
X350800Y673717D01*
X350832Y673727D01*
X350866Y673731D01*
X350997Y673778D01*
X351130Y673819D01*
X351159Y673837D01*
X351191Y673848D01*
X351308Y673924D01*
X351428Y673995D01*
X351462Y674025D01*
X351480Y674037D01*
X351504Y674061D01*
X351582Y674130D01*
X353782Y676329D01*
X357344Y677805D01*
X357436Y677856D01*
X357531Y677898D01*
X357586Y677939D01*
X357647Y677973D01*
X357724Y678043D01*
X357807Y678106D01*
X357851Y678160D01*
X357902Y678206D01*
X357961Y678292D01*
X358027Y678372D01*
X358058Y678434D01*
X358097Y678491D01*
X358135Y678589D01*
X358181Y678682D01*
X358197Y678749D01*
X358222Y678814D01*
X358236Y678917D01*
X358260Y679019D01*
X358260Y679088D01*
X358270Y679156D01*
X358260Y679260D01*
X358260Y679364D01*
X358244Y679432D01*
X358237Y679501D01*
X358204Y679599D01*
X358180Y679701D01*
X358149Y679763D01*
X358127Y679828D01*
X358072Y679917D01*
X358026Y680010D01*
X357982Y680063D01*
X357945Y680122D01*
X357871Y680196D01*
X357804Y680276D01*
X357749Y680317D01*
X357700Y680366D01*
X357612Y680421D01*
X357528Y680484D01*
X357435Y680530D01*
X357406Y680548D01*
X357385Y680555D01*
X357344Y680575D01*
X353782Y682051D01*
X351081Y684752D01*
X349619Y688280D01*
X349619Y692100D01*
X351081Y695628D01*
X353782Y698329D01*
X357344Y699805D01*
X357436Y699856D01*
X357531Y699898D01*
X357586Y699939D01*
X357647Y699973D01*
X357724Y700043D01*
X357807Y700106D01*
X357851Y700160D01*
X357902Y700206D01*
X357961Y700292D01*
X358027Y700372D01*
X358058Y700434D01*
X358097Y700491D01*
X358135Y700589D01*
X358181Y700682D01*
X358197Y700749D01*
X358222Y700814D01*
X358236Y700917D01*
X358260Y701019D01*
X358260Y701088D01*
X358270Y701156D01*
X358260Y701260D01*
X358260Y701364D01*
X358244Y701432D01*
X358237Y701501D01*
X358204Y701599D01*
X358180Y701701D01*
X358149Y701763D01*
X358127Y701828D01*
X358072Y701917D01*
X358026Y702010D01*
X357982Y702063D01*
X357945Y702122D01*
X357871Y702196D01*
X357804Y702276D01*
X357749Y702317D01*
X357700Y702366D01*
X357612Y702421D01*
X357528Y702484D01*
X357435Y702530D01*
X357406Y702548D01*
X357385Y702555D01*
X357344Y702575D01*
X353782Y704051D01*
X351081Y706752D01*
X349619Y710280D01*
X349619Y714100D01*
X351081Y717628D01*
X353782Y720329D01*
X357310Y721791D01*
X361130Y721791D01*
X364658Y720329D01*
X367359Y717628D01*
X368821Y714100D01*
X368821Y710280D01*
X367359Y706752D01*
X364658Y704051D01*
X361096Y702575D01*
X361004Y702524D01*
X360909Y702482D01*
X360854Y702440D01*
X360793Y702407D01*
X360716Y702337D01*
X360633Y702274D01*
X360589Y702220D01*
X360538Y702174D01*
X360479Y702088D01*
X360413Y702008D01*
X360382Y701946D01*
X360343Y701889D01*
X360305Y701791D01*
X360259Y701698D01*
X360243Y701631D01*
X360218Y701566D01*
X360204Y701463D01*
X360180Y701361D01*
X360180Y701292D01*
X360170Y701224D01*
X360180Y701120D01*
X360180Y701015D01*
X360196Y700948D01*
X360203Y700879D01*
X360236Y700781D01*
X360260Y700679D01*
X360291Y700617D01*
X360313Y700552D01*
X360368Y700463D01*
X360414Y700370D01*
X360459Y700317D01*
X360495Y700258D01*
X360569Y700184D01*
X360636Y700104D01*
X360691Y700063D01*
X360740Y700014D01*
X360829Y699959D01*
X360912Y699896D01*
X361005Y699850D01*
X361034Y699832D01*
X361055Y699825D01*
X361096Y699805D01*
X364658Y698329D01*
X367359Y695628D01*
X368821Y692100D01*
X368821Y688280D01*
X367359Y684752D01*
X364658Y682051D01*
X361096Y680575D01*
X361060Y680556D01*
X361039Y680548D01*
X361001Y680523D01*
X360909Y680482D01*
X360854Y680440D01*
X360793Y680407D01*
X360716Y680337D01*
X360633Y680274D01*
X360589Y680220D01*
X360538Y680174D01*
X360479Y680088D01*
X360413Y680008D01*
X360382Y679945D01*
X360343Y679889D01*
X360305Y679791D01*
X360259Y679698D01*
X360243Y679631D01*
X360218Y679566D01*
X360204Y679463D01*
X360180Y679361D01*
X360180Y679292D01*
X360170Y679224D01*
X360180Y679120D01*
X360180Y679015D01*
X360196Y678948D01*
X360203Y678879D01*
X360236Y678781D01*
X360260Y678679D01*
X360291Y678617D01*
X360313Y678552D01*
X360368Y678463D01*
X360414Y678370D01*
X360459Y678317D01*
X360495Y678258D01*
X360569Y678184D01*
X360636Y678104D01*
X360691Y678063D01*
X360740Y678014D01*
X360829Y677959D01*
X360912Y677896D01*
X361005Y677850D01*
X361034Y677832D01*
X361055Y677825D01*
X361096Y677805D01*
X364658Y676329D01*
X367359Y673628D01*
X368821Y670100D01*
X368821Y666280D01*
X367359Y662752D01*
X364658Y660051D01*
X361130Y658589D01*
X357310Y658589D01*
X353782Y660051D01*
X351582Y662250D01*
X351473Y662337D01*
X351368Y662428D01*
X351338Y662444D01*
X351311Y662465D01*
X351185Y662524D01*
X351062Y662589D01*
X351029Y662597D01*
X350998Y662612D01*
X350862Y662640D01*
X350727Y662675D01*
X350682Y662678D01*
X350660Y662683D01*
X350626Y662682D01*
X350522Y662689D01*
X345689Y662689D01*
X345551Y662673D01*
X345412Y662663D01*
X345380Y662653D01*
X345346Y662649D01*
X345215Y662602D01*
X345082Y662561D01*
X345053Y662543D01*
X345021Y662532D01*
X344904Y662456D01*
X344784Y662385D01*
X344750Y662355D01*
X344731Y662343D01*
X344708Y662319D01*
X344629Y662250D01*
X325816Y643437D01*
X323794Y642599D01*
X318401Y642599D01*
X318246Y642581D01*
X318090Y642567D01*
X318074Y642561D01*
X318057Y642559D01*
X317911Y642506D01*
X317762Y642457D01*
X317748Y642448D01*
X317732Y642442D01*
X317601Y642357D01*
X317469Y642274D01*
X317457Y642262D01*
X317443Y642253D01*
X317335Y642140D01*
X317224Y642030D01*
X317215Y642015D01*
X317204Y642003D01*
X317125Y641869D01*
X317043Y641735D01*
X317037Y641719D01*
X317029Y641705D01*
X316983Y641556D01*
X316933Y641407D01*
X316932Y641391D01*
X316927Y641374D01*
X316916Y641218D01*
X316902Y641063D01*
X316904Y641046D01*
X316903Y641029D01*
X316929Y640875D01*
X316950Y640721D01*
X316957Y640700D01*
X316959Y640688D01*
X316970Y640663D01*
X317016Y640526D01*
X318021Y638100D01*
X318021Y634280D01*
X316559Y630752D01*
X313858Y628051D01*
X310330Y626589D01*
X306510Y626589D01*
X302982Y628051D01*
X300281Y630752D01*
X298819Y634280D01*
X298819Y638100D01*
X299824Y640526D01*
X299867Y640676D01*
X299913Y640826D01*
X299914Y640843D01*
X299919Y640859D01*
X299926Y641014D01*
X299937Y641171D01*
X299934Y641187D01*
X299935Y641204D01*
X299906Y641358D01*
X299881Y641512D01*
X299874Y641527D01*
X299871Y641544D01*
X299808Y641687D01*
X299748Y641831D01*
X299738Y641845D01*
X299731Y641860D01*
X299637Y641985D01*
X299546Y642111D01*
X299533Y642123D01*
X299523Y642136D01*
X299403Y642236D01*
X299285Y642338D01*
X299270Y642346D01*
X299257Y642357D01*
X299117Y642426D01*
X298979Y642499D01*
X298962Y642503D01*
X298947Y642511D01*
X298796Y642546D01*
X298644Y642585D01*
X298622Y642587D01*
X298611Y642589D01*
X298583Y642589D01*
X298439Y642599D01*
X259299Y642599D01*
X259161Y642583D01*
X259022Y642573D01*
X258990Y642563D01*
X258956Y642559D01*
X258825Y642512D01*
X258692Y642471D01*
X258663Y642453D01*
X258631Y642442D01*
X258514Y642366D01*
X258394Y642295D01*
X258360Y642265D01*
X258341Y642253D01*
X258318Y642229D01*
X258239Y642160D01*
X206216Y590137D01*
X204194Y589299D01*
X161968Y589299D01*
X161950Y589297D01*
X161931Y589299D01*
X161778Y589277D01*
X161625Y589259D01*
X161607Y589253D01*
X161589Y589251D01*
X161395Y589185D01*
X159198Y588275D01*
X156602Y588275D01*
G37*
%LPD*%
%LPC*%
G36*
X434460Y707049D02*
X434460Y707049D01*
X430877Y708534D01*
X428250Y711160D01*
X428168Y711225D01*
X428093Y711297D01*
X428033Y711332D01*
X427979Y711375D01*
X427885Y711419D01*
X427795Y711472D01*
X427729Y711492D01*
X427666Y711522D01*
X427564Y711543D01*
X427464Y711574D01*
X427395Y711579D01*
X427328Y711593D01*
X427224Y711591D01*
X427119Y711598D01*
X427051Y711587D01*
X426982Y711585D01*
X426881Y711559D01*
X426778Y711542D01*
X426714Y711515D01*
X426648Y711498D01*
X426555Y711449D01*
X426459Y711409D01*
X426403Y711369D01*
X426342Y711336D01*
X426263Y711268D01*
X426179Y711207D01*
X426133Y711155D01*
X426081Y711109D01*
X426020Y711025D01*
X425952Y710946D01*
X425920Y710884D01*
X425879Y710828D01*
X425840Y710732D01*
X425791Y710640D01*
X425774Y710573D01*
X425748Y710509D01*
X425731Y710406D01*
X425705Y710305D01*
X425698Y710201D01*
X425692Y710168D01*
X425694Y710145D01*
X425691Y710100D01*
X425691Y709715D01*
X425518Y709069D01*
X425183Y708490D01*
X424710Y708017D01*
X424131Y707682D01*
X423485Y707509D01*
X418649Y707509D01*
X418649Y716050D01*
X418645Y716085D01*
X418648Y716120D01*
X418625Y716256D01*
X418609Y716393D01*
X418597Y716427D01*
X418592Y716462D01*
X418539Y716589D01*
X418492Y716718D01*
X418473Y716748D01*
X418459Y716781D01*
X418441Y716806D01*
X418452Y716827D01*
X418522Y716945D01*
X418532Y716979D01*
X418549Y717011D01*
X418583Y717144D01*
X418624Y717276D01*
X418626Y717311D01*
X418635Y717346D01*
X418649Y717550D01*
X418649Y726091D01*
X423485Y726091D01*
X424131Y725918D01*
X424710Y725583D01*
X425183Y725110D01*
X425518Y724531D01*
X425691Y723885D01*
X425691Y723500D01*
X425703Y723396D01*
X425705Y723292D01*
X425723Y723225D01*
X425731Y723156D01*
X425766Y723058D01*
X425792Y722957D01*
X425825Y722896D01*
X425848Y722831D01*
X425905Y722744D01*
X425954Y722652D01*
X425999Y722600D01*
X426037Y722542D01*
X426112Y722470D01*
X426181Y722391D01*
X426237Y722351D01*
X426287Y722303D01*
X426377Y722250D01*
X426462Y722189D01*
X426526Y722163D01*
X426585Y722128D01*
X426685Y722097D01*
X426781Y722057D01*
X426850Y722046D01*
X426916Y722026D01*
X427020Y722019D01*
X427123Y722002D01*
X427192Y722007D01*
X427261Y722002D01*
X427363Y722019D01*
X427468Y722026D01*
X427534Y722047D01*
X427602Y722058D01*
X427698Y722098D01*
X427798Y722129D01*
X427857Y722164D01*
X427921Y722191D01*
X428006Y722252D01*
X428095Y722305D01*
X428174Y722373D01*
X428201Y722393D01*
X428216Y722410D01*
X428250Y722440D01*
X430877Y725066D01*
X434460Y726551D01*
X438340Y726551D01*
X441923Y725066D01*
X444666Y722323D01*
X445015Y721482D01*
X445066Y721391D01*
X445108Y721295D01*
X445149Y721240D01*
X445183Y721180D01*
X445253Y721103D01*
X445316Y721019D01*
X445370Y720975D01*
X445416Y720924D01*
X445502Y720865D01*
X445582Y720799D01*
X445644Y720768D01*
X445701Y720729D01*
X445799Y720691D01*
X445892Y720645D01*
X445959Y720629D01*
X446024Y720604D01*
X446127Y720590D01*
X446229Y720566D01*
X446298Y720566D01*
X446366Y720557D01*
X446470Y720566D01*
X446574Y720566D01*
X446642Y720582D01*
X446711Y720589D01*
X446809Y720622D01*
X446911Y720646D01*
X446973Y720677D01*
X447038Y720699D01*
X447127Y720754D01*
X447220Y720800D01*
X447273Y720845D01*
X447332Y720881D01*
X447406Y720955D01*
X447486Y721022D01*
X447527Y721077D01*
X447576Y721126D01*
X447631Y721215D01*
X447694Y721298D01*
X447740Y721391D01*
X447758Y721420D01*
X447765Y721441D01*
X447785Y721482D01*
X448134Y722323D01*
X450877Y725066D01*
X454460Y726551D01*
X458340Y726551D01*
X461923Y725066D01*
X464666Y722323D01*
X465015Y721482D01*
X465066Y721391D01*
X465108Y721295D01*
X465149Y721240D01*
X465183Y721180D01*
X465253Y721103D01*
X465316Y721019D01*
X465370Y720975D01*
X465416Y720924D01*
X465502Y720865D01*
X465582Y720799D01*
X465644Y720768D01*
X465701Y720729D01*
X465799Y720691D01*
X465892Y720645D01*
X465959Y720629D01*
X466024Y720604D01*
X466127Y720590D01*
X466229Y720566D01*
X466298Y720566D01*
X466366Y720557D01*
X466470Y720566D01*
X466574Y720566D01*
X466642Y720582D01*
X466711Y720589D01*
X466809Y720622D01*
X466911Y720646D01*
X466973Y720677D01*
X467038Y720699D01*
X467127Y720754D01*
X467220Y720800D01*
X467273Y720845D01*
X467332Y720881D01*
X467406Y720955D01*
X467486Y721022D01*
X467527Y721077D01*
X467576Y721126D01*
X467631Y721215D01*
X467694Y721298D01*
X467740Y721391D01*
X467758Y721420D01*
X467765Y721441D01*
X467785Y721482D01*
X468134Y722323D01*
X470877Y725066D01*
X474460Y726551D01*
X478340Y726551D01*
X481923Y725066D01*
X484666Y722323D01*
X485015Y721482D01*
X485066Y721391D01*
X485108Y721295D01*
X485149Y721240D01*
X485183Y721180D01*
X485253Y721103D01*
X485316Y721019D01*
X485370Y720975D01*
X485416Y720924D01*
X485502Y720865D01*
X485582Y720799D01*
X485644Y720768D01*
X485701Y720729D01*
X485799Y720691D01*
X485892Y720645D01*
X485959Y720629D01*
X486024Y720604D01*
X486127Y720590D01*
X486229Y720566D01*
X486298Y720566D01*
X486366Y720557D01*
X486470Y720566D01*
X486574Y720566D01*
X486642Y720582D01*
X486711Y720589D01*
X486809Y720622D01*
X486911Y720646D01*
X486973Y720677D01*
X487038Y720699D01*
X487127Y720754D01*
X487220Y720800D01*
X487273Y720845D01*
X487332Y720881D01*
X487406Y720955D01*
X487486Y721022D01*
X487527Y721077D01*
X487576Y721126D01*
X487631Y721215D01*
X487694Y721298D01*
X487740Y721391D01*
X487758Y721420D01*
X487765Y721441D01*
X487785Y721482D01*
X488134Y722323D01*
X490877Y725066D01*
X494460Y726551D01*
X498340Y726551D01*
X501923Y725066D01*
X504666Y722323D01*
X505015Y721482D01*
X505066Y721391D01*
X505108Y721295D01*
X505149Y721240D01*
X505183Y721180D01*
X505253Y721103D01*
X505316Y721019D01*
X505370Y720975D01*
X505416Y720924D01*
X505502Y720865D01*
X505582Y720799D01*
X505644Y720768D01*
X505701Y720729D01*
X505799Y720691D01*
X505892Y720645D01*
X505959Y720629D01*
X506024Y720604D01*
X506127Y720590D01*
X506229Y720566D01*
X506298Y720566D01*
X506366Y720557D01*
X506470Y720566D01*
X506574Y720566D01*
X506642Y720582D01*
X506711Y720589D01*
X506809Y720622D01*
X506911Y720646D01*
X506973Y720677D01*
X507038Y720699D01*
X507127Y720754D01*
X507220Y720800D01*
X507273Y720845D01*
X507332Y720881D01*
X507406Y720955D01*
X507486Y721022D01*
X507527Y721077D01*
X507576Y721126D01*
X507631Y721215D01*
X507694Y721298D01*
X507740Y721391D01*
X507758Y721420D01*
X507765Y721441D01*
X507785Y721482D01*
X508134Y722323D01*
X510877Y725066D01*
X514460Y726551D01*
X518340Y726551D01*
X521923Y725066D01*
X524666Y722323D01*
X525015Y721482D01*
X525066Y721391D01*
X525108Y721295D01*
X525149Y721240D01*
X525183Y721180D01*
X525253Y721103D01*
X525316Y721019D01*
X525370Y720975D01*
X525416Y720924D01*
X525502Y720865D01*
X525582Y720799D01*
X525644Y720768D01*
X525701Y720729D01*
X525799Y720691D01*
X525892Y720645D01*
X525959Y720629D01*
X526024Y720604D01*
X526127Y720590D01*
X526229Y720566D01*
X526298Y720566D01*
X526366Y720557D01*
X526470Y720566D01*
X526574Y720566D01*
X526642Y720582D01*
X526711Y720589D01*
X526809Y720622D01*
X526911Y720646D01*
X526973Y720677D01*
X527038Y720699D01*
X527127Y720754D01*
X527220Y720800D01*
X527273Y720845D01*
X527332Y720881D01*
X527406Y720955D01*
X527486Y721022D01*
X527527Y721077D01*
X527576Y721126D01*
X527631Y721215D01*
X527694Y721298D01*
X527740Y721391D01*
X527758Y721420D01*
X527765Y721441D01*
X527785Y721482D01*
X528134Y722323D01*
X530877Y725066D01*
X534460Y726551D01*
X538340Y726551D01*
X541923Y725066D01*
X544666Y722323D01*
X545015Y721482D01*
X545066Y721391D01*
X545108Y721295D01*
X545149Y721240D01*
X545183Y721180D01*
X545253Y721103D01*
X545316Y721019D01*
X545370Y720975D01*
X545416Y720924D01*
X545502Y720865D01*
X545582Y720799D01*
X545644Y720768D01*
X545701Y720729D01*
X545799Y720691D01*
X545892Y720645D01*
X545959Y720629D01*
X546024Y720604D01*
X546127Y720590D01*
X546229Y720566D01*
X546298Y720566D01*
X546366Y720557D01*
X546470Y720566D01*
X546574Y720566D01*
X546642Y720582D01*
X546711Y720589D01*
X546809Y720622D01*
X546911Y720646D01*
X546973Y720677D01*
X547038Y720699D01*
X547127Y720754D01*
X547220Y720800D01*
X547273Y720845D01*
X547332Y720881D01*
X547406Y720955D01*
X547486Y721022D01*
X547527Y721077D01*
X547576Y721126D01*
X547631Y721215D01*
X547694Y721298D01*
X547740Y721391D01*
X547758Y721420D01*
X547765Y721441D01*
X547785Y721482D01*
X548134Y722323D01*
X550877Y725066D01*
X554460Y726551D01*
X558340Y726551D01*
X561923Y725066D01*
X564666Y722323D01*
X565015Y721482D01*
X565066Y721391D01*
X565108Y721295D01*
X565149Y721240D01*
X565183Y721180D01*
X565253Y721103D01*
X565316Y721019D01*
X565370Y720975D01*
X565416Y720924D01*
X565502Y720865D01*
X565582Y720799D01*
X565644Y720768D01*
X565701Y720729D01*
X565799Y720691D01*
X565892Y720645D01*
X565959Y720629D01*
X566024Y720604D01*
X566127Y720590D01*
X566229Y720566D01*
X566298Y720566D01*
X566366Y720557D01*
X566470Y720566D01*
X566574Y720566D01*
X566642Y720582D01*
X566711Y720589D01*
X566809Y720622D01*
X566911Y720646D01*
X566973Y720677D01*
X567038Y720699D01*
X567127Y720754D01*
X567220Y720800D01*
X567273Y720845D01*
X567332Y720881D01*
X567406Y720955D01*
X567486Y721022D01*
X567527Y721077D01*
X567576Y721126D01*
X567631Y721215D01*
X567694Y721298D01*
X567740Y721391D01*
X567758Y721420D01*
X567765Y721441D01*
X567785Y721482D01*
X568134Y722323D01*
X570877Y725066D01*
X574460Y726551D01*
X578340Y726551D01*
X581923Y725066D01*
X584666Y722323D01*
X585015Y721482D01*
X585066Y721391D01*
X585108Y721295D01*
X585149Y721240D01*
X585183Y721180D01*
X585253Y721103D01*
X585316Y721019D01*
X585370Y720975D01*
X585416Y720924D01*
X585502Y720865D01*
X585582Y720799D01*
X585644Y720768D01*
X585701Y720729D01*
X585799Y720691D01*
X585892Y720645D01*
X585959Y720629D01*
X586024Y720604D01*
X586127Y720590D01*
X586229Y720566D01*
X586298Y720566D01*
X586366Y720557D01*
X586470Y720566D01*
X586574Y720566D01*
X586642Y720582D01*
X586711Y720589D01*
X586809Y720622D01*
X586911Y720646D01*
X586973Y720677D01*
X587038Y720699D01*
X587127Y720754D01*
X587220Y720800D01*
X587273Y720845D01*
X587332Y720881D01*
X587406Y720955D01*
X587486Y721022D01*
X587527Y721077D01*
X587576Y721126D01*
X587631Y721215D01*
X587694Y721298D01*
X587740Y721391D01*
X587758Y721420D01*
X587765Y721441D01*
X587785Y721482D01*
X588134Y722323D01*
X590877Y725066D01*
X594460Y726551D01*
X598340Y726551D01*
X601923Y725066D01*
X604666Y722323D01*
X605015Y721482D01*
X605066Y721391D01*
X605108Y721295D01*
X605150Y721240D01*
X605183Y721180D01*
X605253Y721103D01*
X605316Y721019D01*
X605370Y720975D01*
X605416Y720924D01*
X605502Y720865D01*
X605583Y720799D01*
X605644Y720768D01*
X605701Y720729D01*
X605799Y720691D01*
X605892Y720645D01*
X605959Y720629D01*
X606024Y720604D01*
X606127Y720590D01*
X606229Y720566D01*
X606298Y720566D01*
X606366Y720557D01*
X606470Y720566D01*
X606575Y720566D01*
X606642Y720582D01*
X606711Y720589D01*
X606809Y720622D01*
X606911Y720646D01*
X606973Y720677D01*
X607038Y720699D01*
X607127Y720754D01*
X607220Y720800D01*
X607273Y720845D01*
X607332Y720881D01*
X607406Y720955D01*
X607486Y721022D01*
X607528Y721077D01*
X607576Y721126D01*
X607631Y721215D01*
X607694Y721298D01*
X607740Y721391D01*
X607758Y721420D01*
X607765Y721441D01*
X607785Y721482D01*
X608134Y722323D01*
X610877Y725066D01*
X614460Y726551D01*
X618340Y726551D01*
X621923Y725066D01*
X624666Y722323D01*
X626151Y718740D01*
X626151Y714860D01*
X624666Y711277D01*
X621923Y708534D01*
X618340Y707049D01*
X614460Y707049D01*
X610877Y708534D01*
X608134Y711277D01*
X607785Y712118D01*
X607734Y712209D01*
X607692Y712305D01*
X607651Y712360D01*
X607617Y712420D01*
X607547Y712497D01*
X607484Y712581D01*
X607430Y712625D01*
X607384Y712676D01*
X607298Y712735D01*
X607218Y712801D01*
X607156Y712832D01*
X607099Y712871D01*
X607001Y712909D01*
X606908Y712955D01*
X606841Y712971D01*
X606776Y712996D01*
X606673Y713010D01*
X606571Y713034D01*
X606502Y713034D01*
X606434Y713043D01*
X606330Y713034D01*
X606226Y713034D01*
X606158Y713018D01*
X606089Y713011D01*
X605991Y712978D01*
X605889Y712954D01*
X605827Y712923D01*
X605762Y712901D01*
X605673Y712846D01*
X605580Y712800D01*
X605527Y712755D01*
X605468Y712719D01*
X605394Y712645D01*
X605314Y712578D01*
X605273Y712523D01*
X605224Y712474D01*
X605169Y712385D01*
X605106Y712302D01*
X605060Y712209D01*
X605042Y712180D01*
X605035Y712159D01*
X605015Y712118D01*
X604666Y711277D01*
X601923Y708534D01*
X598340Y707049D01*
X594460Y707049D01*
X590877Y708534D01*
X588134Y711277D01*
X587785Y712118D01*
X587734Y712209D01*
X587692Y712305D01*
X587650Y712360D01*
X587617Y712420D01*
X587547Y712497D01*
X587484Y712581D01*
X587430Y712625D01*
X587384Y712676D01*
X587298Y712735D01*
X587217Y712801D01*
X587156Y712832D01*
X587099Y712871D01*
X587001Y712909D01*
X586908Y712955D01*
X586841Y712971D01*
X586776Y712996D01*
X586673Y713010D01*
X586571Y713034D01*
X586502Y713034D01*
X586434Y713043D01*
X586330Y713034D01*
X586225Y713034D01*
X586158Y713018D01*
X586089Y713011D01*
X585991Y712978D01*
X585889Y712954D01*
X585827Y712923D01*
X585762Y712901D01*
X585673Y712846D01*
X585580Y712800D01*
X585527Y712755D01*
X585468Y712719D01*
X585394Y712645D01*
X585314Y712578D01*
X585272Y712523D01*
X585224Y712474D01*
X585169Y712385D01*
X585106Y712302D01*
X585060Y712209D01*
X585042Y712180D01*
X585035Y712159D01*
X585015Y712118D01*
X584666Y711277D01*
X581923Y708534D01*
X578340Y707049D01*
X574460Y707049D01*
X570877Y708534D01*
X568134Y711277D01*
X567785Y712118D01*
X567734Y712209D01*
X567692Y712305D01*
X567650Y712360D01*
X567617Y712420D01*
X567547Y712497D01*
X567484Y712581D01*
X567430Y712625D01*
X567384Y712676D01*
X567298Y712735D01*
X567217Y712801D01*
X567156Y712832D01*
X567099Y712871D01*
X567001Y712909D01*
X566908Y712955D01*
X566841Y712971D01*
X566776Y712996D01*
X566673Y713010D01*
X566571Y713034D01*
X566502Y713034D01*
X566434Y713043D01*
X566330Y713034D01*
X566225Y713034D01*
X566158Y713018D01*
X566089Y713011D01*
X565991Y712978D01*
X565889Y712954D01*
X565827Y712923D01*
X565762Y712901D01*
X565673Y712846D01*
X565580Y712800D01*
X565527Y712755D01*
X565468Y712719D01*
X565394Y712645D01*
X565314Y712578D01*
X565272Y712523D01*
X565224Y712474D01*
X565169Y712385D01*
X565106Y712302D01*
X565060Y712209D01*
X565042Y712180D01*
X565035Y712159D01*
X565015Y712118D01*
X564666Y711277D01*
X561923Y708534D01*
X558340Y707049D01*
X554460Y707049D01*
X550877Y708534D01*
X548134Y711277D01*
X547785Y712118D01*
X547734Y712209D01*
X547692Y712305D01*
X547650Y712360D01*
X547617Y712420D01*
X547547Y712497D01*
X547484Y712581D01*
X547430Y712625D01*
X547384Y712676D01*
X547298Y712735D01*
X547217Y712801D01*
X547156Y712832D01*
X547099Y712871D01*
X547001Y712909D01*
X546908Y712955D01*
X546841Y712971D01*
X546776Y712996D01*
X546673Y713010D01*
X546571Y713034D01*
X546502Y713034D01*
X546434Y713043D01*
X546330Y713034D01*
X546225Y713034D01*
X546158Y713018D01*
X546089Y713011D01*
X545991Y712978D01*
X545889Y712954D01*
X545827Y712923D01*
X545762Y712901D01*
X545673Y712846D01*
X545580Y712800D01*
X545527Y712755D01*
X545468Y712719D01*
X545394Y712645D01*
X545314Y712578D01*
X545272Y712523D01*
X545224Y712474D01*
X545169Y712385D01*
X545106Y712302D01*
X545060Y712209D01*
X545042Y712180D01*
X545035Y712159D01*
X545015Y712118D01*
X544666Y711277D01*
X541923Y708534D01*
X538340Y707049D01*
X534460Y707049D01*
X530877Y708534D01*
X528134Y711277D01*
X527785Y712118D01*
X527734Y712209D01*
X527692Y712305D01*
X527650Y712360D01*
X527617Y712420D01*
X527547Y712497D01*
X527484Y712581D01*
X527430Y712625D01*
X527384Y712676D01*
X527298Y712735D01*
X527217Y712801D01*
X527156Y712832D01*
X527099Y712871D01*
X527001Y712909D01*
X526908Y712955D01*
X526841Y712971D01*
X526776Y712996D01*
X526673Y713010D01*
X526571Y713034D01*
X526502Y713034D01*
X526434Y713043D01*
X526330Y713034D01*
X526225Y713034D01*
X526158Y713018D01*
X526089Y713011D01*
X525991Y712978D01*
X525889Y712954D01*
X525827Y712923D01*
X525762Y712901D01*
X525673Y712846D01*
X525580Y712800D01*
X525527Y712755D01*
X525468Y712719D01*
X525394Y712645D01*
X525314Y712578D01*
X525272Y712523D01*
X525224Y712474D01*
X525169Y712385D01*
X525106Y712302D01*
X525060Y712209D01*
X525042Y712180D01*
X525035Y712159D01*
X525015Y712118D01*
X524666Y711277D01*
X521923Y708534D01*
X518340Y707049D01*
X514460Y707049D01*
X510877Y708534D01*
X508134Y711277D01*
X507785Y712118D01*
X507734Y712209D01*
X507692Y712305D01*
X507650Y712360D01*
X507617Y712420D01*
X507547Y712497D01*
X507484Y712581D01*
X507430Y712625D01*
X507384Y712676D01*
X507298Y712735D01*
X507217Y712801D01*
X507156Y712832D01*
X507099Y712871D01*
X507001Y712909D01*
X506908Y712955D01*
X506841Y712971D01*
X506776Y712996D01*
X506673Y713010D01*
X506571Y713034D01*
X506502Y713034D01*
X506434Y713043D01*
X506330Y713034D01*
X506225Y713034D01*
X506158Y713018D01*
X506089Y713011D01*
X505991Y712978D01*
X505889Y712954D01*
X505827Y712923D01*
X505762Y712901D01*
X505673Y712846D01*
X505580Y712800D01*
X505527Y712755D01*
X505468Y712719D01*
X505394Y712645D01*
X505314Y712578D01*
X505272Y712523D01*
X505224Y712474D01*
X505169Y712385D01*
X505106Y712302D01*
X505060Y712209D01*
X505042Y712180D01*
X505035Y712159D01*
X505015Y712118D01*
X504666Y711277D01*
X501923Y708534D01*
X498340Y707049D01*
X494460Y707049D01*
X490877Y708534D01*
X488134Y711277D01*
X487785Y712118D01*
X487734Y712209D01*
X487692Y712305D01*
X487650Y712360D01*
X487617Y712420D01*
X487547Y712497D01*
X487484Y712581D01*
X487430Y712625D01*
X487384Y712676D01*
X487298Y712735D01*
X487217Y712801D01*
X487156Y712832D01*
X487099Y712871D01*
X487001Y712909D01*
X486908Y712955D01*
X486841Y712971D01*
X486776Y712996D01*
X486673Y713010D01*
X486571Y713034D01*
X486502Y713034D01*
X486434Y713043D01*
X486330Y713034D01*
X486225Y713034D01*
X486158Y713018D01*
X486089Y713011D01*
X485991Y712978D01*
X485889Y712954D01*
X485827Y712923D01*
X485762Y712901D01*
X485673Y712846D01*
X485580Y712800D01*
X485527Y712755D01*
X485468Y712719D01*
X485394Y712645D01*
X485314Y712578D01*
X485272Y712523D01*
X485224Y712474D01*
X485169Y712385D01*
X485106Y712302D01*
X485060Y712209D01*
X485042Y712180D01*
X485035Y712159D01*
X485015Y712118D01*
X484666Y711277D01*
X481923Y708534D01*
X478340Y707049D01*
X474460Y707049D01*
X470877Y708534D01*
X468134Y711277D01*
X467785Y712118D01*
X467734Y712209D01*
X467692Y712305D01*
X467650Y712360D01*
X467617Y712420D01*
X467547Y712497D01*
X467484Y712581D01*
X467430Y712625D01*
X467384Y712676D01*
X467298Y712735D01*
X467217Y712801D01*
X467156Y712832D01*
X467099Y712871D01*
X467001Y712909D01*
X466908Y712955D01*
X466841Y712971D01*
X466776Y712996D01*
X466673Y713010D01*
X466571Y713034D01*
X466502Y713034D01*
X466434Y713043D01*
X466330Y713034D01*
X466225Y713034D01*
X466158Y713018D01*
X466089Y713011D01*
X465991Y712978D01*
X465889Y712954D01*
X465827Y712923D01*
X465762Y712901D01*
X465673Y712846D01*
X465580Y712800D01*
X465527Y712755D01*
X465468Y712719D01*
X465394Y712645D01*
X465314Y712578D01*
X465272Y712523D01*
X465224Y712474D01*
X465169Y712385D01*
X465106Y712302D01*
X465060Y712209D01*
X465042Y712180D01*
X465035Y712159D01*
X465015Y712118D01*
X464666Y711277D01*
X461923Y708534D01*
X458340Y707049D01*
X454460Y707049D01*
X450877Y708534D01*
X448134Y711277D01*
X447785Y712118D01*
X447734Y712209D01*
X447692Y712305D01*
X447650Y712360D01*
X447617Y712420D01*
X447547Y712497D01*
X447484Y712581D01*
X447430Y712625D01*
X447384Y712676D01*
X447298Y712735D01*
X447217Y712801D01*
X447156Y712832D01*
X447099Y712871D01*
X447001Y712909D01*
X446908Y712955D01*
X446841Y712971D01*
X446776Y712996D01*
X446673Y713010D01*
X446571Y713034D01*
X446502Y713034D01*
X446434Y713043D01*
X446330Y713034D01*
X446225Y713034D01*
X446158Y713018D01*
X446089Y713011D01*
X445991Y712978D01*
X445889Y712954D01*
X445827Y712923D01*
X445762Y712901D01*
X445673Y712846D01*
X445580Y712800D01*
X445527Y712755D01*
X445468Y712719D01*
X445394Y712645D01*
X445314Y712578D01*
X445272Y712523D01*
X445224Y712474D01*
X445169Y712385D01*
X445106Y712302D01*
X445060Y712209D01*
X445042Y712180D01*
X445035Y712159D01*
X445015Y712118D01*
X444666Y711277D01*
X441923Y708534D01*
X438340Y707049D01*
X434460Y707049D01*
G37*
%LPD*%
%LPC*%
G36*
X281302Y250575D02*
X281302Y250575D01*
X278904Y251569D01*
X277069Y253404D01*
X276075Y255802D01*
X276075Y258398D01*
X277069Y260796D01*
X278904Y262631D01*
X281302Y263625D01*
X283898Y263625D01*
X286296Y262631D01*
X286888Y262040D01*
X286997Y261953D01*
X287102Y261862D01*
X287132Y261846D01*
X287159Y261825D01*
X287285Y261766D01*
X287408Y261701D01*
X287441Y261693D01*
X287472Y261678D01*
X287608Y261650D01*
X287743Y261615D01*
X287788Y261612D01*
X287810Y261607D01*
X287844Y261608D01*
X287948Y261601D01*
X311765Y261601D01*
X311903Y261617D01*
X312042Y261627D01*
X312075Y261637D01*
X312108Y261641D01*
X312239Y261688D01*
X312372Y261729D01*
X312402Y261747D01*
X312433Y261758D01*
X312550Y261834D01*
X312670Y261905D01*
X312704Y261935D01*
X312723Y261947D01*
X312746Y261971D01*
X312825Y262040D01*
X331610Y280825D01*
X331697Y280934D01*
X331788Y281040D01*
X331804Y281070D01*
X331825Y281096D01*
X331884Y281222D01*
X331949Y281346D01*
X331957Y281379D01*
X331972Y281409D01*
X332000Y281545D01*
X332014Y281598D01*
X332024Y281630D01*
X332025Y281639D01*
X332035Y281681D01*
X332038Y281726D01*
X332043Y281748D01*
X332042Y281781D01*
X332049Y281885D01*
X332049Y389214D01*
X353736Y410901D01*
X384865Y410901D01*
X385003Y410917D01*
X385142Y410927D01*
X385175Y410937D01*
X385208Y410941D01*
X385339Y410988D01*
X385472Y411029D01*
X385502Y411047D01*
X385533Y411058D01*
X385650Y411134D01*
X385770Y411205D01*
X385804Y411235D01*
X385823Y411247D01*
X385846Y411271D01*
X385925Y411340D01*
X388760Y414175D01*
X388847Y414284D01*
X388938Y414390D01*
X388954Y414420D01*
X388975Y414446D01*
X389034Y414572D01*
X389099Y414696D01*
X389107Y414729D01*
X389122Y414759D01*
X389150Y414895D01*
X389185Y415031D01*
X389188Y415076D01*
X389193Y415098D01*
X389192Y415131D01*
X389199Y415235D01*
X389199Y421352D01*
X389196Y421381D01*
X389198Y421406D01*
X389183Y421495D01*
X389173Y421630D01*
X389163Y421662D01*
X389159Y421696D01*
X389142Y421743D01*
X389142Y421747D01*
X389137Y421759D01*
X389112Y421827D01*
X389071Y421960D01*
X389053Y421989D01*
X389042Y422021D01*
X388966Y422138D01*
X388895Y422258D01*
X388865Y422292D01*
X388853Y422311D01*
X388829Y422334D01*
X388760Y422412D01*
X388169Y423004D01*
X387175Y425402D01*
X387175Y427998D01*
X388169Y430396D01*
X390004Y432231D01*
X392402Y433225D01*
X394998Y433225D01*
X397396Y432231D01*
X399231Y430396D01*
X400225Y427998D01*
X400225Y425402D01*
X399231Y423004D01*
X398640Y422412D01*
X398553Y422303D01*
X398462Y422198D01*
X398446Y422168D01*
X398425Y422141D01*
X398366Y422015D01*
X398301Y421892D01*
X398293Y421859D01*
X398278Y421828D01*
X398250Y421692D01*
X398240Y421654D01*
X398226Y421609D01*
X398225Y421598D01*
X398215Y421557D01*
X398212Y421512D01*
X398207Y421490D01*
X398208Y421456D01*
X398201Y421352D01*
X398201Y410886D01*
X389214Y401899D01*
X358085Y401899D01*
X357947Y401883D01*
X357808Y401873D01*
X357775Y401863D01*
X357742Y401859D01*
X357611Y401812D01*
X357478Y401771D01*
X357448Y401753D01*
X357417Y401742D01*
X357300Y401666D01*
X357180Y401595D01*
X357146Y401565D01*
X357127Y401553D01*
X357104Y401529D01*
X357025Y401460D01*
X341490Y385925D01*
X341403Y385816D01*
X341312Y385710D01*
X341296Y385680D01*
X341275Y385654D01*
X341216Y385528D01*
X341151Y385404D01*
X341143Y385371D01*
X341128Y385341D01*
X341100Y385205D01*
X341065Y385069D01*
X341062Y385024D01*
X341057Y385002D01*
X341058Y384969D01*
X341051Y384865D01*
X341051Y277536D01*
X316114Y252599D01*
X287948Y252599D01*
X287809Y252583D01*
X287670Y252573D01*
X287638Y252563D01*
X287604Y252559D01*
X287473Y252512D01*
X287340Y252471D01*
X287311Y252453D01*
X287279Y252442D01*
X287162Y252366D01*
X287042Y252295D01*
X287008Y252265D01*
X286989Y252253D01*
X286966Y252229D01*
X286888Y252160D01*
X286296Y251569D01*
X283898Y250575D01*
X281302Y250575D01*
G37*
%LPD*%
%LPC*%
G36*
X679613Y179299D02*
X679613Y179299D01*
X675202Y181126D01*
X671826Y184502D01*
X669999Y188913D01*
X669999Y193687D01*
X671826Y198098D01*
X675202Y201474D01*
X679613Y203301D01*
X684500Y203301D01*
X684535Y203305D01*
X684571Y203302D01*
X684707Y203325D01*
X684843Y203341D01*
X684877Y203353D01*
X684912Y203358D01*
X685039Y203411D01*
X685169Y203458D01*
X685198Y203477D01*
X685231Y203491D01*
X685343Y203572D01*
X685458Y203647D01*
X685483Y203673D01*
X685511Y203693D01*
X685602Y203797D01*
X685697Y203897D01*
X685715Y203928D01*
X685738Y203954D01*
X685802Y204077D01*
X685872Y204195D01*
X685882Y204229D01*
X685899Y204261D01*
X685933Y204394D01*
X685974Y204526D01*
X685976Y204561D01*
X685985Y204595D01*
X685999Y204800D01*
X685999Y233800D01*
X685995Y233835D01*
X685998Y233871D01*
X685975Y234007D01*
X685959Y234143D01*
X685947Y234177D01*
X685942Y234212D01*
X685889Y234339D01*
X685842Y234469D01*
X685823Y234498D01*
X685809Y234531D01*
X685728Y234643D01*
X685653Y234758D01*
X685627Y234783D01*
X685607Y234811D01*
X685503Y234902D01*
X685403Y234997D01*
X685372Y235015D01*
X685346Y235038D01*
X685223Y235102D01*
X685105Y235172D01*
X685071Y235182D01*
X685039Y235199D01*
X684906Y235233D01*
X684774Y235274D01*
X684739Y235276D01*
X684705Y235285D01*
X684500Y235299D01*
X679613Y235299D01*
X675202Y237126D01*
X671826Y240502D01*
X669999Y244913D01*
X669999Y249687D01*
X671826Y254098D01*
X675202Y257474D01*
X679613Y259301D01*
X702387Y259301D01*
X706798Y257474D01*
X710174Y254098D01*
X712001Y249687D01*
X712001Y244913D01*
X710174Y240502D01*
X706798Y237126D01*
X702387Y235299D01*
X697500Y235299D01*
X697465Y235295D01*
X697429Y235298D01*
X697293Y235275D01*
X697157Y235259D01*
X697123Y235247D01*
X697088Y235242D01*
X696961Y235189D01*
X696831Y235142D01*
X696802Y235123D01*
X696769Y235109D01*
X696657Y235028D01*
X696542Y234953D01*
X696517Y234927D01*
X696489Y234907D01*
X696398Y234803D01*
X696303Y234703D01*
X696285Y234672D01*
X696262Y234646D01*
X696198Y234523D01*
X696128Y234405D01*
X696118Y234371D01*
X696101Y234339D01*
X696067Y234206D01*
X696026Y234074D01*
X696024Y234039D01*
X696015Y234005D01*
X696001Y233800D01*
X696001Y224910D01*
X696004Y224884D01*
X696002Y224863D01*
X696006Y224841D01*
X696004Y224806D01*
X696027Y224687D01*
X696041Y224567D01*
X696058Y224518D01*
X696068Y224466D01*
X696117Y224355D01*
X696158Y224242D01*
X696187Y224198D01*
X696208Y224150D01*
X696281Y224053D01*
X696347Y223952D01*
X696385Y223916D01*
X696416Y223874D01*
X696510Y223797D01*
X696597Y223713D01*
X696642Y223687D01*
X696683Y223654D01*
X696791Y223600D01*
X696895Y223538D01*
X696945Y223523D01*
X696992Y223500D01*
X697110Y223472D01*
X697226Y223436D01*
X697278Y223433D01*
X697329Y223421D01*
X697450Y223421D01*
X697571Y223413D01*
X697622Y223421D01*
X697675Y223421D01*
X697792Y223449D01*
X697912Y223469D01*
X697960Y223489D01*
X698011Y223501D01*
X698119Y223555D01*
X698231Y223601D01*
X698273Y223632D01*
X698320Y223655D01*
X698413Y223733D01*
X698511Y223804D01*
X698546Y223843D01*
X698586Y223877D01*
X698659Y223973D01*
X698706Y224028D01*
X701185Y226507D01*
X704309Y227801D01*
X707691Y227801D01*
X710815Y226507D01*
X713207Y224115D01*
X714501Y220991D01*
X714501Y217609D01*
X713207Y214485D01*
X710815Y212093D01*
X707691Y210799D01*
X704309Y210799D01*
X701185Y212093D01*
X698722Y214556D01*
X698717Y214565D01*
X698682Y214604D01*
X698653Y214648D01*
X698566Y214731D01*
X698484Y214821D01*
X698441Y214850D01*
X698403Y214887D01*
X698299Y214948D01*
X698199Y215016D01*
X698150Y215035D01*
X698105Y215062D01*
X697989Y215097D01*
X697876Y215141D01*
X697824Y215148D01*
X697774Y215164D01*
X697654Y215172D01*
X697534Y215189D01*
X697482Y215184D01*
X697429Y215187D01*
X697310Y215168D01*
X697190Y215156D01*
X697140Y215140D01*
X697088Y215131D01*
X696977Y215085D01*
X696862Y215046D01*
X696817Y215019D01*
X696769Y214999D01*
X696671Y214928D01*
X696568Y214864D01*
X696531Y214827D01*
X696489Y214796D01*
X696409Y214705D01*
X696324Y214619D01*
X696296Y214575D01*
X696262Y214535D01*
X696206Y214428D01*
X696142Y214325D01*
X696126Y214276D01*
X696101Y214229D01*
X696071Y214112D01*
X696033Y213997D01*
X696028Y213945D01*
X696015Y213894D01*
X696001Y213690D01*
X696001Y204800D01*
X696005Y204765D01*
X696002Y204729D01*
X696025Y204593D01*
X696041Y204457D01*
X696053Y204423D01*
X696058Y204388D01*
X696111Y204261D01*
X696158Y204131D01*
X696177Y204102D01*
X696191Y204069D01*
X696272Y203957D01*
X696347Y203842D01*
X696373Y203817D01*
X696393Y203789D01*
X696497Y203698D01*
X696597Y203603D01*
X696628Y203585D01*
X696654Y203562D01*
X696777Y203498D01*
X696895Y203428D01*
X696929Y203418D01*
X696961Y203401D01*
X697094Y203367D01*
X697226Y203326D01*
X697261Y203324D01*
X697295Y203315D01*
X697500Y203301D01*
X702387Y203301D01*
X706798Y201474D01*
X710174Y198098D01*
X712001Y193687D01*
X712001Y188913D01*
X710174Y184502D01*
X706798Y181126D01*
X702387Y179299D01*
X679613Y179299D01*
G37*
%LPD*%
%LPC*%
G36*
X680513Y279799D02*
X680513Y279799D01*
X676102Y281626D01*
X672726Y285002D01*
X670899Y289413D01*
X670899Y294187D01*
X672726Y298598D01*
X676102Y301974D01*
X680513Y303801D01*
X685400Y303801D01*
X685435Y303805D01*
X685471Y303802D01*
X685607Y303825D01*
X685743Y303841D01*
X685777Y303853D01*
X685812Y303858D01*
X685939Y303911D01*
X686069Y303958D01*
X686098Y303977D01*
X686131Y303991D01*
X686243Y304072D01*
X686358Y304147D01*
X686383Y304173D01*
X686411Y304193D01*
X686502Y304297D01*
X686597Y304397D01*
X686615Y304428D01*
X686638Y304454D01*
X686702Y304577D01*
X686772Y304695D01*
X686782Y304729D01*
X686799Y304761D01*
X686833Y304894D01*
X686874Y305026D01*
X686876Y305061D01*
X686885Y305095D01*
X686899Y305300D01*
X686899Y334300D01*
X686895Y334335D01*
X686898Y334371D01*
X686875Y334507D01*
X686859Y334643D01*
X686847Y334677D01*
X686842Y334712D01*
X686789Y334839D01*
X686742Y334969D01*
X686723Y334998D01*
X686709Y335031D01*
X686628Y335143D01*
X686553Y335258D01*
X686527Y335283D01*
X686507Y335311D01*
X686403Y335402D01*
X686303Y335497D01*
X686272Y335515D01*
X686246Y335538D01*
X686123Y335602D01*
X686005Y335672D01*
X685971Y335682D01*
X685939Y335699D01*
X685806Y335733D01*
X685674Y335774D01*
X685639Y335776D01*
X685605Y335785D01*
X685400Y335799D01*
X680513Y335799D01*
X676102Y337626D01*
X672726Y341002D01*
X670899Y345413D01*
X670899Y350187D01*
X672726Y354598D01*
X676102Y357974D01*
X680513Y359801D01*
X703287Y359801D01*
X707698Y357974D01*
X711074Y354598D01*
X712901Y350187D01*
X712901Y345413D01*
X711074Y341002D01*
X707698Y337626D01*
X703287Y335799D01*
X698400Y335799D01*
X698365Y335795D01*
X698329Y335798D01*
X698193Y335775D01*
X698057Y335759D01*
X698023Y335747D01*
X697988Y335742D01*
X697861Y335689D01*
X697731Y335642D01*
X697702Y335623D01*
X697669Y335609D01*
X697557Y335528D01*
X697442Y335453D01*
X697417Y335427D01*
X697389Y335407D01*
X697298Y335303D01*
X697203Y335203D01*
X697185Y335172D01*
X697162Y335146D01*
X697098Y335023D01*
X697028Y334905D01*
X697018Y334871D01*
X697001Y334839D01*
X696967Y334706D01*
X696926Y334574D01*
X696924Y334539D01*
X696915Y334505D01*
X696901Y334300D01*
X696901Y325410D01*
X696907Y325358D01*
X696904Y325306D01*
X696927Y325187D01*
X696941Y325067D01*
X696958Y325018D01*
X696968Y324966D01*
X697017Y324855D01*
X697058Y324742D01*
X697087Y324698D01*
X697108Y324650D01*
X697181Y324553D01*
X697247Y324452D01*
X697285Y324416D01*
X697317Y324374D01*
X697410Y324297D01*
X697497Y324213D01*
X697542Y324187D01*
X697583Y324153D01*
X697691Y324100D01*
X697795Y324038D01*
X697846Y324023D01*
X697893Y324000D01*
X698010Y323972D01*
X698126Y323936D01*
X698178Y323933D01*
X698229Y323921D01*
X698350Y323921D01*
X698471Y323913D01*
X698522Y323921D01*
X698575Y323921D01*
X698693Y323949D01*
X698812Y323969D01*
X698860Y323989D01*
X698911Y324001D01*
X699020Y324055D01*
X699131Y324101D01*
X699174Y324132D01*
X699221Y324156D01*
X699314Y324233D01*
X699411Y324304D01*
X699446Y324343D01*
X699486Y324377D01*
X699559Y324473D01*
X699606Y324528D01*
X702085Y327007D01*
X705209Y328301D01*
X708591Y328301D01*
X711715Y327007D01*
X714107Y324615D01*
X715401Y321491D01*
X715401Y318109D01*
X714107Y314985D01*
X711715Y312593D01*
X708591Y311299D01*
X705209Y311299D01*
X702085Y312593D01*
X699622Y315056D01*
X699617Y315065D01*
X699582Y315104D01*
X699553Y315148D01*
X699466Y315231D01*
X699384Y315321D01*
X699341Y315350D01*
X699303Y315387D01*
X699199Y315448D01*
X699099Y315516D01*
X699050Y315535D01*
X699005Y315562D01*
X698889Y315597D01*
X698777Y315641D01*
X698725Y315648D01*
X698674Y315664D01*
X698554Y315672D01*
X698434Y315689D01*
X698382Y315684D01*
X698329Y315687D01*
X698210Y315668D01*
X698090Y315657D01*
X698040Y315640D01*
X697988Y315631D01*
X697877Y315585D01*
X697762Y315546D01*
X697717Y315519D01*
X697669Y315499D01*
X697571Y315428D01*
X697468Y315364D01*
X697431Y315327D01*
X697389Y315296D01*
X697309Y315205D01*
X697224Y315120D01*
X697196Y315075D01*
X697162Y315035D01*
X697106Y314928D01*
X697042Y314825D01*
X697026Y314776D01*
X697001Y314729D01*
X696971Y314612D01*
X696933Y314498D01*
X696928Y314445D01*
X696915Y314394D01*
X696901Y314190D01*
X696901Y305300D01*
X696905Y305265D01*
X696902Y305229D01*
X696925Y305093D01*
X696941Y304957D01*
X696953Y304923D01*
X696958Y304888D01*
X697011Y304761D01*
X697058Y304631D01*
X697077Y304602D01*
X697091Y304569D01*
X697172Y304457D01*
X697247Y304342D01*
X697273Y304317D01*
X697293Y304289D01*
X697397Y304198D01*
X697497Y304103D01*
X697528Y304085D01*
X697554Y304062D01*
X697677Y303998D01*
X697795Y303928D01*
X697829Y303918D01*
X697861Y303901D01*
X697994Y303867D01*
X698126Y303826D01*
X698161Y303824D01*
X698195Y303815D01*
X698400Y303801D01*
X703287Y303801D01*
X707698Y301974D01*
X711074Y298598D01*
X712901Y294187D01*
X712901Y289413D01*
X711074Y285002D01*
X707698Y281626D01*
X703287Y279799D01*
X680513Y279799D01*
G37*
%LPD*%
%LPC*%
G36*
X38013Y380299D02*
X38013Y380299D01*
X33602Y382126D01*
X30226Y385502D01*
X28399Y389913D01*
X28399Y394687D01*
X30226Y399098D01*
X33602Y402474D01*
X38013Y404301D01*
X42900Y404301D01*
X42935Y404305D01*
X42971Y404302D01*
X43107Y404325D01*
X43243Y404341D01*
X43277Y404353D01*
X43312Y404358D01*
X43439Y404411D01*
X43569Y404458D01*
X43598Y404477D01*
X43631Y404491D01*
X43743Y404572D01*
X43858Y404647D01*
X43883Y404673D01*
X43911Y404693D01*
X44002Y404797D01*
X44097Y404897D01*
X44115Y404928D01*
X44138Y404954D01*
X44202Y405077D01*
X44272Y405195D01*
X44282Y405229D01*
X44299Y405261D01*
X44333Y405394D01*
X44374Y405526D01*
X44376Y405561D01*
X44385Y405595D01*
X44399Y405800D01*
X44399Y414690D01*
X44393Y414742D01*
X44396Y414794D01*
X44373Y414913D01*
X44359Y415033D01*
X44342Y415082D01*
X44332Y415134D01*
X44283Y415245D01*
X44242Y415358D01*
X44213Y415402D01*
X44192Y415450D01*
X44119Y415547D01*
X44053Y415648D01*
X44015Y415684D01*
X43983Y415726D01*
X43890Y415803D01*
X43803Y415887D01*
X43758Y415913D01*
X43717Y415947D01*
X43609Y416000D01*
X43505Y416062D01*
X43454Y416077D01*
X43407Y416100D01*
X43290Y416128D01*
X43174Y416164D01*
X43122Y416167D01*
X43071Y416179D01*
X42950Y416179D01*
X42829Y416187D01*
X42778Y416179D01*
X42725Y416179D01*
X42607Y416151D01*
X42488Y416131D01*
X42440Y416111D01*
X42389Y416099D01*
X42280Y416045D01*
X42169Y415999D01*
X42126Y415968D01*
X42079Y415944D01*
X41986Y415867D01*
X41889Y415796D01*
X41854Y415757D01*
X41814Y415723D01*
X41741Y415627D01*
X41694Y415572D01*
X39215Y413093D01*
X36091Y411799D01*
X32709Y411799D01*
X29585Y413093D01*
X27193Y415485D01*
X25899Y418609D01*
X25899Y421991D01*
X27193Y425115D01*
X29585Y427507D01*
X32709Y428801D01*
X36091Y428801D01*
X39215Y427507D01*
X41678Y425044D01*
X41683Y425035D01*
X41718Y424996D01*
X41747Y424952D01*
X41834Y424869D01*
X41916Y424779D01*
X41959Y424750D01*
X41997Y424713D01*
X42101Y424652D01*
X42201Y424584D01*
X42250Y424565D01*
X42295Y424538D01*
X42411Y424503D01*
X42523Y424459D01*
X42575Y424452D01*
X42626Y424436D01*
X42746Y424428D01*
X42866Y424411D01*
X42918Y424416D01*
X42971Y424413D01*
X43090Y424432D01*
X43210Y424443D01*
X43260Y424460D01*
X43312Y424469D01*
X43423Y424515D01*
X43538Y424554D01*
X43583Y424581D01*
X43631Y424601D01*
X43729Y424672D01*
X43832Y424736D01*
X43869Y424773D01*
X43911Y424804D01*
X43991Y424895D01*
X44076Y424980D01*
X44104Y425025D01*
X44138Y425065D01*
X44194Y425172D01*
X44258Y425275D01*
X44274Y425324D01*
X44299Y425371D01*
X44329Y425488D01*
X44367Y425602D01*
X44372Y425655D01*
X44385Y425706D01*
X44399Y425910D01*
X44399Y434800D01*
X44395Y434835D01*
X44398Y434871D01*
X44375Y435007D01*
X44359Y435143D01*
X44347Y435177D01*
X44342Y435212D01*
X44289Y435339D01*
X44242Y435469D01*
X44223Y435498D01*
X44209Y435531D01*
X44128Y435643D01*
X44053Y435758D01*
X44027Y435783D01*
X44007Y435811D01*
X43903Y435902D01*
X43803Y435997D01*
X43772Y436015D01*
X43746Y436038D01*
X43623Y436102D01*
X43505Y436172D01*
X43471Y436182D01*
X43439Y436199D01*
X43306Y436233D01*
X43174Y436274D01*
X43139Y436276D01*
X43105Y436285D01*
X42900Y436299D01*
X38013Y436299D01*
X33602Y438126D01*
X30226Y441502D01*
X28399Y445913D01*
X28399Y450687D01*
X30226Y455098D01*
X33602Y458474D01*
X38013Y460301D01*
X60787Y460301D01*
X65198Y458474D01*
X68574Y455098D01*
X70401Y450687D01*
X70401Y445913D01*
X68574Y441502D01*
X65198Y438126D01*
X60787Y436299D01*
X55900Y436299D01*
X55865Y436295D01*
X55829Y436298D01*
X55693Y436275D01*
X55557Y436259D01*
X55523Y436247D01*
X55488Y436242D01*
X55361Y436189D01*
X55231Y436142D01*
X55202Y436123D01*
X55169Y436109D01*
X55057Y436028D01*
X54942Y435953D01*
X54917Y435927D01*
X54889Y435907D01*
X54798Y435803D01*
X54703Y435703D01*
X54685Y435672D01*
X54662Y435646D01*
X54598Y435523D01*
X54528Y435405D01*
X54518Y435371D01*
X54501Y435339D01*
X54467Y435206D01*
X54426Y435074D01*
X54424Y435039D01*
X54415Y435005D01*
X54401Y434800D01*
X54401Y405800D01*
X54405Y405765D01*
X54402Y405729D01*
X54425Y405593D01*
X54441Y405457D01*
X54453Y405423D01*
X54458Y405388D01*
X54511Y405261D01*
X54558Y405131D01*
X54577Y405102D01*
X54591Y405069D01*
X54672Y404957D01*
X54747Y404842D01*
X54773Y404817D01*
X54793Y404789D01*
X54897Y404698D01*
X54997Y404603D01*
X55028Y404585D01*
X55054Y404562D01*
X55177Y404498D01*
X55295Y404428D01*
X55329Y404418D01*
X55361Y404401D01*
X55494Y404367D01*
X55626Y404326D01*
X55661Y404324D01*
X55695Y404315D01*
X55900Y404301D01*
X60787Y404301D01*
X65198Y402474D01*
X68574Y399098D01*
X70401Y394687D01*
X70401Y389913D01*
X68574Y385502D01*
X65198Y382126D01*
X60787Y380299D01*
X38013Y380299D01*
G37*
%LPD*%
%LPC*%
G36*
X37913Y278799D02*
X37913Y278799D01*
X33502Y280626D01*
X30126Y284002D01*
X28299Y288413D01*
X28299Y293187D01*
X30126Y297598D01*
X33502Y300974D01*
X37913Y302801D01*
X42800Y302801D01*
X42835Y302805D01*
X42871Y302802D01*
X43007Y302825D01*
X43143Y302841D01*
X43177Y302853D01*
X43212Y302858D01*
X43339Y302911D01*
X43469Y302958D01*
X43498Y302977D01*
X43531Y302991D01*
X43643Y303072D01*
X43758Y303147D01*
X43783Y303173D01*
X43811Y303193D01*
X43902Y303297D01*
X43997Y303397D01*
X44015Y303428D01*
X44038Y303454D01*
X44102Y303577D01*
X44172Y303695D01*
X44182Y303729D01*
X44199Y303761D01*
X44233Y303894D01*
X44274Y304026D01*
X44276Y304061D01*
X44285Y304095D01*
X44299Y304300D01*
X44299Y313190D01*
X44293Y313242D01*
X44296Y313294D01*
X44273Y313413D01*
X44259Y313533D01*
X44242Y313582D01*
X44232Y313634D01*
X44183Y313745D01*
X44142Y313858D01*
X44113Y313902D01*
X44092Y313950D01*
X44019Y314047D01*
X43953Y314148D01*
X43915Y314184D01*
X43883Y314226D01*
X43790Y314303D01*
X43703Y314387D01*
X43658Y314413D01*
X43617Y314447D01*
X43509Y314500D01*
X43405Y314562D01*
X43354Y314577D01*
X43307Y314600D01*
X43190Y314628D01*
X43074Y314664D01*
X43022Y314667D01*
X42971Y314679D01*
X42850Y314679D01*
X42729Y314687D01*
X42678Y314679D01*
X42625Y314679D01*
X42507Y314651D01*
X42388Y314631D01*
X42340Y314611D01*
X42289Y314599D01*
X42180Y314545D01*
X42069Y314499D01*
X42026Y314468D01*
X41979Y314444D01*
X41886Y314367D01*
X41789Y314296D01*
X41754Y314257D01*
X41714Y314223D01*
X41641Y314127D01*
X41594Y314072D01*
X39115Y311593D01*
X35991Y310299D01*
X32609Y310299D01*
X29485Y311593D01*
X27093Y313985D01*
X25799Y317109D01*
X25799Y320491D01*
X27093Y323615D01*
X29485Y326007D01*
X32609Y327301D01*
X35991Y327301D01*
X39115Y326007D01*
X41578Y323544D01*
X41583Y323535D01*
X41618Y323496D01*
X41647Y323452D01*
X41734Y323369D01*
X41816Y323279D01*
X41859Y323250D01*
X41897Y323213D01*
X42001Y323152D01*
X42101Y323084D01*
X42150Y323065D01*
X42195Y323038D01*
X42311Y323003D01*
X42423Y322959D01*
X42475Y322952D01*
X42526Y322936D01*
X42646Y322928D01*
X42766Y322911D01*
X42818Y322916D01*
X42871Y322913D01*
X42990Y322932D01*
X43110Y322943D01*
X43160Y322960D01*
X43212Y322969D01*
X43323Y323015D01*
X43438Y323054D01*
X43483Y323081D01*
X43531Y323101D01*
X43629Y323172D01*
X43732Y323236D01*
X43769Y323273D01*
X43811Y323304D01*
X43891Y323395D01*
X43976Y323480D01*
X44004Y323525D01*
X44038Y323565D01*
X44094Y323672D01*
X44158Y323775D01*
X44174Y323824D01*
X44199Y323871D01*
X44229Y323988D01*
X44267Y324102D01*
X44272Y324155D01*
X44285Y324206D01*
X44299Y324410D01*
X44299Y333300D01*
X44295Y333335D01*
X44298Y333371D01*
X44275Y333507D01*
X44259Y333643D01*
X44247Y333677D01*
X44242Y333712D01*
X44189Y333839D01*
X44142Y333969D01*
X44123Y333998D01*
X44109Y334031D01*
X44028Y334143D01*
X43953Y334258D01*
X43927Y334283D01*
X43907Y334311D01*
X43803Y334402D01*
X43703Y334497D01*
X43672Y334515D01*
X43646Y334538D01*
X43523Y334602D01*
X43405Y334672D01*
X43371Y334682D01*
X43339Y334699D01*
X43206Y334733D01*
X43074Y334774D01*
X43039Y334776D01*
X43005Y334785D01*
X42800Y334799D01*
X37913Y334799D01*
X33502Y336626D01*
X30126Y340002D01*
X28299Y344413D01*
X28299Y349187D01*
X30126Y353598D01*
X33502Y356974D01*
X37913Y358801D01*
X60687Y358801D01*
X65098Y356974D01*
X68474Y353598D01*
X70301Y349187D01*
X70301Y344413D01*
X68474Y340002D01*
X65098Y336626D01*
X60687Y334799D01*
X55800Y334799D01*
X55765Y334795D01*
X55729Y334798D01*
X55593Y334775D01*
X55457Y334759D01*
X55423Y334747D01*
X55388Y334742D01*
X55261Y334689D01*
X55131Y334642D01*
X55102Y334623D01*
X55069Y334609D01*
X54957Y334528D01*
X54842Y334453D01*
X54817Y334427D01*
X54789Y334407D01*
X54698Y334303D01*
X54603Y334203D01*
X54585Y334172D01*
X54562Y334146D01*
X54498Y334023D01*
X54428Y333905D01*
X54418Y333871D01*
X54401Y333839D01*
X54367Y333706D01*
X54326Y333574D01*
X54324Y333539D01*
X54315Y333505D01*
X54301Y333300D01*
X54301Y304300D01*
X54305Y304265D01*
X54302Y304229D01*
X54325Y304093D01*
X54341Y303957D01*
X54353Y303923D01*
X54358Y303888D01*
X54411Y303761D01*
X54458Y303631D01*
X54477Y303602D01*
X54491Y303569D01*
X54572Y303457D01*
X54647Y303342D01*
X54673Y303317D01*
X54693Y303289D01*
X54797Y303198D01*
X54897Y303103D01*
X54928Y303085D01*
X54954Y303062D01*
X55077Y302998D01*
X55195Y302928D01*
X55229Y302918D01*
X55261Y302901D01*
X55394Y302867D01*
X55526Y302826D01*
X55561Y302824D01*
X55595Y302815D01*
X55800Y302801D01*
X60687Y302801D01*
X65098Y300974D01*
X68474Y297598D01*
X70301Y293187D01*
X70301Y288413D01*
X68474Y284002D01*
X65098Y280626D01*
X60687Y278799D01*
X37913Y278799D01*
G37*
%LPD*%
%LPC*%
G36*
X37713Y482699D02*
X37713Y482699D01*
X33302Y484526D01*
X29926Y487902D01*
X28099Y492313D01*
X28099Y497087D01*
X29926Y501498D01*
X33302Y504874D01*
X37713Y506701D01*
X42600Y506701D01*
X42635Y506705D01*
X42671Y506702D01*
X42807Y506725D01*
X42943Y506741D01*
X42977Y506753D01*
X43012Y506758D01*
X43139Y506811D01*
X43269Y506858D01*
X43298Y506877D01*
X43331Y506891D01*
X43443Y506972D01*
X43558Y507047D01*
X43583Y507073D01*
X43611Y507093D01*
X43702Y507197D01*
X43797Y507297D01*
X43815Y507328D01*
X43838Y507354D01*
X43902Y507477D01*
X43972Y507595D01*
X43982Y507629D01*
X43999Y507661D01*
X44033Y507794D01*
X44074Y507926D01*
X44076Y507961D01*
X44085Y507995D01*
X44099Y508200D01*
X44099Y517090D01*
X44093Y517142D01*
X44096Y517194D01*
X44073Y517313D01*
X44059Y517433D01*
X44042Y517482D01*
X44032Y517534D01*
X43983Y517645D01*
X43942Y517758D01*
X43913Y517802D01*
X43892Y517850D01*
X43819Y517947D01*
X43753Y518048D01*
X43715Y518084D01*
X43683Y518126D01*
X43590Y518203D01*
X43503Y518287D01*
X43458Y518313D01*
X43417Y518347D01*
X43309Y518400D01*
X43205Y518462D01*
X43154Y518477D01*
X43107Y518500D01*
X42990Y518528D01*
X42874Y518564D01*
X42822Y518567D01*
X42771Y518579D01*
X42650Y518579D01*
X42529Y518587D01*
X42478Y518579D01*
X42425Y518579D01*
X42307Y518551D01*
X42188Y518531D01*
X42140Y518511D01*
X42089Y518499D01*
X41980Y518445D01*
X41869Y518399D01*
X41826Y518368D01*
X41779Y518344D01*
X41686Y518267D01*
X41589Y518196D01*
X41554Y518157D01*
X41514Y518123D01*
X41441Y518027D01*
X41394Y517972D01*
X38915Y515493D01*
X35791Y514199D01*
X32409Y514199D01*
X29285Y515493D01*
X26893Y517885D01*
X25599Y521009D01*
X25599Y524391D01*
X26893Y527515D01*
X29285Y529907D01*
X32409Y531201D01*
X35791Y531201D01*
X38915Y529907D01*
X41378Y527444D01*
X41383Y527435D01*
X41418Y527396D01*
X41447Y527352D01*
X41534Y527269D01*
X41616Y527179D01*
X41659Y527150D01*
X41697Y527113D01*
X41801Y527052D01*
X41901Y526984D01*
X41950Y526965D01*
X41995Y526938D01*
X42111Y526903D01*
X42223Y526859D01*
X42275Y526852D01*
X42326Y526836D01*
X42446Y526828D01*
X42566Y526811D01*
X42618Y526816D01*
X42671Y526813D01*
X42790Y526832D01*
X42910Y526843D01*
X42960Y526860D01*
X43012Y526869D01*
X43123Y526915D01*
X43238Y526954D01*
X43283Y526981D01*
X43331Y527001D01*
X43429Y527072D01*
X43532Y527136D01*
X43569Y527173D01*
X43611Y527204D01*
X43691Y527295D01*
X43776Y527380D01*
X43804Y527425D01*
X43838Y527465D01*
X43894Y527572D01*
X43958Y527675D01*
X43974Y527724D01*
X43999Y527771D01*
X44029Y527888D01*
X44067Y528002D01*
X44072Y528055D01*
X44085Y528106D01*
X44099Y528310D01*
X44099Y537200D01*
X44095Y537235D01*
X44098Y537271D01*
X44075Y537407D01*
X44059Y537543D01*
X44047Y537577D01*
X44042Y537612D01*
X43989Y537739D01*
X43942Y537869D01*
X43923Y537898D01*
X43909Y537931D01*
X43828Y538043D01*
X43753Y538158D01*
X43727Y538183D01*
X43707Y538211D01*
X43603Y538302D01*
X43503Y538397D01*
X43472Y538415D01*
X43446Y538438D01*
X43323Y538502D01*
X43205Y538572D01*
X43171Y538582D01*
X43139Y538599D01*
X43006Y538633D01*
X42874Y538674D01*
X42839Y538676D01*
X42805Y538685D01*
X42600Y538699D01*
X37713Y538699D01*
X33302Y540526D01*
X29926Y543902D01*
X28099Y548313D01*
X28099Y553087D01*
X29926Y557498D01*
X33302Y560874D01*
X37713Y562701D01*
X60487Y562701D01*
X64898Y560874D01*
X68274Y557498D01*
X70101Y553087D01*
X70101Y548313D01*
X68274Y543902D01*
X64898Y540526D01*
X60487Y538699D01*
X55600Y538699D01*
X55565Y538695D01*
X55529Y538698D01*
X55393Y538675D01*
X55257Y538659D01*
X55223Y538647D01*
X55188Y538642D01*
X55061Y538589D01*
X54931Y538542D01*
X54902Y538523D01*
X54869Y538509D01*
X54757Y538428D01*
X54642Y538353D01*
X54617Y538327D01*
X54589Y538307D01*
X54498Y538203D01*
X54403Y538103D01*
X54385Y538072D01*
X54362Y538046D01*
X54298Y537923D01*
X54228Y537805D01*
X54218Y537771D01*
X54201Y537739D01*
X54167Y537606D01*
X54126Y537474D01*
X54124Y537439D01*
X54115Y537405D01*
X54101Y537200D01*
X54101Y508200D01*
X54105Y508165D01*
X54102Y508129D01*
X54125Y507993D01*
X54141Y507857D01*
X54153Y507823D01*
X54158Y507788D01*
X54211Y507661D01*
X54258Y507531D01*
X54277Y507502D01*
X54291Y507469D01*
X54372Y507357D01*
X54447Y507242D01*
X54473Y507217D01*
X54493Y507189D01*
X54597Y507098D01*
X54697Y507003D01*
X54728Y506985D01*
X54754Y506962D01*
X54877Y506898D01*
X54995Y506828D01*
X55029Y506818D01*
X55061Y506801D01*
X55194Y506767D01*
X55326Y506726D01*
X55361Y506724D01*
X55395Y506715D01*
X55600Y506701D01*
X60487Y506701D01*
X64898Y504874D01*
X68274Y501498D01*
X70101Y497087D01*
X70101Y492313D01*
X68274Y487902D01*
X64898Y484526D01*
X60487Y482699D01*
X37713Y482699D01*
G37*
%LPD*%
%LPC*%
G36*
X37713Y179299D02*
X37713Y179299D01*
X33302Y181126D01*
X29926Y184502D01*
X28099Y188913D01*
X28099Y193687D01*
X29926Y198098D01*
X33302Y201474D01*
X37713Y203301D01*
X42600Y203301D01*
X42635Y203305D01*
X42671Y203302D01*
X42807Y203325D01*
X42943Y203341D01*
X42977Y203353D01*
X43012Y203358D01*
X43139Y203411D01*
X43269Y203458D01*
X43298Y203477D01*
X43331Y203491D01*
X43443Y203572D01*
X43558Y203647D01*
X43583Y203673D01*
X43611Y203693D01*
X43702Y203797D01*
X43797Y203897D01*
X43815Y203928D01*
X43838Y203954D01*
X43902Y204077D01*
X43972Y204195D01*
X43982Y204229D01*
X43999Y204261D01*
X44033Y204394D01*
X44074Y204526D01*
X44076Y204561D01*
X44085Y204595D01*
X44099Y204800D01*
X44099Y213690D01*
X44093Y213742D01*
X44096Y213794D01*
X44073Y213913D01*
X44059Y214033D01*
X44042Y214082D01*
X44032Y214134D01*
X43983Y214245D01*
X43942Y214358D01*
X43913Y214402D01*
X43892Y214450D01*
X43819Y214547D01*
X43753Y214648D01*
X43715Y214684D01*
X43683Y214726D01*
X43590Y214803D01*
X43503Y214887D01*
X43458Y214913D01*
X43417Y214947D01*
X43309Y215000D01*
X43205Y215062D01*
X43154Y215077D01*
X43107Y215100D01*
X42990Y215128D01*
X42874Y215164D01*
X42822Y215167D01*
X42771Y215179D01*
X42650Y215179D01*
X42529Y215187D01*
X42478Y215179D01*
X42425Y215179D01*
X42307Y215151D01*
X42188Y215131D01*
X42140Y215111D01*
X42089Y215099D01*
X41980Y215045D01*
X41869Y214999D01*
X41826Y214968D01*
X41779Y214944D01*
X41686Y214867D01*
X41589Y214796D01*
X41554Y214757D01*
X41514Y214723D01*
X41441Y214627D01*
X41394Y214572D01*
X38915Y212093D01*
X35791Y210799D01*
X32409Y210799D01*
X29285Y212093D01*
X26893Y214485D01*
X25599Y217609D01*
X25599Y220991D01*
X26893Y224115D01*
X29285Y226507D01*
X32409Y227801D01*
X35791Y227801D01*
X38915Y226507D01*
X41378Y224044D01*
X41383Y224035D01*
X41418Y223996D01*
X41447Y223952D01*
X41534Y223869D01*
X41616Y223779D01*
X41659Y223750D01*
X41697Y223713D01*
X41801Y223652D01*
X41901Y223584D01*
X41950Y223565D01*
X41995Y223538D01*
X42111Y223503D01*
X42223Y223459D01*
X42275Y223452D01*
X42326Y223436D01*
X42446Y223428D01*
X42566Y223411D01*
X42618Y223416D01*
X42671Y223413D01*
X42790Y223432D01*
X42910Y223443D01*
X42960Y223460D01*
X43012Y223469D01*
X43123Y223515D01*
X43238Y223554D01*
X43283Y223581D01*
X43331Y223601D01*
X43429Y223672D01*
X43532Y223736D01*
X43569Y223773D01*
X43611Y223804D01*
X43691Y223895D01*
X43776Y223980D01*
X43804Y224025D01*
X43838Y224065D01*
X43894Y224172D01*
X43958Y224275D01*
X43974Y224324D01*
X43999Y224371D01*
X44029Y224488D01*
X44067Y224602D01*
X44072Y224652D01*
X44074Y224659D01*
X44074Y224663D01*
X44085Y224706D01*
X44099Y224910D01*
X44099Y233800D01*
X44095Y233835D01*
X44098Y233871D01*
X44075Y234007D01*
X44059Y234143D01*
X44047Y234177D01*
X44042Y234212D01*
X43989Y234339D01*
X43942Y234469D01*
X43923Y234498D01*
X43909Y234531D01*
X43828Y234643D01*
X43753Y234758D01*
X43727Y234783D01*
X43707Y234811D01*
X43603Y234902D01*
X43503Y234997D01*
X43472Y235015D01*
X43446Y235038D01*
X43323Y235102D01*
X43205Y235172D01*
X43171Y235182D01*
X43139Y235199D01*
X43006Y235233D01*
X42874Y235274D01*
X42839Y235276D01*
X42805Y235285D01*
X42600Y235299D01*
X37713Y235299D01*
X33302Y237126D01*
X29926Y240502D01*
X28099Y244913D01*
X28099Y249687D01*
X29926Y254098D01*
X33302Y257474D01*
X37713Y259301D01*
X60487Y259301D01*
X64898Y257474D01*
X68274Y254098D01*
X70101Y249687D01*
X70101Y244913D01*
X68274Y240502D01*
X64898Y237126D01*
X60487Y235299D01*
X55600Y235299D01*
X55565Y235295D01*
X55529Y235298D01*
X55393Y235275D01*
X55257Y235259D01*
X55223Y235247D01*
X55188Y235242D01*
X55061Y235189D01*
X54931Y235142D01*
X54902Y235123D01*
X54869Y235109D01*
X54757Y235028D01*
X54642Y234953D01*
X54617Y234927D01*
X54589Y234907D01*
X54498Y234803D01*
X54403Y234703D01*
X54385Y234672D01*
X54362Y234646D01*
X54298Y234523D01*
X54228Y234405D01*
X54218Y234371D01*
X54201Y234339D01*
X54167Y234206D01*
X54126Y234074D01*
X54124Y234039D01*
X54115Y234005D01*
X54101Y233800D01*
X54101Y204800D01*
X54105Y204765D01*
X54102Y204729D01*
X54125Y204593D01*
X54141Y204457D01*
X54153Y204423D01*
X54158Y204388D01*
X54211Y204261D01*
X54258Y204131D01*
X54277Y204102D01*
X54291Y204069D01*
X54372Y203957D01*
X54447Y203842D01*
X54473Y203817D01*
X54493Y203789D01*
X54597Y203698D01*
X54697Y203603D01*
X54728Y203585D01*
X54754Y203562D01*
X54877Y203498D01*
X54995Y203428D01*
X55029Y203418D01*
X55061Y203401D01*
X55194Y203367D01*
X55326Y203326D01*
X55361Y203324D01*
X55395Y203315D01*
X55600Y203301D01*
X60487Y203301D01*
X64898Y201474D01*
X68274Y198098D01*
X70101Y193687D01*
X70101Y188913D01*
X68274Y184502D01*
X64898Y181126D01*
X60487Y179299D01*
X37713Y179299D01*
G37*
%LPD*%
%LPC*%
G36*
X679113Y379299D02*
X679113Y379299D01*
X674702Y381126D01*
X671326Y384502D01*
X669499Y388913D01*
X669499Y393687D01*
X671326Y398098D01*
X674702Y401474D01*
X679113Y403301D01*
X684000Y403301D01*
X684035Y403305D01*
X684071Y403302D01*
X684207Y403325D01*
X684343Y403341D01*
X684377Y403353D01*
X684412Y403358D01*
X684539Y403411D01*
X684669Y403458D01*
X684698Y403477D01*
X684731Y403491D01*
X684843Y403572D01*
X684958Y403647D01*
X684983Y403673D01*
X685011Y403693D01*
X685102Y403797D01*
X685197Y403897D01*
X685215Y403928D01*
X685238Y403954D01*
X685302Y404077D01*
X685372Y404195D01*
X685382Y404229D01*
X685399Y404261D01*
X685433Y404394D01*
X685474Y404526D01*
X685476Y404561D01*
X685485Y404595D01*
X685499Y404800D01*
X685499Y433800D01*
X685495Y433835D01*
X685498Y433871D01*
X685475Y434007D01*
X685459Y434143D01*
X685447Y434177D01*
X685442Y434212D01*
X685389Y434339D01*
X685342Y434469D01*
X685323Y434498D01*
X685309Y434531D01*
X685228Y434643D01*
X685153Y434758D01*
X685127Y434783D01*
X685107Y434811D01*
X685003Y434902D01*
X684903Y434997D01*
X684872Y435015D01*
X684846Y435038D01*
X684723Y435102D01*
X684605Y435172D01*
X684571Y435182D01*
X684539Y435199D01*
X684406Y435233D01*
X684274Y435274D01*
X684239Y435276D01*
X684205Y435285D01*
X684000Y435299D01*
X679113Y435299D01*
X674702Y437126D01*
X671326Y440502D01*
X669499Y444913D01*
X669499Y449687D01*
X671326Y454098D01*
X674702Y457474D01*
X679113Y459301D01*
X701887Y459301D01*
X706298Y457474D01*
X709674Y454098D01*
X711501Y449687D01*
X711501Y444913D01*
X709674Y440502D01*
X706298Y437126D01*
X701887Y435299D01*
X697000Y435299D01*
X696965Y435295D01*
X696929Y435298D01*
X696793Y435275D01*
X696657Y435259D01*
X696623Y435247D01*
X696588Y435242D01*
X696461Y435189D01*
X696331Y435142D01*
X696302Y435123D01*
X696269Y435109D01*
X696157Y435028D01*
X696042Y434953D01*
X696017Y434927D01*
X695989Y434907D01*
X695898Y434803D01*
X695803Y434703D01*
X695785Y434672D01*
X695762Y434646D01*
X695698Y434523D01*
X695628Y434405D01*
X695618Y434371D01*
X695601Y434339D01*
X695567Y434206D01*
X695526Y434074D01*
X695524Y434039D01*
X695515Y434005D01*
X695501Y433800D01*
X695501Y424910D01*
X695507Y424858D01*
X695504Y424806D01*
X695527Y424687D01*
X695541Y424567D01*
X695558Y424518D01*
X695568Y424466D01*
X695617Y424355D01*
X695658Y424242D01*
X695687Y424198D01*
X695708Y424150D01*
X695781Y424053D01*
X695847Y423952D01*
X695885Y423916D01*
X695917Y423874D01*
X696010Y423797D01*
X696097Y423713D01*
X696142Y423687D01*
X696183Y423653D01*
X696291Y423600D01*
X696395Y423538D01*
X696446Y423523D01*
X696493Y423500D01*
X696610Y423472D01*
X696726Y423436D01*
X696778Y423433D01*
X696829Y423421D01*
X696950Y423421D01*
X697071Y423413D01*
X697122Y423421D01*
X697175Y423421D01*
X697293Y423449D01*
X697412Y423469D01*
X697460Y423489D01*
X697511Y423501D01*
X697620Y423555D01*
X697731Y423601D01*
X697774Y423632D01*
X697821Y423656D01*
X697914Y423733D01*
X698011Y423804D01*
X698046Y423843D01*
X698086Y423877D01*
X698159Y423973D01*
X698206Y424028D01*
X700685Y426507D01*
X703809Y427801D01*
X707191Y427801D01*
X710315Y426507D01*
X712707Y424115D01*
X714001Y420991D01*
X714001Y417609D01*
X712707Y414485D01*
X710315Y412093D01*
X707191Y410799D01*
X703809Y410799D01*
X700685Y412093D01*
X698222Y414556D01*
X698217Y414565D01*
X698182Y414604D01*
X698153Y414648D01*
X698066Y414731D01*
X697984Y414821D01*
X697941Y414850D01*
X697903Y414887D01*
X697799Y414948D01*
X697699Y415016D01*
X697650Y415035D01*
X697605Y415062D01*
X697489Y415097D01*
X697377Y415141D01*
X697325Y415148D01*
X697274Y415164D01*
X697154Y415172D01*
X697034Y415189D01*
X696982Y415184D01*
X696929Y415187D01*
X696810Y415168D01*
X696690Y415157D01*
X696640Y415140D01*
X696588Y415131D01*
X696477Y415085D01*
X696362Y415046D01*
X696317Y415019D01*
X696269Y414999D01*
X696171Y414928D01*
X696068Y414864D01*
X696031Y414827D01*
X695989Y414796D01*
X695909Y414705D01*
X695824Y414620D01*
X695796Y414575D01*
X695762Y414535D01*
X695706Y414428D01*
X695642Y414325D01*
X695626Y414276D01*
X695601Y414229D01*
X695571Y414112D01*
X695533Y413998D01*
X695528Y413945D01*
X695515Y413894D01*
X695501Y413690D01*
X695501Y404800D01*
X695503Y404781D01*
X695502Y404773D01*
X695504Y404760D01*
X695502Y404729D01*
X695525Y404593D01*
X695541Y404457D01*
X695553Y404423D01*
X695558Y404388D01*
X695611Y404261D01*
X695658Y404131D01*
X695677Y404102D01*
X695691Y404069D01*
X695772Y403957D01*
X695847Y403842D01*
X695873Y403817D01*
X695893Y403789D01*
X695997Y403698D01*
X696097Y403603D01*
X696128Y403585D01*
X696154Y403562D01*
X696277Y403498D01*
X696395Y403428D01*
X696429Y403418D01*
X696461Y403401D01*
X696594Y403367D01*
X696726Y403326D01*
X696761Y403324D01*
X696795Y403315D01*
X697000Y403301D01*
X701887Y403301D01*
X706298Y401474D01*
X709674Y398098D01*
X711501Y393687D01*
X711501Y388913D01*
X709674Y384502D01*
X706298Y381126D01*
X701887Y379299D01*
X679113Y379299D01*
G37*
%LPD*%
%LPC*%
G36*
X374402Y430275D02*
X374402Y430275D01*
X372004Y431269D01*
X370169Y433104D01*
X369175Y435502D01*
X369175Y438098D01*
X370169Y440496D01*
X372004Y442331D01*
X374200Y443241D01*
X374245Y443266D01*
X374295Y443284D01*
X374396Y443350D01*
X374502Y443409D01*
X374540Y443444D01*
X374584Y443473D01*
X374668Y443561D01*
X374757Y443642D01*
X374787Y443685D01*
X374823Y443723D01*
X374884Y443828D01*
X374953Y443927D01*
X374971Y443976D01*
X374998Y444021D01*
X375034Y444137D01*
X375077Y444250D01*
X375085Y444302D01*
X375100Y444352D01*
X375108Y444473D01*
X375125Y444592D01*
X375120Y444644D01*
X375124Y444697D01*
X375104Y444816D01*
X375093Y444937D01*
X375076Y444986D01*
X375068Y445038D01*
X375021Y445149D01*
X374983Y445264D01*
X374955Y445309D01*
X374935Y445357D01*
X374864Y445455D01*
X374800Y445558D01*
X374763Y445595D01*
X374733Y445637D01*
X374641Y445717D01*
X374556Y445802D01*
X374511Y445830D01*
X374472Y445864D01*
X374364Y445920D01*
X374261Y445984D01*
X374212Y446000D01*
X374166Y446025D01*
X374048Y446055D01*
X373933Y446093D01*
X373881Y446098D01*
X373831Y446111D01*
X373626Y446125D01*
X371802Y446125D01*
X369404Y447119D01*
X367569Y448954D01*
X366575Y451352D01*
X366575Y453948D01*
X367569Y456346D01*
X369404Y458181D01*
X371802Y459175D01*
X374398Y459175D01*
X375036Y458910D01*
X375121Y458886D01*
X375201Y458853D01*
X375286Y458839D01*
X375369Y458816D01*
X375456Y458812D01*
X375543Y458798D01*
X375629Y458804D01*
X375714Y458800D01*
X375800Y458816D01*
X375888Y458822D01*
X375970Y458848D01*
X376054Y458863D01*
X376134Y458899D01*
X376218Y458925D01*
X376292Y458968D01*
X376370Y459003D01*
X376440Y459056D01*
X376516Y459100D01*
X376582Y459158D01*
X376589Y459163D01*
X376597Y459171D01*
X376624Y459195D01*
X376646Y459212D01*
X376654Y459221D01*
X376670Y459235D01*
X416060Y498625D01*
X416147Y498734D01*
X416238Y498840D01*
X416254Y498870D01*
X416275Y498896D01*
X416334Y499022D01*
X416399Y499146D01*
X416407Y499179D01*
X416422Y499209D01*
X416450Y499345D01*
X416485Y499481D01*
X416488Y499526D01*
X416493Y499548D01*
X416492Y499581D01*
X416499Y499685D01*
X416499Y509214D01*
X437386Y530101D01*
X437473Y530210D01*
X437564Y530316D01*
X437580Y530346D01*
X437601Y530372D01*
X437660Y530498D01*
X437725Y530622D01*
X437733Y530655D01*
X437748Y530685D01*
X437776Y530821D01*
X437811Y530957D01*
X437814Y531002D01*
X437819Y531024D01*
X437818Y531057D01*
X437825Y531161D01*
X437825Y532098D01*
X438819Y534496D01*
X440654Y536331D01*
X443052Y537325D01*
X445648Y537325D01*
X448046Y536331D01*
X449881Y534496D01*
X450875Y532098D01*
X450875Y529502D01*
X449881Y527104D01*
X448046Y525269D01*
X445648Y524275D01*
X444911Y524275D01*
X444773Y524259D01*
X444634Y524249D01*
X444601Y524239D01*
X444568Y524235D01*
X444437Y524188D01*
X444304Y524147D01*
X444274Y524129D01*
X444243Y524118D01*
X444126Y524042D01*
X444006Y523971D01*
X443972Y523941D01*
X443953Y523929D01*
X443930Y523905D01*
X443851Y523836D01*
X430749Y510734D01*
X430684Y510652D01*
X430612Y510577D01*
X430577Y510517D01*
X430534Y510463D01*
X430490Y510369D01*
X430437Y510279D01*
X430417Y510213D01*
X430388Y510150D01*
X430366Y510048D01*
X430335Y509948D01*
X430331Y509879D01*
X430316Y509812D01*
X430319Y509708D01*
X430312Y509603D01*
X430323Y509535D01*
X430324Y509466D01*
X430351Y509365D01*
X430368Y509262D01*
X430394Y509198D01*
X430412Y509132D01*
X430460Y509039D01*
X430500Y508943D01*
X430541Y508887D01*
X430573Y508826D01*
X430641Y508747D01*
X430703Y508663D01*
X430755Y508617D01*
X430800Y508565D01*
X430885Y508504D01*
X430964Y508436D01*
X431025Y508404D01*
X431081Y508363D01*
X431177Y508324D01*
X431270Y508275D01*
X431337Y508258D01*
X431401Y508231D01*
X431504Y508215D01*
X431605Y508189D01*
X431708Y508182D01*
X431742Y508176D01*
X431764Y508178D01*
X431809Y508175D01*
X433098Y508175D01*
X435496Y507181D01*
X437331Y505346D01*
X438325Y502948D01*
X438325Y500352D01*
X437331Y497954D01*
X436740Y497362D01*
X436653Y497253D01*
X436652Y497252D01*
X436603Y497200D01*
X436594Y497185D01*
X436562Y497148D01*
X436546Y497118D01*
X436525Y497091D01*
X436470Y496973D01*
X436428Y496902D01*
X436421Y496880D01*
X436401Y496842D01*
X436393Y496809D01*
X436378Y496778D01*
X436354Y496661D01*
X436326Y496572D01*
X436324Y496543D01*
X436315Y496507D01*
X436312Y496462D01*
X436307Y496440D01*
X436308Y496406D01*
X436301Y496302D01*
X436301Y491036D01*
X382664Y437399D01*
X382577Y437290D01*
X382486Y437184D01*
X382470Y437154D01*
X382449Y437128D01*
X382390Y437002D01*
X382366Y436956D01*
X382352Y436932D01*
X382350Y436926D01*
X382325Y436878D01*
X382317Y436845D01*
X382302Y436815D01*
X382274Y436679D01*
X382273Y436677D01*
X382250Y436602D01*
X382249Y436582D01*
X382239Y436543D01*
X382236Y436498D01*
X382231Y436476D01*
X382232Y436443D01*
X382225Y436339D01*
X382225Y435502D01*
X381231Y433104D01*
X379396Y431269D01*
X376998Y430275D01*
X374402Y430275D01*
G37*
%LPD*%
%LPC*%
G36*
X118912Y483699D02*
X118912Y483699D01*
X114869Y485374D01*
X111774Y488469D01*
X110099Y492512D01*
X110099Y496888D01*
X111774Y500931D01*
X114869Y504026D01*
X118912Y505701D01*
X127129Y505701D01*
X127233Y505713D01*
X127337Y505715D01*
X127404Y505733D01*
X127473Y505741D01*
X127571Y505776D01*
X127672Y505802D01*
X127733Y505835D01*
X127798Y505858D01*
X127885Y505915D01*
X127978Y505964D01*
X128030Y506009D01*
X128088Y506047D01*
X128160Y506122D01*
X128238Y506191D01*
X128279Y506247D01*
X128326Y506297D01*
X128379Y506387D01*
X128440Y506472D01*
X128466Y506536D01*
X128501Y506595D01*
X128532Y506695D01*
X128572Y506791D01*
X128583Y506860D01*
X128603Y506926D01*
X128611Y507030D01*
X128627Y507133D01*
X128622Y507202D01*
X128627Y507271D01*
X128610Y507373D01*
X128603Y507478D01*
X128582Y507544D01*
X128571Y507612D01*
X128531Y507708D01*
X128500Y507808D01*
X128465Y507867D01*
X128438Y507931D01*
X128377Y508015D01*
X128324Y508105D01*
X128256Y508184D01*
X128236Y508211D01*
X128219Y508226D01*
X128190Y508260D01*
X127198Y509252D01*
X125599Y513111D01*
X125599Y532289D01*
X127198Y536148D01*
X128190Y537140D01*
X128254Y537222D01*
X128326Y537297D01*
X128361Y537357D01*
X128404Y537411D01*
X128449Y537505D01*
X128501Y537595D01*
X128522Y537661D01*
X128551Y537724D01*
X128573Y537826D01*
X128603Y537926D01*
X128608Y537995D01*
X128622Y538062D01*
X128620Y538166D01*
X128627Y538271D01*
X128616Y538339D01*
X128614Y538408D01*
X128588Y538509D01*
X128571Y538612D01*
X128545Y538676D01*
X128527Y538742D01*
X128478Y538835D01*
X128438Y538931D01*
X128398Y538987D01*
X128366Y539048D01*
X128297Y539127D01*
X128236Y539211D01*
X128184Y539257D01*
X128139Y539309D01*
X128054Y539370D01*
X127975Y539438D01*
X127914Y539470D01*
X127858Y539511D01*
X127762Y539550D01*
X127669Y539599D01*
X127602Y539616D01*
X127538Y539642D01*
X127435Y539659D01*
X127334Y539685D01*
X127230Y539692D01*
X127197Y539698D01*
X127174Y539696D01*
X127129Y539699D01*
X118912Y539699D01*
X114869Y541374D01*
X111774Y544469D01*
X110099Y548512D01*
X110099Y552888D01*
X111774Y556931D01*
X114869Y560026D01*
X118912Y561701D01*
X139288Y561701D01*
X143331Y560026D01*
X146426Y556931D01*
X148101Y552888D01*
X148101Y548512D01*
X146426Y544469D01*
X143331Y541374D01*
X142891Y541191D01*
X142753Y541115D01*
X142616Y541043D01*
X142603Y541031D01*
X142589Y541023D01*
X142472Y540917D01*
X142355Y540815D01*
X142346Y540802D01*
X142333Y540790D01*
X142245Y540661D01*
X142154Y540535D01*
X142147Y540519D01*
X142138Y540505D01*
X142082Y540360D01*
X142022Y540215D01*
X142019Y540198D01*
X142013Y540182D01*
X141991Y540028D01*
X141967Y539874D01*
X141968Y539857D01*
X141965Y539840D01*
X141980Y539685D01*
X141991Y539529D01*
X141996Y539513D01*
X141998Y539496D01*
X142047Y539348D01*
X142094Y539199D01*
X142102Y539184D01*
X142108Y539168D01*
X142190Y539036D01*
X142269Y538901D01*
X142284Y538884D01*
X142290Y538874D01*
X142310Y538855D01*
X142387Y538766D01*
X142388Y538764D01*
X142389Y538764D01*
X142404Y538746D01*
X145002Y536148D01*
X146601Y532289D01*
X146601Y513111D01*
X145002Y509252D01*
X142404Y506654D01*
X142308Y506532D01*
X142207Y506411D01*
X142200Y506396D01*
X142189Y506383D01*
X142123Y506242D01*
X142054Y506102D01*
X142050Y506085D01*
X142043Y506070D01*
X142010Y505917D01*
X141975Y505765D01*
X141975Y505748D01*
X141971Y505731D01*
X141975Y505575D01*
X141975Y505419D01*
X141979Y505403D01*
X141979Y505386D01*
X142019Y505235D01*
X142055Y505083D01*
X142062Y505068D01*
X142067Y505051D01*
X142139Y504913D01*
X142209Y504773D01*
X142220Y504760D01*
X142228Y504745D01*
X142330Y504628D01*
X142431Y504508D01*
X142444Y504498D01*
X142455Y504485D01*
X142582Y504394D01*
X142707Y504300D01*
X142726Y504290D01*
X142736Y504283D01*
X142762Y504273D01*
X142891Y504209D01*
X143331Y504026D01*
X146426Y500931D01*
X148101Y496888D01*
X148101Y492512D01*
X146426Y488469D01*
X143331Y485374D01*
X139288Y483699D01*
X118912Y483699D01*
G37*
%LPD*%
%LPC*%
G36*
X118912Y180299D02*
X118912Y180299D01*
X114869Y181974D01*
X111774Y185069D01*
X110099Y189112D01*
X110099Y193488D01*
X111774Y197531D01*
X114869Y200626D01*
X118912Y202301D01*
X127129Y202301D01*
X127233Y202313D01*
X127337Y202315D01*
X127404Y202333D01*
X127473Y202341D01*
X127571Y202376D01*
X127672Y202402D01*
X127733Y202435D01*
X127798Y202458D01*
X127885Y202515D01*
X127978Y202564D01*
X128030Y202609D01*
X128088Y202647D01*
X128160Y202722D01*
X128238Y202791D01*
X128279Y202847D01*
X128326Y202897D01*
X128379Y202987D01*
X128440Y203072D01*
X128466Y203136D01*
X128501Y203195D01*
X128532Y203295D01*
X128572Y203391D01*
X128583Y203460D01*
X128603Y203526D01*
X128611Y203630D01*
X128627Y203733D01*
X128622Y203802D01*
X128627Y203871D01*
X128610Y203973D01*
X128603Y204078D01*
X128582Y204144D01*
X128571Y204212D01*
X128531Y204308D01*
X128500Y204408D01*
X128465Y204467D01*
X128438Y204531D01*
X128377Y204615D01*
X128324Y204705D01*
X128256Y204784D01*
X128236Y204811D01*
X128219Y204826D01*
X128190Y204860D01*
X127198Y205852D01*
X125599Y209711D01*
X125599Y228889D01*
X127198Y232748D01*
X128190Y233740D01*
X128254Y233822D01*
X128326Y233897D01*
X128361Y233957D01*
X128404Y234011D01*
X128449Y234105D01*
X128501Y234195D01*
X128522Y234261D01*
X128551Y234324D01*
X128573Y234426D01*
X128603Y234526D01*
X128608Y234595D01*
X128622Y234662D01*
X128620Y234766D01*
X128627Y234871D01*
X128616Y234939D01*
X128614Y235008D01*
X128588Y235109D01*
X128571Y235212D01*
X128545Y235276D01*
X128527Y235342D01*
X128478Y235435D01*
X128438Y235531D01*
X128398Y235587D01*
X128366Y235648D01*
X128297Y235727D01*
X128236Y235811D01*
X128184Y235857D01*
X128139Y235909D01*
X128054Y235970D01*
X127975Y236038D01*
X127914Y236070D01*
X127858Y236111D01*
X127762Y236150D01*
X127669Y236199D01*
X127602Y236216D01*
X127538Y236242D01*
X127435Y236259D01*
X127334Y236285D01*
X127230Y236292D01*
X127197Y236298D01*
X127174Y236296D01*
X127129Y236299D01*
X118912Y236299D01*
X114869Y237974D01*
X111774Y241069D01*
X110099Y245112D01*
X110099Y249488D01*
X111774Y253531D01*
X114869Y256626D01*
X118912Y258301D01*
X139288Y258301D01*
X143331Y256626D01*
X146426Y253531D01*
X148101Y249488D01*
X148101Y245112D01*
X146426Y241069D01*
X143331Y237974D01*
X142891Y237791D01*
X142753Y237715D01*
X142616Y237643D01*
X142603Y237631D01*
X142589Y237623D01*
X142472Y237517D01*
X142355Y237415D01*
X142346Y237402D01*
X142333Y237390D01*
X142245Y237261D01*
X142154Y237135D01*
X142147Y237119D01*
X142138Y237105D01*
X142082Y236960D01*
X142022Y236815D01*
X142019Y236798D01*
X142013Y236782D01*
X141992Y236629D01*
X141967Y236474D01*
X141968Y236457D01*
X141965Y236440D01*
X141980Y236285D01*
X141991Y236129D01*
X141996Y236113D01*
X141998Y236096D01*
X142047Y235948D01*
X142094Y235799D01*
X142102Y235784D01*
X142108Y235768D01*
X142190Y235636D01*
X142269Y235501D01*
X142284Y235484D01*
X142290Y235474D01*
X142310Y235455D01*
X142404Y235346D01*
X145002Y232748D01*
X146601Y228889D01*
X146601Y209711D01*
X145002Y205852D01*
X142404Y203254D01*
X142308Y203132D01*
X142207Y203011D01*
X142200Y202996D01*
X142189Y202983D01*
X142123Y202842D01*
X142054Y202702D01*
X142050Y202685D01*
X142043Y202670D01*
X142010Y202517D01*
X141975Y202365D01*
X141975Y202348D01*
X141971Y202331D01*
X141975Y202175D01*
X141975Y202019D01*
X141979Y202003D01*
X141979Y201986D01*
X142019Y201835D01*
X142055Y201683D01*
X142062Y201668D01*
X142067Y201651D01*
X142140Y201513D01*
X142209Y201373D01*
X142220Y201360D01*
X142228Y201345D01*
X142330Y201228D01*
X142431Y201108D01*
X142444Y201098D01*
X142455Y201085D01*
X142582Y200994D01*
X142707Y200900D01*
X142726Y200890D01*
X142736Y200883D01*
X142762Y200873D01*
X142891Y200809D01*
X143331Y200626D01*
X146426Y197531D01*
X148101Y193488D01*
X148101Y189112D01*
X146426Y185069D01*
X143331Y181974D01*
X139288Y180299D01*
X118912Y180299D01*
G37*
%LPD*%
%LPC*%
G36*
X119112Y279799D02*
X119112Y279799D01*
X115069Y281474D01*
X111974Y284569D01*
X110299Y288612D01*
X110299Y292988D01*
X111974Y297031D01*
X115069Y300126D01*
X119112Y301801D01*
X127329Y301801D01*
X127433Y301813D01*
X127537Y301815D01*
X127604Y301833D01*
X127673Y301841D01*
X127771Y301876D01*
X127872Y301902D01*
X127933Y301935D01*
X127998Y301958D01*
X128085Y302015D01*
X128178Y302064D01*
X128230Y302109D01*
X128288Y302147D01*
X128360Y302222D01*
X128438Y302291D01*
X128479Y302347D01*
X128526Y302397D01*
X128579Y302487D01*
X128640Y302572D01*
X128666Y302636D01*
X128701Y302695D01*
X128732Y302795D01*
X128772Y302891D01*
X128783Y302960D01*
X128803Y303026D01*
X128811Y303130D01*
X128827Y303233D01*
X128822Y303302D01*
X128827Y303371D01*
X128810Y303473D01*
X128803Y303578D01*
X128782Y303644D01*
X128771Y303712D01*
X128731Y303808D01*
X128700Y303908D01*
X128665Y303967D01*
X128638Y304031D01*
X128577Y304115D01*
X128524Y304205D01*
X128456Y304284D01*
X128436Y304311D01*
X128419Y304326D01*
X128390Y304360D01*
X127398Y305352D01*
X125799Y309211D01*
X125799Y328389D01*
X127398Y332248D01*
X128390Y333240D01*
X128454Y333322D01*
X128526Y333397D01*
X128561Y333457D01*
X128604Y333511D01*
X128649Y333605D01*
X128701Y333695D01*
X128722Y333761D01*
X128751Y333824D01*
X128773Y333926D01*
X128803Y334026D01*
X128808Y334095D01*
X128822Y334162D01*
X128820Y334266D01*
X128827Y334371D01*
X128816Y334439D01*
X128814Y334508D01*
X128788Y334609D01*
X128771Y334712D01*
X128745Y334776D01*
X128727Y334842D01*
X128678Y334935D01*
X128638Y335031D01*
X128598Y335087D01*
X128566Y335148D01*
X128497Y335227D01*
X128436Y335311D01*
X128384Y335357D01*
X128339Y335409D01*
X128254Y335470D01*
X128175Y335538D01*
X128114Y335570D01*
X128058Y335611D01*
X127962Y335650D01*
X127869Y335699D01*
X127802Y335716D01*
X127738Y335742D01*
X127635Y335759D01*
X127534Y335785D01*
X127430Y335792D01*
X127397Y335798D01*
X127374Y335796D01*
X127329Y335799D01*
X119112Y335799D01*
X115069Y337474D01*
X111974Y340569D01*
X110299Y344612D01*
X110299Y348988D01*
X111974Y353031D01*
X115069Y356126D01*
X119112Y357801D01*
X139488Y357801D01*
X143531Y356126D01*
X146626Y353031D01*
X148301Y348988D01*
X148301Y344612D01*
X146626Y340569D01*
X143531Y337474D01*
X143091Y337291D01*
X142953Y337215D01*
X142816Y337143D01*
X142803Y337131D01*
X142789Y337123D01*
X142672Y337017D01*
X142555Y336915D01*
X142546Y336902D01*
X142533Y336890D01*
X142445Y336761D01*
X142354Y336635D01*
X142347Y336619D01*
X142338Y336605D01*
X142282Y336460D01*
X142222Y336315D01*
X142219Y336298D01*
X142213Y336282D01*
X142192Y336129D01*
X142167Y335974D01*
X142168Y335957D01*
X142165Y335940D01*
X142180Y335785D01*
X142191Y335629D01*
X142196Y335613D01*
X142198Y335596D01*
X142247Y335448D01*
X142294Y335299D01*
X142302Y335284D01*
X142308Y335268D01*
X142390Y335136D01*
X142469Y335001D01*
X142484Y334984D01*
X142490Y334974D01*
X142510Y334955D01*
X142584Y334870D01*
X142586Y334866D01*
X142588Y334865D01*
X142604Y334846D01*
X145202Y332248D01*
X146801Y328389D01*
X146801Y309211D01*
X145202Y305352D01*
X142604Y302754D01*
X142508Y302632D01*
X142407Y302511D01*
X142400Y302496D01*
X142389Y302483D01*
X142323Y302342D01*
X142254Y302202D01*
X142250Y302185D01*
X142243Y302170D01*
X142210Y302017D01*
X142175Y301865D01*
X142175Y301848D01*
X142171Y301831D01*
X142175Y301675D01*
X142175Y301519D01*
X142179Y301503D01*
X142179Y301486D01*
X142219Y301335D01*
X142255Y301183D01*
X142262Y301168D01*
X142267Y301151D01*
X142339Y301013D01*
X142409Y300873D01*
X142420Y300860D01*
X142428Y300845D01*
X142530Y300728D01*
X142631Y300608D01*
X142644Y300598D01*
X142655Y300585D01*
X142782Y300494D01*
X142907Y300400D01*
X142926Y300390D01*
X142936Y300383D01*
X142962Y300373D01*
X143091Y300309D01*
X143531Y300126D01*
X146626Y297031D01*
X148301Y292988D01*
X148301Y288612D01*
X146626Y284569D01*
X143531Y281474D01*
X139488Y279799D01*
X119112Y279799D01*
G37*
%LPD*%
%LPC*%
G36*
X119212Y381299D02*
X119212Y381299D01*
X115169Y382974D01*
X112074Y386069D01*
X110399Y390112D01*
X110399Y394488D01*
X112074Y398531D01*
X115169Y401626D01*
X119212Y403301D01*
X127429Y403301D01*
X127533Y403313D01*
X127637Y403315D01*
X127704Y403333D01*
X127773Y403341D01*
X127871Y403376D01*
X127972Y403402D01*
X128033Y403435D01*
X128098Y403458D01*
X128185Y403515D01*
X128278Y403564D01*
X128330Y403609D01*
X128388Y403647D01*
X128460Y403722D01*
X128538Y403791D01*
X128579Y403847D01*
X128626Y403897D01*
X128679Y403987D01*
X128740Y404072D01*
X128766Y404136D01*
X128801Y404195D01*
X128832Y404295D01*
X128872Y404391D01*
X128883Y404460D01*
X128903Y404526D01*
X128911Y404630D01*
X128927Y404733D01*
X128922Y404802D01*
X128927Y404871D01*
X128910Y404973D01*
X128903Y405078D01*
X128882Y405144D01*
X128871Y405212D01*
X128831Y405308D01*
X128800Y405408D01*
X128765Y405467D01*
X128738Y405531D01*
X128677Y405615D01*
X128624Y405705D01*
X128556Y405784D01*
X128536Y405811D01*
X128519Y405826D01*
X128490Y405860D01*
X127498Y406852D01*
X125899Y410711D01*
X125899Y429889D01*
X127498Y433748D01*
X128490Y434740D01*
X128554Y434822D01*
X128626Y434897D01*
X128661Y434957D01*
X128704Y435011D01*
X128749Y435105D01*
X128801Y435195D01*
X128822Y435261D01*
X128851Y435324D01*
X128873Y435426D01*
X128903Y435526D01*
X128908Y435595D01*
X128922Y435662D01*
X128920Y435766D01*
X128927Y435871D01*
X128916Y435939D01*
X128914Y436008D01*
X128888Y436109D01*
X128871Y436212D01*
X128845Y436276D01*
X128827Y436342D01*
X128778Y436435D01*
X128738Y436531D01*
X128698Y436587D01*
X128666Y436648D01*
X128597Y436727D01*
X128536Y436811D01*
X128484Y436857D01*
X128439Y436909D01*
X128354Y436970D01*
X128275Y437038D01*
X128214Y437070D01*
X128158Y437111D01*
X128062Y437150D01*
X127969Y437199D01*
X127902Y437216D01*
X127838Y437242D01*
X127735Y437259D01*
X127634Y437285D01*
X127530Y437292D01*
X127497Y437298D01*
X127474Y437296D01*
X127429Y437299D01*
X119212Y437299D01*
X115169Y438974D01*
X112074Y442069D01*
X110399Y446112D01*
X110399Y450488D01*
X112074Y454531D01*
X115169Y457626D01*
X119212Y459301D01*
X139588Y459301D01*
X143631Y457626D01*
X146726Y454531D01*
X148401Y450488D01*
X148401Y446112D01*
X146726Y442069D01*
X143631Y438974D01*
X143191Y438791D01*
X143054Y438715D01*
X142916Y438643D01*
X142903Y438631D01*
X142889Y438623D01*
X142773Y438518D01*
X142655Y438415D01*
X142645Y438402D01*
X142633Y438390D01*
X142545Y438262D01*
X142454Y438135D01*
X142447Y438119D01*
X142438Y438105D01*
X142382Y437960D01*
X142322Y437815D01*
X142319Y437798D01*
X142313Y437783D01*
X142292Y437628D01*
X142266Y437474D01*
X142268Y437457D01*
X142265Y437440D01*
X142280Y437285D01*
X142291Y437129D01*
X142296Y437113D01*
X142297Y437096D01*
X142347Y436947D01*
X142394Y436799D01*
X142402Y436784D01*
X142408Y436768D01*
X142490Y436635D01*
X142569Y436501D01*
X142584Y436484D01*
X142590Y436474D01*
X142610Y436455D01*
X142704Y436346D01*
X145302Y433748D01*
X146901Y429889D01*
X146901Y410711D01*
X145302Y406852D01*
X142704Y404254D01*
X142607Y404131D01*
X142507Y404011D01*
X142500Y403996D01*
X142489Y403983D01*
X142423Y403842D01*
X142354Y403702D01*
X142350Y403685D01*
X142343Y403670D01*
X142310Y403517D01*
X142275Y403365D01*
X142275Y403348D01*
X142271Y403331D01*
X142275Y403175D01*
X142275Y403019D01*
X142279Y403003D01*
X142279Y402986D01*
X142319Y402835D01*
X142355Y402683D01*
X142362Y402668D01*
X142367Y402651D01*
X142439Y402513D01*
X142509Y402373D01*
X142520Y402360D01*
X142528Y402345D01*
X142631Y402228D01*
X142731Y402108D01*
X142744Y402098D01*
X142755Y402085D01*
X142881Y401994D01*
X143007Y401900D01*
X143026Y401890D01*
X143036Y401883D01*
X143061Y401873D01*
X143191Y401809D01*
X143631Y401626D01*
X146726Y398531D01*
X148401Y394488D01*
X148401Y390112D01*
X146726Y386069D01*
X143631Y382974D01*
X139588Y381299D01*
X119212Y381299D01*
G37*
%LPD*%
%LPC*%
G36*
X603903Y221497D02*
X603903Y221497D01*
X603872Y221515D01*
X603845Y221538D01*
X603723Y221602D01*
X603605Y221672D01*
X603571Y221682D01*
X603539Y221699D01*
X603406Y221733D01*
X603274Y221774D01*
X603239Y221776D01*
X603204Y221785D01*
X603000Y221799D01*
X593959Y221799D01*
X593959Y227590D01*
X594206Y229151D01*
X594695Y230654D01*
X595412Y232062D01*
X596341Y233341D01*
X597459Y234459D01*
X598124Y234942D01*
X598198Y235010D01*
X598279Y235071D01*
X598325Y235127D01*
X598378Y235176D01*
X598435Y235260D01*
X598500Y235337D01*
X598532Y235402D01*
X598572Y235462D01*
X598609Y235557D01*
X598653Y235647D01*
X598670Y235717D01*
X598696Y235785D01*
X598709Y235885D01*
X598732Y235984D01*
X598732Y236056D01*
X598742Y236128D01*
X598732Y236228D01*
X598732Y236329D01*
X598715Y236400D01*
X598708Y236472D01*
X598676Y236567D01*
X598652Y236666D01*
X598620Y236731D01*
X598597Y236799D01*
X598543Y236885D01*
X598498Y236975D01*
X598451Y237031D01*
X598413Y237092D01*
X598341Y237163D01*
X598277Y237241D01*
X598219Y237284D01*
X598167Y237335D01*
X598081Y237388D01*
X598000Y237449D01*
X597901Y237498D01*
X597872Y237516D01*
X597853Y237522D01*
X597817Y237540D01*
X596769Y237974D01*
X593674Y241069D01*
X591999Y245112D01*
X591999Y249488D01*
X593674Y253531D01*
X596769Y256626D01*
X600812Y258301D01*
X621188Y258301D01*
X625231Y256626D01*
X628326Y253531D01*
X630001Y249488D01*
X630001Y245112D01*
X628326Y241069D01*
X625231Y237974D01*
X621188Y236299D01*
X612320Y236299D01*
X612216Y236287D01*
X612112Y236285D01*
X612045Y236267D01*
X611977Y236259D01*
X611878Y236224D01*
X611777Y236198D01*
X611716Y236165D01*
X611651Y236142D01*
X611564Y236085D01*
X611472Y236036D01*
X611420Y235991D01*
X611362Y235953D01*
X611290Y235878D01*
X611211Y235809D01*
X611171Y235753D01*
X611123Y235703D01*
X611070Y235613D01*
X611009Y235528D01*
X610983Y235464D01*
X610948Y235405D01*
X610917Y235305D01*
X610877Y235209D01*
X610866Y235140D01*
X610846Y235074D01*
X610839Y234970D01*
X610822Y234867D01*
X610827Y234798D01*
X610822Y234729D01*
X610839Y234626D01*
X610847Y234522D01*
X610867Y234456D01*
X610878Y234388D01*
X610918Y234292D01*
X610949Y234192D01*
X610985Y234133D01*
X611011Y234069D01*
X611072Y233984D01*
X611125Y233895D01*
X611193Y233816D01*
X611213Y233789D01*
X611230Y233774D01*
X611260Y233740D01*
X611659Y233341D01*
X612588Y232062D01*
X613305Y230654D01*
X613794Y229151D01*
X614041Y227590D01*
X614041Y221799D01*
X605000Y221799D01*
X604965Y221795D01*
X604930Y221798D01*
X604794Y221775D01*
X604657Y221759D01*
X604623Y221747D01*
X604588Y221742D01*
X604461Y221689D01*
X604332Y221642D01*
X604302Y221623D01*
X604269Y221609D01*
X604157Y221528D01*
X604042Y221453D01*
X604018Y221427D01*
X603994Y221410D01*
X603903Y221497D01*
G37*
%LPD*%
%LPC*%
G36*
X604803Y321997D02*
X604803Y321997D01*
X604772Y322015D01*
X604745Y322038D01*
X604623Y322102D01*
X604505Y322172D01*
X604471Y322182D01*
X604439Y322199D01*
X604306Y322233D01*
X604174Y322274D01*
X604139Y322276D01*
X604104Y322285D01*
X603900Y322299D01*
X594859Y322299D01*
X594859Y328090D01*
X595106Y329651D01*
X595595Y331154D01*
X596312Y332562D01*
X597241Y333841D01*
X598359Y334959D01*
X599024Y335442D01*
X599098Y335510D01*
X599179Y335571D01*
X599225Y335627D01*
X599278Y335676D01*
X599335Y335760D01*
X599400Y335837D01*
X599432Y335902D01*
X599472Y335962D01*
X599509Y336057D01*
X599553Y336147D01*
X599570Y336217D01*
X599596Y336285D01*
X599609Y336385D01*
X599632Y336484D01*
X599632Y336556D01*
X599642Y336628D01*
X599632Y336728D01*
X599632Y336829D01*
X599615Y336900D01*
X599608Y336972D01*
X599576Y337067D01*
X599552Y337166D01*
X599520Y337231D01*
X599497Y337299D01*
X599443Y337385D01*
X599398Y337475D01*
X599351Y337531D01*
X599313Y337592D01*
X599241Y337663D01*
X599177Y337741D01*
X599119Y337784D01*
X599067Y337835D01*
X598981Y337888D01*
X598900Y337949D01*
X598801Y337998D01*
X598772Y338016D01*
X598753Y338022D01*
X598717Y338040D01*
X597669Y338474D01*
X594574Y341569D01*
X592899Y345612D01*
X592899Y349988D01*
X594574Y354031D01*
X597669Y357126D01*
X601712Y358801D01*
X622088Y358801D01*
X626131Y357126D01*
X629226Y354031D01*
X630901Y349988D01*
X630901Y345612D01*
X629226Y341569D01*
X626131Y338474D01*
X622088Y336799D01*
X613220Y336799D01*
X613116Y336787D01*
X613012Y336785D01*
X612945Y336767D01*
X612877Y336759D01*
X612778Y336724D01*
X612677Y336698D01*
X612616Y336665D01*
X612551Y336642D01*
X612464Y336585D01*
X612372Y336536D01*
X612320Y336491D01*
X612262Y336453D01*
X612190Y336378D01*
X612111Y336309D01*
X612071Y336253D01*
X612023Y336203D01*
X611970Y336113D01*
X611909Y336028D01*
X611883Y335964D01*
X611848Y335905D01*
X611817Y335805D01*
X611777Y335709D01*
X611766Y335640D01*
X611746Y335574D01*
X611739Y335470D01*
X611722Y335367D01*
X611727Y335298D01*
X611722Y335229D01*
X611739Y335126D01*
X611747Y335022D01*
X611767Y334956D01*
X611778Y334888D01*
X611818Y334792D01*
X611849Y334692D01*
X611885Y334633D01*
X611911Y334569D01*
X611972Y334484D01*
X612025Y334395D01*
X612093Y334316D01*
X612113Y334289D01*
X612130Y334274D01*
X612160Y334240D01*
X612559Y333841D01*
X613488Y332562D01*
X614205Y331154D01*
X614694Y329651D01*
X614941Y328090D01*
X614941Y322299D01*
X605900Y322299D01*
X605865Y322295D01*
X605830Y322298D01*
X605694Y322275D01*
X605557Y322259D01*
X605523Y322247D01*
X605488Y322242D01*
X605361Y322189D01*
X605232Y322142D01*
X605202Y322123D01*
X605169Y322109D01*
X605057Y322028D01*
X604942Y321953D01*
X604918Y321927D01*
X604894Y321910D01*
X604803Y321997D01*
G37*
%LPD*%
%LPC*%
G36*
X603803Y520597D02*
X603803Y520597D01*
X603772Y520615D01*
X603745Y520638D01*
X603623Y520702D01*
X603505Y520772D01*
X603471Y520782D01*
X603439Y520799D01*
X603306Y520833D01*
X603174Y520874D01*
X603139Y520876D01*
X603104Y520885D01*
X602900Y520899D01*
X593859Y520899D01*
X593859Y526690D01*
X594106Y528251D01*
X594595Y529754D01*
X595312Y531162D01*
X596241Y532441D01*
X597359Y533559D01*
X598024Y534042D01*
X598098Y534110D01*
X598179Y534171D01*
X598225Y534227D01*
X598278Y534276D01*
X598335Y534360D01*
X598400Y534437D01*
X598432Y534502D01*
X598472Y534562D01*
X598509Y534657D01*
X598553Y534747D01*
X598570Y534817D01*
X598596Y534885D01*
X598609Y534985D01*
X598632Y535084D01*
X598632Y535156D01*
X598642Y535228D01*
X598632Y535328D01*
X598632Y535429D01*
X598615Y535500D01*
X598608Y535572D01*
X598576Y535667D01*
X598552Y535766D01*
X598520Y535831D01*
X598497Y535899D01*
X598443Y535985D01*
X598398Y536075D01*
X598351Y536131D01*
X598313Y536192D01*
X598241Y536263D01*
X598177Y536341D01*
X598119Y536384D01*
X598067Y536435D01*
X597981Y536488D01*
X597900Y536549D01*
X597801Y536598D01*
X597772Y536616D01*
X597753Y536622D01*
X597717Y536640D01*
X596669Y537074D01*
X593574Y540169D01*
X591899Y544212D01*
X591899Y548588D01*
X593574Y552631D01*
X596669Y555726D01*
X600712Y557401D01*
X621088Y557401D01*
X625131Y555726D01*
X628226Y552631D01*
X629901Y548588D01*
X629901Y544212D01*
X628226Y540169D01*
X625131Y537074D01*
X621088Y535399D01*
X612220Y535399D01*
X612116Y535387D01*
X612012Y535385D01*
X611945Y535367D01*
X611877Y535359D01*
X611778Y535324D01*
X611677Y535298D01*
X611616Y535265D01*
X611551Y535242D01*
X611464Y535185D01*
X611372Y535136D01*
X611320Y535091D01*
X611262Y535053D01*
X611190Y534978D01*
X611111Y534909D01*
X611071Y534853D01*
X611023Y534803D01*
X610970Y534713D01*
X610909Y534628D01*
X610883Y534564D01*
X610848Y534505D01*
X610817Y534405D01*
X610777Y534309D01*
X610766Y534240D01*
X610746Y534174D01*
X610739Y534070D01*
X610722Y533967D01*
X610727Y533898D01*
X610722Y533829D01*
X610739Y533726D01*
X610747Y533622D01*
X610767Y533556D01*
X610778Y533488D01*
X610818Y533392D01*
X610849Y533292D01*
X610885Y533233D01*
X610911Y533169D01*
X610972Y533084D01*
X611025Y532995D01*
X611093Y532916D01*
X611113Y532889D01*
X611130Y532874D01*
X611160Y532840D01*
X611559Y532441D01*
X612488Y531162D01*
X613205Y529754D01*
X613694Y528251D01*
X613941Y526690D01*
X613941Y520899D01*
X604900Y520899D01*
X604865Y520895D01*
X604830Y520898D01*
X604694Y520875D01*
X604557Y520859D01*
X604523Y520847D01*
X604488Y520842D01*
X604361Y520789D01*
X604232Y520742D01*
X604202Y520723D01*
X604169Y520709D01*
X604057Y520628D01*
X603942Y520553D01*
X603918Y520527D01*
X603894Y520510D01*
X603803Y520597D01*
G37*
%LPD*%
%LPC*%
G36*
X603403Y421497D02*
X603403Y421497D01*
X603372Y421515D01*
X603345Y421538D01*
X603223Y421602D01*
X603105Y421672D01*
X603071Y421682D01*
X603039Y421699D01*
X602906Y421733D01*
X602774Y421774D01*
X602739Y421776D01*
X602704Y421785D01*
X602500Y421799D01*
X593459Y421799D01*
X593459Y427590D01*
X593706Y429151D01*
X594195Y430654D01*
X594912Y432062D01*
X595841Y433341D01*
X596959Y434459D01*
X597624Y434942D01*
X597698Y435010D01*
X597779Y435071D01*
X597825Y435127D01*
X597878Y435176D01*
X597935Y435260D01*
X598000Y435337D01*
X598032Y435402D01*
X598072Y435462D01*
X598109Y435557D01*
X598153Y435647D01*
X598170Y435717D01*
X598196Y435785D01*
X598209Y435885D01*
X598232Y435984D01*
X598232Y436056D01*
X598242Y436128D01*
X598232Y436228D01*
X598232Y436329D01*
X598215Y436400D01*
X598208Y436472D01*
X598176Y436567D01*
X598152Y436666D01*
X598120Y436731D01*
X598097Y436799D01*
X598043Y436885D01*
X597998Y436975D01*
X597951Y437031D01*
X597913Y437092D01*
X597841Y437163D01*
X597777Y437241D01*
X597719Y437284D01*
X597667Y437335D01*
X597581Y437388D01*
X597500Y437449D01*
X597401Y437498D01*
X597372Y437516D01*
X597353Y437522D01*
X597317Y437540D01*
X596269Y437974D01*
X593174Y441069D01*
X591499Y445112D01*
X591499Y449488D01*
X593174Y453531D01*
X596269Y456626D01*
X600312Y458301D01*
X620688Y458301D01*
X624731Y456626D01*
X627826Y453531D01*
X629501Y449488D01*
X629501Y445112D01*
X627826Y441069D01*
X624731Y437974D01*
X620688Y436299D01*
X611820Y436299D01*
X611716Y436287D01*
X611612Y436285D01*
X611545Y436267D01*
X611477Y436259D01*
X611378Y436224D01*
X611277Y436198D01*
X611216Y436165D01*
X611151Y436142D01*
X611064Y436085D01*
X610972Y436036D01*
X610920Y435991D01*
X610862Y435953D01*
X610790Y435878D01*
X610711Y435809D01*
X610671Y435753D01*
X610623Y435703D01*
X610570Y435613D01*
X610509Y435528D01*
X610483Y435464D01*
X610448Y435405D01*
X610417Y435305D01*
X610377Y435209D01*
X610366Y435140D01*
X610346Y435074D01*
X610339Y434970D01*
X610322Y434867D01*
X610327Y434798D01*
X610322Y434729D01*
X610339Y434626D01*
X610347Y434522D01*
X610367Y434456D01*
X610378Y434388D01*
X610418Y434292D01*
X610449Y434192D01*
X610485Y434133D01*
X610511Y434069D01*
X610572Y433984D01*
X610625Y433895D01*
X610693Y433816D01*
X610713Y433789D01*
X610730Y433774D01*
X610760Y433740D01*
X611159Y433341D01*
X612088Y432062D01*
X612805Y430654D01*
X613294Y429151D01*
X613541Y427590D01*
X613541Y421799D01*
X604500Y421799D01*
X604465Y421795D01*
X604430Y421798D01*
X604294Y421775D01*
X604157Y421759D01*
X604123Y421747D01*
X604088Y421742D01*
X603961Y421689D01*
X603832Y421642D01*
X603802Y421623D01*
X603769Y421609D01*
X603657Y421528D01*
X603542Y421453D01*
X603518Y421427D01*
X603494Y421410D01*
X603403Y421497D01*
G37*
%LPD*%
%LPC*%
G36*
X601712Y280799D02*
X601712Y280799D01*
X597669Y282474D01*
X594574Y285569D01*
X592899Y289612D01*
X592899Y293988D01*
X594574Y298031D01*
X597669Y301126D01*
X598717Y301560D01*
X598805Y301609D01*
X598897Y301650D01*
X598955Y301693D01*
X599019Y301728D01*
X599093Y301796D01*
X599174Y301857D01*
X599220Y301912D01*
X599274Y301961D01*
X599331Y302045D01*
X599396Y302122D01*
X599428Y302187D01*
X599469Y302247D01*
X599506Y302341D01*
X599551Y302431D01*
X599568Y302502D01*
X599594Y302569D01*
X599608Y302669D01*
X599631Y302767D01*
X599632Y302840D01*
X599642Y302911D01*
X599632Y303012D01*
X599633Y303113D01*
X599616Y303184D01*
X599610Y303256D01*
X599577Y303351D01*
X599555Y303450D01*
X599522Y303515D01*
X599499Y303583D01*
X599446Y303669D01*
X599401Y303760D01*
X599355Y303816D01*
X599317Y303877D01*
X599246Y303949D01*
X599181Y304026D01*
X599096Y304098D01*
X599072Y304121D01*
X599055Y304132D01*
X599024Y304158D01*
X598359Y304641D01*
X597241Y305759D01*
X596312Y307038D01*
X595595Y308446D01*
X595106Y309949D01*
X594859Y311510D01*
X594859Y317301D01*
X603900Y317301D01*
X603935Y317305D01*
X603970Y317302D01*
X604106Y317325D01*
X604243Y317341D01*
X604277Y317353D01*
X604312Y317358D01*
X604439Y317411D01*
X604568Y317458D01*
X604598Y317477D01*
X604631Y317491D01*
X604743Y317572D01*
X604858Y317647D01*
X604882Y317673D01*
X604906Y317690D01*
X604997Y317603D01*
X605028Y317585D01*
X605055Y317562D01*
X605177Y317498D01*
X605295Y317428D01*
X605329Y317418D01*
X605361Y317401D01*
X605494Y317367D01*
X605626Y317326D01*
X605661Y317324D01*
X605696Y317315D01*
X605900Y317301D01*
X614941Y317301D01*
X614941Y311510D01*
X614694Y309949D01*
X614205Y308446D01*
X613488Y307038D01*
X612559Y305759D01*
X612160Y305360D01*
X612095Y305278D01*
X612023Y305203D01*
X611988Y305143D01*
X611945Y305089D01*
X611901Y304995D01*
X611848Y304905D01*
X611828Y304839D01*
X611798Y304776D01*
X611777Y304674D01*
X611746Y304574D01*
X611741Y304505D01*
X611727Y304438D01*
X611729Y304334D01*
X611722Y304229D01*
X611734Y304161D01*
X611735Y304092D01*
X611761Y303991D01*
X611778Y303888D01*
X611805Y303825D01*
X611822Y303758D01*
X611871Y303665D01*
X611911Y303569D01*
X611951Y303513D01*
X611984Y303452D01*
X612052Y303373D01*
X612113Y303289D01*
X612166Y303243D01*
X612211Y303191D01*
X612296Y303130D01*
X612374Y303062D01*
X612436Y303030D01*
X612492Y302989D01*
X612588Y302950D01*
X612680Y302901D01*
X612747Y302884D01*
X612811Y302858D01*
X612914Y302841D01*
X613015Y302815D01*
X613119Y302808D01*
X613153Y302802D01*
X613175Y302804D01*
X613220Y302801D01*
X622088Y302801D01*
X626131Y301126D01*
X629226Y298031D01*
X630901Y293988D01*
X630901Y289612D01*
X629226Y285569D01*
X626131Y282474D01*
X622088Y280799D01*
X601712Y280799D01*
G37*
%LPD*%
%LPC*%
G36*
X600712Y479399D02*
X600712Y479399D01*
X596669Y481074D01*
X593574Y484169D01*
X591899Y488212D01*
X591899Y492588D01*
X593574Y496631D01*
X596669Y499726D01*
X597717Y500160D01*
X597805Y500209D01*
X597897Y500250D01*
X597955Y500293D01*
X598019Y500328D01*
X598093Y500396D01*
X598174Y500457D01*
X598220Y500512D01*
X598274Y500561D01*
X598331Y500645D01*
X598396Y500722D01*
X598428Y500787D01*
X598469Y500847D01*
X598506Y500941D01*
X598551Y501031D01*
X598568Y501102D01*
X598594Y501169D01*
X598608Y501269D01*
X598631Y501367D01*
X598632Y501440D01*
X598642Y501511D01*
X598632Y501612D01*
X598633Y501713D01*
X598616Y501784D01*
X598610Y501856D01*
X598577Y501951D01*
X598555Y502050D01*
X598522Y502115D01*
X598499Y502183D01*
X598446Y502269D01*
X598401Y502360D01*
X598355Y502416D01*
X598317Y502477D01*
X598246Y502549D01*
X598181Y502626D01*
X598096Y502698D01*
X598072Y502721D01*
X598055Y502732D01*
X598024Y502758D01*
X597359Y503241D01*
X596241Y504359D01*
X595312Y505638D01*
X594595Y507046D01*
X594106Y508549D01*
X593859Y510110D01*
X593859Y515901D01*
X602900Y515901D01*
X602935Y515905D01*
X602970Y515902D01*
X603106Y515925D01*
X603243Y515941D01*
X603277Y515953D01*
X603312Y515958D01*
X603439Y516011D01*
X603568Y516058D01*
X603598Y516077D01*
X603631Y516091D01*
X603743Y516172D01*
X603858Y516247D01*
X603882Y516273D01*
X603906Y516290D01*
X603997Y516203D01*
X604028Y516185D01*
X604055Y516162D01*
X604177Y516098D01*
X604295Y516028D01*
X604329Y516018D01*
X604361Y516001D01*
X604494Y515967D01*
X604626Y515926D01*
X604661Y515924D01*
X604696Y515915D01*
X604900Y515901D01*
X613941Y515901D01*
X613941Y510110D01*
X613694Y508549D01*
X613205Y507046D01*
X612488Y505638D01*
X611559Y504359D01*
X611160Y503960D01*
X611095Y503878D01*
X611023Y503803D01*
X610988Y503743D01*
X610945Y503689D01*
X610901Y503595D01*
X610848Y503505D01*
X610828Y503439D01*
X610798Y503376D01*
X610777Y503274D01*
X610746Y503174D01*
X610741Y503105D01*
X610727Y503038D01*
X610729Y502934D01*
X610722Y502829D01*
X610734Y502761D01*
X610735Y502692D01*
X610761Y502591D01*
X610778Y502488D01*
X610805Y502425D01*
X610822Y502358D01*
X610871Y502265D01*
X610911Y502169D01*
X610951Y502113D01*
X610984Y502052D01*
X611052Y501973D01*
X611113Y501889D01*
X611166Y501843D01*
X611211Y501791D01*
X611296Y501730D01*
X611374Y501662D01*
X611436Y501630D01*
X611492Y501589D01*
X611588Y501550D01*
X611680Y501501D01*
X611747Y501484D01*
X611811Y501458D01*
X611914Y501441D01*
X612015Y501415D01*
X612119Y501408D01*
X612153Y501402D01*
X612175Y501404D01*
X612220Y501401D01*
X621088Y501401D01*
X625131Y499726D01*
X628226Y496631D01*
X629901Y492588D01*
X629901Y488212D01*
X628226Y484169D01*
X625131Y481074D01*
X621088Y479399D01*
X600712Y479399D01*
G37*
%LPD*%
%LPC*%
G36*
X600312Y380299D02*
X600312Y380299D01*
X596269Y381974D01*
X593174Y385069D01*
X591499Y389112D01*
X591499Y393488D01*
X593174Y397531D01*
X596269Y400626D01*
X597317Y401060D01*
X597405Y401109D01*
X597497Y401150D01*
X597555Y401193D01*
X597619Y401228D01*
X597693Y401296D01*
X597774Y401357D01*
X597820Y401412D01*
X597874Y401461D01*
X597931Y401545D01*
X597996Y401622D01*
X598028Y401687D01*
X598069Y401747D01*
X598106Y401841D01*
X598151Y401931D01*
X598168Y402002D01*
X598194Y402069D01*
X598208Y402169D01*
X598231Y402267D01*
X598232Y402340D01*
X598242Y402411D01*
X598232Y402512D01*
X598233Y402613D01*
X598216Y402684D01*
X598210Y402756D01*
X598177Y402851D01*
X598155Y402950D01*
X598122Y403015D01*
X598099Y403083D01*
X598046Y403169D01*
X598001Y403260D01*
X597955Y403316D01*
X597917Y403377D01*
X597846Y403449D01*
X597781Y403526D01*
X597696Y403598D01*
X597672Y403621D01*
X597655Y403632D01*
X597624Y403658D01*
X596959Y404141D01*
X595841Y405259D01*
X594912Y406538D01*
X594195Y407946D01*
X593706Y409449D01*
X593459Y411010D01*
X593459Y416801D01*
X602500Y416801D01*
X602535Y416805D01*
X602570Y416802D01*
X602706Y416825D01*
X602843Y416841D01*
X602877Y416853D01*
X602912Y416858D01*
X603039Y416911D01*
X603168Y416958D01*
X603198Y416977D01*
X603231Y416991D01*
X603343Y417072D01*
X603458Y417147D01*
X603482Y417173D01*
X603506Y417190D01*
X603597Y417103D01*
X603628Y417085D01*
X603655Y417062D01*
X603777Y416998D01*
X603895Y416928D01*
X603929Y416918D01*
X603961Y416901D01*
X604094Y416867D01*
X604226Y416826D01*
X604261Y416824D01*
X604296Y416815D01*
X604500Y416801D01*
X613541Y416801D01*
X613541Y411010D01*
X613294Y409449D01*
X612805Y407946D01*
X612088Y406538D01*
X611159Y405259D01*
X610760Y404860D01*
X610695Y404778D01*
X610623Y404703D01*
X610588Y404643D01*
X610545Y404589D01*
X610501Y404495D01*
X610448Y404405D01*
X610428Y404339D01*
X610398Y404276D01*
X610377Y404174D01*
X610346Y404074D01*
X610341Y404005D01*
X610327Y403938D01*
X610329Y403834D01*
X610322Y403729D01*
X610334Y403661D01*
X610335Y403592D01*
X610361Y403491D01*
X610378Y403388D01*
X610405Y403325D01*
X610422Y403258D01*
X610471Y403165D01*
X610511Y403069D01*
X610551Y403013D01*
X610584Y402952D01*
X610652Y402873D01*
X610713Y402789D01*
X610766Y402743D01*
X610811Y402691D01*
X610896Y402630D01*
X610974Y402562D01*
X611036Y402530D01*
X611092Y402489D01*
X611188Y402450D01*
X611280Y402401D01*
X611347Y402384D01*
X611411Y402358D01*
X611514Y402341D01*
X611615Y402315D01*
X611719Y402308D01*
X611753Y402302D01*
X611775Y402304D01*
X611820Y402301D01*
X620688Y402301D01*
X624731Y400626D01*
X627826Y397531D01*
X629501Y393488D01*
X629501Y389112D01*
X627826Y385069D01*
X624731Y381974D01*
X620688Y380299D01*
X600312Y380299D01*
G37*
%LPD*%
%LPC*%
G36*
X600812Y180299D02*
X600812Y180299D01*
X596769Y181974D01*
X593674Y185069D01*
X591999Y189112D01*
X591999Y193488D01*
X593674Y197531D01*
X596769Y200626D01*
X597817Y201060D01*
X597862Y201085D01*
X597910Y201103D01*
X597951Y201129D01*
X597997Y201150D01*
X598055Y201193D01*
X598119Y201228D01*
X598158Y201265D01*
X598200Y201292D01*
X598232Y201325D01*
X598274Y201357D01*
X598320Y201412D01*
X598374Y201461D01*
X598406Y201508D01*
X598438Y201542D01*
X598461Y201580D01*
X598496Y201622D01*
X598528Y201687D01*
X598569Y201747D01*
X598590Y201801D01*
X598613Y201840D01*
X598626Y201881D01*
X598651Y201931D01*
X598668Y202002D01*
X598694Y202069D01*
X598702Y202128D01*
X598715Y202170D01*
X598718Y202212D01*
X598731Y202267D01*
X598732Y202340D01*
X598742Y202411D01*
X598736Y202472D01*
X598739Y202515D01*
X598732Y202555D01*
X598733Y202613D01*
X598716Y202684D01*
X598710Y202756D01*
X598690Y202814D01*
X598683Y202856D01*
X598668Y202893D01*
X598655Y202950D01*
X598622Y203015D01*
X598599Y203083D01*
X598567Y203136D01*
X598550Y203176D01*
X598527Y203208D01*
X598501Y203260D01*
X598455Y203316D01*
X598417Y203377D01*
X598374Y203421D01*
X598348Y203456D01*
X598318Y203482D01*
X598281Y203526D01*
X598196Y203598D01*
X598172Y203621D01*
X598155Y203632D01*
X598124Y203658D01*
X597459Y204141D01*
X596341Y205259D01*
X595412Y206538D01*
X594695Y207946D01*
X594206Y209449D01*
X593959Y211010D01*
X593959Y216801D01*
X603000Y216801D01*
X603035Y216805D01*
X603070Y216802D01*
X603206Y216825D01*
X603343Y216841D01*
X603377Y216853D01*
X603412Y216858D01*
X603539Y216911D01*
X603668Y216958D01*
X603698Y216977D01*
X603731Y216991D01*
X603843Y217072D01*
X603958Y217147D01*
X603982Y217173D01*
X604006Y217190D01*
X604097Y217103D01*
X604128Y217085D01*
X604155Y217062D01*
X604277Y216998D01*
X604395Y216928D01*
X604429Y216918D01*
X604461Y216901D01*
X604594Y216867D01*
X604726Y216826D01*
X604761Y216824D01*
X604796Y216815D01*
X605000Y216801D01*
X614041Y216801D01*
X614041Y211010D01*
X613794Y209449D01*
X613305Y207946D01*
X612588Y206538D01*
X611659Y205259D01*
X611260Y204860D01*
X611195Y204778D01*
X611123Y204703D01*
X611088Y204643D01*
X611045Y204589D01*
X611001Y204495D01*
X610948Y204405D01*
X610928Y204339D01*
X610898Y204276D01*
X610877Y204174D01*
X610846Y204074D01*
X610841Y204005D01*
X610827Y203938D01*
X610829Y203834D01*
X610822Y203729D01*
X610834Y203661D01*
X610835Y203592D01*
X610861Y203491D01*
X610878Y203388D01*
X610905Y203325D01*
X610922Y203258D01*
X610971Y203165D01*
X611011Y203069D01*
X611051Y203013D01*
X611084Y202952D01*
X611152Y202873D01*
X611213Y202789D01*
X611266Y202743D01*
X611311Y202691D01*
X611396Y202630D01*
X611474Y202562D01*
X611536Y202530D01*
X611592Y202489D01*
X611688Y202450D01*
X611780Y202401D01*
X611847Y202384D01*
X611911Y202358D01*
X612014Y202341D01*
X612115Y202315D01*
X612219Y202308D01*
X612253Y202302D01*
X612275Y202304D01*
X612320Y202301D01*
X621188Y202301D01*
X625231Y200626D01*
X628326Y197531D01*
X630001Y193488D01*
X630001Y189112D01*
X628326Y185069D01*
X625231Y181974D01*
X621188Y180299D01*
X600812Y180299D01*
G37*
%LPD*%
%LPC*%
G36*
X67015Y604197D02*
X67015Y604197D01*
X61134Y606633D01*
X56633Y611134D01*
X54197Y617015D01*
X54197Y623380D01*
X56633Y629261D01*
X61134Y633762D01*
X67015Y636198D01*
X73380Y636198D01*
X79261Y633762D01*
X83762Y629261D01*
X86198Y623380D01*
X86198Y617015D01*
X83762Y611134D01*
X79261Y606633D01*
X73380Y604197D01*
X67015Y604197D01*
G37*
%LPD*%
%LPC*%
G36*
X667015Y604197D02*
X667015Y604197D01*
X661134Y606633D01*
X656633Y611134D01*
X654197Y617015D01*
X654197Y623380D01*
X656633Y629261D01*
X661134Y633762D01*
X667015Y636198D01*
X673380Y636198D01*
X679261Y633762D01*
X683762Y629261D01*
X686198Y623380D01*
X686198Y617015D01*
X683762Y611134D01*
X679261Y606633D01*
X673380Y604197D01*
X667015Y604197D01*
G37*
%LPD*%
%LPC*%
G36*
X667015Y104197D02*
X667015Y104197D01*
X661134Y106633D01*
X656633Y111134D01*
X654197Y117015D01*
X654197Y123380D01*
X656633Y129261D01*
X661134Y133762D01*
X667015Y136198D01*
X673380Y136198D01*
X679261Y133762D01*
X683762Y129261D01*
X686198Y123380D01*
X686198Y117015D01*
X683762Y111134D01*
X679261Y106633D01*
X673380Y104197D01*
X667015Y104197D01*
G37*
%LPD*%
%LPC*%
G36*
X67015Y104197D02*
X67015Y104197D01*
X61134Y106633D01*
X56633Y111134D01*
X54197Y117015D01*
X54197Y123380D01*
X56633Y129261D01*
X61134Y133762D01*
X67015Y136198D01*
X73380Y136198D01*
X79261Y133762D01*
X83762Y129261D01*
X86198Y123380D01*
X86198Y117015D01*
X83762Y111134D01*
X79261Y106633D01*
X73380Y104197D01*
X67015Y104197D01*
G37*
%LPD*%
%LPC*%
G36*
X637933Y28647D02*
X637933Y28647D01*
X633283Y30574D01*
X629724Y34133D01*
X627797Y38783D01*
X627797Y43817D01*
X629724Y48467D01*
X633283Y52026D01*
X637933Y53953D01*
X642967Y53953D01*
X647617Y52026D01*
X651176Y48467D01*
X653103Y43817D01*
X653103Y38783D01*
X651176Y34133D01*
X647617Y30574D01*
X647190Y30397D01*
X647151Y30375D01*
X647137Y30372D01*
X647096Y30355D01*
X647055Y30341D01*
X642967Y28647D01*
X637933Y28647D01*
G37*
%LPD*%
%LPC*%
G36*
X306510Y702589D02*
X306510Y702589D01*
X302982Y704051D01*
X300281Y706752D01*
X298819Y710280D01*
X298819Y714100D01*
X300281Y717628D01*
X302982Y720329D01*
X306510Y721791D01*
X310330Y721791D01*
X313858Y720329D01*
X316559Y717628D01*
X318021Y714100D01*
X318021Y710280D01*
X316559Y706752D01*
X313858Y704051D01*
X310330Y702589D01*
X306510Y702589D01*
G37*
%LPD*%
%LPC*%
G36*
X306510Y658589D02*
X306510Y658589D01*
X302982Y660051D01*
X300281Y662752D01*
X298819Y666280D01*
X298819Y670100D01*
X300281Y673628D01*
X302982Y676329D01*
X306510Y677791D01*
X310330Y677791D01*
X313858Y676329D01*
X316559Y673628D01*
X318021Y670100D01*
X318021Y666280D01*
X316559Y662752D01*
X313858Y660051D01*
X310330Y658589D01*
X306510Y658589D01*
G37*
%LPD*%
%LPC*%
G36*
X357310Y626589D02*
X357310Y626589D01*
X353782Y628051D01*
X351081Y630752D01*
X349619Y634280D01*
X349619Y638100D01*
X351081Y641628D01*
X353782Y644329D01*
X357310Y645791D01*
X361130Y645791D01*
X364658Y644329D01*
X367359Y641628D01*
X368821Y638100D01*
X368821Y634280D01*
X367359Y630752D01*
X364658Y628051D01*
X361130Y626589D01*
X357310Y626589D01*
G37*
%LPD*%
%LPC*%
G36*
X122967Y686574D02*
X122967Y686574D01*
X119470Y688023D01*
X116793Y690700D01*
X115344Y694197D01*
X115344Y697983D01*
X116793Y701480D01*
X119470Y704157D01*
X122967Y705606D01*
X126753Y705606D01*
X130250Y704157D01*
X132927Y701480D01*
X134376Y697983D01*
X134376Y694197D01*
X132927Y690700D01*
X130250Y688023D01*
X126753Y686574D01*
X122967Y686574D01*
G37*
%LPD*%
%LPC*%
G36*
X97609Y310299D02*
X97609Y310299D01*
X94485Y311593D01*
X92093Y313985D01*
X90799Y317109D01*
X90799Y320491D01*
X92093Y323615D01*
X94485Y326007D01*
X97609Y327301D01*
X100991Y327301D01*
X104115Y326007D01*
X106507Y323615D01*
X107801Y320491D01*
X107801Y317109D01*
X106507Y313985D01*
X104115Y311593D01*
X100991Y310299D01*
X97609Y310299D01*
G37*
%LPD*%
%LPC*%
G36*
X639309Y210799D02*
X639309Y210799D01*
X636185Y212093D01*
X633793Y214485D01*
X632499Y217609D01*
X632499Y220991D01*
X633793Y224115D01*
X636185Y226507D01*
X639309Y227801D01*
X642691Y227801D01*
X645815Y226507D01*
X648207Y224115D01*
X649501Y220991D01*
X649501Y217609D01*
X648207Y214485D01*
X645815Y212093D01*
X642691Y210799D01*
X639309Y210799D01*
G37*
%LPD*%
%LPC*%
G36*
X97409Y210799D02*
X97409Y210799D01*
X94285Y212093D01*
X91893Y214485D01*
X90599Y217609D01*
X90599Y220991D01*
X91893Y224115D01*
X94285Y226507D01*
X97409Y227801D01*
X100791Y227801D01*
X103915Y226507D01*
X106307Y224115D01*
X107601Y220991D01*
X107601Y217609D01*
X106307Y214485D01*
X103915Y212093D01*
X100791Y210799D01*
X97409Y210799D01*
G37*
%LPD*%
%LPC*%
G36*
X97409Y514199D02*
X97409Y514199D01*
X94285Y515493D01*
X91893Y517885D01*
X90599Y521009D01*
X90599Y524391D01*
X91893Y527515D01*
X94285Y529907D01*
X97409Y531201D01*
X100791Y531201D01*
X103915Y529907D01*
X106307Y527515D01*
X107601Y524391D01*
X107601Y521009D01*
X106307Y517885D01*
X103915Y515493D01*
X100791Y514199D01*
X97409Y514199D01*
G37*
%LPD*%
%LPC*%
G36*
X639209Y509899D02*
X639209Y509899D01*
X636085Y511193D01*
X633693Y513585D01*
X632399Y516709D01*
X632399Y520091D01*
X633693Y523215D01*
X636085Y525607D01*
X639209Y526901D01*
X642591Y526901D01*
X645715Y525607D01*
X648107Y523215D01*
X649401Y520091D01*
X649401Y516709D01*
X648107Y513585D01*
X645715Y511193D01*
X642591Y509899D01*
X639209Y509899D01*
G37*
%LPD*%
%LPC*%
G36*
X97709Y411799D02*
X97709Y411799D01*
X94585Y413093D01*
X92193Y415485D01*
X90899Y418609D01*
X90899Y421991D01*
X92193Y425115D01*
X94585Y427507D01*
X97709Y428801D01*
X101091Y428801D01*
X104215Y427507D01*
X106607Y425115D01*
X107901Y421991D01*
X107901Y418609D01*
X106607Y415485D01*
X104215Y413093D01*
X101091Y411799D01*
X97709Y411799D01*
G37*
%LPD*%
%LPC*%
G36*
X638809Y410799D02*
X638809Y410799D01*
X635685Y412093D01*
X633293Y414485D01*
X631999Y417609D01*
X631999Y420991D01*
X633293Y424115D01*
X635685Y426507D01*
X638809Y427801D01*
X642191Y427801D01*
X645315Y426507D01*
X647707Y424115D01*
X649001Y420991D01*
X649001Y417609D01*
X647707Y414485D01*
X645315Y412093D01*
X642191Y410799D01*
X638809Y410799D01*
G37*
%LPD*%
%LPC*%
G36*
X640209Y311299D02*
X640209Y311299D01*
X637085Y312593D01*
X634693Y314985D01*
X633399Y318109D01*
X633399Y321491D01*
X634693Y324615D01*
X637085Y327007D01*
X640209Y328301D01*
X643591Y328301D01*
X646715Y327007D01*
X649107Y324615D01*
X650401Y321491D01*
X650401Y318109D01*
X649107Y314985D01*
X646715Y312593D01*
X643591Y311299D01*
X640209Y311299D01*
G37*
%LPD*%
%LPC*%
G36*
X597949Y43799D02*
X597949Y43799D01*
X597949Y53249D01*
X598305Y53193D01*
X600130Y52599D01*
X601840Y51728D01*
X603393Y50600D01*
X604750Y49243D01*
X605878Y47690D01*
X606749Y45980D01*
X607343Y44155D01*
X607399Y43799D01*
X597949Y43799D01*
G37*
%LPD*%
%LPC*%
G36*
X585449Y18799D02*
X585449Y18799D01*
X585449Y28249D01*
X585805Y28193D01*
X587630Y27599D01*
X589340Y26728D01*
X590893Y25600D01*
X592250Y24243D01*
X593378Y22690D01*
X594249Y20980D01*
X594843Y19155D01*
X594899Y18799D01*
X585449Y18799D01*
G37*
%LPD*%
%LPC*%
G36*
X583501Y43799D02*
X583501Y43799D01*
X583557Y44155D01*
X584151Y45980D01*
X585022Y47690D01*
X586150Y49243D01*
X587507Y50600D01*
X589060Y51728D01*
X590770Y52599D01*
X592595Y53193D01*
X592951Y53249D01*
X592951Y43799D01*
X583501Y43799D01*
G37*
%LPD*%
%LPC*%
G36*
X597949Y38801D02*
X597949Y38801D01*
X607399Y38801D01*
X607343Y38445D01*
X606749Y36620D01*
X605878Y34910D01*
X604750Y33357D01*
X603393Y32000D01*
X601840Y30872D01*
X600130Y30001D01*
X598305Y29407D01*
X597949Y29351D01*
X597949Y38801D01*
G37*
%LPD*%
%LPC*%
G36*
X571001Y18799D02*
X571001Y18799D01*
X571057Y19155D01*
X571651Y20980D01*
X572522Y22690D01*
X573650Y24243D01*
X575007Y25600D01*
X576560Y26728D01*
X578270Y27599D01*
X580095Y28193D01*
X580451Y28249D01*
X580451Y18799D01*
X571001Y18799D01*
G37*
%LPD*%
%LPC*%
G36*
X641001Y18799D02*
X641001Y18799D01*
X641057Y19155D01*
X641651Y20980D01*
X642522Y22690D01*
X643650Y24243D01*
X645007Y25600D01*
X646560Y26728D01*
X648269Y27599D01*
X650095Y28193D01*
X650451Y28249D01*
X650451Y18799D01*
X641001Y18799D01*
G37*
%LPD*%
%LPC*%
G36*
X592595Y29407D02*
X592595Y29407D01*
X590770Y30001D01*
X589060Y30872D01*
X587507Y32000D01*
X586150Y33357D01*
X585022Y34910D01*
X584151Y36620D01*
X583557Y38445D01*
X583501Y38801D01*
X592951Y38801D01*
X592951Y29351D01*
X592595Y29407D01*
G37*
%LPD*%
%LPC*%
G36*
X407109Y719049D02*
X407109Y719049D01*
X407109Y723885D01*
X407282Y724531D01*
X407617Y725110D01*
X408090Y725583D01*
X408669Y725918D01*
X409315Y726091D01*
X414151Y726091D01*
X414151Y719049D01*
X407109Y719049D01*
G37*
%LPD*%
%LPC*%
G36*
X409315Y707509D02*
X409315Y707509D01*
X408669Y707682D01*
X408090Y708017D01*
X407617Y708490D01*
X407282Y709069D01*
X407109Y709715D01*
X407109Y714551D01*
X414151Y714551D01*
X414151Y707509D01*
X409315Y707509D01*
G37*
%LPD*%
%LPC*%
G36*
X177399Y17701D02*
X177399Y17701D01*
X185171Y17701D01*
X184668Y16154D01*
X183915Y14675D01*
X182940Y13333D01*
X181767Y12160D01*
X180425Y11185D01*
X178946Y10432D01*
X177399Y9929D01*
X177399Y17701D01*
G37*
%LPD*%
%LPC*%
G36*
X127399Y17701D02*
X127399Y17701D01*
X135171Y17701D01*
X134668Y16154D01*
X133915Y14675D01*
X132940Y13333D01*
X131767Y12160D01*
X130425Y11185D01*
X128946Y10432D01*
X127399Y9929D01*
X127399Y17701D01*
G37*
%LPD*%
%LPC*%
G36*
X170854Y10432D02*
X170854Y10432D01*
X169375Y11185D01*
X168033Y12160D01*
X166860Y13333D01*
X165885Y14675D01*
X165132Y16154D01*
X164629Y17701D01*
X172401Y17701D01*
X172401Y9929D01*
X170854Y10432D01*
G37*
%LPD*%
%LPC*%
G36*
X120854Y10432D02*
X120854Y10432D01*
X119375Y11185D01*
X118033Y12160D01*
X116860Y13333D01*
X115885Y14675D01*
X115132Y16154D01*
X114629Y17701D01*
X122401Y17701D01*
X122401Y9929D01*
X120854Y10432D01*
G37*
%LPD*%
%LPC*%
G36*
X310344Y692114D02*
X310344Y692114D01*
X310344Y699140D01*
X310560Y699106D01*
X311929Y698661D01*
X313211Y698008D01*
X314375Y697162D01*
X315392Y696145D01*
X316238Y694981D01*
X316891Y693699D01*
X317336Y692330D01*
X317370Y692114D01*
X310344Y692114D01*
G37*
%LPD*%
%LPC*%
G36*
X310344Y688266D02*
X310344Y688266D01*
X317370Y688266D01*
X317336Y688050D01*
X316891Y686681D01*
X316238Y685399D01*
X315392Y684235D01*
X314375Y683218D01*
X313211Y682372D01*
X311929Y681719D01*
X310560Y681274D01*
X310344Y681240D01*
X310344Y688266D01*
G37*
%LPD*%
%LPC*%
G36*
X299470Y692114D02*
X299470Y692114D01*
X299504Y692330D01*
X299949Y693699D01*
X300602Y694981D01*
X301448Y696145D01*
X302465Y697162D01*
X303629Y698008D01*
X304911Y698661D01*
X306280Y699106D01*
X306496Y699140D01*
X306496Y692114D01*
X299470Y692114D01*
G37*
%LPD*%
%LPC*%
G36*
X306280Y681274D02*
X306280Y681274D01*
X304911Y681719D01*
X303629Y682372D01*
X302465Y683218D01*
X301448Y684235D01*
X300602Y685399D01*
X299949Y686681D01*
X299504Y688050D01*
X299470Y688266D01*
X306496Y688266D01*
X306496Y681240D01*
X306280Y681274D01*
G37*
%LPD*%
%LPC*%
G36*
X177559Y697989D02*
X177559Y697989D01*
X177559Y704958D01*
X177781Y704923D01*
X179136Y704482D01*
X180406Y703835D01*
X181559Y702997D01*
X182567Y701989D01*
X183405Y700836D01*
X184052Y699566D01*
X184493Y698211D01*
X184528Y697989D01*
X177559Y697989D01*
G37*
%LPD*%
%LPC*%
G36*
X177559Y694191D02*
X177559Y694191D01*
X184528Y694191D01*
X184493Y693969D01*
X184052Y692614D01*
X183405Y691344D01*
X182567Y690191D01*
X181559Y689183D01*
X180406Y688345D01*
X179136Y687698D01*
X177781Y687257D01*
X177559Y687222D01*
X177559Y694191D01*
G37*
%LPD*%
%LPC*%
G36*
X166792Y697989D02*
X166792Y697989D01*
X166827Y698211D01*
X167268Y699566D01*
X167915Y700836D01*
X168753Y701989D01*
X169761Y702997D01*
X170914Y703835D01*
X172184Y704482D01*
X173539Y704923D01*
X173761Y704958D01*
X173761Y697989D01*
X166792Y697989D01*
G37*
%LPD*%
%LPC*%
G36*
X173539Y687257D02*
X173539Y687257D01*
X172184Y687698D01*
X170914Y688345D01*
X169761Y689183D01*
X168753Y690191D01*
X167915Y691344D01*
X167268Y692614D01*
X166827Y693969D01*
X166792Y694191D01*
X173761Y694191D01*
X173761Y687222D01*
X173539Y687257D01*
G37*
%LPD*%
D10*
X124860Y696090D03*
X150260Y721490D03*
X175660Y696090D03*
D11*
X359220Y636190D03*
X359220Y668190D03*
X359220Y690190D03*
X359220Y712190D03*
X308420Y712190D03*
X308420Y690190D03*
X308420Y668190D03*
X308420Y636190D03*
D12*
X136300Y326300D02*
X136300Y311300D01*
D13*
X137300Y346800D02*
X121300Y346800D01*
X121300Y290800D02*
X137300Y290800D01*
D14*
X58300Y346800D02*
X40300Y346800D01*
X40300Y290800D02*
X58300Y290800D01*
D12*
X603900Y510900D02*
X603900Y525900D01*
D13*
X602900Y490400D02*
X618900Y490400D01*
X618900Y546400D02*
X602900Y546400D01*
D14*
X681900Y490400D02*
X699900Y490400D01*
X699900Y546400D02*
X681900Y546400D01*
D12*
X136400Y427800D02*
X136400Y412800D01*
D13*
X137400Y448300D02*
X121400Y448300D01*
X121400Y392300D02*
X137400Y392300D01*
D14*
X58400Y448300D02*
X40400Y448300D01*
X40400Y392300D02*
X58400Y392300D01*
D12*
X136100Y515200D02*
X136100Y530200D01*
D13*
X137100Y550700D02*
X121100Y550700D01*
X121100Y494700D02*
X137100Y494700D01*
D14*
X58100Y550700D02*
X40100Y550700D01*
X40100Y494700D02*
X58100Y494700D01*
D12*
X603500Y426800D02*
X603500Y411800D01*
D13*
X602500Y391300D02*
X618500Y391300D01*
X618500Y447300D02*
X602500Y447300D01*
D14*
X681500Y391300D02*
X699500Y391300D01*
X699500Y447300D02*
X681500Y447300D01*
D15*
X640450Y41300D03*
X595450Y41300D03*
X652950Y16300D03*
X582950Y16300D03*
D12*
X604900Y312300D02*
X604900Y327300D01*
D13*
X603900Y291800D02*
X619900Y291800D01*
X619900Y347800D02*
X603900Y347800D01*
D14*
X682900Y291800D02*
X700900Y291800D01*
X700900Y347800D02*
X682900Y347800D01*
D12*
X604000Y226800D02*
X604000Y211800D01*
D13*
X603000Y191300D02*
X619000Y191300D01*
X619000Y247300D02*
X603000Y247300D01*
D14*
X682000Y191300D02*
X700000Y191300D01*
X700000Y247300D02*
X682000Y247300D01*
D16*
X174900Y20200D03*
X174900Y40200D03*
X174900Y60200D03*
X124900Y20200D03*
X124900Y40200D03*
X124900Y60200D03*
D12*
X136100Y211800D02*
X136100Y226800D01*
D13*
X137100Y247300D02*
X121100Y247300D01*
X121100Y191300D02*
X137100Y191300D01*
D14*
X58100Y247300D02*
X40100Y247300D01*
X40100Y191300D02*
X58100Y191300D01*
D17*
X416400Y716800D03*
D18*
X436400Y716800D03*
X456400Y716800D03*
X476400Y716800D03*
X496400Y716800D03*
X516400Y716800D03*
X536400Y716800D03*
X556400Y716800D03*
X576400Y716800D03*
X596400Y716800D03*
X616400Y716800D03*
D19*
X174900Y20200D02*
X124900Y20200D01*
D20*
X285300Y619800D03*
X247600Y508100D03*
D21*
X582950Y16300D02*
X652950Y16300D01*
X582950Y16300D02*
X582950Y28800D01*
X595450Y41300D01*
D20*
X501650Y139700D03*
X337600Y103200D03*
X246600Y282200D03*
X249700Y394700D03*
X400050Y552450D03*
X400300Y389300D03*
X720000Y150000D03*
X720000Y140000D03*
X720000Y130000D03*
X720000Y120000D03*
X10000Y80000D03*
X20000Y80000D03*
X40000Y80000D03*
X30000Y80000D03*
D19*
X124900Y40200D02*
X174900Y40200D01*
D22*
X280200Y40200D01*
X310000Y70000D01*
X310000Y190000D01*
D20*
X310000Y190000D03*
X375700Y436800D03*
X431800Y501650D03*
D22*
X431800Y492900D01*
X375700Y436800D01*
D20*
X373100Y452650D03*
X444350Y530800D03*
D22*
X444350Y530700D01*
X421000Y507350D01*
X421000Y497200D01*
X376450Y452650D01*
X373100Y452650D01*
D20*
X571500Y533400D03*
D22*
X514350Y590550D01*
X368300Y590550D01*
X150260Y678990D02*
X150260Y721490D01*
X150260Y678990D02*
X143360Y672090D01*
X143360Y579990D01*
X164550Y558800D01*
X336550Y558800D01*
X368300Y590550D01*
D19*
X49100Y550700D02*
X49100Y494700D01*
D20*
X157900Y594800D03*
D21*
X342790Y668190D02*
X359220Y668190D01*
X203100Y594800D02*
X157900Y594800D01*
X322700Y648100D02*
X342790Y668190D01*
X256400Y648100D02*
X203100Y594800D01*
X256400Y648100D02*
X322700Y648100D01*
D19*
X49400Y448300D02*
X49400Y392300D01*
X49300Y346800D02*
X49300Y290800D01*
X690900Y490400D02*
X690900Y546400D01*
D20*
X412750Y666750D03*
X390300Y358700D03*
D22*
X415850Y358700D01*
X457200Y400050D02*
X457200Y438150D01*
X690900Y479400D02*
X690900Y488950D01*
X690900Y490400D01*
X457200Y400050D02*
X415850Y358700D01*
X482600Y469900D02*
X679450Y469900D01*
X681400Y469900D01*
X690900Y479400D01*
D19*
X690900Y546400D02*
X690900Y562250D01*
X718375Y589725D01*
X690900Y546400D02*
X690900Y488950D01*
X690900Y490400D02*
X690900Y481350D01*
X679450Y469900D01*
X681400Y469900D02*
X482600Y469900D01*
X457200Y444500D01*
X457200Y438150D01*
X412750Y666750D02*
X680800Y666750D01*
X718375Y629175D02*
X718375Y589725D01*
X718375Y629175D02*
X680800Y666750D01*
D20*
X282600Y257100D03*
D22*
X314250Y257100D01*
X336550Y279400D01*
X336550Y387350D01*
X387350Y406400D02*
X393700Y412750D01*
X393700Y426700D01*
D20*
X393700Y426700D03*
D22*
X355600Y406400D02*
X336550Y387350D01*
X355600Y406400D02*
X387350Y406400D01*
D19*
X49100Y247300D02*
X49100Y191300D01*
X691900Y291800D02*
X691900Y347800D01*
X690500Y391300D02*
X690500Y447300D01*
X691000Y247300D02*
X691000Y191300D01*
M02*
