G04 EAGLE Gerber RS-274X export*
G75*
%MOMM*%
%FSLAX34Y34*%
%LPD*%
%INSolderpaste Top*%
%IPPOS*%
%AMOC8*
5,1,8,0,0,1.08239X$1,22.5*%
G01*
%ADD10R,1.000000X1.100000*%
%ADD11R,0.800000X0.900000*%
%ADD12R,1.600000X1.450000*%
%ADD13R,1.100000X1.000000*%
%ADD14R,0.920900X0.970200*%
%ADD15R,1.500000X1.000000*%
%ADD16R,1.250000X0.950000*%
%ADD17R,2.500000X2.500000*%
%ADD18R,3.430000X1.270000*%


D10*
X371740Y243260D03*
X388740Y243260D03*
D11*
X356710Y92730D03*
X337710Y92730D03*
X347210Y72730D03*
D10*
X372600Y344910D03*
X389600Y344910D03*
X372470Y318990D03*
X389470Y318990D03*
X371760Y293770D03*
X388760Y293770D03*
D12*
X267900Y369667D03*
X267900Y395067D03*
X267900Y420467D03*
X173900Y420467D03*
X173900Y395067D03*
X173900Y369667D03*
X267600Y482033D03*
X267600Y507433D03*
X267600Y532833D03*
X173600Y532833D03*
X173600Y507433D03*
X173600Y482033D03*
X268500Y594400D03*
X268500Y619800D03*
X268500Y645200D03*
X174500Y645200D03*
X174500Y619800D03*
X174500Y594400D03*
D11*
X380700Y563550D03*
X399700Y563550D03*
X390200Y583550D03*
D10*
X371800Y268700D03*
X388800Y268700D03*
D13*
X388890Y653920D03*
X388890Y670920D03*
D10*
X389680Y370862D03*
X372680Y370862D03*
D14*
X373194Y388606D03*
X388686Y388606D03*
D15*
X436400Y651400D03*
X436400Y629400D03*
D16*
X273800Y107250D03*
X273800Y140250D03*
X389800Y632750D03*
X389800Y599750D03*
D10*
X582950Y84950D03*
X599950Y84950D03*
X599900Y166850D03*
X582900Y166850D03*
X599900Y146350D03*
X582900Y146350D03*
X599950Y125850D03*
X582950Y125850D03*
X600050Y105450D03*
X583050Y105450D03*
X372600Y411300D03*
X389600Y411300D03*
D12*
X266750Y257300D03*
X266750Y282700D03*
X266750Y308100D03*
X172750Y308100D03*
X172750Y282700D03*
X172750Y257300D03*
D10*
X466300Y167100D03*
X483300Y167100D03*
X466100Y192500D03*
X483100Y192500D03*
X465900Y217900D03*
X482900Y217900D03*
X465600Y243100D03*
X482600Y243100D03*
X463700Y268700D03*
X480700Y268700D03*
D17*
X172850Y107350D03*
X242850Y107350D03*
X242850Y177350D03*
X172850Y177350D03*
D18*
X514100Y65400D03*
X543300Y90800D03*
X514100Y116200D03*
X543300Y141600D03*
X514100Y167000D03*
X543300Y192400D03*
X514100Y217800D03*
X543300Y243200D03*
X514100Y268600D03*
X543300Y294000D03*
X514100Y319400D03*
X543300Y344800D03*
X514100Y370200D03*
X543300Y395600D03*
X514100Y421000D03*
X543300Y446400D03*
X310900Y167000D03*
X340100Y192400D03*
X310900Y217800D03*
X340100Y243200D03*
X310900Y268600D03*
X340100Y294000D03*
X310900Y319400D03*
X340100Y344800D03*
X310900Y370200D03*
X340100Y395600D03*
X310900Y421000D03*
X340100Y446400D03*
M02*
