M48
;GenerationSoftware,Autodesk,EAGLE,9.6.2*%
;CreationDate,2021-01-14T09:44:50Z*%
FMAT,2
ICI,OFF
METRIC,TZ,000.000
T8C0.400
T7C0.760
T6C0.770
T5C0.900
T4C1.000
T3C1.100
T2C1.200
T1C2.600
%
G90
M71
T1
X7020Y12020
X67020Y12020
X7020Y62020
X67020Y62020
T2
X4940Y44830
X4940Y39230
X69190Y29180
X69050Y44730
X69050Y39130
X4910Y49470
X4910Y55070
X69090Y54640
X69090Y49040
X4930Y29080
X4930Y34680
X4910Y19130
X4910Y24730
X69100Y24730
X69100Y19130
X69190Y34780
T3
X70690Y31980
X64190Y31980
X70600Y21930
X64100Y21930
X3410Y21930
X9910Y21930
X9930Y31880
X3430Y31880
X64050Y41930
X70590Y51840
X64090Y51840
X3440Y42030
X9940Y42030
X3410Y52270
X9910Y52270
X70550Y41930
T4
X60350Y41930
X61050Y39130
X61050Y44730
X64045Y4130
X59545Y4130
X65295Y1630
X58295Y1630
X60490Y31980
X61190Y29180
X61190Y34780
X60400Y21930
X61100Y19130
X61100Y24730
X12930Y34680
X17490Y2020
X17490Y4020
X17490Y6020
X12490Y2020
X12490Y4020
X12490Y6020
X13610Y21930
X12910Y19130
X13630Y31880
X12910Y24730
X12930Y29080
X60390Y51840
X61090Y49040
X61090Y54640
X13640Y42030
X12940Y44830
X12940Y39230
X13610Y52270
X12910Y55070
X12910Y49470
T5
X59640Y71680
X57640Y71680
X61640Y71680
X55640Y71680
X53640Y71680
X51640Y71680
X47640Y71680
X45640Y71680
X43640Y71680
X41640Y71680
X49640Y71680
T6
X30842Y63619
X30842Y66819
X30842Y71219
X35922Y69019
X35922Y71219
X30842Y69019
X35922Y63619
X35922Y66819
T7
X12486Y69609
X17566Y69609
X15026Y72149
T8
X24760Y50810
X50165Y13970
X33760Y10320
X24660Y28220
X28260Y25710
X4000Y8000
X15790Y59480
X57150Y53340
X44435Y53080
X37310Y45265
X43180Y50165
X37570Y43680
X28530Y61980
X39370Y42670
X31000Y19000
X41275Y66675
X3000Y8000
X2000Y8000
X1000Y8000
X72000Y12000
X40030Y38930
X72000Y13000
X72000Y14000
X72000Y15000
X40005Y55245
X24970Y39470
X39030Y35870
M30