G04 EAGLE Gerber RS-274X export*
G75*
%MOMM*%
%FSLAX34Y34*%
%LPD*%
%INSoldermask Bottom*%
%IPPOS*%
%AMOC8*
5,1,8,0,0,1.08239X$1,22.5*%
G01*
%ADD10C,1.506200*%
%ADD11C,1.523200*%
%ADD12C,1.703200*%
%ADD13C,1.803200*%
%ADD14C,2.003200*%
%ADD15C,1.303200*%
%ADD16C,2.803200*%
%ADD17C,2.133600*%
%ADD18C,1.803200*%
%ADD19R,1.553200X1.553200*%
%ADD20C,1.553200*%


D10*
X124860Y696090D03*
X150260Y721490D03*
X175660Y696090D03*
D11*
X359220Y636190D03*
X359220Y668190D03*
X359220Y690190D03*
X359220Y712190D03*
X308420Y712190D03*
X308420Y690190D03*
X308420Y668190D03*
X308420Y636190D03*
D12*
X136300Y326300D02*
X136300Y311300D01*
D13*
X137300Y346800D02*
X121300Y346800D01*
X121300Y290800D02*
X137300Y290800D01*
D14*
X58300Y346800D02*
X40300Y346800D01*
X40300Y290800D02*
X58300Y290800D01*
D15*
X34300Y318800D03*
X99300Y318800D03*
D12*
X603900Y510900D02*
X603900Y525900D01*
D13*
X602900Y490400D02*
X618900Y490400D01*
X618900Y546400D02*
X602900Y546400D01*
D14*
X681900Y490400D02*
X699900Y490400D01*
X699900Y546400D02*
X681900Y546400D01*
D15*
X705900Y518400D03*
X640900Y518400D03*
D12*
X136400Y427800D02*
X136400Y412800D01*
D13*
X137400Y448300D02*
X121400Y448300D01*
X121400Y392300D02*
X137400Y392300D01*
D14*
X58400Y448300D02*
X40400Y448300D01*
X40400Y392300D02*
X58400Y392300D01*
D15*
X34400Y420300D03*
X99400Y420300D03*
D12*
X136100Y515200D02*
X136100Y530200D01*
D13*
X137100Y550700D02*
X121100Y550700D01*
X121100Y494700D02*
X137100Y494700D01*
D14*
X58100Y550700D02*
X40100Y550700D01*
X40100Y494700D02*
X58100Y494700D01*
D15*
X34100Y522700D03*
X99100Y522700D03*
D12*
X603500Y426800D02*
X603500Y411800D01*
D13*
X602500Y391300D02*
X618500Y391300D01*
X618500Y447300D02*
X602500Y447300D01*
D14*
X681500Y391300D02*
X699500Y391300D01*
X699500Y447300D02*
X681500Y447300D01*
D15*
X705500Y419300D03*
X640500Y419300D03*
D16*
X70197Y120197D03*
X670197Y120197D03*
X70197Y620197D03*
X670197Y620197D03*
D17*
X640450Y41300D03*
X595450Y41300D03*
X652950Y16300D03*
X582950Y16300D03*
D12*
X604900Y312300D02*
X604900Y327300D01*
D13*
X603900Y291800D02*
X619900Y291800D01*
X619900Y347800D02*
X603900Y347800D01*
D14*
X682900Y291800D02*
X700900Y291800D01*
X700900Y347800D02*
X682900Y347800D01*
D15*
X706900Y319800D03*
X641900Y319800D03*
D12*
X604000Y226800D02*
X604000Y211800D01*
D13*
X603000Y191300D02*
X619000Y191300D01*
X619000Y247300D02*
X603000Y247300D01*
D14*
X682000Y191300D02*
X700000Y191300D01*
X700000Y247300D02*
X682000Y247300D01*
D15*
X706000Y219300D03*
X641000Y219300D03*
D18*
X174900Y20200D03*
X174900Y40200D03*
X174900Y60200D03*
X124900Y20200D03*
X124900Y40200D03*
X124900Y60200D03*
D12*
X136100Y211800D02*
X136100Y226800D01*
D13*
X137100Y247300D02*
X121100Y247300D01*
X121100Y191300D02*
X137100Y191300D01*
D14*
X58100Y247300D02*
X40100Y247300D01*
X40100Y191300D02*
X58100Y191300D01*
D15*
X34100Y219300D03*
X99100Y219300D03*
D19*
X416400Y716800D03*
D20*
X436400Y716800D03*
X456400Y716800D03*
X476400Y716800D03*
X496400Y716800D03*
X516400Y716800D03*
X536400Y716800D03*
X556400Y716800D03*
X576400Y716800D03*
X596400Y716800D03*
X616400Y716800D03*
M02*
