G04 EAGLE Gerber RS-274X export*
G75*
%MOMM*%
%FSLAX34Y34*%
%LPD*%
%INSilkscreen Bottom*%
%IPPOS*%
%AMOC8*
5,1,8,0,0,1.08239X$1,22.5*%
G01*
%ADD10C,0.203200*%


D10*
X250000Y100000D02*
X250000Y127917D01*
X250000Y134768D02*
X250000Y136065D01*
X250000Y142917D02*
X250000Y170833D01*
X250000Y177685D02*
X250000Y178982D01*
X250000Y185833D02*
X250000Y213750D01*
X250000Y220602D02*
X250000Y221898D01*
X250000Y228750D02*
X250000Y256667D01*
X250000Y263518D02*
X250000Y264815D01*
X250000Y271667D02*
X250000Y299583D01*
X250000Y306435D02*
X250000Y307732D01*
X250000Y314583D02*
X250000Y342500D01*
X250000Y349352D02*
X250000Y350648D01*
X250000Y357500D02*
X250000Y385417D01*
X250000Y392268D02*
X250000Y393565D01*
X250000Y400417D02*
X250000Y428333D01*
X250000Y435185D02*
X250000Y436482D01*
X250000Y443333D02*
X250000Y471250D01*
X250000Y478102D02*
X250000Y479398D01*
X250000Y486250D02*
X250000Y514167D01*
X250000Y521018D02*
X250000Y522315D01*
X250000Y529167D02*
X250000Y557083D01*
X250000Y563935D02*
X250000Y565232D01*
X250000Y572083D02*
X250000Y600000D01*
X280000Y600000D01*
X286852Y600000D02*
X288148Y600000D01*
X295000Y600000D02*
X325000Y600000D01*
X331852Y600000D02*
X333148Y600000D01*
X340000Y600000D02*
X370000Y600000D01*
X376852Y600000D02*
X378148Y600000D01*
X385000Y600000D02*
X415000Y600000D01*
X421852Y600000D02*
X423148Y600000D01*
X430000Y600000D02*
X460000Y600000D01*
X466852Y600000D02*
X468148Y600000D01*
X475000Y600000D02*
X505000Y600000D01*
X511852Y600000D02*
X513148Y600000D01*
X520000Y600000D02*
X550000Y600000D01*
X550000Y572083D01*
X550000Y565232D02*
X550000Y563935D01*
X550000Y557083D02*
X550000Y529167D01*
X550000Y522315D02*
X550000Y521018D01*
X550000Y514167D02*
X550000Y486250D01*
X550000Y479398D02*
X550000Y478102D01*
X550000Y471250D02*
X550000Y443333D01*
X550000Y436482D02*
X550000Y435185D01*
X550000Y428333D02*
X550000Y400417D01*
X550000Y393565D02*
X550000Y392268D01*
X550000Y385417D02*
X550000Y357500D01*
X550000Y350648D02*
X550000Y349352D01*
X550000Y342500D02*
X550000Y314583D01*
X550000Y307732D02*
X550000Y306435D01*
X550000Y299583D02*
X550000Y271667D01*
X550000Y264815D02*
X550000Y263518D01*
X550000Y256667D02*
X550000Y228750D01*
X550000Y221898D02*
X550000Y220602D01*
X550000Y213750D02*
X550000Y185833D01*
X550000Y178982D02*
X550000Y177685D01*
X550000Y170833D02*
X550000Y142917D01*
X550000Y136065D02*
X550000Y134768D01*
X550000Y127917D02*
X550000Y100000D01*
X520000Y100000D01*
X513148Y100000D02*
X511852Y100000D01*
X505000Y100000D02*
X475000Y100000D01*
X468148Y100000D02*
X466852Y100000D01*
X460000Y100000D02*
X430000Y100000D01*
X423148Y100000D02*
X421852Y100000D01*
X415000Y100000D02*
X385000Y100000D01*
X378148Y100000D02*
X376852Y100000D01*
X370000Y100000D02*
X340000Y100000D01*
X333148Y100000D02*
X331852Y100000D01*
X325000Y100000D02*
X295000Y100000D01*
X288148Y100000D02*
X286852Y100000D01*
X280000Y100000D02*
X250000Y100000D01*
M02*
