G04 EAGLE Gerber RS-274X export*
G75*
%MOMM*%
%FSLAX34Y34*%
%LPD*%
%INSoldermask Top*%
%IPPOS*%
%AMOC8*
5,1,8,0,0,1.08239X$1,22.5*%
G01*
%ADD10R,1.203200X1.303200*%
%ADD11R,1.003200X1.103200*%
%ADD12C,1.506200*%
%ADD13C,1.523200*%
%ADD14R,1.803200X1.653200*%
%ADD15C,1.703200*%
%ADD16C,1.803200*%
%ADD17C,2.003200*%
%ADD18C,1.303200*%
%ADD19R,1.303200X1.203200*%
%ADD20R,1.124100X1.173400*%
%ADD21C,2.803200*%
%ADD22R,1.703200X1.203200*%
%ADD23C,2.133600*%
%ADD24R,1.453200X1.153200*%
%ADD25C,1.803200*%
%ADD26R,1.553200X1.553200*%
%ADD27C,1.553200*%
%ADD28R,2.703200X2.703200*%
%ADD29R,3.633200X1.473200*%


D10*
X371740Y243260D03*
X388740Y243260D03*
D11*
X356710Y92730D03*
X337710Y92730D03*
X347210Y72730D03*
D12*
X124860Y696090D03*
X150260Y721490D03*
X175660Y696090D03*
D10*
X372600Y344910D03*
X389600Y344910D03*
X372470Y318990D03*
X389470Y318990D03*
X371760Y293770D03*
X388760Y293770D03*
D13*
X359220Y636190D03*
X359220Y668190D03*
X359220Y690190D03*
X359220Y712190D03*
X308420Y712190D03*
X308420Y690190D03*
X308420Y668190D03*
X308420Y636190D03*
D14*
X267900Y369667D03*
X267900Y395067D03*
X267900Y420467D03*
X173900Y420467D03*
X173900Y395067D03*
X173900Y369667D03*
D15*
X136300Y326300D02*
X136300Y311300D01*
D16*
X137300Y346800D02*
X121300Y346800D01*
X121300Y290800D02*
X137300Y290800D01*
D17*
X58300Y346800D02*
X40300Y346800D01*
X40300Y290800D02*
X58300Y290800D01*
D18*
X34300Y318800D03*
X99300Y318800D03*
D15*
X603900Y510900D02*
X603900Y525900D01*
D16*
X602900Y490400D02*
X618900Y490400D01*
X618900Y546400D02*
X602900Y546400D01*
D17*
X681900Y490400D02*
X699900Y490400D01*
X699900Y546400D02*
X681900Y546400D01*
D18*
X705900Y518400D03*
X640900Y518400D03*
D15*
X136400Y427800D02*
X136400Y412800D01*
D16*
X137400Y448300D02*
X121400Y448300D01*
X121400Y392300D02*
X137400Y392300D01*
D17*
X58400Y448300D02*
X40400Y448300D01*
X40400Y392300D02*
X58400Y392300D01*
D18*
X34400Y420300D03*
X99400Y420300D03*
D15*
X136100Y515200D02*
X136100Y530200D01*
D16*
X137100Y550700D02*
X121100Y550700D01*
X121100Y494700D02*
X137100Y494700D01*
D17*
X58100Y550700D02*
X40100Y550700D01*
X40100Y494700D02*
X58100Y494700D01*
D18*
X34100Y522700D03*
X99100Y522700D03*
D14*
X267600Y482033D03*
X267600Y507433D03*
X267600Y532833D03*
X173600Y532833D03*
X173600Y507433D03*
X173600Y482033D03*
X268500Y594400D03*
X268500Y619800D03*
X268500Y645200D03*
X174500Y645200D03*
X174500Y619800D03*
X174500Y594400D03*
D11*
X380700Y563550D03*
X399700Y563550D03*
X390200Y583550D03*
D10*
X371800Y268700D03*
X388800Y268700D03*
D15*
X603500Y411800D02*
X603500Y426800D01*
D16*
X602500Y391300D02*
X618500Y391300D01*
X618500Y447300D02*
X602500Y447300D01*
D17*
X681500Y391300D02*
X699500Y391300D01*
X699500Y447300D02*
X681500Y447300D01*
D18*
X705500Y419300D03*
X640500Y419300D03*
D19*
X388890Y653920D03*
X388890Y670920D03*
D10*
X389680Y370862D03*
X372680Y370862D03*
D20*
X373194Y388606D03*
X388686Y388606D03*
D21*
X70197Y120197D03*
X670197Y120197D03*
X70197Y620197D03*
X670197Y620197D03*
D22*
X436400Y651400D03*
X436400Y629400D03*
D23*
X640450Y41300D03*
X595450Y41300D03*
X652950Y16300D03*
X582950Y16300D03*
D24*
X273800Y107250D03*
X273800Y140250D03*
X389800Y632750D03*
X389800Y599750D03*
D15*
X604900Y327300D02*
X604900Y312300D01*
D16*
X603900Y291800D02*
X619900Y291800D01*
X619900Y347800D02*
X603900Y347800D01*
D17*
X682900Y291800D02*
X700900Y291800D01*
X700900Y347800D02*
X682900Y347800D01*
D18*
X706900Y319800D03*
X641900Y319800D03*
D15*
X604000Y226800D02*
X604000Y211800D01*
D16*
X603000Y191300D02*
X619000Y191300D01*
X619000Y247300D02*
X603000Y247300D01*
D17*
X682000Y191300D02*
X700000Y191300D01*
X700000Y247300D02*
X682000Y247300D01*
D18*
X706000Y219300D03*
X641000Y219300D03*
D10*
X582950Y84950D03*
X599950Y84950D03*
X599900Y166850D03*
X582900Y166850D03*
X599900Y146350D03*
X582900Y146350D03*
X599950Y125850D03*
X582950Y125850D03*
X600050Y105450D03*
X583050Y105450D03*
D25*
X174900Y20200D03*
X174900Y40200D03*
X174900Y60200D03*
X124900Y20200D03*
X124900Y40200D03*
X124900Y60200D03*
D10*
X372600Y411300D03*
X389600Y411300D03*
D15*
X136100Y226800D02*
X136100Y211800D01*
D16*
X137100Y247300D02*
X121100Y247300D01*
X121100Y191300D02*
X137100Y191300D01*
D17*
X58100Y247300D02*
X40100Y247300D01*
X40100Y191300D02*
X58100Y191300D01*
D18*
X34100Y219300D03*
X99100Y219300D03*
D14*
X266750Y257300D03*
X266750Y282700D03*
X266750Y308100D03*
X172750Y308100D03*
X172750Y282700D03*
X172750Y257300D03*
D10*
X466300Y167100D03*
X483300Y167100D03*
X466100Y192500D03*
X483100Y192500D03*
X465900Y217900D03*
X482900Y217900D03*
X465600Y243100D03*
X482600Y243100D03*
X463700Y268700D03*
X480700Y268700D03*
D26*
X416400Y716800D03*
D27*
X436400Y716800D03*
X456400Y716800D03*
X476400Y716800D03*
X496400Y716800D03*
X516400Y716800D03*
X536400Y716800D03*
X556400Y716800D03*
X576400Y716800D03*
X596400Y716800D03*
X616400Y716800D03*
D28*
X172850Y107350D03*
X242850Y107350D03*
X242850Y177350D03*
X172850Y177350D03*
D29*
X514100Y65400D03*
X543300Y90800D03*
X514100Y116200D03*
X543300Y141600D03*
X514100Y167000D03*
X543300Y192400D03*
X514100Y217800D03*
X543300Y243200D03*
X514100Y268600D03*
X543300Y294000D03*
X514100Y319400D03*
X543300Y344800D03*
X514100Y370200D03*
X543300Y395600D03*
X514100Y421000D03*
X543300Y446400D03*
X310900Y167000D03*
X340100Y192400D03*
X310900Y217800D03*
X340100Y243200D03*
X310900Y268600D03*
X340100Y294000D03*
X310900Y319400D03*
X340100Y344800D03*
X310900Y370200D03*
X340100Y395600D03*
X310900Y421000D03*
X340100Y446400D03*
M02*
