M48
; DRILL file {KiCad (6.0.9)} date Thu Feb 23 16:18:30 2023
; FORMAT={-:-/ absolute / metric / decimal}
; #@! TF.CreationDate,2023-02-23T16:18:30+00:00
; #@! TF.GenerationSoftware,Kicad,Pcbnew,(6.0.9)
; #@! TF.FileFunction,Plated,1,2,PTH
FMAT,2
METRIC
; #@! TA.AperFunction,Plated,PTH,ViaDrill
T1C0.400
; #@! TA.AperFunction,Plated,PTH,ViaDrill
T2C0.500
; #@! TA.AperFunction,Plated,PTH,ComponentDrill
T3C0.700
; #@! TA.AperFunction,Plated,PTH,ComponentDrill
T4C0.770
; #@! TA.AperFunction,Plated,PTH,ComponentDrill
T5C0.800
; #@! TA.AperFunction,Plated,PTH,ComponentDrill
T6C1.000
; #@! TA.AperFunction,Plated,PTH,ComponentDrill
T7C1.100
; #@! TA.AperFunction,Plated,PTH,ComponentDrill
T8C1.200
%
G90
G05
T1
X124.416Y-82.251
X128.316Y-92.201
X137.716Y-79.451
X137.766Y-118.951
X138.866Y-84.301
X139.016Y-83.251
X140.016Y-120.351
X144.216Y-119.151
X145.166Y-89.651
X145.766Y-120.351
X146.066Y-91.301
X147.194Y-89.545
X148.766Y-120.301
X150.316Y-79.801
X152.807Y-128.667
X153.959Y-118.124
X154.516Y-82.601
X155.016Y-88.801
X155.666Y-82.551
X156.966Y-130.801
X157.566Y-88.801
X160.681Y-88.801
X162.016Y-89.851
X164.366Y-86.001
X166.766Y-91.401
X167.216Y-88.851
X167.966Y-92.201
X168.309Y-118.118
X168.521Y-119.574
X168.669Y-94.478
X169.114Y-127.841
X170.721Y-121.712
X177.306Y-116.831
X177.466Y-79.101
X179.223Y-117.732
X179.566Y-108.851
X181.016Y-92.051
X182.476Y-127.511
X182.516Y-128.801
T2
X121.765Y-89.851
X159.954Y-117.751
X164.366Y-80.251
X183.516Y-93.301
T3
X183.066Y-102.118
X183.066Y-104.118
X183.066Y-106.118
X183.066Y-108.118
T4
X182.226Y-114.061
X182.226Y-117.261
X182.226Y-119.461
X182.226Y-121.661
X187.306Y-114.061
X187.306Y-117.261
X187.306Y-119.461
X187.306Y-121.661
T5
X123.216Y-94.999
X125.756Y-94.999
X128.296Y-94.999
X130.836Y-94.999
X133.376Y-94.999
X133.376Y-115.319
X135.916Y-94.999
X135.916Y-115.319
X138.456Y-94.999
X138.456Y-115.319
X140.996Y-94.999
X140.996Y-115.319
X143.536Y-94.999
X143.536Y-115.319
X146.076Y-94.999
X146.076Y-115.319
X148.616Y-94.999
X148.616Y-115.319
X151.156Y-94.999
X151.156Y-115.319
X153.696Y-94.999
X153.696Y-115.319
X156.236Y-94.999
X156.236Y-115.319
X158.776Y-94.999
X158.776Y-115.319
X161.316Y-94.999
X161.316Y-115.319
X170.726Y-89.741
X170.726Y-97.361
X171.476Y-101.241
X171.476Y-108.861
X172.226Y-112.491
X172.226Y-120.111
X173.266Y-89.741
X173.266Y-97.361
X174.016Y-101.241
X174.016Y-108.861
X174.766Y-112.491
X174.766Y-120.111
X175.806Y-89.741
X175.806Y-97.361
X176.556Y-101.241
X176.556Y-108.861
X177.306Y-112.491
X177.306Y-120.111
X182.476Y-124.991
X182.476Y-132.611
X185.016Y-124.991
X185.016Y-132.611
X187.556Y-124.991
X187.556Y-132.611
T6
X117.966Y-85.403
X120.766Y-86.103
X123.566Y-85.403
X130.666Y-85.396
X133.466Y-86.096
X133.666Y-124.751
X136.266Y-85.396
X136.466Y-124.051
X139.266Y-124.751
X143.366Y-85.396
X146.166Y-86.096
X147.166Y-124.699
X148.966Y-85.396
X149.966Y-123.999
X152.766Y-124.699
X156.066Y-85.396
X158.866Y-86.096
X160.666Y-124.699
X161.666Y-85.396
X163.466Y-123.999
X166.266Y-124.699
X168.711Y-85.396
X171.511Y-86.096
X174.116Y-124.701
X174.311Y-85.396
X176.916Y-124.001
X179.716Y-124.701
T7
X183.866Y-81.772
X186.366Y-79.272
X186.366Y-84.272
T8
X117.866Y-77.403
X123.666Y-77.403
X130.566Y-77.396
X133.566Y-132.751
X136.366Y-77.396
X139.366Y-132.751
X143.266Y-77.396
X147.066Y-132.699
X149.066Y-77.396
X152.866Y-132.699
X155.966Y-77.396
X160.566Y-132.699
X161.766Y-77.396
X166.366Y-132.699
X168.611Y-77.396
X174.016Y-132.701
X174.411Y-77.396
X179.816Y-132.701
T0
M30
