G04 EAGLE Gerber RS-274X export*
G75*
%MOMM*%
%FSLAX34Y34*%
%LPD*%
%INSoldermask Top*%
%IPPOS*%
%AMOC8*
5,1,8,0,0,1.08239X$1,22.5*%
G01*
%ADD10R,1.303200X1.203200*%
%ADD11R,1.103200X1.003200*%
%ADD12C,2.003200*%
%ADD13C,1.523200*%
%ADD14R,1.703200X1.703200*%
%ADD15C,1.703200*%
%ADD16C,1.703200*%
%ADD17C,1.803200*%
%ADD18C,2.003200*%
%ADD19C,1.303200*%
%ADD20R,1.203200X1.303200*%
%ADD21R,1.173400X1.124100*%
%ADD22R,1.153200X1.453200*%
%ADD23R,1.453200X1.153200*%
%ADD24R,2.703200X2.703200*%
%ADD25C,2.082800*%
%ADD26C,2.133600*%


D10*
X50560Y184060D03*
X50560Y167060D03*
D11*
X311470Y177610D03*
X311470Y158610D03*
X331470Y168110D03*
D12*
X14860Y525590D03*
X39860Y550590D03*
X64860Y525590D03*
D10*
X279210Y178200D03*
X279210Y161200D03*
X258790Y178230D03*
X258790Y161230D03*
X238170Y178140D03*
X238170Y161140D03*
D13*
X445310Y454820D03*
X413310Y454820D03*
X391310Y454820D03*
X369310Y454820D03*
X369310Y404020D03*
X391310Y404020D03*
X413310Y404020D03*
X445310Y404020D03*
D14*
X442400Y72233D03*
D15*
X442400Y46833D03*
X442400Y21433D03*
X518600Y21433D03*
X518600Y46833D03*
X518600Y72233D03*
D16*
X557500Y121500D02*
X572500Y121500D01*
D17*
X537000Y122500D02*
X537000Y106500D01*
X593000Y106500D02*
X593000Y122500D01*
D18*
X537000Y43500D02*
X537000Y25500D01*
X593000Y25500D02*
X593000Y43500D01*
D19*
X565000Y19500D03*
X565000Y84500D03*
D16*
X539900Y478200D02*
X524900Y478200D01*
D17*
X560400Y477200D02*
X560400Y493200D01*
X504400Y493200D02*
X504400Y477200D01*
D18*
X560400Y556200D02*
X560400Y574200D01*
X504400Y574200D02*
X504400Y556200D01*
D19*
X532400Y580200D03*
X532400Y515200D03*
D16*
X402500Y121500D02*
X387500Y121500D01*
D17*
X367000Y122500D02*
X367000Y106500D01*
X423000Y106500D02*
X423000Y122500D01*
D18*
X367000Y43500D02*
X367000Y25500D01*
X423000Y25500D02*
X423000Y43500D01*
D19*
X395000Y19500D03*
X395000Y84500D03*
D16*
X232500Y121500D02*
X217500Y121500D01*
D17*
X197000Y122500D02*
X197000Y106500D01*
X253000Y106500D02*
X253000Y122500D01*
D18*
X197000Y43500D02*
X197000Y25500D01*
X253000Y25500D02*
X253000Y43500D01*
D19*
X225000Y19500D03*
X225000Y84500D03*
D14*
X347700Y23633D03*
D15*
X347700Y49033D03*
X347700Y74433D03*
X271500Y74433D03*
X271500Y49033D03*
X271500Y23633D03*
D14*
X178000Y116900D03*
D15*
X178000Y142300D03*
X178000Y167700D03*
X101800Y167700D03*
X101800Y142300D03*
X101800Y116900D03*
D11*
X486450Y516200D03*
X486450Y535200D03*
X466450Y525700D03*
D10*
X73700Y184000D03*
X73700Y167000D03*
D16*
X126500Y478000D02*
X141500Y478000D01*
D17*
X162000Y477000D02*
X162000Y493000D01*
X106000Y493000D02*
X106000Y477000D01*
D18*
X162000Y556000D02*
X162000Y574000D01*
X106000Y574000D02*
X106000Y556000D01*
D19*
X134000Y580000D03*
X134000Y515000D03*
D20*
X464220Y564910D03*
X481220Y564910D03*
D10*
X596438Y565280D03*
X596438Y548280D03*
D21*
X596306Y535006D03*
X596306Y519514D03*
D22*
X304450Y141200D03*
X337450Y141200D03*
D23*
X451900Y541350D03*
X451900Y508350D03*
D16*
X274200Y478000D02*
X259200Y478000D01*
D17*
X294700Y477000D02*
X294700Y493000D01*
X238700Y493000D02*
X238700Y477000D01*
D18*
X294700Y556000D02*
X294700Y574000D01*
X238700Y574000D02*
X238700Y556000D01*
D19*
X266700Y580000D03*
X266700Y515000D03*
D16*
X392100Y478000D02*
X407100Y478000D01*
D17*
X427600Y477000D02*
X427600Y493000D01*
X371600Y493000D02*
X371600Y477000D01*
D18*
X427600Y556000D02*
X427600Y574000D01*
X371600Y574000D02*
X371600Y556000D01*
D19*
X399600Y580000D03*
X399600Y515000D03*
D10*
X217700Y178100D03*
X217700Y161100D03*
D16*
X62500Y121500D02*
X47500Y121500D01*
D17*
X27000Y122500D02*
X27000Y106500D01*
X83000Y106500D02*
X83000Y122500D01*
D18*
X27000Y43500D02*
X27000Y25500D01*
X83000Y25500D02*
X83000Y43500D01*
D19*
X55000Y19500D03*
X55000Y84500D03*
D14*
X177750Y21900D03*
D15*
X177750Y47300D03*
X177750Y72700D03*
X101550Y72700D03*
X101550Y47300D03*
X101550Y21900D03*
D10*
X216700Y418000D03*
X216700Y401000D03*
D24*
X382650Y215950D03*
X382650Y145950D03*
X452650Y145950D03*
X452650Y215950D03*
D25*
X429700Y249300D03*
X404300Y249300D03*
X429700Y274700D03*
X404300Y274700D03*
X429700Y300100D03*
X404300Y300100D03*
X429700Y325500D03*
X404300Y325500D03*
X429700Y350900D03*
X404300Y350900D03*
X344400Y379200D03*
X319000Y379200D03*
X293600Y379200D03*
X268200Y379200D03*
X242800Y379200D03*
X217400Y379200D03*
X192000Y379200D03*
X166600Y379200D03*
X141200Y379200D03*
X115800Y379200D03*
X90400Y379200D03*
X65000Y379200D03*
X39600Y379200D03*
X14200Y379200D03*
X14500Y226800D03*
X39900Y226800D03*
X65300Y226800D03*
X90700Y226800D03*
X116100Y226800D03*
X141500Y226800D03*
X166900Y226800D03*
X192300Y226800D03*
X217700Y226800D03*
X243100Y226800D03*
X268500Y226800D03*
X293900Y226800D03*
X319300Y226800D03*
X344700Y226800D03*
D26*
X43600Y426700D03*
X43600Y471700D03*
X18600Y414200D03*
X18600Y484200D03*
D10*
X116700Y417700D03*
X116700Y400700D03*
X141000Y418000D03*
X141000Y401000D03*
X166600Y417600D03*
X166600Y400600D03*
X191800Y418200D03*
X191800Y401200D03*
D21*
X191800Y432054D03*
X191800Y447546D03*
X166300Y432254D03*
X166300Y447746D03*
X141000Y432254D03*
X141000Y447746D03*
X116800Y432354D03*
X116800Y447846D03*
D20*
X403300Y378500D03*
X386300Y378500D03*
X416400Y378500D03*
X433400Y378500D03*
M02*
