G04 EAGLE Gerber RS-274X export*
G75*
%MOMM*%
%FSLAX34Y34*%
%LPD*%
%IN*%
%IPPOS*%
%AMOC8*
5,1,8,0,0,1.08239X$1,22.5*%
G01*
%ADD10C,0.000000*%
%ADD11C,0.127000*%
%ADD12C,0.254000*%


D10*
X559500Y19500D02*
X559502Y19648D01*
X559508Y19796D01*
X559518Y19944D01*
X559532Y20092D01*
X559550Y20239D01*
X559572Y20386D01*
X559598Y20532D01*
X559627Y20677D01*
X559661Y20822D01*
X559699Y20965D01*
X559740Y21108D01*
X559785Y21249D01*
X559835Y21389D01*
X559887Y21527D01*
X559944Y21665D01*
X560004Y21800D01*
X560068Y21934D01*
X560135Y22066D01*
X560206Y22196D01*
X560281Y22325D01*
X560359Y22451D01*
X560440Y22575D01*
X560524Y22697D01*
X560612Y22816D01*
X560703Y22933D01*
X560797Y23048D01*
X560895Y23160D01*
X560995Y23269D01*
X561098Y23376D01*
X561204Y23480D01*
X561312Y23581D01*
X561424Y23679D01*
X561538Y23774D01*
X561654Y23865D01*
X561773Y23954D01*
X561894Y24039D01*
X562018Y24121D01*
X562144Y24200D01*
X562271Y24275D01*
X562401Y24347D01*
X562533Y24416D01*
X562666Y24480D01*
X562801Y24541D01*
X562938Y24599D01*
X563076Y24653D01*
X563216Y24703D01*
X563357Y24749D01*
X563499Y24791D01*
X563642Y24830D01*
X563786Y24864D01*
X563932Y24895D01*
X564077Y24922D01*
X564224Y24945D01*
X564371Y24964D01*
X564519Y24979D01*
X564666Y24990D01*
X564815Y24997D01*
X564963Y25000D01*
X565111Y24999D01*
X565259Y24994D01*
X565407Y24985D01*
X565555Y24972D01*
X565703Y24955D01*
X565849Y24934D01*
X565996Y24909D01*
X566141Y24880D01*
X566286Y24848D01*
X566429Y24811D01*
X566572Y24771D01*
X566714Y24726D01*
X566854Y24678D01*
X566993Y24626D01*
X567130Y24571D01*
X567266Y24511D01*
X567401Y24448D01*
X567533Y24382D01*
X567664Y24312D01*
X567793Y24238D01*
X567919Y24161D01*
X568044Y24081D01*
X568166Y23997D01*
X568287Y23910D01*
X568404Y23820D01*
X568520Y23726D01*
X568632Y23630D01*
X568742Y23531D01*
X568850Y23428D01*
X568954Y23323D01*
X569056Y23215D01*
X569154Y23104D01*
X569250Y22991D01*
X569343Y22875D01*
X569432Y22757D01*
X569518Y22636D01*
X569601Y22513D01*
X569681Y22388D01*
X569757Y22261D01*
X569830Y22131D01*
X569899Y22000D01*
X569964Y21867D01*
X570027Y21733D01*
X570085Y21596D01*
X570140Y21458D01*
X570190Y21319D01*
X570238Y21178D01*
X570281Y21037D01*
X570321Y20894D01*
X570356Y20750D01*
X570388Y20605D01*
X570416Y20459D01*
X570440Y20313D01*
X570460Y20166D01*
X570476Y20018D01*
X570488Y19871D01*
X570496Y19722D01*
X570500Y19574D01*
X570500Y19426D01*
X570496Y19278D01*
X570488Y19129D01*
X570476Y18982D01*
X570460Y18834D01*
X570440Y18687D01*
X570416Y18541D01*
X570388Y18395D01*
X570356Y18250D01*
X570321Y18106D01*
X570281Y17963D01*
X570238Y17822D01*
X570190Y17681D01*
X570140Y17542D01*
X570085Y17404D01*
X570027Y17267D01*
X569964Y17133D01*
X569899Y17000D01*
X569830Y16869D01*
X569757Y16739D01*
X569681Y16612D01*
X569601Y16487D01*
X569518Y16364D01*
X569432Y16243D01*
X569343Y16125D01*
X569250Y16009D01*
X569154Y15896D01*
X569056Y15785D01*
X568954Y15677D01*
X568850Y15572D01*
X568742Y15469D01*
X568632Y15370D01*
X568520Y15274D01*
X568404Y15180D01*
X568287Y15090D01*
X568166Y15003D01*
X568044Y14919D01*
X567919Y14839D01*
X567793Y14762D01*
X567664Y14688D01*
X567533Y14618D01*
X567401Y14552D01*
X567266Y14489D01*
X567130Y14429D01*
X566993Y14374D01*
X566854Y14322D01*
X566714Y14274D01*
X566572Y14229D01*
X566429Y14189D01*
X566286Y14152D01*
X566141Y14120D01*
X565996Y14091D01*
X565849Y14066D01*
X565703Y14045D01*
X565555Y14028D01*
X565407Y14015D01*
X565259Y14006D01*
X565111Y14001D01*
X564963Y14000D01*
X564815Y14003D01*
X564666Y14010D01*
X564519Y14021D01*
X564371Y14036D01*
X564224Y14055D01*
X564077Y14078D01*
X563932Y14105D01*
X563786Y14136D01*
X563642Y14170D01*
X563499Y14209D01*
X563357Y14251D01*
X563216Y14297D01*
X563076Y14347D01*
X562938Y14401D01*
X562801Y14459D01*
X562666Y14520D01*
X562533Y14584D01*
X562401Y14653D01*
X562271Y14725D01*
X562144Y14800D01*
X562018Y14879D01*
X561894Y14961D01*
X561773Y15046D01*
X561654Y15135D01*
X561538Y15226D01*
X561424Y15321D01*
X561312Y15419D01*
X561204Y15520D01*
X561098Y15624D01*
X560995Y15731D01*
X560895Y15840D01*
X560797Y15952D01*
X560703Y16067D01*
X560612Y16184D01*
X560524Y16303D01*
X560440Y16425D01*
X560359Y16549D01*
X560281Y16675D01*
X560206Y16804D01*
X560135Y16934D01*
X560068Y17066D01*
X560004Y17200D01*
X559944Y17335D01*
X559887Y17473D01*
X559835Y17611D01*
X559785Y17751D01*
X559740Y17892D01*
X559699Y18035D01*
X559661Y18178D01*
X559627Y18323D01*
X559598Y18468D01*
X559572Y18614D01*
X559550Y18761D01*
X559532Y18908D01*
X559518Y19056D01*
X559508Y19204D01*
X559502Y19352D01*
X559500Y19500D01*
X559500Y84500D02*
X559502Y84648D01*
X559508Y84796D01*
X559518Y84944D01*
X559532Y85092D01*
X559550Y85239D01*
X559572Y85386D01*
X559598Y85532D01*
X559627Y85677D01*
X559661Y85822D01*
X559699Y85965D01*
X559740Y86108D01*
X559785Y86249D01*
X559835Y86389D01*
X559887Y86527D01*
X559944Y86665D01*
X560004Y86800D01*
X560068Y86934D01*
X560135Y87066D01*
X560206Y87196D01*
X560281Y87325D01*
X560359Y87451D01*
X560440Y87575D01*
X560524Y87697D01*
X560612Y87816D01*
X560703Y87933D01*
X560797Y88048D01*
X560895Y88160D01*
X560995Y88269D01*
X561098Y88376D01*
X561204Y88480D01*
X561312Y88581D01*
X561424Y88679D01*
X561538Y88774D01*
X561654Y88865D01*
X561773Y88954D01*
X561894Y89039D01*
X562018Y89121D01*
X562144Y89200D01*
X562271Y89275D01*
X562401Y89347D01*
X562533Y89416D01*
X562666Y89480D01*
X562801Y89541D01*
X562938Y89599D01*
X563076Y89653D01*
X563216Y89703D01*
X563357Y89749D01*
X563499Y89791D01*
X563642Y89830D01*
X563786Y89864D01*
X563932Y89895D01*
X564077Y89922D01*
X564224Y89945D01*
X564371Y89964D01*
X564519Y89979D01*
X564666Y89990D01*
X564815Y89997D01*
X564963Y90000D01*
X565111Y89999D01*
X565259Y89994D01*
X565407Y89985D01*
X565555Y89972D01*
X565703Y89955D01*
X565849Y89934D01*
X565996Y89909D01*
X566141Y89880D01*
X566286Y89848D01*
X566429Y89811D01*
X566572Y89771D01*
X566714Y89726D01*
X566854Y89678D01*
X566993Y89626D01*
X567130Y89571D01*
X567266Y89511D01*
X567401Y89448D01*
X567533Y89382D01*
X567664Y89312D01*
X567793Y89238D01*
X567919Y89161D01*
X568044Y89081D01*
X568166Y88997D01*
X568287Y88910D01*
X568404Y88820D01*
X568520Y88726D01*
X568632Y88630D01*
X568742Y88531D01*
X568850Y88428D01*
X568954Y88323D01*
X569056Y88215D01*
X569154Y88104D01*
X569250Y87991D01*
X569343Y87875D01*
X569432Y87757D01*
X569518Y87636D01*
X569601Y87513D01*
X569681Y87388D01*
X569757Y87261D01*
X569830Y87131D01*
X569899Y87000D01*
X569964Y86867D01*
X570027Y86733D01*
X570085Y86596D01*
X570140Y86458D01*
X570190Y86319D01*
X570238Y86178D01*
X570281Y86037D01*
X570321Y85894D01*
X570356Y85750D01*
X570388Y85605D01*
X570416Y85459D01*
X570440Y85313D01*
X570460Y85166D01*
X570476Y85018D01*
X570488Y84871D01*
X570496Y84722D01*
X570500Y84574D01*
X570500Y84426D01*
X570496Y84278D01*
X570488Y84129D01*
X570476Y83982D01*
X570460Y83834D01*
X570440Y83687D01*
X570416Y83541D01*
X570388Y83395D01*
X570356Y83250D01*
X570321Y83106D01*
X570281Y82963D01*
X570238Y82822D01*
X570190Y82681D01*
X570140Y82542D01*
X570085Y82404D01*
X570027Y82267D01*
X569964Y82133D01*
X569899Y82000D01*
X569830Y81869D01*
X569757Y81739D01*
X569681Y81612D01*
X569601Y81487D01*
X569518Y81364D01*
X569432Y81243D01*
X569343Y81125D01*
X569250Y81009D01*
X569154Y80896D01*
X569056Y80785D01*
X568954Y80677D01*
X568850Y80572D01*
X568742Y80469D01*
X568632Y80370D01*
X568520Y80274D01*
X568404Y80180D01*
X568287Y80090D01*
X568166Y80003D01*
X568044Y79919D01*
X567919Y79839D01*
X567793Y79762D01*
X567664Y79688D01*
X567533Y79618D01*
X567401Y79552D01*
X567266Y79489D01*
X567130Y79429D01*
X566993Y79374D01*
X566854Y79322D01*
X566714Y79274D01*
X566572Y79229D01*
X566429Y79189D01*
X566286Y79152D01*
X566141Y79120D01*
X565996Y79091D01*
X565849Y79066D01*
X565703Y79045D01*
X565555Y79028D01*
X565407Y79015D01*
X565259Y79006D01*
X565111Y79001D01*
X564963Y79000D01*
X564815Y79003D01*
X564666Y79010D01*
X564519Y79021D01*
X564371Y79036D01*
X564224Y79055D01*
X564077Y79078D01*
X563932Y79105D01*
X563786Y79136D01*
X563642Y79170D01*
X563499Y79209D01*
X563357Y79251D01*
X563216Y79297D01*
X563076Y79347D01*
X562938Y79401D01*
X562801Y79459D01*
X562666Y79520D01*
X562533Y79584D01*
X562401Y79653D01*
X562271Y79725D01*
X562144Y79800D01*
X562018Y79879D01*
X561894Y79961D01*
X561773Y80046D01*
X561654Y80135D01*
X561538Y80226D01*
X561424Y80321D01*
X561312Y80419D01*
X561204Y80520D01*
X561098Y80624D01*
X560995Y80731D01*
X560895Y80840D01*
X560797Y80952D01*
X560703Y81067D01*
X560612Y81184D01*
X560524Y81303D01*
X560440Y81425D01*
X560359Y81549D01*
X560281Y81675D01*
X560206Y81804D01*
X560135Y81934D01*
X560068Y82066D01*
X560004Y82200D01*
X559944Y82335D01*
X559887Y82473D01*
X559835Y82611D01*
X559785Y82751D01*
X559740Y82892D01*
X559699Y83035D01*
X559661Y83178D01*
X559627Y83323D01*
X559598Y83468D01*
X559572Y83614D01*
X559550Y83761D01*
X559532Y83908D01*
X559518Y84056D01*
X559508Y84204D01*
X559502Y84352D01*
X559500Y84500D01*
X526900Y580200D02*
X526902Y580348D01*
X526908Y580496D01*
X526918Y580644D01*
X526932Y580792D01*
X526950Y580939D01*
X526972Y581086D01*
X526998Y581232D01*
X527027Y581377D01*
X527061Y581522D01*
X527099Y581665D01*
X527140Y581808D01*
X527185Y581949D01*
X527235Y582089D01*
X527287Y582227D01*
X527344Y582365D01*
X527404Y582500D01*
X527468Y582634D01*
X527535Y582766D01*
X527606Y582896D01*
X527681Y583025D01*
X527759Y583151D01*
X527840Y583275D01*
X527924Y583397D01*
X528012Y583516D01*
X528103Y583633D01*
X528197Y583748D01*
X528295Y583860D01*
X528395Y583969D01*
X528498Y584076D01*
X528604Y584180D01*
X528712Y584281D01*
X528824Y584379D01*
X528938Y584474D01*
X529054Y584565D01*
X529173Y584654D01*
X529294Y584739D01*
X529418Y584821D01*
X529544Y584900D01*
X529671Y584975D01*
X529801Y585047D01*
X529933Y585116D01*
X530066Y585180D01*
X530201Y585241D01*
X530338Y585299D01*
X530476Y585353D01*
X530616Y585403D01*
X530757Y585449D01*
X530899Y585491D01*
X531042Y585530D01*
X531186Y585564D01*
X531332Y585595D01*
X531477Y585622D01*
X531624Y585645D01*
X531771Y585664D01*
X531919Y585679D01*
X532066Y585690D01*
X532215Y585697D01*
X532363Y585700D01*
X532511Y585699D01*
X532659Y585694D01*
X532807Y585685D01*
X532955Y585672D01*
X533103Y585655D01*
X533249Y585634D01*
X533396Y585609D01*
X533541Y585580D01*
X533686Y585548D01*
X533829Y585511D01*
X533972Y585471D01*
X534114Y585426D01*
X534254Y585378D01*
X534393Y585326D01*
X534530Y585271D01*
X534666Y585211D01*
X534801Y585148D01*
X534933Y585082D01*
X535064Y585012D01*
X535193Y584938D01*
X535319Y584861D01*
X535444Y584781D01*
X535566Y584697D01*
X535687Y584610D01*
X535804Y584520D01*
X535920Y584426D01*
X536032Y584330D01*
X536142Y584231D01*
X536250Y584128D01*
X536354Y584023D01*
X536456Y583915D01*
X536554Y583804D01*
X536650Y583691D01*
X536743Y583575D01*
X536832Y583457D01*
X536918Y583336D01*
X537001Y583213D01*
X537081Y583088D01*
X537157Y582961D01*
X537230Y582831D01*
X537299Y582700D01*
X537364Y582567D01*
X537427Y582433D01*
X537485Y582296D01*
X537540Y582158D01*
X537590Y582019D01*
X537638Y581878D01*
X537681Y581737D01*
X537721Y581594D01*
X537756Y581450D01*
X537788Y581305D01*
X537816Y581159D01*
X537840Y581013D01*
X537860Y580866D01*
X537876Y580718D01*
X537888Y580571D01*
X537896Y580422D01*
X537900Y580274D01*
X537900Y580126D01*
X537896Y579978D01*
X537888Y579829D01*
X537876Y579682D01*
X537860Y579534D01*
X537840Y579387D01*
X537816Y579241D01*
X537788Y579095D01*
X537756Y578950D01*
X537721Y578806D01*
X537681Y578663D01*
X537638Y578522D01*
X537590Y578381D01*
X537540Y578242D01*
X537485Y578104D01*
X537427Y577967D01*
X537364Y577833D01*
X537299Y577700D01*
X537230Y577569D01*
X537157Y577439D01*
X537081Y577312D01*
X537001Y577187D01*
X536918Y577064D01*
X536832Y576943D01*
X536743Y576825D01*
X536650Y576709D01*
X536554Y576596D01*
X536456Y576485D01*
X536354Y576377D01*
X536250Y576272D01*
X536142Y576169D01*
X536032Y576070D01*
X535920Y575974D01*
X535804Y575880D01*
X535687Y575790D01*
X535566Y575703D01*
X535444Y575619D01*
X535319Y575539D01*
X535193Y575462D01*
X535064Y575388D01*
X534933Y575318D01*
X534801Y575252D01*
X534666Y575189D01*
X534530Y575129D01*
X534393Y575074D01*
X534254Y575022D01*
X534114Y574974D01*
X533972Y574929D01*
X533829Y574889D01*
X533686Y574852D01*
X533541Y574820D01*
X533396Y574791D01*
X533249Y574766D01*
X533103Y574745D01*
X532955Y574728D01*
X532807Y574715D01*
X532659Y574706D01*
X532511Y574701D01*
X532363Y574700D01*
X532215Y574703D01*
X532066Y574710D01*
X531919Y574721D01*
X531771Y574736D01*
X531624Y574755D01*
X531477Y574778D01*
X531332Y574805D01*
X531186Y574836D01*
X531042Y574870D01*
X530899Y574909D01*
X530757Y574951D01*
X530616Y574997D01*
X530476Y575047D01*
X530338Y575101D01*
X530201Y575159D01*
X530066Y575220D01*
X529933Y575284D01*
X529801Y575353D01*
X529671Y575425D01*
X529544Y575500D01*
X529418Y575579D01*
X529294Y575661D01*
X529173Y575746D01*
X529054Y575835D01*
X528938Y575926D01*
X528824Y576021D01*
X528712Y576119D01*
X528604Y576220D01*
X528498Y576324D01*
X528395Y576431D01*
X528295Y576540D01*
X528197Y576652D01*
X528103Y576767D01*
X528012Y576884D01*
X527924Y577003D01*
X527840Y577125D01*
X527759Y577249D01*
X527681Y577375D01*
X527606Y577504D01*
X527535Y577634D01*
X527468Y577766D01*
X527404Y577900D01*
X527344Y578035D01*
X527287Y578173D01*
X527235Y578311D01*
X527185Y578451D01*
X527140Y578592D01*
X527099Y578735D01*
X527061Y578878D01*
X527027Y579023D01*
X526998Y579168D01*
X526972Y579314D01*
X526950Y579461D01*
X526932Y579608D01*
X526918Y579756D01*
X526908Y579904D01*
X526902Y580052D01*
X526900Y580200D01*
X526900Y515200D02*
X526902Y515348D01*
X526908Y515496D01*
X526918Y515644D01*
X526932Y515792D01*
X526950Y515939D01*
X526972Y516086D01*
X526998Y516232D01*
X527027Y516377D01*
X527061Y516522D01*
X527099Y516665D01*
X527140Y516808D01*
X527185Y516949D01*
X527235Y517089D01*
X527287Y517227D01*
X527344Y517365D01*
X527404Y517500D01*
X527468Y517634D01*
X527535Y517766D01*
X527606Y517896D01*
X527681Y518025D01*
X527759Y518151D01*
X527840Y518275D01*
X527924Y518397D01*
X528012Y518516D01*
X528103Y518633D01*
X528197Y518748D01*
X528295Y518860D01*
X528395Y518969D01*
X528498Y519076D01*
X528604Y519180D01*
X528712Y519281D01*
X528824Y519379D01*
X528938Y519474D01*
X529054Y519565D01*
X529173Y519654D01*
X529294Y519739D01*
X529418Y519821D01*
X529544Y519900D01*
X529671Y519975D01*
X529801Y520047D01*
X529933Y520116D01*
X530066Y520180D01*
X530201Y520241D01*
X530338Y520299D01*
X530476Y520353D01*
X530616Y520403D01*
X530757Y520449D01*
X530899Y520491D01*
X531042Y520530D01*
X531186Y520564D01*
X531332Y520595D01*
X531477Y520622D01*
X531624Y520645D01*
X531771Y520664D01*
X531919Y520679D01*
X532066Y520690D01*
X532215Y520697D01*
X532363Y520700D01*
X532511Y520699D01*
X532659Y520694D01*
X532807Y520685D01*
X532955Y520672D01*
X533103Y520655D01*
X533249Y520634D01*
X533396Y520609D01*
X533541Y520580D01*
X533686Y520548D01*
X533829Y520511D01*
X533972Y520471D01*
X534114Y520426D01*
X534254Y520378D01*
X534393Y520326D01*
X534530Y520271D01*
X534666Y520211D01*
X534801Y520148D01*
X534933Y520082D01*
X535064Y520012D01*
X535193Y519938D01*
X535319Y519861D01*
X535444Y519781D01*
X535566Y519697D01*
X535687Y519610D01*
X535804Y519520D01*
X535920Y519426D01*
X536032Y519330D01*
X536142Y519231D01*
X536250Y519128D01*
X536354Y519023D01*
X536456Y518915D01*
X536554Y518804D01*
X536650Y518691D01*
X536743Y518575D01*
X536832Y518457D01*
X536918Y518336D01*
X537001Y518213D01*
X537081Y518088D01*
X537157Y517961D01*
X537230Y517831D01*
X537299Y517700D01*
X537364Y517567D01*
X537427Y517433D01*
X537485Y517296D01*
X537540Y517158D01*
X537590Y517019D01*
X537638Y516878D01*
X537681Y516737D01*
X537721Y516594D01*
X537756Y516450D01*
X537788Y516305D01*
X537816Y516159D01*
X537840Y516013D01*
X537860Y515866D01*
X537876Y515718D01*
X537888Y515571D01*
X537896Y515422D01*
X537900Y515274D01*
X537900Y515126D01*
X537896Y514978D01*
X537888Y514829D01*
X537876Y514682D01*
X537860Y514534D01*
X537840Y514387D01*
X537816Y514241D01*
X537788Y514095D01*
X537756Y513950D01*
X537721Y513806D01*
X537681Y513663D01*
X537638Y513522D01*
X537590Y513381D01*
X537540Y513242D01*
X537485Y513104D01*
X537427Y512967D01*
X537364Y512833D01*
X537299Y512700D01*
X537230Y512569D01*
X537157Y512439D01*
X537081Y512312D01*
X537001Y512187D01*
X536918Y512064D01*
X536832Y511943D01*
X536743Y511825D01*
X536650Y511709D01*
X536554Y511596D01*
X536456Y511485D01*
X536354Y511377D01*
X536250Y511272D01*
X536142Y511169D01*
X536032Y511070D01*
X535920Y510974D01*
X535804Y510880D01*
X535687Y510790D01*
X535566Y510703D01*
X535444Y510619D01*
X535319Y510539D01*
X535193Y510462D01*
X535064Y510388D01*
X534933Y510318D01*
X534801Y510252D01*
X534666Y510189D01*
X534530Y510129D01*
X534393Y510074D01*
X534254Y510022D01*
X534114Y509974D01*
X533972Y509929D01*
X533829Y509889D01*
X533686Y509852D01*
X533541Y509820D01*
X533396Y509791D01*
X533249Y509766D01*
X533103Y509745D01*
X532955Y509728D01*
X532807Y509715D01*
X532659Y509706D01*
X532511Y509701D01*
X532363Y509700D01*
X532215Y509703D01*
X532066Y509710D01*
X531919Y509721D01*
X531771Y509736D01*
X531624Y509755D01*
X531477Y509778D01*
X531332Y509805D01*
X531186Y509836D01*
X531042Y509870D01*
X530899Y509909D01*
X530757Y509951D01*
X530616Y509997D01*
X530476Y510047D01*
X530338Y510101D01*
X530201Y510159D01*
X530066Y510220D01*
X529933Y510284D01*
X529801Y510353D01*
X529671Y510425D01*
X529544Y510500D01*
X529418Y510579D01*
X529294Y510661D01*
X529173Y510746D01*
X529054Y510835D01*
X528938Y510926D01*
X528824Y511021D01*
X528712Y511119D01*
X528604Y511220D01*
X528498Y511324D01*
X528395Y511431D01*
X528295Y511540D01*
X528197Y511652D01*
X528103Y511767D01*
X528012Y511884D01*
X527924Y512003D01*
X527840Y512125D01*
X527759Y512249D01*
X527681Y512375D01*
X527606Y512504D01*
X527535Y512634D01*
X527468Y512766D01*
X527404Y512900D01*
X527344Y513035D01*
X527287Y513173D01*
X527235Y513311D01*
X527185Y513451D01*
X527140Y513592D01*
X527099Y513735D01*
X527061Y513878D01*
X527027Y514023D01*
X526998Y514168D01*
X526972Y514314D01*
X526950Y514461D01*
X526932Y514608D01*
X526918Y514756D01*
X526908Y514904D01*
X526902Y515052D01*
X526900Y515200D01*
X389500Y19500D02*
X389502Y19648D01*
X389508Y19796D01*
X389518Y19944D01*
X389532Y20092D01*
X389550Y20239D01*
X389572Y20386D01*
X389598Y20532D01*
X389627Y20677D01*
X389661Y20822D01*
X389699Y20965D01*
X389740Y21108D01*
X389785Y21249D01*
X389835Y21389D01*
X389887Y21527D01*
X389944Y21665D01*
X390004Y21800D01*
X390068Y21934D01*
X390135Y22066D01*
X390206Y22196D01*
X390281Y22325D01*
X390359Y22451D01*
X390440Y22575D01*
X390524Y22697D01*
X390612Y22816D01*
X390703Y22933D01*
X390797Y23048D01*
X390895Y23160D01*
X390995Y23269D01*
X391098Y23376D01*
X391204Y23480D01*
X391312Y23581D01*
X391424Y23679D01*
X391538Y23774D01*
X391654Y23865D01*
X391773Y23954D01*
X391894Y24039D01*
X392018Y24121D01*
X392144Y24200D01*
X392271Y24275D01*
X392401Y24347D01*
X392533Y24416D01*
X392666Y24480D01*
X392801Y24541D01*
X392938Y24599D01*
X393076Y24653D01*
X393216Y24703D01*
X393357Y24749D01*
X393499Y24791D01*
X393642Y24830D01*
X393786Y24864D01*
X393932Y24895D01*
X394077Y24922D01*
X394224Y24945D01*
X394371Y24964D01*
X394519Y24979D01*
X394666Y24990D01*
X394815Y24997D01*
X394963Y25000D01*
X395111Y24999D01*
X395259Y24994D01*
X395407Y24985D01*
X395555Y24972D01*
X395703Y24955D01*
X395849Y24934D01*
X395996Y24909D01*
X396141Y24880D01*
X396286Y24848D01*
X396429Y24811D01*
X396572Y24771D01*
X396714Y24726D01*
X396854Y24678D01*
X396993Y24626D01*
X397130Y24571D01*
X397266Y24511D01*
X397401Y24448D01*
X397533Y24382D01*
X397664Y24312D01*
X397793Y24238D01*
X397919Y24161D01*
X398044Y24081D01*
X398166Y23997D01*
X398287Y23910D01*
X398404Y23820D01*
X398520Y23726D01*
X398632Y23630D01*
X398742Y23531D01*
X398850Y23428D01*
X398954Y23323D01*
X399056Y23215D01*
X399154Y23104D01*
X399250Y22991D01*
X399343Y22875D01*
X399432Y22757D01*
X399518Y22636D01*
X399601Y22513D01*
X399681Y22388D01*
X399757Y22261D01*
X399830Y22131D01*
X399899Y22000D01*
X399964Y21867D01*
X400027Y21733D01*
X400085Y21596D01*
X400140Y21458D01*
X400190Y21319D01*
X400238Y21178D01*
X400281Y21037D01*
X400321Y20894D01*
X400356Y20750D01*
X400388Y20605D01*
X400416Y20459D01*
X400440Y20313D01*
X400460Y20166D01*
X400476Y20018D01*
X400488Y19871D01*
X400496Y19722D01*
X400500Y19574D01*
X400500Y19426D01*
X400496Y19278D01*
X400488Y19129D01*
X400476Y18982D01*
X400460Y18834D01*
X400440Y18687D01*
X400416Y18541D01*
X400388Y18395D01*
X400356Y18250D01*
X400321Y18106D01*
X400281Y17963D01*
X400238Y17822D01*
X400190Y17681D01*
X400140Y17542D01*
X400085Y17404D01*
X400027Y17267D01*
X399964Y17133D01*
X399899Y17000D01*
X399830Y16869D01*
X399757Y16739D01*
X399681Y16612D01*
X399601Y16487D01*
X399518Y16364D01*
X399432Y16243D01*
X399343Y16125D01*
X399250Y16009D01*
X399154Y15896D01*
X399056Y15785D01*
X398954Y15677D01*
X398850Y15572D01*
X398742Y15469D01*
X398632Y15370D01*
X398520Y15274D01*
X398404Y15180D01*
X398287Y15090D01*
X398166Y15003D01*
X398044Y14919D01*
X397919Y14839D01*
X397793Y14762D01*
X397664Y14688D01*
X397533Y14618D01*
X397401Y14552D01*
X397266Y14489D01*
X397130Y14429D01*
X396993Y14374D01*
X396854Y14322D01*
X396714Y14274D01*
X396572Y14229D01*
X396429Y14189D01*
X396286Y14152D01*
X396141Y14120D01*
X395996Y14091D01*
X395849Y14066D01*
X395703Y14045D01*
X395555Y14028D01*
X395407Y14015D01*
X395259Y14006D01*
X395111Y14001D01*
X394963Y14000D01*
X394815Y14003D01*
X394666Y14010D01*
X394519Y14021D01*
X394371Y14036D01*
X394224Y14055D01*
X394077Y14078D01*
X393932Y14105D01*
X393786Y14136D01*
X393642Y14170D01*
X393499Y14209D01*
X393357Y14251D01*
X393216Y14297D01*
X393076Y14347D01*
X392938Y14401D01*
X392801Y14459D01*
X392666Y14520D01*
X392533Y14584D01*
X392401Y14653D01*
X392271Y14725D01*
X392144Y14800D01*
X392018Y14879D01*
X391894Y14961D01*
X391773Y15046D01*
X391654Y15135D01*
X391538Y15226D01*
X391424Y15321D01*
X391312Y15419D01*
X391204Y15520D01*
X391098Y15624D01*
X390995Y15731D01*
X390895Y15840D01*
X390797Y15952D01*
X390703Y16067D01*
X390612Y16184D01*
X390524Y16303D01*
X390440Y16425D01*
X390359Y16549D01*
X390281Y16675D01*
X390206Y16804D01*
X390135Y16934D01*
X390068Y17066D01*
X390004Y17200D01*
X389944Y17335D01*
X389887Y17473D01*
X389835Y17611D01*
X389785Y17751D01*
X389740Y17892D01*
X389699Y18035D01*
X389661Y18178D01*
X389627Y18323D01*
X389598Y18468D01*
X389572Y18614D01*
X389550Y18761D01*
X389532Y18908D01*
X389518Y19056D01*
X389508Y19204D01*
X389502Y19352D01*
X389500Y19500D01*
X389500Y84500D02*
X389502Y84648D01*
X389508Y84796D01*
X389518Y84944D01*
X389532Y85092D01*
X389550Y85239D01*
X389572Y85386D01*
X389598Y85532D01*
X389627Y85677D01*
X389661Y85822D01*
X389699Y85965D01*
X389740Y86108D01*
X389785Y86249D01*
X389835Y86389D01*
X389887Y86527D01*
X389944Y86665D01*
X390004Y86800D01*
X390068Y86934D01*
X390135Y87066D01*
X390206Y87196D01*
X390281Y87325D01*
X390359Y87451D01*
X390440Y87575D01*
X390524Y87697D01*
X390612Y87816D01*
X390703Y87933D01*
X390797Y88048D01*
X390895Y88160D01*
X390995Y88269D01*
X391098Y88376D01*
X391204Y88480D01*
X391312Y88581D01*
X391424Y88679D01*
X391538Y88774D01*
X391654Y88865D01*
X391773Y88954D01*
X391894Y89039D01*
X392018Y89121D01*
X392144Y89200D01*
X392271Y89275D01*
X392401Y89347D01*
X392533Y89416D01*
X392666Y89480D01*
X392801Y89541D01*
X392938Y89599D01*
X393076Y89653D01*
X393216Y89703D01*
X393357Y89749D01*
X393499Y89791D01*
X393642Y89830D01*
X393786Y89864D01*
X393932Y89895D01*
X394077Y89922D01*
X394224Y89945D01*
X394371Y89964D01*
X394519Y89979D01*
X394666Y89990D01*
X394815Y89997D01*
X394963Y90000D01*
X395111Y89999D01*
X395259Y89994D01*
X395407Y89985D01*
X395555Y89972D01*
X395703Y89955D01*
X395849Y89934D01*
X395996Y89909D01*
X396141Y89880D01*
X396286Y89848D01*
X396429Y89811D01*
X396572Y89771D01*
X396714Y89726D01*
X396854Y89678D01*
X396993Y89626D01*
X397130Y89571D01*
X397266Y89511D01*
X397401Y89448D01*
X397533Y89382D01*
X397664Y89312D01*
X397793Y89238D01*
X397919Y89161D01*
X398044Y89081D01*
X398166Y88997D01*
X398287Y88910D01*
X398404Y88820D01*
X398520Y88726D01*
X398632Y88630D01*
X398742Y88531D01*
X398850Y88428D01*
X398954Y88323D01*
X399056Y88215D01*
X399154Y88104D01*
X399250Y87991D01*
X399343Y87875D01*
X399432Y87757D01*
X399518Y87636D01*
X399601Y87513D01*
X399681Y87388D01*
X399757Y87261D01*
X399830Y87131D01*
X399899Y87000D01*
X399964Y86867D01*
X400027Y86733D01*
X400085Y86596D01*
X400140Y86458D01*
X400190Y86319D01*
X400238Y86178D01*
X400281Y86037D01*
X400321Y85894D01*
X400356Y85750D01*
X400388Y85605D01*
X400416Y85459D01*
X400440Y85313D01*
X400460Y85166D01*
X400476Y85018D01*
X400488Y84871D01*
X400496Y84722D01*
X400500Y84574D01*
X400500Y84426D01*
X400496Y84278D01*
X400488Y84129D01*
X400476Y83982D01*
X400460Y83834D01*
X400440Y83687D01*
X400416Y83541D01*
X400388Y83395D01*
X400356Y83250D01*
X400321Y83106D01*
X400281Y82963D01*
X400238Y82822D01*
X400190Y82681D01*
X400140Y82542D01*
X400085Y82404D01*
X400027Y82267D01*
X399964Y82133D01*
X399899Y82000D01*
X399830Y81869D01*
X399757Y81739D01*
X399681Y81612D01*
X399601Y81487D01*
X399518Y81364D01*
X399432Y81243D01*
X399343Y81125D01*
X399250Y81009D01*
X399154Y80896D01*
X399056Y80785D01*
X398954Y80677D01*
X398850Y80572D01*
X398742Y80469D01*
X398632Y80370D01*
X398520Y80274D01*
X398404Y80180D01*
X398287Y80090D01*
X398166Y80003D01*
X398044Y79919D01*
X397919Y79839D01*
X397793Y79762D01*
X397664Y79688D01*
X397533Y79618D01*
X397401Y79552D01*
X397266Y79489D01*
X397130Y79429D01*
X396993Y79374D01*
X396854Y79322D01*
X396714Y79274D01*
X396572Y79229D01*
X396429Y79189D01*
X396286Y79152D01*
X396141Y79120D01*
X395996Y79091D01*
X395849Y79066D01*
X395703Y79045D01*
X395555Y79028D01*
X395407Y79015D01*
X395259Y79006D01*
X395111Y79001D01*
X394963Y79000D01*
X394815Y79003D01*
X394666Y79010D01*
X394519Y79021D01*
X394371Y79036D01*
X394224Y79055D01*
X394077Y79078D01*
X393932Y79105D01*
X393786Y79136D01*
X393642Y79170D01*
X393499Y79209D01*
X393357Y79251D01*
X393216Y79297D01*
X393076Y79347D01*
X392938Y79401D01*
X392801Y79459D01*
X392666Y79520D01*
X392533Y79584D01*
X392401Y79653D01*
X392271Y79725D01*
X392144Y79800D01*
X392018Y79879D01*
X391894Y79961D01*
X391773Y80046D01*
X391654Y80135D01*
X391538Y80226D01*
X391424Y80321D01*
X391312Y80419D01*
X391204Y80520D01*
X391098Y80624D01*
X390995Y80731D01*
X390895Y80840D01*
X390797Y80952D01*
X390703Y81067D01*
X390612Y81184D01*
X390524Y81303D01*
X390440Y81425D01*
X390359Y81549D01*
X390281Y81675D01*
X390206Y81804D01*
X390135Y81934D01*
X390068Y82066D01*
X390004Y82200D01*
X389944Y82335D01*
X389887Y82473D01*
X389835Y82611D01*
X389785Y82751D01*
X389740Y82892D01*
X389699Y83035D01*
X389661Y83178D01*
X389627Y83323D01*
X389598Y83468D01*
X389572Y83614D01*
X389550Y83761D01*
X389532Y83908D01*
X389518Y84056D01*
X389508Y84204D01*
X389502Y84352D01*
X389500Y84500D01*
X219500Y19500D02*
X219502Y19648D01*
X219508Y19796D01*
X219518Y19944D01*
X219532Y20092D01*
X219550Y20239D01*
X219572Y20386D01*
X219598Y20532D01*
X219627Y20677D01*
X219661Y20822D01*
X219699Y20965D01*
X219740Y21108D01*
X219785Y21249D01*
X219835Y21389D01*
X219887Y21527D01*
X219944Y21665D01*
X220004Y21800D01*
X220068Y21934D01*
X220135Y22066D01*
X220206Y22196D01*
X220281Y22325D01*
X220359Y22451D01*
X220440Y22575D01*
X220524Y22697D01*
X220612Y22816D01*
X220703Y22933D01*
X220797Y23048D01*
X220895Y23160D01*
X220995Y23269D01*
X221098Y23376D01*
X221204Y23480D01*
X221312Y23581D01*
X221424Y23679D01*
X221538Y23774D01*
X221654Y23865D01*
X221773Y23954D01*
X221894Y24039D01*
X222018Y24121D01*
X222144Y24200D01*
X222271Y24275D01*
X222401Y24347D01*
X222533Y24416D01*
X222666Y24480D01*
X222801Y24541D01*
X222938Y24599D01*
X223076Y24653D01*
X223216Y24703D01*
X223357Y24749D01*
X223499Y24791D01*
X223642Y24830D01*
X223786Y24864D01*
X223932Y24895D01*
X224077Y24922D01*
X224224Y24945D01*
X224371Y24964D01*
X224519Y24979D01*
X224666Y24990D01*
X224815Y24997D01*
X224963Y25000D01*
X225111Y24999D01*
X225259Y24994D01*
X225407Y24985D01*
X225555Y24972D01*
X225703Y24955D01*
X225849Y24934D01*
X225996Y24909D01*
X226141Y24880D01*
X226286Y24848D01*
X226429Y24811D01*
X226572Y24771D01*
X226714Y24726D01*
X226854Y24678D01*
X226993Y24626D01*
X227130Y24571D01*
X227266Y24511D01*
X227401Y24448D01*
X227533Y24382D01*
X227664Y24312D01*
X227793Y24238D01*
X227919Y24161D01*
X228044Y24081D01*
X228166Y23997D01*
X228287Y23910D01*
X228404Y23820D01*
X228520Y23726D01*
X228632Y23630D01*
X228742Y23531D01*
X228850Y23428D01*
X228954Y23323D01*
X229056Y23215D01*
X229154Y23104D01*
X229250Y22991D01*
X229343Y22875D01*
X229432Y22757D01*
X229518Y22636D01*
X229601Y22513D01*
X229681Y22388D01*
X229757Y22261D01*
X229830Y22131D01*
X229899Y22000D01*
X229964Y21867D01*
X230027Y21733D01*
X230085Y21596D01*
X230140Y21458D01*
X230190Y21319D01*
X230238Y21178D01*
X230281Y21037D01*
X230321Y20894D01*
X230356Y20750D01*
X230388Y20605D01*
X230416Y20459D01*
X230440Y20313D01*
X230460Y20166D01*
X230476Y20018D01*
X230488Y19871D01*
X230496Y19722D01*
X230500Y19574D01*
X230500Y19426D01*
X230496Y19278D01*
X230488Y19129D01*
X230476Y18982D01*
X230460Y18834D01*
X230440Y18687D01*
X230416Y18541D01*
X230388Y18395D01*
X230356Y18250D01*
X230321Y18106D01*
X230281Y17963D01*
X230238Y17822D01*
X230190Y17681D01*
X230140Y17542D01*
X230085Y17404D01*
X230027Y17267D01*
X229964Y17133D01*
X229899Y17000D01*
X229830Y16869D01*
X229757Y16739D01*
X229681Y16612D01*
X229601Y16487D01*
X229518Y16364D01*
X229432Y16243D01*
X229343Y16125D01*
X229250Y16009D01*
X229154Y15896D01*
X229056Y15785D01*
X228954Y15677D01*
X228850Y15572D01*
X228742Y15469D01*
X228632Y15370D01*
X228520Y15274D01*
X228404Y15180D01*
X228287Y15090D01*
X228166Y15003D01*
X228044Y14919D01*
X227919Y14839D01*
X227793Y14762D01*
X227664Y14688D01*
X227533Y14618D01*
X227401Y14552D01*
X227266Y14489D01*
X227130Y14429D01*
X226993Y14374D01*
X226854Y14322D01*
X226714Y14274D01*
X226572Y14229D01*
X226429Y14189D01*
X226286Y14152D01*
X226141Y14120D01*
X225996Y14091D01*
X225849Y14066D01*
X225703Y14045D01*
X225555Y14028D01*
X225407Y14015D01*
X225259Y14006D01*
X225111Y14001D01*
X224963Y14000D01*
X224815Y14003D01*
X224666Y14010D01*
X224519Y14021D01*
X224371Y14036D01*
X224224Y14055D01*
X224077Y14078D01*
X223932Y14105D01*
X223786Y14136D01*
X223642Y14170D01*
X223499Y14209D01*
X223357Y14251D01*
X223216Y14297D01*
X223076Y14347D01*
X222938Y14401D01*
X222801Y14459D01*
X222666Y14520D01*
X222533Y14584D01*
X222401Y14653D01*
X222271Y14725D01*
X222144Y14800D01*
X222018Y14879D01*
X221894Y14961D01*
X221773Y15046D01*
X221654Y15135D01*
X221538Y15226D01*
X221424Y15321D01*
X221312Y15419D01*
X221204Y15520D01*
X221098Y15624D01*
X220995Y15731D01*
X220895Y15840D01*
X220797Y15952D01*
X220703Y16067D01*
X220612Y16184D01*
X220524Y16303D01*
X220440Y16425D01*
X220359Y16549D01*
X220281Y16675D01*
X220206Y16804D01*
X220135Y16934D01*
X220068Y17066D01*
X220004Y17200D01*
X219944Y17335D01*
X219887Y17473D01*
X219835Y17611D01*
X219785Y17751D01*
X219740Y17892D01*
X219699Y18035D01*
X219661Y18178D01*
X219627Y18323D01*
X219598Y18468D01*
X219572Y18614D01*
X219550Y18761D01*
X219532Y18908D01*
X219518Y19056D01*
X219508Y19204D01*
X219502Y19352D01*
X219500Y19500D01*
X219500Y84500D02*
X219502Y84648D01*
X219508Y84796D01*
X219518Y84944D01*
X219532Y85092D01*
X219550Y85239D01*
X219572Y85386D01*
X219598Y85532D01*
X219627Y85677D01*
X219661Y85822D01*
X219699Y85965D01*
X219740Y86108D01*
X219785Y86249D01*
X219835Y86389D01*
X219887Y86527D01*
X219944Y86665D01*
X220004Y86800D01*
X220068Y86934D01*
X220135Y87066D01*
X220206Y87196D01*
X220281Y87325D01*
X220359Y87451D01*
X220440Y87575D01*
X220524Y87697D01*
X220612Y87816D01*
X220703Y87933D01*
X220797Y88048D01*
X220895Y88160D01*
X220995Y88269D01*
X221098Y88376D01*
X221204Y88480D01*
X221312Y88581D01*
X221424Y88679D01*
X221538Y88774D01*
X221654Y88865D01*
X221773Y88954D01*
X221894Y89039D01*
X222018Y89121D01*
X222144Y89200D01*
X222271Y89275D01*
X222401Y89347D01*
X222533Y89416D01*
X222666Y89480D01*
X222801Y89541D01*
X222938Y89599D01*
X223076Y89653D01*
X223216Y89703D01*
X223357Y89749D01*
X223499Y89791D01*
X223642Y89830D01*
X223786Y89864D01*
X223932Y89895D01*
X224077Y89922D01*
X224224Y89945D01*
X224371Y89964D01*
X224519Y89979D01*
X224666Y89990D01*
X224815Y89997D01*
X224963Y90000D01*
X225111Y89999D01*
X225259Y89994D01*
X225407Y89985D01*
X225555Y89972D01*
X225703Y89955D01*
X225849Y89934D01*
X225996Y89909D01*
X226141Y89880D01*
X226286Y89848D01*
X226429Y89811D01*
X226572Y89771D01*
X226714Y89726D01*
X226854Y89678D01*
X226993Y89626D01*
X227130Y89571D01*
X227266Y89511D01*
X227401Y89448D01*
X227533Y89382D01*
X227664Y89312D01*
X227793Y89238D01*
X227919Y89161D01*
X228044Y89081D01*
X228166Y88997D01*
X228287Y88910D01*
X228404Y88820D01*
X228520Y88726D01*
X228632Y88630D01*
X228742Y88531D01*
X228850Y88428D01*
X228954Y88323D01*
X229056Y88215D01*
X229154Y88104D01*
X229250Y87991D01*
X229343Y87875D01*
X229432Y87757D01*
X229518Y87636D01*
X229601Y87513D01*
X229681Y87388D01*
X229757Y87261D01*
X229830Y87131D01*
X229899Y87000D01*
X229964Y86867D01*
X230027Y86733D01*
X230085Y86596D01*
X230140Y86458D01*
X230190Y86319D01*
X230238Y86178D01*
X230281Y86037D01*
X230321Y85894D01*
X230356Y85750D01*
X230388Y85605D01*
X230416Y85459D01*
X230440Y85313D01*
X230460Y85166D01*
X230476Y85018D01*
X230488Y84871D01*
X230496Y84722D01*
X230500Y84574D01*
X230500Y84426D01*
X230496Y84278D01*
X230488Y84129D01*
X230476Y83982D01*
X230460Y83834D01*
X230440Y83687D01*
X230416Y83541D01*
X230388Y83395D01*
X230356Y83250D01*
X230321Y83106D01*
X230281Y82963D01*
X230238Y82822D01*
X230190Y82681D01*
X230140Y82542D01*
X230085Y82404D01*
X230027Y82267D01*
X229964Y82133D01*
X229899Y82000D01*
X229830Y81869D01*
X229757Y81739D01*
X229681Y81612D01*
X229601Y81487D01*
X229518Y81364D01*
X229432Y81243D01*
X229343Y81125D01*
X229250Y81009D01*
X229154Y80896D01*
X229056Y80785D01*
X228954Y80677D01*
X228850Y80572D01*
X228742Y80469D01*
X228632Y80370D01*
X228520Y80274D01*
X228404Y80180D01*
X228287Y80090D01*
X228166Y80003D01*
X228044Y79919D01*
X227919Y79839D01*
X227793Y79762D01*
X227664Y79688D01*
X227533Y79618D01*
X227401Y79552D01*
X227266Y79489D01*
X227130Y79429D01*
X226993Y79374D01*
X226854Y79322D01*
X226714Y79274D01*
X226572Y79229D01*
X226429Y79189D01*
X226286Y79152D01*
X226141Y79120D01*
X225996Y79091D01*
X225849Y79066D01*
X225703Y79045D01*
X225555Y79028D01*
X225407Y79015D01*
X225259Y79006D01*
X225111Y79001D01*
X224963Y79000D01*
X224815Y79003D01*
X224666Y79010D01*
X224519Y79021D01*
X224371Y79036D01*
X224224Y79055D01*
X224077Y79078D01*
X223932Y79105D01*
X223786Y79136D01*
X223642Y79170D01*
X223499Y79209D01*
X223357Y79251D01*
X223216Y79297D01*
X223076Y79347D01*
X222938Y79401D01*
X222801Y79459D01*
X222666Y79520D01*
X222533Y79584D01*
X222401Y79653D01*
X222271Y79725D01*
X222144Y79800D01*
X222018Y79879D01*
X221894Y79961D01*
X221773Y80046D01*
X221654Y80135D01*
X221538Y80226D01*
X221424Y80321D01*
X221312Y80419D01*
X221204Y80520D01*
X221098Y80624D01*
X220995Y80731D01*
X220895Y80840D01*
X220797Y80952D01*
X220703Y81067D01*
X220612Y81184D01*
X220524Y81303D01*
X220440Y81425D01*
X220359Y81549D01*
X220281Y81675D01*
X220206Y81804D01*
X220135Y81934D01*
X220068Y82066D01*
X220004Y82200D01*
X219944Y82335D01*
X219887Y82473D01*
X219835Y82611D01*
X219785Y82751D01*
X219740Y82892D01*
X219699Y83035D01*
X219661Y83178D01*
X219627Y83323D01*
X219598Y83468D01*
X219572Y83614D01*
X219550Y83761D01*
X219532Y83908D01*
X219518Y84056D01*
X219508Y84204D01*
X219502Y84352D01*
X219500Y84500D01*
X128500Y580000D02*
X128502Y580148D01*
X128508Y580296D01*
X128518Y580444D01*
X128532Y580592D01*
X128550Y580739D01*
X128572Y580886D01*
X128598Y581032D01*
X128627Y581177D01*
X128661Y581322D01*
X128699Y581465D01*
X128740Y581608D01*
X128785Y581749D01*
X128835Y581889D01*
X128887Y582027D01*
X128944Y582165D01*
X129004Y582300D01*
X129068Y582434D01*
X129135Y582566D01*
X129206Y582696D01*
X129281Y582825D01*
X129359Y582951D01*
X129440Y583075D01*
X129524Y583197D01*
X129612Y583316D01*
X129703Y583433D01*
X129797Y583548D01*
X129895Y583660D01*
X129995Y583769D01*
X130098Y583876D01*
X130204Y583980D01*
X130312Y584081D01*
X130424Y584179D01*
X130538Y584274D01*
X130654Y584365D01*
X130773Y584454D01*
X130894Y584539D01*
X131018Y584621D01*
X131144Y584700D01*
X131271Y584775D01*
X131401Y584847D01*
X131533Y584916D01*
X131666Y584980D01*
X131801Y585041D01*
X131938Y585099D01*
X132076Y585153D01*
X132216Y585203D01*
X132357Y585249D01*
X132499Y585291D01*
X132642Y585330D01*
X132786Y585364D01*
X132932Y585395D01*
X133077Y585422D01*
X133224Y585445D01*
X133371Y585464D01*
X133519Y585479D01*
X133666Y585490D01*
X133815Y585497D01*
X133963Y585500D01*
X134111Y585499D01*
X134259Y585494D01*
X134407Y585485D01*
X134555Y585472D01*
X134703Y585455D01*
X134849Y585434D01*
X134996Y585409D01*
X135141Y585380D01*
X135286Y585348D01*
X135429Y585311D01*
X135572Y585271D01*
X135714Y585226D01*
X135854Y585178D01*
X135993Y585126D01*
X136130Y585071D01*
X136266Y585011D01*
X136401Y584948D01*
X136533Y584882D01*
X136664Y584812D01*
X136793Y584738D01*
X136919Y584661D01*
X137044Y584581D01*
X137166Y584497D01*
X137287Y584410D01*
X137404Y584320D01*
X137520Y584226D01*
X137632Y584130D01*
X137742Y584031D01*
X137850Y583928D01*
X137954Y583823D01*
X138056Y583715D01*
X138154Y583604D01*
X138250Y583491D01*
X138343Y583375D01*
X138432Y583257D01*
X138518Y583136D01*
X138601Y583013D01*
X138681Y582888D01*
X138757Y582761D01*
X138830Y582631D01*
X138899Y582500D01*
X138964Y582367D01*
X139027Y582233D01*
X139085Y582096D01*
X139140Y581958D01*
X139190Y581819D01*
X139238Y581678D01*
X139281Y581537D01*
X139321Y581394D01*
X139356Y581250D01*
X139388Y581105D01*
X139416Y580959D01*
X139440Y580813D01*
X139460Y580666D01*
X139476Y580518D01*
X139488Y580371D01*
X139496Y580222D01*
X139500Y580074D01*
X139500Y579926D01*
X139496Y579778D01*
X139488Y579629D01*
X139476Y579482D01*
X139460Y579334D01*
X139440Y579187D01*
X139416Y579041D01*
X139388Y578895D01*
X139356Y578750D01*
X139321Y578606D01*
X139281Y578463D01*
X139238Y578322D01*
X139190Y578181D01*
X139140Y578042D01*
X139085Y577904D01*
X139027Y577767D01*
X138964Y577633D01*
X138899Y577500D01*
X138830Y577369D01*
X138757Y577239D01*
X138681Y577112D01*
X138601Y576987D01*
X138518Y576864D01*
X138432Y576743D01*
X138343Y576625D01*
X138250Y576509D01*
X138154Y576396D01*
X138056Y576285D01*
X137954Y576177D01*
X137850Y576072D01*
X137742Y575969D01*
X137632Y575870D01*
X137520Y575774D01*
X137404Y575680D01*
X137287Y575590D01*
X137166Y575503D01*
X137044Y575419D01*
X136919Y575339D01*
X136793Y575262D01*
X136664Y575188D01*
X136533Y575118D01*
X136401Y575052D01*
X136266Y574989D01*
X136130Y574929D01*
X135993Y574874D01*
X135854Y574822D01*
X135714Y574774D01*
X135572Y574729D01*
X135429Y574689D01*
X135286Y574652D01*
X135141Y574620D01*
X134996Y574591D01*
X134849Y574566D01*
X134703Y574545D01*
X134555Y574528D01*
X134407Y574515D01*
X134259Y574506D01*
X134111Y574501D01*
X133963Y574500D01*
X133815Y574503D01*
X133666Y574510D01*
X133519Y574521D01*
X133371Y574536D01*
X133224Y574555D01*
X133077Y574578D01*
X132932Y574605D01*
X132786Y574636D01*
X132642Y574670D01*
X132499Y574709D01*
X132357Y574751D01*
X132216Y574797D01*
X132076Y574847D01*
X131938Y574901D01*
X131801Y574959D01*
X131666Y575020D01*
X131533Y575084D01*
X131401Y575153D01*
X131271Y575225D01*
X131144Y575300D01*
X131018Y575379D01*
X130894Y575461D01*
X130773Y575546D01*
X130654Y575635D01*
X130538Y575726D01*
X130424Y575821D01*
X130312Y575919D01*
X130204Y576020D01*
X130098Y576124D01*
X129995Y576231D01*
X129895Y576340D01*
X129797Y576452D01*
X129703Y576567D01*
X129612Y576684D01*
X129524Y576803D01*
X129440Y576925D01*
X129359Y577049D01*
X129281Y577175D01*
X129206Y577304D01*
X129135Y577434D01*
X129068Y577566D01*
X129004Y577700D01*
X128944Y577835D01*
X128887Y577973D01*
X128835Y578111D01*
X128785Y578251D01*
X128740Y578392D01*
X128699Y578535D01*
X128661Y578678D01*
X128627Y578823D01*
X128598Y578968D01*
X128572Y579114D01*
X128550Y579261D01*
X128532Y579408D01*
X128518Y579556D01*
X128508Y579704D01*
X128502Y579852D01*
X128500Y580000D01*
X128500Y515000D02*
X128502Y515148D01*
X128508Y515296D01*
X128518Y515444D01*
X128532Y515592D01*
X128550Y515739D01*
X128572Y515886D01*
X128598Y516032D01*
X128627Y516177D01*
X128661Y516322D01*
X128699Y516465D01*
X128740Y516608D01*
X128785Y516749D01*
X128835Y516889D01*
X128887Y517027D01*
X128944Y517165D01*
X129004Y517300D01*
X129068Y517434D01*
X129135Y517566D01*
X129206Y517696D01*
X129281Y517825D01*
X129359Y517951D01*
X129440Y518075D01*
X129524Y518197D01*
X129612Y518316D01*
X129703Y518433D01*
X129797Y518548D01*
X129895Y518660D01*
X129995Y518769D01*
X130098Y518876D01*
X130204Y518980D01*
X130312Y519081D01*
X130424Y519179D01*
X130538Y519274D01*
X130654Y519365D01*
X130773Y519454D01*
X130894Y519539D01*
X131018Y519621D01*
X131144Y519700D01*
X131271Y519775D01*
X131401Y519847D01*
X131533Y519916D01*
X131666Y519980D01*
X131801Y520041D01*
X131938Y520099D01*
X132076Y520153D01*
X132216Y520203D01*
X132357Y520249D01*
X132499Y520291D01*
X132642Y520330D01*
X132786Y520364D01*
X132932Y520395D01*
X133077Y520422D01*
X133224Y520445D01*
X133371Y520464D01*
X133519Y520479D01*
X133666Y520490D01*
X133815Y520497D01*
X133963Y520500D01*
X134111Y520499D01*
X134259Y520494D01*
X134407Y520485D01*
X134555Y520472D01*
X134703Y520455D01*
X134849Y520434D01*
X134996Y520409D01*
X135141Y520380D01*
X135286Y520348D01*
X135429Y520311D01*
X135572Y520271D01*
X135714Y520226D01*
X135854Y520178D01*
X135993Y520126D01*
X136130Y520071D01*
X136266Y520011D01*
X136401Y519948D01*
X136533Y519882D01*
X136664Y519812D01*
X136793Y519738D01*
X136919Y519661D01*
X137044Y519581D01*
X137166Y519497D01*
X137287Y519410D01*
X137404Y519320D01*
X137520Y519226D01*
X137632Y519130D01*
X137742Y519031D01*
X137850Y518928D01*
X137954Y518823D01*
X138056Y518715D01*
X138154Y518604D01*
X138250Y518491D01*
X138343Y518375D01*
X138432Y518257D01*
X138518Y518136D01*
X138601Y518013D01*
X138681Y517888D01*
X138757Y517761D01*
X138830Y517631D01*
X138899Y517500D01*
X138964Y517367D01*
X139027Y517233D01*
X139085Y517096D01*
X139140Y516958D01*
X139190Y516819D01*
X139238Y516678D01*
X139281Y516537D01*
X139321Y516394D01*
X139356Y516250D01*
X139388Y516105D01*
X139416Y515959D01*
X139440Y515813D01*
X139460Y515666D01*
X139476Y515518D01*
X139488Y515371D01*
X139496Y515222D01*
X139500Y515074D01*
X139500Y514926D01*
X139496Y514778D01*
X139488Y514629D01*
X139476Y514482D01*
X139460Y514334D01*
X139440Y514187D01*
X139416Y514041D01*
X139388Y513895D01*
X139356Y513750D01*
X139321Y513606D01*
X139281Y513463D01*
X139238Y513322D01*
X139190Y513181D01*
X139140Y513042D01*
X139085Y512904D01*
X139027Y512767D01*
X138964Y512633D01*
X138899Y512500D01*
X138830Y512369D01*
X138757Y512239D01*
X138681Y512112D01*
X138601Y511987D01*
X138518Y511864D01*
X138432Y511743D01*
X138343Y511625D01*
X138250Y511509D01*
X138154Y511396D01*
X138056Y511285D01*
X137954Y511177D01*
X137850Y511072D01*
X137742Y510969D01*
X137632Y510870D01*
X137520Y510774D01*
X137404Y510680D01*
X137287Y510590D01*
X137166Y510503D01*
X137044Y510419D01*
X136919Y510339D01*
X136793Y510262D01*
X136664Y510188D01*
X136533Y510118D01*
X136401Y510052D01*
X136266Y509989D01*
X136130Y509929D01*
X135993Y509874D01*
X135854Y509822D01*
X135714Y509774D01*
X135572Y509729D01*
X135429Y509689D01*
X135286Y509652D01*
X135141Y509620D01*
X134996Y509591D01*
X134849Y509566D01*
X134703Y509545D01*
X134555Y509528D01*
X134407Y509515D01*
X134259Y509506D01*
X134111Y509501D01*
X133963Y509500D01*
X133815Y509503D01*
X133666Y509510D01*
X133519Y509521D01*
X133371Y509536D01*
X133224Y509555D01*
X133077Y509578D01*
X132932Y509605D01*
X132786Y509636D01*
X132642Y509670D01*
X132499Y509709D01*
X132357Y509751D01*
X132216Y509797D01*
X132076Y509847D01*
X131938Y509901D01*
X131801Y509959D01*
X131666Y510020D01*
X131533Y510084D01*
X131401Y510153D01*
X131271Y510225D01*
X131144Y510300D01*
X131018Y510379D01*
X130894Y510461D01*
X130773Y510546D01*
X130654Y510635D01*
X130538Y510726D01*
X130424Y510821D01*
X130312Y510919D01*
X130204Y511020D01*
X130098Y511124D01*
X129995Y511231D01*
X129895Y511340D01*
X129797Y511452D01*
X129703Y511567D01*
X129612Y511684D01*
X129524Y511803D01*
X129440Y511925D01*
X129359Y512049D01*
X129281Y512175D01*
X129206Y512304D01*
X129135Y512434D01*
X129068Y512566D01*
X129004Y512700D01*
X128944Y512835D01*
X128887Y512973D01*
X128835Y513111D01*
X128785Y513251D01*
X128740Y513392D01*
X128699Y513535D01*
X128661Y513678D01*
X128627Y513823D01*
X128598Y513968D01*
X128572Y514114D01*
X128550Y514261D01*
X128532Y514408D01*
X128518Y514556D01*
X128508Y514704D01*
X128502Y514852D01*
X128500Y515000D01*
X261200Y580000D02*
X261202Y580148D01*
X261208Y580296D01*
X261218Y580444D01*
X261232Y580592D01*
X261250Y580739D01*
X261272Y580886D01*
X261298Y581032D01*
X261327Y581177D01*
X261361Y581322D01*
X261399Y581465D01*
X261440Y581608D01*
X261485Y581749D01*
X261535Y581889D01*
X261587Y582027D01*
X261644Y582165D01*
X261704Y582300D01*
X261768Y582434D01*
X261835Y582566D01*
X261906Y582696D01*
X261981Y582825D01*
X262059Y582951D01*
X262140Y583075D01*
X262224Y583197D01*
X262312Y583316D01*
X262403Y583433D01*
X262497Y583548D01*
X262595Y583660D01*
X262695Y583769D01*
X262798Y583876D01*
X262904Y583980D01*
X263012Y584081D01*
X263124Y584179D01*
X263238Y584274D01*
X263354Y584365D01*
X263473Y584454D01*
X263594Y584539D01*
X263718Y584621D01*
X263844Y584700D01*
X263971Y584775D01*
X264101Y584847D01*
X264233Y584916D01*
X264366Y584980D01*
X264501Y585041D01*
X264638Y585099D01*
X264776Y585153D01*
X264916Y585203D01*
X265057Y585249D01*
X265199Y585291D01*
X265342Y585330D01*
X265486Y585364D01*
X265632Y585395D01*
X265777Y585422D01*
X265924Y585445D01*
X266071Y585464D01*
X266219Y585479D01*
X266366Y585490D01*
X266515Y585497D01*
X266663Y585500D01*
X266811Y585499D01*
X266959Y585494D01*
X267107Y585485D01*
X267255Y585472D01*
X267403Y585455D01*
X267549Y585434D01*
X267696Y585409D01*
X267841Y585380D01*
X267986Y585348D01*
X268129Y585311D01*
X268272Y585271D01*
X268414Y585226D01*
X268554Y585178D01*
X268693Y585126D01*
X268830Y585071D01*
X268966Y585011D01*
X269101Y584948D01*
X269233Y584882D01*
X269364Y584812D01*
X269493Y584738D01*
X269619Y584661D01*
X269744Y584581D01*
X269866Y584497D01*
X269987Y584410D01*
X270104Y584320D01*
X270220Y584226D01*
X270332Y584130D01*
X270442Y584031D01*
X270550Y583928D01*
X270654Y583823D01*
X270756Y583715D01*
X270854Y583604D01*
X270950Y583491D01*
X271043Y583375D01*
X271132Y583257D01*
X271218Y583136D01*
X271301Y583013D01*
X271381Y582888D01*
X271457Y582761D01*
X271530Y582631D01*
X271599Y582500D01*
X271664Y582367D01*
X271727Y582233D01*
X271785Y582096D01*
X271840Y581958D01*
X271890Y581819D01*
X271938Y581678D01*
X271981Y581537D01*
X272021Y581394D01*
X272056Y581250D01*
X272088Y581105D01*
X272116Y580959D01*
X272140Y580813D01*
X272160Y580666D01*
X272176Y580518D01*
X272188Y580371D01*
X272196Y580222D01*
X272200Y580074D01*
X272200Y579926D01*
X272196Y579778D01*
X272188Y579629D01*
X272176Y579482D01*
X272160Y579334D01*
X272140Y579187D01*
X272116Y579041D01*
X272088Y578895D01*
X272056Y578750D01*
X272021Y578606D01*
X271981Y578463D01*
X271938Y578322D01*
X271890Y578181D01*
X271840Y578042D01*
X271785Y577904D01*
X271727Y577767D01*
X271664Y577633D01*
X271599Y577500D01*
X271530Y577369D01*
X271457Y577239D01*
X271381Y577112D01*
X271301Y576987D01*
X271218Y576864D01*
X271132Y576743D01*
X271043Y576625D01*
X270950Y576509D01*
X270854Y576396D01*
X270756Y576285D01*
X270654Y576177D01*
X270550Y576072D01*
X270442Y575969D01*
X270332Y575870D01*
X270220Y575774D01*
X270104Y575680D01*
X269987Y575590D01*
X269866Y575503D01*
X269744Y575419D01*
X269619Y575339D01*
X269493Y575262D01*
X269364Y575188D01*
X269233Y575118D01*
X269101Y575052D01*
X268966Y574989D01*
X268830Y574929D01*
X268693Y574874D01*
X268554Y574822D01*
X268414Y574774D01*
X268272Y574729D01*
X268129Y574689D01*
X267986Y574652D01*
X267841Y574620D01*
X267696Y574591D01*
X267549Y574566D01*
X267403Y574545D01*
X267255Y574528D01*
X267107Y574515D01*
X266959Y574506D01*
X266811Y574501D01*
X266663Y574500D01*
X266515Y574503D01*
X266366Y574510D01*
X266219Y574521D01*
X266071Y574536D01*
X265924Y574555D01*
X265777Y574578D01*
X265632Y574605D01*
X265486Y574636D01*
X265342Y574670D01*
X265199Y574709D01*
X265057Y574751D01*
X264916Y574797D01*
X264776Y574847D01*
X264638Y574901D01*
X264501Y574959D01*
X264366Y575020D01*
X264233Y575084D01*
X264101Y575153D01*
X263971Y575225D01*
X263844Y575300D01*
X263718Y575379D01*
X263594Y575461D01*
X263473Y575546D01*
X263354Y575635D01*
X263238Y575726D01*
X263124Y575821D01*
X263012Y575919D01*
X262904Y576020D01*
X262798Y576124D01*
X262695Y576231D01*
X262595Y576340D01*
X262497Y576452D01*
X262403Y576567D01*
X262312Y576684D01*
X262224Y576803D01*
X262140Y576925D01*
X262059Y577049D01*
X261981Y577175D01*
X261906Y577304D01*
X261835Y577434D01*
X261768Y577566D01*
X261704Y577700D01*
X261644Y577835D01*
X261587Y577973D01*
X261535Y578111D01*
X261485Y578251D01*
X261440Y578392D01*
X261399Y578535D01*
X261361Y578678D01*
X261327Y578823D01*
X261298Y578968D01*
X261272Y579114D01*
X261250Y579261D01*
X261232Y579408D01*
X261218Y579556D01*
X261208Y579704D01*
X261202Y579852D01*
X261200Y580000D01*
X261200Y515000D02*
X261202Y515148D01*
X261208Y515296D01*
X261218Y515444D01*
X261232Y515592D01*
X261250Y515739D01*
X261272Y515886D01*
X261298Y516032D01*
X261327Y516177D01*
X261361Y516322D01*
X261399Y516465D01*
X261440Y516608D01*
X261485Y516749D01*
X261535Y516889D01*
X261587Y517027D01*
X261644Y517165D01*
X261704Y517300D01*
X261768Y517434D01*
X261835Y517566D01*
X261906Y517696D01*
X261981Y517825D01*
X262059Y517951D01*
X262140Y518075D01*
X262224Y518197D01*
X262312Y518316D01*
X262403Y518433D01*
X262497Y518548D01*
X262595Y518660D01*
X262695Y518769D01*
X262798Y518876D01*
X262904Y518980D01*
X263012Y519081D01*
X263124Y519179D01*
X263238Y519274D01*
X263354Y519365D01*
X263473Y519454D01*
X263594Y519539D01*
X263718Y519621D01*
X263844Y519700D01*
X263971Y519775D01*
X264101Y519847D01*
X264233Y519916D01*
X264366Y519980D01*
X264501Y520041D01*
X264638Y520099D01*
X264776Y520153D01*
X264916Y520203D01*
X265057Y520249D01*
X265199Y520291D01*
X265342Y520330D01*
X265486Y520364D01*
X265632Y520395D01*
X265777Y520422D01*
X265924Y520445D01*
X266071Y520464D01*
X266219Y520479D01*
X266366Y520490D01*
X266515Y520497D01*
X266663Y520500D01*
X266811Y520499D01*
X266959Y520494D01*
X267107Y520485D01*
X267255Y520472D01*
X267403Y520455D01*
X267549Y520434D01*
X267696Y520409D01*
X267841Y520380D01*
X267986Y520348D01*
X268129Y520311D01*
X268272Y520271D01*
X268414Y520226D01*
X268554Y520178D01*
X268693Y520126D01*
X268830Y520071D01*
X268966Y520011D01*
X269101Y519948D01*
X269233Y519882D01*
X269364Y519812D01*
X269493Y519738D01*
X269619Y519661D01*
X269744Y519581D01*
X269866Y519497D01*
X269987Y519410D01*
X270104Y519320D01*
X270220Y519226D01*
X270332Y519130D01*
X270442Y519031D01*
X270550Y518928D01*
X270654Y518823D01*
X270756Y518715D01*
X270854Y518604D01*
X270950Y518491D01*
X271043Y518375D01*
X271132Y518257D01*
X271218Y518136D01*
X271301Y518013D01*
X271381Y517888D01*
X271457Y517761D01*
X271530Y517631D01*
X271599Y517500D01*
X271664Y517367D01*
X271727Y517233D01*
X271785Y517096D01*
X271840Y516958D01*
X271890Y516819D01*
X271938Y516678D01*
X271981Y516537D01*
X272021Y516394D01*
X272056Y516250D01*
X272088Y516105D01*
X272116Y515959D01*
X272140Y515813D01*
X272160Y515666D01*
X272176Y515518D01*
X272188Y515371D01*
X272196Y515222D01*
X272200Y515074D01*
X272200Y514926D01*
X272196Y514778D01*
X272188Y514629D01*
X272176Y514482D01*
X272160Y514334D01*
X272140Y514187D01*
X272116Y514041D01*
X272088Y513895D01*
X272056Y513750D01*
X272021Y513606D01*
X271981Y513463D01*
X271938Y513322D01*
X271890Y513181D01*
X271840Y513042D01*
X271785Y512904D01*
X271727Y512767D01*
X271664Y512633D01*
X271599Y512500D01*
X271530Y512369D01*
X271457Y512239D01*
X271381Y512112D01*
X271301Y511987D01*
X271218Y511864D01*
X271132Y511743D01*
X271043Y511625D01*
X270950Y511509D01*
X270854Y511396D01*
X270756Y511285D01*
X270654Y511177D01*
X270550Y511072D01*
X270442Y510969D01*
X270332Y510870D01*
X270220Y510774D01*
X270104Y510680D01*
X269987Y510590D01*
X269866Y510503D01*
X269744Y510419D01*
X269619Y510339D01*
X269493Y510262D01*
X269364Y510188D01*
X269233Y510118D01*
X269101Y510052D01*
X268966Y509989D01*
X268830Y509929D01*
X268693Y509874D01*
X268554Y509822D01*
X268414Y509774D01*
X268272Y509729D01*
X268129Y509689D01*
X267986Y509652D01*
X267841Y509620D01*
X267696Y509591D01*
X267549Y509566D01*
X267403Y509545D01*
X267255Y509528D01*
X267107Y509515D01*
X266959Y509506D01*
X266811Y509501D01*
X266663Y509500D01*
X266515Y509503D01*
X266366Y509510D01*
X266219Y509521D01*
X266071Y509536D01*
X265924Y509555D01*
X265777Y509578D01*
X265632Y509605D01*
X265486Y509636D01*
X265342Y509670D01*
X265199Y509709D01*
X265057Y509751D01*
X264916Y509797D01*
X264776Y509847D01*
X264638Y509901D01*
X264501Y509959D01*
X264366Y510020D01*
X264233Y510084D01*
X264101Y510153D01*
X263971Y510225D01*
X263844Y510300D01*
X263718Y510379D01*
X263594Y510461D01*
X263473Y510546D01*
X263354Y510635D01*
X263238Y510726D01*
X263124Y510821D01*
X263012Y510919D01*
X262904Y511020D01*
X262798Y511124D01*
X262695Y511231D01*
X262595Y511340D01*
X262497Y511452D01*
X262403Y511567D01*
X262312Y511684D01*
X262224Y511803D01*
X262140Y511925D01*
X262059Y512049D01*
X261981Y512175D01*
X261906Y512304D01*
X261835Y512434D01*
X261768Y512566D01*
X261704Y512700D01*
X261644Y512835D01*
X261587Y512973D01*
X261535Y513111D01*
X261485Y513251D01*
X261440Y513392D01*
X261399Y513535D01*
X261361Y513678D01*
X261327Y513823D01*
X261298Y513968D01*
X261272Y514114D01*
X261250Y514261D01*
X261232Y514408D01*
X261218Y514556D01*
X261208Y514704D01*
X261202Y514852D01*
X261200Y515000D01*
X394100Y580000D02*
X394102Y580148D01*
X394108Y580296D01*
X394118Y580444D01*
X394132Y580592D01*
X394150Y580739D01*
X394172Y580886D01*
X394198Y581032D01*
X394227Y581177D01*
X394261Y581322D01*
X394299Y581465D01*
X394340Y581608D01*
X394385Y581749D01*
X394435Y581889D01*
X394487Y582027D01*
X394544Y582165D01*
X394604Y582300D01*
X394668Y582434D01*
X394735Y582566D01*
X394806Y582696D01*
X394881Y582825D01*
X394959Y582951D01*
X395040Y583075D01*
X395124Y583197D01*
X395212Y583316D01*
X395303Y583433D01*
X395397Y583548D01*
X395495Y583660D01*
X395595Y583769D01*
X395698Y583876D01*
X395804Y583980D01*
X395912Y584081D01*
X396024Y584179D01*
X396138Y584274D01*
X396254Y584365D01*
X396373Y584454D01*
X396494Y584539D01*
X396618Y584621D01*
X396744Y584700D01*
X396871Y584775D01*
X397001Y584847D01*
X397133Y584916D01*
X397266Y584980D01*
X397401Y585041D01*
X397538Y585099D01*
X397676Y585153D01*
X397816Y585203D01*
X397957Y585249D01*
X398099Y585291D01*
X398242Y585330D01*
X398386Y585364D01*
X398532Y585395D01*
X398677Y585422D01*
X398824Y585445D01*
X398971Y585464D01*
X399119Y585479D01*
X399266Y585490D01*
X399415Y585497D01*
X399563Y585500D01*
X399711Y585499D01*
X399859Y585494D01*
X400007Y585485D01*
X400155Y585472D01*
X400303Y585455D01*
X400449Y585434D01*
X400596Y585409D01*
X400741Y585380D01*
X400886Y585348D01*
X401029Y585311D01*
X401172Y585271D01*
X401314Y585226D01*
X401454Y585178D01*
X401593Y585126D01*
X401730Y585071D01*
X401866Y585011D01*
X402001Y584948D01*
X402133Y584882D01*
X402264Y584812D01*
X402393Y584738D01*
X402519Y584661D01*
X402644Y584581D01*
X402766Y584497D01*
X402887Y584410D01*
X403004Y584320D01*
X403120Y584226D01*
X403232Y584130D01*
X403342Y584031D01*
X403450Y583928D01*
X403554Y583823D01*
X403656Y583715D01*
X403754Y583604D01*
X403850Y583491D01*
X403943Y583375D01*
X404032Y583257D01*
X404118Y583136D01*
X404201Y583013D01*
X404281Y582888D01*
X404357Y582761D01*
X404430Y582631D01*
X404499Y582500D01*
X404564Y582367D01*
X404627Y582233D01*
X404685Y582096D01*
X404740Y581958D01*
X404790Y581819D01*
X404838Y581678D01*
X404881Y581537D01*
X404921Y581394D01*
X404956Y581250D01*
X404988Y581105D01*
X405016Y580959D01*
X405040Y580813D01*
X405060Y580666D01*
X405076Y580518D01*
X405088Y580371D01*
X405096Y580222D01*
X405100Y580074D01*
X405100Y579926D01*
X405096Y579778D01*
X405088Y579629D01*
X405076Y579482D01*
X405060Y579334D01*
X405040Y579187D01*
X405016Y579041D01*
X404988Y578895D01*
X404956Y578750D01*
X404921Y578606D01*
X404881Y578463D01*
X404838Y578322D01*
X404790Y578181D01*
X404740Y578042D01*
X404685Y577904D01*
X404627Y577767D01*
X404564Y577633D01*
X404499Y577500D01*
X404430Y577369D01*
X404357Y577239D01*
X404281Y577112D01*
X404201Y576987D01*
X404118Y576864D01*
X404032Y576743D01*
X403943Y576625D01*
X403850Y576509D01*
X403754Y576396D01*
X403656Y576285D01*
X403554Y576177D01*
X403450Y576072D01*
X403342Y575969D01*
X403232Y575870D01*
X403120Y575774D01*
X403004Y575680D01*
X402887Y575590D01*
X402766Y575503D01*
X402644Y575419D01*
X402519Y575339D01*
X402393Y575262D01*
X402264Y575188D01*
X402133Y575118D01*
X402001Y575052D01*
X401866Y574989D01*
X401730Y574929D01*
X401593Y574874D01*
X401454Y574822D01*
X401314Y574774D01*
X401172Y574729D01*
X401029Y574689D01*
X400886Y574652D01*
X400741Y574620D01*
X400596Y574591D01*
X400449Y574566D01*
X400303Y574545D01*
X400155Y574528D01*
X400007Y574515D01*
X399859Y574506D01*
X399711Y574501D01*
X399563Y574500D01*
X399415Y574503D01*
X399266Y574510D01*
X399119Y574521D01*
X398971Y574536D01*
X398824Y574555D01*
X398677Y574578D01*
X398532Y574605D01*
X398386Y574636D01*
X398242Y574670D01*
X398099Y574709D01*
X397957Y574751D01*
X397816Y574797D01*
X397676Y574847D01*
X397538Y574901D01*
X397401Y574959D01*
X397266Y575020D01*
X397133Y575084D01*
X397001Y575153D01*
X396871Y575225D01*
X396744Y575300D01*
X396618Y575379D01*
X396494Y575461D01*
X396373Y575546D01*
X396254Y575635D01*
X396138Y575726D01*
X396024Y575821D01*
X395912Y575919D01*
X395804Y576020D01*
X395698Y576124D01*
X395595Y576231D01*
X395495Y576340D01*
X395397Y576452D01*
X395303Y576567D01*
X395212Y576684D01*
X395124Y576803D01*
X395040Y576925D01*
X394959Y577049D01*
X394881Y577175D01*
X394806Y577304D01*
X394735Y577434D01*
X394668Y577566D01*
X394604Y577700D01*
X394544Y577835D01*
X394487Y577973D01*
X394435Y578111D01*
X394385Y578251D01*
X394340Y578392D01*
X394299Y578535D01*
X394261Y578678D01*
X394227Y578823D01*
X394198Y578968D01*
X394172Y579114D01*
X394150Y579261D01*
X394132Y579408D01*
X394118Y579556D01*
X394108Y579704D01*
X394102Y579852D01*
X394100Y580000D01*
X394100Y515000D02*
X394102Y515148D01*
X394108Y515296D01*
X394118Y515444D01*
X394132Y515592D01*
X394150Y515739D01*
X394172Y515886D01*
X394198Y516032D01*
X394227Y516177D01*
X394261Y516322D01*
X394299Y516465D01*
X394340Y516608D01*
X394385Y516749D01*
X394435Y516889D01*
X394487Y517027D01*
X394544Y517165D01*
X394604Y517300D01*
X394668Y517434D01*
X394735Y517566D01*
X394806Y517696D01*
X394881Y517825D01*
X394959Y517951D01*
X395040Y518075D01*
X395124Y518197D01*
X395212Y518316D01*
X395303Y518433D01*
X395397Y518548D01*
X395495Y518660D01*
X395595Y518769D01*
X395698Y518876D01*
X395804Y518980D01*
X395912Y519081D01*
X396024Y519179D01*
X396138Y519274D01*
X396254Y519365D01*
X396373Y519454D01*
X396494Y519539D01*
X396618Y519621D01*
X396744Y519700D01*
X396871Y519775D01*
X397001Y519847D01*
X397133Y519916D01*
X397266Y519980D01*
X397401Y520041D01*
X397538Y520099D01*
X397676Y520153D01*
X397816Y520203D01*
X397957Y520249D01*
X398099Y520291D01*
X398242Y520330D01*
X398386Y520364D01*
X398532Y520395D01*
X398677Y520422D01*
X398824Y520445D01*
X398971Y520464D01*
X399119Y520479D01*
X399266Y520490D01*
X399415Y520497D01*
X399563Y520500D01*
X399711Y520499D01*
X399859Y520494D01*
X400007Y520485D01*
X400155Y520472D01*
X400303Y520455D01*
X400449Y520434D01*
X400596Y520409D01*
X400741Y520380D01*
X400886Y520348D01*
X401029Y520311D01*
X401172Y520271D01*
X401314Y520226D01*
X401454Y520178D01*
X401593Y520126D01*
X401730Y520071D01*
X401866Y520011D01*
X402001Y519948D01*
X402133Y519882D01*
X402264Y519812D01*
X402393Y519738D01*
X402519Y519661D01*
X402644Y519581D01*
X402766Y519497D01*
X402887Y519410D01*
X403004Y519320D01*
X403120Y519226D01*
X403232Y519130D01*
X403342Y519031D01*
X403450Y518928D01*
X403554Y518823D01*
X403656Y518715D01*
X403754Y518604D01*
X403850Y518491D01*
X403943Y518375D01*
X404032Y518257D01*
X404118Y518136D01*
X404201Y518013D01*
X404281Y517888D01*
X404357Y517761D01*
X404430Y517631D01*
X404499Y517500D01*
X404564Y517367D01*
X404627Y517233D01*
X404685Y517096D01*
X404740Y516958D01*
X404790Y516819D01*
X404838Y516678D01*
X404881Y516537D01*
X404921Y516394D01*
X404956Y516250D01*
X404988Y516105D01*
X405016Y515959D01*
X405040Y515813D01*
X405060Y515666D01*
X405076Y515518D01*
X405088Y515371D01*
X405096Y515222D01*
X405100Y515074D01*
X405100Y514926D01*
X405096Y514778D01*
X405088Y514629D01*
X405076Y514482D01*
X405060Y514334D01*
X405040Y514187D01*
X405016Y514041D01*
X404988Y513895D01*
X404956Y513750D01*
X404921Y513606D01*
X404881Y513463D01*
X404838Y513322D01*
X404790Y513181D01*
X404740Y513042D01*
X404685Y512904D01*
X404627Y512767D01*
X404564Y512633D01*
X404499Y512500D01*
X404430Y512369D01*
X404357Y512239D01*
X404281Y512112D01*
X404201Y511987D01*
X404118Y511864D01*
X404032Y511743D01*
X403943Y511625D01*
X403850Y511509D01*
X403754Y511396D01*
X403656Y511285D01*
X403554Y511177D01*
X403450Y511072D01*
X403342Y510969D01*
X403232Y510870D01*
X403120Y510774D01*
X403004Y510680D01*
X402887Y510590D01*
X402766Y510503D01*
X402644Y510419D01*
X402519Y510339D01*
X402393Y510262D01*
X402264Y510188D01*
X402133Y510118D01*
X402001Y510052D01*
X401866Y509989D01*
X401730Y509929D01*
X401593Y509874D01*
X401454Y509822D01*
X401314Y509774D01*
X401172Y509729D01*
X401029Y509689D01*
X400886Y509652D01*
X400741Y509620D01*
X400596Y509591D01*
X400449Y509566D01*
X400303Y509545D01*
X400155Y509528D01*
X400007Y509515D01*
X399859Y509506D01*
X399711Y509501D01*
X399563Y509500D01*
X399415Y509503D01*
X399266Y509510D01*
X399119Y509521D01*
X398971Y509536D01*
X398824Y509555D01*
X398677Y509578D01*
X398532Y509605D01*
X398386Y509636D01*
X398242Y509670D01*
X398099Y509709D01*
X397957Y509751D01*
X397816Y509797D01*
X397676Y509847D01*
X397538Y509901D01*
X397401Y509959D01*
X397266Y510020D01*
X397133Y510084D01*
X397001Y510153D01*
X396871Y510225D01*
X396744Y510300D01*
X396618Y510379D01*
X396494Y510461D01*
X396373Y510546D01*
X396254Y510635D01*
X396138Y510726D01*
X396024Y510821D01*
X395912Y510919D01*
X395804Y511020D01*
X395698Y511124D01*
X395595Y511231D01*
X395495Y511340D01*
X395397Y511452D01*
X395303Y511567D01*
X395212Y511684D01*
X395124Y511803D01*
X395040Y511925D01*
X394959Y512049D01*
X394881Y512175D01*
X394806Y512304D01*
X394735Y512434D01*
X394668Y512566D01*
X394604Y512700D01*
X394544Y512835D01*
X394487Y512973D01*
X394435Y513111D01*
X394385Y513251D01*
X394340Y513392D01*
X394299Y513535D01*
X394261Y513678D01*
X394227Y513823D01*
X394198Y513968D01*
X394172Y514114D01*
X394150Y514261D01*
X394132Y514408D01*
X394118Y514556D01*
X394108Y514704D01*
X394102Y514852D01*
X394100Y515000D01*
X49500Y19500D02*
X49502Y19648D01*
X49508Y19796D01*
X49518Y19944D01*
X49532Y20092D01*
X49550Y20239D01*
X49572Y20386D01*
X49598Y20532D01*
X49627Y20677D01*
X49661Y20822D01*
X49699Y20965D01*
X49740Y21108D01*
X49785Y21249D01*
X49835Y21389D01*
X49887Y21527D01*
X49944Y21665D01*
X50004Y21800D01*
X50068Y21934D01*
X50135Y22066D01*
X50206Y22196D01*
X50281Y22325D01*
X50359Y22451D01*
X50440Y22575D01*
X50524Y22697D01*
X50612Y22816D01*
X50703Y22933D01*
X50797Y23048D01*
X50895Y23160D01*
X50995Y23269D01*
X51098Y23376D01*
X51204Y23480D01*
X51312Y23581D01*
X51424Y23679D01*
X51538Y23774D01*
X51654Y23865D01*
X51773Y23954D01*
X51894Y24039D01*
X52018Y24121D01*
X52144Y24200D01*
X52271Y24275D01*
X52401Y24347D01*
X52533Y24416D01*
X52666Y24480D01*
X52801Y24541D01*
X52938Y24599D01*
X53076Y24653D01*
X53216Y24703D01*
X53357Y24749D01*
X53499Y24791D01*
X53642Y24830D01*
X53786Y24864D01*
X53932Y24895D01*
X54077Y24922D01*
X54224Y24945D01*
X54371Y24964D01*
X54519Y24979D01*
X54666Y24990D01*
X54815Y24997D01*
X54963Y25000D01*
X55111Y24999D01*
X55259Y24994D01*
X55407Y24985D01*
X55555Y24972D01*
X55703Y24955D01*
X55849Y24934D01*
X55996Y24909D01*
X56141Y24880D01*
X56286Y24848D01*
X56429Y24811D01*
X56572Y24771D01*
X56714Y24726D01*
X56854Y24678D01*
X56993Y24626D01*
X57130Y24571D01*
X57266Y24511D01*
X57401Y24448D01*
X57533Y24382D01*
X57664Y24312D01*
X57793Y24238D01*
X57919Y24161D01*
X58044Y24081D01*
X58166Y23997D01*
X58287Y23910D01*
X58404Y23820D01*
X58520Y23726D01*
X58632Y23630D01*
X58742Y23531D01*
X58850Y23428D01*
X58954Y23323D01*
X59056Y23215D01*
X59154Y23104D01*
X59250Y22991D01*
X59343Y22875D01*
X59432Y22757D01*
X59518Y22636D01*
X59601Y22513D01*
X59681Y22388D01*
X59757Y22261D01*
X59830Y22131D01*
X59899Y22000D01*
X59964Y21867D01*
X60027Y21733D01*
X60085Y21596D01*
X60140Y21458D01*
X60190Y21319D01*
X60238Y21178D01*
X60281Y21037D01*
X60321Y20894D01*
X60356Y20750D01*
X60388Y20605D01*
X60416Y20459D01*
X60440Y20313D01*
X60460Y20166D01*
X60476Y20018D01*
X60488Y19871D01*
X60496Y19722D01*
X60500Y19574D01*
X60500Y19426D01*
X60496Y19278D01*
X60488Y19129D01*
X60476Y18982D01*
X60460Y18834D01*
X60440Y18687D01*
X60416Y18541D01*
X60388Y18395D01*
X60356Y18250D01*
X60321Y18106D01*
X60281Y17963D01*
X60238Y17822D01*
X60190Y17681D01*
X60140Y17542D01*
X60085Y17404D01*
X60027Y17267D01*
X59964Y17133D01*
X59899Y17000D01*
X59830Y16869D01*
X59757Y16739D01*
X59681Y16612D01*
X59601Y16487D01*
X59518Y16364D01*
X59432Y16243D01*
X59343Y16125D01*
X59250Y16009D01*
X59154Y15896D01*
X59056Y15785D01*
X58954Y15677D01*
X58850Y15572D01*
X58742Y15469D01*
X58632Y15370D01*
X58520Y15274D01*
X58404Y15180D01*
X58287Y15090D01*
X58166Y15003D01*
X58044Y14919D01*
X57919Y14839D01*
X57793Y14762D01*
X57664Y14688D01*
X57533Y14618D01*
X57401Y14552D01*
X57266Y14489D01*
X57130Y14429D01*
X56993Y14374D01*
X56854Y14322D01*
X56714Y14274D01*
X56572Y14229D01*
X56429Y14189D01*
X56286Y14152D01*
X56141Y14120D01*
X55996Y14091D01*
X55849Y14066D01*
X55703Y14045D01*
X55555Y14028D01*
X55407Y14015D01*
X55259Y14006D01*
X55111Y14001D01*
X54963Y14000D01*
X54815Y14003D01*
X54666Y14010D01*
X54519Y14021D01*
X54371Y14036D01*
X54224Y14055D01*
X54077Y14078D01*
X53932Y14105D01*
X53786Y14136D01*
X53642Y14170D01*
X53499Y14209D01*
X53357Y14251D01*
X53216Y14297D01*
X53076Y14347D01*
X52938Y14401D01*
X52801Y14459D01*
X52666Y14520D01*
X52533Y14584D01*
X52401Y14653D01*
X52271Y14725D01*
X52144Y14800D01*
X52018Y14879D01*
X51894Y14961D01*
X51773Y15046D01*
X51654Y15135D01*
X51538Y15226D01*
X51424Y15321D01*
X51312Y15419D01*
X51204Y15520D01*
X51098Y15624D01*
X50995Y15731D01*
X50895Y15840D01*
X50797Y15952D01*
X50703Y16067D01*
X50612Y16184D01*
X50524Y16303D01*
X50440Y16425D01*
X50359Y16549D01*
X50281Y16675D01*
X50206Y16804D01*
X50135Y16934D01*
X50068Y17066D01*
X50004Y17200D01*
X49944Y17335D01*
X49887Y17473D01*
X49835Y17611D01*
X49785Y17751D01*
X49740Y17892D01*
X49699Y18035D01*
X49661Y18178D01*
X49627Y18323D01*
X49598Y18468D01*
X49572Y18614D01*
X49550Y18761D01*
X49532Y18908D01*
X49518Y19056D01*
X49508Y19204D01*
X49502Y19352D01*
X49500Y19500D01*
X49500Y84500D02*
X49502Y84648D01*
X49508Y84796D01*
X49518Y84944D01*
X49532Y85092D01*
X49550Y85239D01*
X49572Y85386D01*
X49598Y85532D01*
X49627Y85677D01*
X49661Y85822D01*
X49699Y85965D01*
X49740Y86108D01*
X49785Y86249D01*
X49835Y86389D01*
X49887Y86527D01*
X49944Y86665D01*
X50004Y86800D01*
X50068Y86934D01*
X50135Y87066D01*
X50206Y87196D01*
X50281Y87325D01*
X50359Y87451D01*
X50440Y87575D01*
X50524Y87697D01*
X50612Y87816D01*
X50703Y87933D01*
X50797Y88048D01*
X50895Y88160D01*
X50995Y88269D01*
X51098Y88376D01*
X51204Y88480D01*
X51312Y88581D01*
X51424Y88679D01*
X51538Y88774D01*
X51654Y88865D01*
X51773Y88954D01*
X51894Y89039D01*
X52018Y89121D01*
X52144Y89200D01*
X52271Y89275D01*
X52401Y89347D01*
X52533Y89416D01*
X52666Y89480D01*
X52801Y89541D01*
X52938Y89599D01*
X53076Y89653D01*
X53216Y89703D01*
X53357Y89749D01*
X53499Y89791D01*
X53642Y89830D01*
X53786Y89864D01*
X53932Y89895D01*
X54077Y89922D01*
X54224Y89945D01*
X54371Y89964D01*
X54519Y89979D01*
X54666Y89990D01*
X54815Y89997D01*
X54963Y90000D01*
X55111Y89999D01*
X55259Y89994D01*
X55407Y89985D01*
X55555Y89972D01*
X55703Y89955D01*
X55849Y89934D01*
X55996Y89909D01*
X56141Y89880D01*
X56286Y89848D01*
X56429Y89811D01*
X56572Y89771D01*
X56714Y89726D01*
X56854Y89678D01*
X56993Y89626D01*
X57130Y89571D01*
X57266Y89511D01*
X57401Y89448D01*
X57533Y89382D01*
X57664Y89312D01*
X57793Y89238D01*
X57919Y89161D01*
X58044Y89081D01*
X58166Y88997D01*
X58287Y88910D01*
X58404Y88820D01*
X58520Y88726D01*
X58632Y88630D01*
X58742Y88531D01*
X58850Y88428D01*
X58954Y88323D01*
X59056Y88215D01*
X59154Y88104D01*
X59250Y87991D01*
X59343Y87875D01*
X59432Y87757D01*
X59518Y87636D01*
X59601Y87513D01*
X59681Y87388D01*
X59757Y87261D01*
X59830Y87131D01*
X59899Y87000D01*
X59964Y86867D01*
X60027Y86733D01*
X60085Y86596D01*
X60140Y86458D01*
X60190Y86319D01*
X60238Y86178D01*
X60281Y86037D01*
X60321Y85894D01*
X60356Y85750D01*
X60388Y85605D01*
X60416Y85459D01*
X60440Y85313D01*
X60460Y85166D01*
X60476Y85018D01*
X60488Y84871D01*
X60496Y84722D01*
X60500Y84574D01*
X60500Y84426D01*
X60496Y84278D01*
X60488Y84129D01*
X60476Y83982D01*
X60460Y83834D01*
X60440Y83687D01*
X60416Y83541D01*
X60388Y83395D01*
X60356Y83250D01*
X60321Y83106D01*
X60281Y82963D01*
X60238Y82822D01*
X60190Y82681D01*
X60140Y82542D01*
X60085Y82404D01*
X60027Y82267D01*
X59964Y82133D01*
X59899Y82000D01*
X59830Y81869D01*
X59757Y81739D01*
X59681Y81612D01*
X59601Y81487D01*
X59518Y81364D01*
X59432Y81243D01*
X59343Y81125D01*
X59250Y81009D01*
X59154Y80896D01*
X59056Y80785D01*
X58954Y80677D01*
X58850Y80572D01*
X58742Y80469D01*
X58632Y80370D01*
X58520Y80274D01*
X58404Y80180D01*
X58287Y80090D01*
X58166Y80003D01*
X58044Y79919D01*
X57919Y79839D01*
X57793Y79762D01*
X57664Y79688D01*
X57533Y79618D01*
X57401Y79552D01*
X57266Y79489D01*
X57130Y79429D01*
X56993Y79374D01*
X56854Y79322D01*
X56714Y79274D01*
X56572Y79229D01*
X56429Y79189D01*
X56286Y79152D01*
X56141Y79120D01*
X55996Y79091D01*
X55849Y79066D01*
X55703Y79045D01*
X55555Y79028D01*
X55407Y79015D01*
X55259Y79006D01*
X55111Y79001D01*
X54963Y79000D01*
X54815Y79003D01*
X54666Y79010D01*
X54519Y79021D01*
X54371Y79036D01*
X54224Y79055D01*
X54077Y79078D01*
X53932Y79105D01*
X53786Y79136D01*
X53642Y79170D01*
X53499Y79209D01*
X53357Y79251D01*
X53216Y79297D01*
X53076Y79347D01*
X52938Y79401D01*
X52801Y79459D01*
X52666Y79520D01*
X52533Y79584D01*
X52401Y79653D01*
X52271Y79725D01*
X52144Y79800D01*
X52018Y79879D01*
X51894Y79961D01*
X51773Y80046D01*
X51654Y80135D01*
X51538Y80226D01*
X51424Y80321D01*
X51312Y80419D01*
X51204Y80520D01*
X51098Y80624D01*
X50995Y80731D01*
X50895Y80840D01*
X50797Y80952D01*
X50703Y81067D01*
X50612Y81184D01*
X50524Y81303D01*
X50440Y81425D01*
X50359Y81549D01*
X50281Y81675D01*
X50206Y81804D01*
X50135Y81934D01*
X50068Y82066D01*
X50004Y82200D01*
X49944Y82335D01*
X49887Y82473D01*
X49835Y82611D01*
X49785Y82751D01*
X49740Y82892D01*
X49699Y83035D01*
X49661Y83178D01*
X49627Y83323D01*
X49598Y83468D01*
X49572Y83614D01*
X49550Y83761D01*
X49532Y83908D01*
X49518Y84056D01*
X49508Y84204D01*
X49502Y84352D01*
X49500Y84500D01*
D11*
X0Y20000D02*
X6Y19517D01*
X23Y19034D01*
X53Y18551D01*
X93Y18070D01*
X146Y17589D01*
X210Y17110D01*
X285Y16633D01*
X373Y16157D01*
X471Y15684D01*
X581Y15214D01*
X702Y14746D01*
X835Y14281D01*
X979Y13820D01*
X1134Y13362D01*
X1300Y12908D01*
X1477Y12458D01*
X1664Y12013D01*
X1863Y11572D01*
X2071Y11136D01*
X2291Y10706D01*
X2521Y10280D01*
X2761Y9861D01*
X3011Y9447D01*
X3271Y9040D01*
X3540Y8639D01*
X3820Y8244D01*
X4108Y7857D01*
X4407Y7476D01*
X4714Y7103D01*
X5030Y6738D01*
X5355Y6380D01*
X5688Y6030D01*
X6030Y5688D01*
X6380Y5355D01*
X6738Y5030D01*
X7103Y4714D01*
X7476Y4407D01*
X7857Y4108D01*
X8244Y3820D01*
X8639Y3540D01*
X9040Y3271D01*
X9447Y3011D01*
X9861Y2761D01*
X10280Y2521D01*
X10706Y2291D01*
X11136Y2071D01*
X11572Y1863D01*
X12013Y1664D01*
X12458Y1477D01*
X12908Y1300D01*
X13362Y1134D01*
X13820Y979D01*
X14281Y835D01*
X14746Y702D01*
X15214Y581D01*
X15684Y471D01*
X16157Y373D01*
X16633Y285D01*
X17110Y210D01*
X17589Y146D01*
X18070Y93D01*
X18551Y53D01*
X19034Y23D01*
X19517Y6D01*
X20000Y0D01*
X0Y20000D02*
X0Y237450D01*
X2Y237608D01*
X8Y237767D01*
X18Y237925D01*
X32Y238082D01*
X49Y238240D01*
X71Y238396D01*
X96Y238553D01*
X126Y238708D01*
X159Y238863D01*
X196Y239017D01*
X237Y239170D01*
X282Y239322D01*
X331Y239472D01*
X383Y239622D01*
X439Y239770D01*
X499Y239917D01*
X562Y240062D01*
X629Y240205D01*
X699Y240347D01*
X773Y240487D01*
X851Y240625D01*
X932Y240761D01*
X1016Y240895D01*
X1103Y241027D01*
X1194Y241157D01*
X1288Y241284D01*
X1385Y241409D01*
X1486Y241532D01*
X1589Y241652D01*
X1695Y241769D01*
X1804Y241884D01*
X1916Y241996D01*
X2031Y242105D01*
X2148Y242211D01*
X2268Y242314D01*
X2391Y242415D01*
X2516Y242512D01*
X2643Y242606D01*
X2773Y242697D01*
X2905Y242784D01*
X3039Y242868D01*
X3175Y242949D01*
X3313Y243027D01*
X3453Y243101D01*
X3595Y243171D01*
X3738Y243238D01*
X3883Y243301D01*
X4030Y243361D01*
X4178Y243417D01*
X4328Y243469D01*
X4478Y243518D01*
X4630Y243563D01*
X4783Y243604D01*
X4937Y243641D01*
X5092Y243674D01*
X5247Y243704D01*
X5404Y243729D01*
X5560Y243751D01*
X5718Y243768D01*
X5875Y243782D01*
X6033Y243792D01*
X6192Y243798D01*
X6350Y243800D01*
X335600Y243800D01*
X336083Y243806D01*
X336566Y243823D01*
X337049Y243853D01*
X337530Y243893D01*
X338011Y243946D01*
X338490Y244010D01*
X338967Y244085D01*
X339443Y244173D01*
X339916Y244271D01*
X340386Y244381D01*
X340854Y244502D01*
X341319Y244635D01*
X341780Y244779D01*
X342238Y244934D01*
X342692Y245100D01*
X343142Y245277D01*
X343587Y245464D01*
X344028Y245663D01*
X344464Y245871D01*
X344894Y246091D01*
X345320Y246321D01*
X345739Y246561D01*
X346153Y246811D01*
X346560Y247071D01*
X346961Y247340D01*
X347356Y247620D01*
X347743Y247908D01*
X348124Y248207D01*
X348497Y248514D01*
X348862Y248830D01*
X349220Y249155D01*
X349570Y249488D01*
X349912Y249830D01*
X350245Y250180D01*
X350570Y250538D01*
X350886Y250903D01*
X351193Y251276D01*
X351492Y251657D01*
X351780Y252044D01*
X352060Y252439D01*
X352329Y252840D01*
X352589Y253247D01*
X352839Y253661D01*
X353079Y254080D01*
X353309Y254506D01*
X353529Y254936D01*
X353737Y255372D01*
X353936Y255813D01*
X354123Y256258D01*
X354300Y256708D01*
X354466Y257162D01*
X354621Y257620D01*
X354765Y258081D01*
X354898Y258546D01*
X355019Y259014D01*
X355129Y259484D01*
X355227Y259957D01*
X355315Y260433D01*
X355390Y260910D01*
X355454Y261389D01*
X355507Y261870D01*
X355547Y262351D01*
X355577Y262834D01*
X355594Y263317D01*
X355600Y263800D01*
X355600Y346200D01*
X355594Y346683D01*
X355577Y347166D01*
X355547Y347649D01*
X355507Y348130D01*
X355454Y348611D01*
X355390Y349090D01*
X355315Y349567D01*
X355227Y350043D01*
X355129Y350516D01*
X355019Y350986D01*
X354898Y351454D01*
X354765Y351919D01*
X354621Y352380D01*
X354466Y352838D01*
X354300Y353292D01*
X354123Y353742D01*
X353936Y354187D01*
X353737Y354628D01*
X353529Y355064D01*
X353309Y355494D01*
X353079Y355920D01*
X352839Y356339D01*
X352589Y356753D01*
X352329Y357160D01*
X352060Y357561D01*
X351780Y357956D01*
X351492Y358343D01*
X351193Y358724D01*
X350886Y359097D01*
X350570Y359462D01*
X350245Y359820D01*
X349912Y360170D01*
X349570Y360512D01*
X349220Y360845D01*
X348862Y361170D01*
X348497Y361486D01*
X348124Y361793D01*
X347743Y362092D01*
X347356Y362380D01*
X346961Y362660D01*
X346560Y362929D01*
X346153Y363189D01*
X345739Y363439D01*
X345320Y363679D01*
X344894Y363909D01*
X344464Y364129D01*
X344028Y364337D01*
X343587Y364536D01*
X343142Y364723D01*
X342692Y364900D01*
X342238Y365066D01*
X341780Y365221D01*
X341319Y365365D01*
X340854Y365498D01*
X340386Y365619D01*
X339916Y365729D01*
X339443Y365827D01*
X338967Y365915D01*
X338490Y365990D01*
X338011Y366054D01*
X337530Y366107D01*
X337049Y366147D01*
X336566Y366177D01*
X336083Y366194D01*
X335600Y366200D01*
X5000Y366200D01*
X4860Y366202D01*
X4720Y366208D01*
X4580Y366218D01*
X4440Y366231D01*
X4301Y366249D01*
X4162Y366271D01*
X4025Y366296D01*
X3887Y366325D01*
X3751Y366358D01*
X3616Y366395D01*
X3482Y366436D01*
X3349Y366481D01*
X3217Y366529D01*
X3087Y366581D01*
X2958Y366636D01*
X2831Y366695D01*
X2705Y366758D01*
X2581Y366824D01*
X2460Y366893D01*
X2340Y366966D01*
X2222Y367043D01*
X2107Y367122D01*
X1993Y367205D01*
X1883Y367291D01*
X1774Y367380D01*
X1668Y367472D01*
X1565Y367567D01*
X1464Y367664D01*
X1367Y367765D01*
X1272Y367868D01*
X1180Y367974D01*
X1091Y368083D01*
X1005Y368193D01*
X922Y368307D01*
X843Y368422D01*
X766Y368540D01*
X693Y368660D01*
X624Y368781D01*
X558Y368905D01*
X495Y369031D01*
X436Y369158D01*
X381Y369287D01*
X329Y369417D01*
X281Y369549D01*
X236Y369682D01*
X195Y369816D01*
X158Y369951D01*
X125Y370087D01*
X96Y370225D01*
X71Y370362D01*
X49Y370501D01*
X31Y370640D01*
X18Y370780D01*
X8Y370920D01*
X2Y371060D01*
X0Y371200D01*
X0Y580000D01*
X6Y580483D01*
X23Y580966D01*
X53Y581449D01*
X93Y581930D01*
X146Y582411D01*
X210Y582890D01*
X285Y583367D01*
X373Y583843D01*
X471Y584316D01*
X581Y584786D01*
X702Y585254D01*
X835Y585719D01*
X979Y586180D01*
X1134Y586638D01*
X1300Y587092D01*
X1477Y587542D01*
X1664Y587987D01*
X1863Y588428D01*
X2071Y588864D01*
X2291Y589294D01*
X2521Y589720D01*
X2761Y590139D01*
X3011Y590553D01*
X3271Y590960D01*
X3540Y591361D01*
X3820Y591756D01*
X4108Y592143D01*
X4407Y592524D01*
X4714Y592897D01*
X5030Y593262D01*
X5355Y593620D01*
X5688Y593970D01*
X6030Y594312D01*
X6380Y594645D01*
X6738Y594970D01*
X7103Y595286D01*
X7476Y595593D01*
X7857Y595892D01*
X8244Y596180D01*
X8639Y596460D01*
X9040Y596729D01*
X9447Y596989D01*
X9861Y597239D01*
X10280Y597479D01*
X10706Y597709D01*
X11136Y597929D01*
X11572Y598137D01*
X12013Y598336D01*
X12458Y598523D01*
X12908Y598700D01*
X13362Y598866D01*
X13820Y599021D01*
X14281Y599165D01*
X14746Y599298D01*
X15214Y599419D01*
X15684Y599529D01*
X16157Y599627D01*
X16633Y599715D01*
X17110Y599790D01*
X17589Y599854D01*
X18070Y599907D01*
X18551Y599947D01*
X19034Y599977D01*
X19517Y599994D01*
X20000Y600000D01*
X600000Y600000D01*
X600483Y599994D01*
X600966Y599977D01*
X601449Y599947D01*
X601930Y599907D01*
X602411Y599854D01*
X602890Y599790D01*
X603367Y599715D01*
X603843Y599627D01*
X604316Y599529D01*
X604786Y599419D01*
X605254Y599298D01*
X605719Y599165D01*
X606180Y599021D01*
X606638Y598866D01*
X607092Y598700D01*
X607542Y598523D01*
X607987Y598336D01*
X608428Y598137D01*
X608864Y597929D01*
X609294Y597709D01*
X609720Y597479D01*
X610139Y597239D01*
X610553Y596989D01*
X610960Y596729D01*
X611361Y596460D01*
X611756Y596180D01*
X612143Y595892D01*
X612524Y595593D01*
X612897Y595286D01*
X613262Y594970D01*
X613620Y594645D01*
X613970Y594312D01*
X614312Y593970D01*
X614645Y593620D01*
X614970Y593262D01*
X615286Y592897D01*
X615593Y592524D01*
X615892Y592143D01*
X616180Y591756D01*
X616460Y591361D01*
X616729Y590960D01*
X616989Y590553D01*
X617239Y590139D01*
X617479Y589720D01*
X617709Y589294D01*
X617929Y588864D01*
X618137Y588428D01*
X618336Y587987D01*
X618523Y587542D01*
X618700Y587092D01*
X618866Y586638D01*
X619021Y586180D01*
X619165Y585719D01*
X619298Y585254D01*
X619419Y584786D01*
X619529Y584316D01*
X619627Y583843D01*
X619715Y583367D01*
X619790Y582890D01*
X619854Y582411D01*
X619907Y581930D01*
X619947Y581449D01*
X619977Y580966D01*
X619994Y580483D01*
X620000Y580000D01*
X620000Y485000D01*
X619994Y484517D01*
X619977Y484034D01*
X619947Y483551D01*
X619907Y483070D01*
X619854Y482589D01*
X619790Y482110D01*
X619715Y481633D01*
X619627Y481157D01*
X619529Y480684D01*
X619419Y480214D01*
X619298Y479746D01*
X619165Y479281D01*
X619021Y478820D01*
X618866Y478362D01*
X618700Y477908D01*
X618523Y477458D01*
X618336Y477013D01*
X618137Y476572D01*
X617929Y476136D01*
X617709Y475706D01*
X617479Y475280D01*
X617239Y474861D01*
X616989Y474447D01*
X616729Y474040D01*
X616460Y473639D01*
X616180Y473244D01*
X615892Y472857D01*
X615593Y472476D01*
X615286Y472103D01*
X614970Y471738D01*
X614645Y471380D01*
X614312Y471030D01*
X613970Y470688D01*
X613620Y470355D01*
X613262Y470030D01*
X612897Y469714D01*
X612524Y469407D01*
X612143Y469108D01*
X611756Y468820D01*
X611361Y468540D01*
X610960Y468271D01*
X610553Y468011D01*
X610139Y467761D01*
X609720Y467521D01*
X609294Y467291D01*
X608864Y467071D01*
X608428Y466863D01*
X607987Y466664D01*
X607542Y466477D01*
X607092Y466300D01*
X606638Y466134D01*
X606180Y465979D01*
X605719Y465835D01*
X605254Y465702D01*
X604786Y465581D01*
X604316Y465471D01*
X603843Y465373D01*
X603367Y465285D01*
X602890Y465210D01*
X602411Y465146D01*
X601930Y465093D01*
X601449Y465053D01*
X600966Y465023D01*
X600483Y465006D01*
X600000Y465000D01*
X490000Y465000D01*
X489517Y464994D01*
X489034Y464977D01*
X488551Y464947D01*
X488070Y464907D01*
X487589Y464854D01*
X487110Y464790D01*
X486633Y464715D01*
X486157Y464627D01*
X485684Y464529D01*
X485214Y464419D01*
X484746Y464298D01*
X484281Y464165D01*
X483820Y464021D01*
X483362Y463866D01*
X482908Y463700D01*
X482458Y463523D01*
X482013Y463336D01*
X481572Y463137D01*
X481136Y462929D01*
X480706Y462709D01*
X480280Y462479D01*
X479861Y462239D01*
X479447Y461989D01*
X479040Y461729D01*
X478639Y461460D01*
X478244Y461180D01*
X477857Y460892D01*
X477476Y460593D01*
X477103Y460286D01*
X476738Y459970D01*
X476380Y459645D01*
X476030Y459312D01*
X475688Y458970D01*
X475355Y458620D01*
X475030Y458262D01*
X474714Y457897D01*
X474407Y457524D01*
X474108Y457143D01*
X473820Y456756D01*
X473540Y456361D01*
X473271Y455960D01*
X473011Y455553D01*
X472761Y455139D01*
X472521Y454720D01*
X472291Y454294D01*
X472071Y453864D01*
X471863Y453428D01*
X471664Y452987D01*
X471477Y452542D01*
X471300Y452092D01*
X471134Y451638D01*
X470979Y451180D01*
X470835Y450719D01*
X470702Y450254D01*
X470581Y449786D01*
X470471Y449316D01*
X470373Y448843D01*
X470285Y448367D01*
X470210Y447890D01*
X470146Y447411D01*
X470093Y446930D01*
X470053Y446449D01*
X470023Y445966D01*
X470006Y445483D01*
X470000Y445000D01*
X470000Y155000D01*
X470006Y154517D01*
X470023Y154034D01*
X470053Y153551D01*
X470093Y153070D01*
X470146Y152589D01*
X470210Y152110D01*
X470285Y151633D01*
X470373Y151157D01*
X470471Y150684D01*
X470581Y150214D01*
X470702Y149746D01*
X470835Y149281D01*
X470979Y148820D01*
X471134Y148362D01*
X471300Y147908D01*
X471477Y147458D01*
X471664Y147013D01*
X471863Y146572D01*
X472071Y146136D01*
X472291Y145706D01*
X472521Y145280D01*
X472761Y144861D01*
X473011Y144447D01*
X473271Y144040D01*
X473540Y143639D01*
X473820Y143244D01*
X474108Y142857D01*
X474407Y142476D01*
X474714Y142103D01*
X475030Y141738D01*
X475355Y141380D01*
X475688Y141030D01*
X476030Y140688D01*
X476380Y140355D01*
X476738Y140030D01*
X477103Y139714D01*
X477476Y139407D01*
X477857Y139108D01*
X478244Y138820D01*
X478639Y138540D01*
X479040Y138271D01*
X479447Y138011D01*
X479861Y137761D01*
X480280Y137521D01*
X480706Y137291D01*
X481136Y137071D01*
X481572Y136863D01*
X482013Y136664D01*
X482458Y136477D01*
X482908Y136300D01*
X483362Y136134D01*
X483820Y135979D01*
X484281Y135835D01*
X484746Y135702D01*
X485214Y135581D01*
X485684Y135471D01*
X486157Y135373D01*
X486633Y135285D01*
X487110Y135210D01*
X487589Y135146D01*
X488070Y135093D01*
X488551Y135053D01*
X489034Y135023D01*
X489517Y135006D01*
X490000Y135000D01*
X600000Y135000D01*
X600483Y134994D01*
X600966Y134977D01*
X601449Y134947D01*
X601930Y134907D01*
X602411Y134854D01*
X602890Y134790D01*
X603367Y134715D01*
X603843Y134627D01*
X604316Y134529D01*
X604786Y134419D01*
X605254Y134298D01*
X605719Y134165D01*
X606180Y134021D01*
X606638Y133866D01*
X607092Y133700D01*
X607542Y133523D01*
X607987Y133336D01*
X608428Y133137D01*
X608864Y132929D01*
X609294Y132709D01*
X609720Y132479D01*
X610139Y132239D01*
X610553Y131989D01*
X610960Y131729D01*
X611361Y131460D01*
X611756Y131180D01*
X612143Y130892D01*
X612524Y130593D01*
X612897Y130286D01*
X613262Y129970D01*
X613620Y129645D01*
X613970Y129312D01*
X614312Y128970D01*
X614645Y128620D01*
X614970Y128262D01*
X615286Y127897D01*
X615593Y127524D01*
X615892Y127143D01*
X616180Y126756D01*
X616460Y126361D01*
X616729Y125960D01*
X616989Y125553D01*
X617239Y125139D01*
X617479Y124720D01*
X617709Y124294D01*
X617929Y123864D01*
X618137Y123428D01*
X618336Y122987D01*
X618523Y122542D01*
X618700Y122092D01*
X618866Y121638D01*
X619021Y121180D01*
X619165Y120719D01*
X619298Y120254D01*
X619419Y119786D01*
X619529Y119316D01*
X619627Y118843D01*
X619715Y118367D01*
X619790Y117890D01*
X619854Y117411D01*
X619907Y116930D01*
X619947Y116449D01*
X619977Y115966D01*
X619994Y115483D01*
X620000Y115000D01*
X620000Y20000D01*
X619994Y19517D01*
X619977Y19034D01*
X619947Y18551D01*
X619907Y18070D01*
X619854Y17589D01*
X619790Y17110D01*
X619715Y16633D01*
X619627Y16157D01*
X619529Y15684D01*
X619419Y15214D01*
X619298Y14746D01*
X619165Y14281D01*
X619021Y13820D01*
X618866Y13362D01*
X618700Y12908D01*
X618523Y12458D01*
X618336Y12013D01*
X618137Y11572D01*
X617929Y11136D01*
X617709Y10706D01*
X617479Y10280D01*
X617239Y9861D01*
X616989Y9447D01*
X616729Y9040D01*
X616460Y8639D01*
X616180Y8244D01*
X615892Y7857D01*
X615593Y7476D01*
X615286Y7103D01*
X614970Y6738D01*
X614645Y6380D01*
X614312Y6030D01*
X613970Y5688D01*
X613620Y5355D01*
X613262Y5030D01*
X612897Y4714D01*
X612524Y4407D01*
X612143Y4108D01*
X611756Y3820D01*
X611361Y3540D01*
X610960Y3271D01*
X610553Y3011D01*
X610139Y2761D01*
X609720Y2521D01*
X609294Y2291D01*
X608864Y2071D01*
X608428Y1863D01*
X607987Y1664D01*
X607542Y1477D01*
X607092Y1300D01*
X606638Y1134D01*
X606180Y979D01*
X605719Y835D01*
X605254Y702D01*
X604786Y581D01*
X604316Y471D01*
X603843Y373D01*
X603367Y285D01*
X602890Y210D01*
X602411Y146D01*
X601930Y93D01*
X601449Y53D01*
X600966Y23D01*
X600483Y6D01*
X600000Y0D01*
X20000Y0D01*
D12*
X0Y20000D02*
X76Y18257D01*
X304Y16527D01*
X681Y14824D01*
X1206Y13160D01*
X1874Y11548D01*
X2680Y10000D01*
X3617Y8528D01*
X4679Y7144D01*
X5858Y5858D01*
X7144Y4679D01*
X8528Y3617D01*
X10000Y2680D01*
X11548Y1874D01*
X13160Y1206D01*
X14824Y681D01*
X16527Y304D01*
X18257Y76D01*
X20000Y0D01*
X600000Y0D01*
X601743Y76D01*
X603473Y304D01*
X605176Y681D01*
X606840Y1206D01*
X608452Y1874D01*
X610000Y2680D01*
X611472Y3617D01*
X612856Y4679D01*
X614142Y5858D01*
X615321Y7144D01*
X616383Y8528D01*
X617321Y10000D01*
X618126Y11548D01*
X618794Y13160D01*
X619319Y14824D01*
X619696Y16527D01*
X619924Y18257D01*
X620000Y20000D01*
X620000Y115000D01*
X619924Y116743D01*
X619696Y118473D01*
X619319Y120176D01*
X618794Y121840D01*
X618126Y123452D01*
X617321Y125000D01*
X616383Y126472D01*
X615321Y127856D01*
X614142Y129142D01*
X612856Y130321D01*
X611472Y131383D01*
X610000Y132321D01*
X608452Y133126D01*
X606840Y133794D01*
X605176Y134319D01*
X603473Y134696D01*
X601743Y134924D01*
X600000Y135000D01*
X490000Y135000D01*
X488257Y135076D01*
X486527Y135304D01*
X484824Y135681D01*
X483160Y136206D01*
X481548Y136874D01*
X480000Y137680D01*
X478528Y138617D01*
X477144Y139679D01*
X475858Y140858D01*
X474679Y142144D01*
X473617Y143528D01*
X472680Y145000D01*
X471874Y146548D01*
X471206Y148160D01*
X470681Y149824D01*
X470304Y151527D01*
X470076Y153257D01*
X470000Y155000D01*
X470000Y445000D01*
X470076Y446743D01*
X470304Y448473D01*
X470681Y450176D01*
X471206Y451840D01*
X471874Y453452D01*
X472680Y455000D01*
X473617Y456472D01*
X474679Y457856D01*
X475858Y459142D01*
X477144Y460321D01*
X478528Y461383D01*
X480000Y462321D01*
X481548Y463126D01*
X483160Y463794D01*
X484824Y464319D01*
X486527Y464696D01*
X488257Y464924D01*
X490000Y465000D01*
X600000Y465000D01*
X601743Y465076D01*
X603473Y465304D01*
X605176Y465681D01*
X606840Y466206D01*
X608452Y466874D01*
X610000Y467680D01*
X611472Y468617D01*
X612856Y469679D01*
X614142Y470858D01*
X615321Y472144D01*
X616383Y473528D01*
X617321Y475000D01*
X618126Y476548D01*
X618794Y478160D01*
X619319Y479824D01*
X619696Y481527D01*
X619924Y483257D01*
X620000Y485000D01*
X620000Y580000D01*
X619924Y581743D01*
X619696Y583473D01*
X619319Y585176D01*
X618794Y586840D01*
X618126Y588452D01*
X617321Y590000D01*
X616383Y591472D01*
X615321Y592856D01*
X614142Y594142D01*
X612856Y595321D01*
X611472Y596383D01*
X610000Y597321D01*
X608452Y598126D01*
X606840Y598794D01*
X605176Y599319D01*
X603473Y599696D01*
X601743Y599924D01*
X600000Y600000D01*
X20000Y600000D01*
X18257Y599924D01*
X16527Y599696D01*
X14824Y599319D01*
X13160Y598794D01*
X11548Y598126D01*
X10000Y597321D01*
X8528Y596383D01*
X7144Y595321D01*
X5858Y594142D01*
X4679Y592856D01*
X3617Y591472D01*
X2680Y590000D01*
X1874Y588452D01*
X1206Y586840D01*
X681Y585176D01*
X304Y583473D01*
X76Y581743D01*
X0Y580000D01*
X0Y371200D01*
X19Y370764D01*
X76Y370332D01*
X170Y369906D01*
X302Y369490D01*
X468Y369087D01*
X670Y368700D01*
X904Y368332D01*
X1170Y367986D01*
X1464Y367664D01*
X1786Y367370D01*
X2132Y367104D01*
X2500Y366870D01*
X2887Y366668D01*
X3290Y366502D01*
X3706Y366370D01*
X4132Y366276D01*
X4564Y366219D01*
X5000Y366200D01*
X335600Y366200D01*
X337343Y366124D01*
X339073Y365896D01*
X340776Y365519D01*
X342440Y364994D01*
X344052Y364326D01*
X345600Y363521D01*
X347072Y362583D01*
X348456Y361521D01*
X349742Y360342D01*
X350921Y359056D01*
X351983Y357672D01*
X352921Y356200D01*
X353726Y354652D01*
X354394Y353040D01*
X354919Y351376D01*
X355296Y349673D01*
X355524Y347943D01*
X355600Y346200D01*
X355600Y263800D01*
X355524Y262057D01*
X355296Y260327D01*
X354919Y258624D01*
X354394Y256960D01*
X353726Y255348D01*
X352921Y253800D01*
X351983Y252328D01*
X350921Y250944D01*
X349742Y249658D01*
X348456Y248479D01*
X347072Y247417D01*
X345600Y246480D01*
X344052Y245674D01*
X342440Y245006D01*
X340776Y244481D01*
X339073Y244104D01*
X337343Y243876D01*
X335600Y243800D01*
X6350Y243800D01*
X5797Y243776D01*
X5247Y243704D01*
X4707Y243584D01*
X4178Y243417D01*
X3666Y243205D01*
X3175Y242949D01*
X2708Y242652D01*
X2268Y242314D01*
X1860Y241940D01*
X1486Y241532D01*
X1148Y241092D01*
X851Y240625D01*
X595Y240134D01*
X383Y239622D01*
X216Y239094D01*
X96Y238553D01*
X24Y238003D01*
X0Y237450D01*
X0Y20000D01*
X78000Y107000D02*
X88000Y107000D01*
X88000Y122000D01*
X78000Y122000D01*
X78000Y107000D01*
X22000Y107000D02*
X32000Y107000D01*
X32000Y122000D01*
X22000Y122000D01*
X22000Y107000D01*
X366600Y477500D02*
X376600Y477500D01*
X376600Y492500D01*
X366600Y492500D01*
X366600Y477500D01*
X422600Y477500D02*
X432600Y477500D01*
X432600Y492500D01*
X422600Y492500D01*
X422600Y477500D01*
X259200Y473000D02*
X274200Y473000D01*
X274200Y483000D01*
X259200Y483000D01*
X259200Y473000D01*
X101000Y477500D02*
X111000Y477500D01*
X111000Y492500D01*
X101000Y492500D01*
X101000Y477500D01*
X157000Y477500D02*
X167000Y477500D01*
X167000Y492500D01*
X157000Y492500D01*
X157000Y477500D01*
X248000Y107000D02*
X258000Y107000D01*
X258000Y122000D01*
X248000Y122000D01*
X248000Y107000D01*
X588000Y107000D02*
X598000Y107000D01*
X598000Y122000D01*
X588000Y122000D01*
X588000Y107000D01*
X532000Y107000D02*
X542000Y107000D01*
X542000Y122000D01*
X532000Y122000D01*
X532000Y107000D01*
X555400Y477700D02*
X565400Y477700D01*
X565400Y492700D01*
X555400Y492700D01*
X555400Y477700D01*
X499400Y477700D02*
X509400Y477700D01*
X509400Y492700D01*
X499400Y492700D01*
X499400Y477700D01*
X362000Y107000D02*
X372000Y107000D01*
X372000Y122000D01*
X362000Y122000D01*
X362000Y107000D01*
X418000Y107000D02*
X428000Y107000D01*
X428000Y122000D01*
X418000Y122000D01*
X418000Y107000D01*
X192000Y107000D02*
X202000Y107000D01*
X202000Y122000D01*
X192000Y122000D01*
X192000Y107000D01*
X77000Y27000D02*
X89000Y27000D01*
X89000Y42000D01*
X77000Y42000D01*
X77000Y27000D01*
X21000Y27000D02*
X33000Y27000D01*
X33000Y42000D01*
X21000Y42000D01*
X21000Y27000D01*
X365600Y557500D02*
X377600Y557500D01*
X377600Y572500D01*
X365600Y572500D01*
X365600Y557500D01*
X421600Y557500D02*
X433600Y557500D01*
X433600Y572500D01*
X421600Y572500D01*
X421600Y557500D01*
X100000Y557500D02*
X112000Y557500D01*
X112000Y572500D01*
X100000Y572500D01*
X100000Y557500D01*
X156000Y557500D02*
X168000Y557500D01*
X168000Y572500D01*
X156000Y572500D01*
X156000Y557500D01*
X247000Y27000D02*
X259000Y27000D01*
X259000Y42000D01*
X247000Y42000D01*
X247000Y27000D01*
X191000Y27000D02*
X203000Y27000D01*
X203000Y42000D01*
X191000Y42000D01*
X191000Y27000D01*
X531000Y27000D02*
X543000Y27000D01*
X543000Y42000D01*
X531000Y42000D01*
X531000Y27000D01*
X587000Y27000D02*
X599000Y27000D01*
X599000Y42000D01*
X587000Y42000D01*
X587000Y27000D01*
X554400Y557700D02*
X566400Y557700D01*
X566400Y572700D01*
X554400Y572700D01*
X554400Y557700D01*
X498400Y557700D02*
X510400Y557700D01*
X510400Y572700D01*
X498400Y572700D01*
X498400Y557700D01*
X361000Y27000D02*
X373000Y27000D01*
X373000Y42000D01*
X361000Y42000D01*
X361000Y27000D01*
X417000Y27000D02*
X429000Y27000D01*
X429000Y42000D01*
X417000Y42000D01*
X417000Y27000D01*
X47500Y116500D02*
X62500Y116500D01*
X62500Y126500D01*
X47500Y126500D01*
X47500Y116500D01*
X392100Y473000D02*
X407100Y473000D01*
X407100Y483000D01*
X392100Y483000D01*
X392100Y473000D01*
X232700Y557500D02*
X244700Y557500D01*
X244700Y572500D01*
X232700Y572500D01*
X232700Y557500D01*
X288700Y557500D02*
X300700Y557500D01*
X300700Y572500D01*
X288700Y572500D01*
X288700Y557500D01*
X126500Y473000D02*
X141500Y473000D01*
X141500Y483000D01*
X126500Y483000D01*
X126500Y473000D01*
X217500Y116500D02*
X232500Y116500D01*
X232500Y126500D01*
X217500Y126500D01*
X217500Y116500D01*
X557500Y116500D02*
X572500Y116500D01*
X572500Y126500D01*
X557500Y126500D01*
X557500Y116500D01*
X524900Y473200D02*
X539900Y473200D01*
X539900Y483200D01*
X524900Y483200D01*
X524900Y473200D01*
X387500Y116500D02*
X402500Y116500D01*
X402500Y126500D01*
X387500Y126500D01*
X387500Y116500D01*
X233700Y477500D02*
X243700Y477500D01*
X243700Y492500D01*
X233700Y492500D01*
X233700Y477500D01*
X289700Y477500D02*
X299700Y477500D01*
X299700Y492500D01*
X289700Y492500D01*
X289700Y477500D01*
X565309Y25000D02*
X565923Y24931D01*
X566525Y24793D01*
X567108Y24589D01*
X567665Y24321D01*
X568188Y23993D01*
X568671Y23608D01*
X569108Y23171D01*
X569493Y22688D01*
X569821Y22165D01*
X570089Y21608D01*
X570293Y21025D01*
X570431Y20423D01*
X570500Y19809D01*
X570500Y19191D01*
X570431Y18577D01*
X570293Y17975D01*
X570089Y17392D01*
X569821Y16835D01*
X569493Y16312D01*
X569108Y15829D01*
X568671Y15393D01*
X568188Y15007D01*
X567665Y14679D01*
X567108Y14411D01*
X566525Y14207D01*
X565923Y14069D01*
X565309Y14000D01*
X564691Y14000D01*
X564077Y14069D01*
X563475Y14207D01*
X562892Y14411D01*
X562335Y14679D01*
X561812Y15007D01*
X561329Y15393D01*
X560893Y15829D01*
X560507Y16312D01*
X560179Y16835D01*
X559911Y17392D01*
X559707Y17975D01*
X559569Y18577D01*
X559500Y19191D01*
X559500Y19809D01*
X559569Y20423D01*
X559707Y21025D01*
X559911Y21608D01*
X560179Y22165D01*
X560507Y22688D01*
X560893Y23171D01*
X561329Y23608D01*
X561812Y23993D01*
X562335Y24321D01*
X562892Y24589D01*
X563475Y24793D01*
X564077Y24931D01*
X564691Y25000D01*
X565309Y25000D01*
X565309Y90000D02*
X565923Y89931D01*
X566525Y89793D01*
X567108Y89589D01*
X567665Y89321D01*
X568188Y88993D01*
X568671Y88608D01*
X569108Y88171D01*
X569493Y87688D01*
X569821Y87165D01*
X570089Y86608D01*
X570293Y86025D01*
X570431Y85423D01*
X570500Y84809D01*
X570500Y84191D01*
X570431Y83577D01*
X570293Y82975D01*
X570089Y82392D01*
X569821Y81835D01*
X569493Y81312D01*
X569108Y80829D01*
X568671Y80393D01*
X568188Y80007D01*
X567665Y79679D01*
X567108Y79411D01*
X566525Y79207D01*
X565923Y79069D01*
X565309Y79000D01*
X564691Y79000D01*
X564077Y79069D01*
X563475Y79207D01*
X562892Y79411D01*
X562335Y79679D01*
X561812Y80007D01*
X561329Y80393D01*
X560893Y80829D01*
X560507Y81312D01*
X560179Y81835D01*
X559911Y82392D01*
X559707Y82975D01*
X559569Y83577D01*
X559500Y84191D01*
X559500Y84809D01*
X559569Y85423D01*
X559707Y86025D01*
X559911Y86608D01*
X560179Y87165D01*
X560507Y87688D01*
X560893Y88171D01*
X561329Y88608D01*
X561812Y88993D01*
X562335Y89321D01*
X562892Y89589D01*
X563475Y89793D01*
X564077Y89931D01*
X564691Y90000D01*
X565309Y90000D01*
X532091Y574700D02*
X531477Y574769D01*
X530875Y574907D01*
X530292Y575111D01*
X529735Y575379D01*
X529212Y575707D01*
X528729Y576093D01*
X528293Y576529D01*
X527907Y577012D01*
X527579Y577535D01*
X527311Y578092D01*
X527107Y578675D01*
X526969Y579277D01*
X526900Y579891D01*
X526900Y580509D01*
X526969Y581123D01*
X527107Y581725D01*
X527311Y582308D01*
X527579Y582865D01*
X527907Y583388D01*
X528293Y583871D01*
X528729Y584308D01*
X529212Y584693D01*
X529735Y585021D01*
X530292Y585289D01*
X530875Y585493D01*
X531477Y585631D01*
X532091Y585700D01*
X532709Y585700D01*
X533323Y585631D01*
X533925Y585493D01*
X534508Y585289D01*
X535065Y585021D01*
X535588Y584693D01*
X536071Y584308D01*
X536508Y583871D01*
X536893Y583388D01*
X537221Y582865D01*
X537489Y582308D01*
X537693Y581725D01*
X537831Y581123D01*
X537900Y580509D01*
X537900Y579891D01*
X537831Y579277D01*
X537693Y578675D01*
X537489Y578092D01*
X537221Y577535D01*
X536893Y577012D01*
X536508Y576529D01*
X536071Y576093D01*
X535588Y575707D01*
X535065Y575379D01*
X534508Y575111D01*
X533925Y574907D01*
X533323Y574769D01*
X532709Y574700D01*
X532091Y574700D01*
X532091Y509700D02*
X531477Y509769D01*
X530875Y509907D01*
X530292Y510111D01*
X529735Y510379D01*
X529212Y510707D01*
X528729Y511093D01*
X528293Y511529D01*
X527907Y512012D01*
X527579Y512535D01*
X527311Y513092D01*
X527107Y513675D01*
X526969Y514277D01*
X526900Y514891D01*
X526900Y515509D01*
X526969Y516123D01*
X527107Y516725D01*
X527311Y517308D01*
X527579Y517865D01*
X527907Y518388D01*
X528293Y518871D01*
X528729Y519308D01*
X529212Y519693D01*
X529735Y520021D01*
X530292Y520289D01*
X530875Y520493D01*
X531477Y520631D01*
X532091Y520700D01*
X532709Y520700D01*
X533323Y520631D01*
X533925Y520493D01*
X534508Y520289D01*
X535065Y520021D01*
X535588Y519693D01*
X536071Y519308D01*
X536508Y518871D01*
X536893Y518388D01*
X537221Y517865D01*
X537489Y517308D01*
X537693Y516725D01*
X537831Y516123D01*
X537900Y515509D01*
X537900Y514891D01*
X537831Y514277D01*
X537693Y513675D01*
X537489Y513092D01*
X537221Y512535D01*
X536893Y512012D01*
X536508Y511529D01*
X536071Y511093D01*
X535588Y510707D01*
X535065Y510379D01*
X534508Y510111D01*
X533925Y509907D01*
X533323Y509769D01*
X532709Y509700D01*
X532091Y509700D01*
X395309Y25000D02*
X395923Y24931D01*
X396525Y24793D01*
X397108Y24589D01*
X397665Y24321D01*
X398188Y23993D01*
X398671Y23608D01*
X399108Y23171D01*
X399493Y22688D01*
X399821Y22165D01*
X400089Y21608D01*
X400293Y21025D01*
X400431Y20423D01*
X400500Y19809D01*
X400500Y19191D01*
X400431Y18577D01*
X400293Y17975D01*
X400089Y17392D01*
X399821Y16835D01*
X399493Y16312D01*
X399108Y15829D01*
X398671Y15393D01*
X398188Y15007D01*
X397665Y14679D01*
X397108Y14411D01*
X396525Y14207D01*
X395923Y14069D01*
X395309Y14000D01*
X394691Y14000D01*
X394077Y14069D01*
X393475Y14207D01*
X392892Y14411D01*
X392335Y14679D01*
X391812Y15007D01*
X391329Y15393D01*
X390893Y15829D01*
X390507Y16312D01*
X390179Y16835D01*
X389911Y17392D01*
X389707Y17975D01*
X389569Y18577D01*
X389500Y19191D01*
X389500Y19809D01*
X389569Y20423D01*
X389707Y21025D01*
X389911Y21608D01*
X390179Y22165D01*
X390507Y22688D01*
X390893Y23171D01*
X391329Y23608D01*
X391812Y23993D01*
X392335Y24321D01*
X392892Y24589D01*
X393475Y24793D01*
X394077Y24931D01*
X394691Y25000D01*
X395309Y25000D01*
X395309Y90000D02*
X395923Y89931D01*
X396525Y89793D01*
X397108Y89589D01*
X397665Y89321D01*
X398188Y88993D01*
X398671Y88608D01*
X399108Y88171D01*
X399493Y87688D01*
X399821Y87165D01*
X400089Y86608D01*
X400293Y86025D01*
X400431Y85423D01*
X400500Y84809D01*
X400500Y84191D01*
X400431Y83577D01*
X400293Y82975D01*
X400089Y82392D01*
X399821Y81835D01*
X399493Y81312D01*
X399108Y80829D01*
X398671Y80393D01*
X398188Y80007D01*
X397665Y79679D01*
X397108Y79411D01*
X396525Y79207D01*
X395923Y79069D01*
X395309Y79000D01*
X394691Y79000D01*
X394077Y79069D01*
X393475Y79207D01*
X392892Y79411D01*
X392335Y79679D01*
X391812Y80007D01*
X391329Y80393D01*
X390893Y80829D01*
X390507Y81312D01*
X390179Y81835D01*
X389911Y82392D01*
X389707Y82975D01*
X389569Y83577D01*
X389500Y84191D01*
X389500Y84809D01*
X389569Y85423D01*
X389707Y86025D01*
X389911Y86608D01*
X390179Y87165D01*
X390507Y87688D01*
X390893Y88171D01*
X391329Y88608D01*
X391812Y88993D01*
X392335Y89321D01*
X392892Y89589D01*
X393475Y89793D01*
X394077Y89931D01*
X394691Y90000D01*
X395309Y90000D01*
X225309Y25000D02*
X225923Y24931D01*
X226525Y24793D01*
X227108Y24589D01*
X227665Y24321D01*
X228188Y23993D01*
X228671Y23608D01*
X229108Y23171D01*
X229493Y22688D01*
X229821Y22165D01*
X230089Y21608D01*
X230293Y21025D01*
X230431Y20423D01*
X230500Y19809D01*
X230500Y19191D01*
X230431Y18577D01*
X230293Y17975D01*
X230089Y17392D01*
X229821Y16835D01*
X229493Y16312D01*
X229108Y15829D01*
X228671Y15393D01*
X228188Y15007D01*
X227665Y14679D01*
X227108Y14411D01*
X226525Y14207D01*
X225923Y14069D01*
X225309Y14000D01*
X224691Y14000D01*
X224077Y14069D01*
X223475Y14207D01*
X222892Y14411D01*
X222335Y14679D01*
X221812Y15007D01*
X221329Y15393D01*
X220893Y15829D01*
X220507Y16312D01*
X220179Y16835D01*
X219911Y17392D01*
X219707Y17975D01*
X219569Y18577D01*
X219500Y19191D01*
X219500Y19809D01*
X219569Y20423D01*
X219707Y21025D01*
X219911Y21608D01*
X220179Y22165D01*
X220507Y22688D01*
X220893Y23171D01*
X221329Y23608D01*
X221812Y23993D01*
X222335Y24321D01*
X222892Y24589D01*
X223475Y24793D01*
X224077Y24931D01*
X224691Y25000D01*
X225309Y25000D01*
X225309Y90000D02*
X225923Y89931D01*
X226525Y89793D01*
X227108Y89589D01*
X227665Y89321D01*
X228188Y88993D01*
X228671Y88608D01*
X229108Y88171D01*
X229493Y87688D01*
X229821Y87165D01*
X230089Y86608D01*
X230293Y86025D01*
X230431Y85423D01*
X230500Y84809D01*
X230500Y84191D01*
X230431Y83577D01*
X230293Y82975D01*
X230089Y82392D01*
X229821Y81835D01*
X229493Y81312D01*
X229108Y80829D01*
X228671Y80393D01*
X228188Y80007D01*
X227665Y79679D01*
X227108Y79411D01*
X226525Y79207D01*
X225923Y79069D01*
X225309Y79000D01*
X224691Y79000D01*
X224077Y79069D01*
X223475Y79207D01*
X222892Y79411D01*
X222335Y79679D01*
X221812Y80007D01*
X221329Y80393D01*
X220893Y80829D01*
X220507Y81312D01*
X220179Y81835D01*
X219911Y82392D01*
X219707Y82975D01*
X219569Y83577D01*
X219500Y84191D01*
X219500Y84809D01*
X219569Y85423D01*
X219707Y86025D01*
X219911Y86608D01*
X220179Y87165D01*
X220507Y87688D01*
X220893Y88171D01*
X221329Y88608D01*
X221812Y88993D01*
X222335Y89321D01*
X222892Y89589D01*
X223475Y89793D01*
X224077Y89931D01*
X224691Y90000D01*
X225309Y90000D01*
X133691Y574500D02*
X133077Y574569D01*
X132475Y574707D01*
X131892Y574911D01*
X131335Y575179D01*
X130812Y575507D01*
X130329Y575893D01*
X129893Y576329D01*
X129507Y576812D01*
X129179Y577335D01*
X128911Y577892D01*
X128707Y578475D01*
X128569Y579077D01*
X128500Y579691D01*
X128500Y580309D01*
X128569Y580923D01*
X128707Y581525D01*
X128911Y582108D01*
X129179Y582665D01*
X129507Y583188D01*
X129893Y583671D01*
X130329Y584108D01*
X130812Y584493D01*
X131335Y584821D01*
X131892Y585089D01*
X132475Y585293D01*
X133077Y585431D01*
X133691Y585500D01*
X134309Y585500D01*
X134923Y585431D01*
X135525Y585293D01*
X136108Y585089D01*
X136665Y584821D01*
X137188Y584493D01*
X137671Y584108D01*
X138108Y583671D01*
X138493Y583188D01*
X138821Y582665D01*
X139089Y582108D01*
X139293Y581525D01*
X139431Y580923D01*
X139500Y580309D01*
X139500Y579691D01*
X139431Y579077D01*
X139293Y578475D01*
X139089Y577892D01*
X138821Y577335D01*
X138493Y576812D01*
X138108Y576329D01*
X137671Y575893D01*
X137188Y575507D01*
X136665Y575179D01*
X136108Y574911D01*
X135525Y574707D01*
X134923Y574569D01*
X134309Y574500D01*
X133691Y574500D01*
X133691Y509500D02*
X133077Y509569D01*
X132475Y509707D01*
X131892Y509911D01*
X131335Y510179D01*
X130812Y510507D01*
X130329Y510893D01*
X129893Y511329D01*
X129507Y511812D01*
X129179Y512335D01*
X128911Y512892D01*
X128707Y513475D01*
X128569Y514077D01*
X128500Y514691D01*
X128500Y515309D01*
X128569Y515923D01*
X128707Y516525D01*
X128911Y517108D01*
X129179Y517665D01*
X129507Y518188D01*
X129893Y518671D01*
X130329Y519108D01*
X130812Y519493D01*
X131335Y519821D01*
X131892Y520089D01*
X132475Y520293D01*
X133077Y520431D01*
X133691Y520500D01*
X134309Y520500D01*
X134923Y520431D01*
X135525Y520293D01*
X136108Y520089D01*
X136665Y519821D01*
X137188Y519493D01*
X137671Y519108D01*
X138108Y518671D01*
X138493Y518188D01*
X138821Y517665D01*
X139089Y517108D01*
X139293Y516525D01*
X139431Y515923D01*
X139500Y515309D01*
X139500Y514691D01*
X139431Y514077D01*
X139293Y513475D01*
X139089Y512892D01*
X138821Y512335D01*
X138493Y511812D01*
X138108Y511329D01*
X137671Y510893D01*
X137188Y510507D01*
X136665Y510179D01*
X136108Y509911D01*
X135525Y509707D01*
X134923Y509569D01*
X134309Y509500D01*
X133691Y509500D01*
X266391Y574500D02*
X265777Y574569D01*
X265175Y574707D01*
X264592Y574911D01*
X264035Y575179D01*
X263512Y575507D01*
X263029Y575893D01*
X262593Y576329D01*
X262207Y576812D01*
X261879Y577335D01*
X261611Y577892D01*
X261407Y578475D01*
X261269Y579077D01*
X261200Y579691D01*
X261200Y580309D01*
X261269Y580923D01*
X261407Y581525D01*
X261611Y582108D01*
X261879Y582665D01*
X262207Y583188D01*
X262593Y583671D01*
X263029Y584108D01*
X263512Y584493D01*
X264035Y584821D01*
X264592Y585089D01*
X265175Y585293D01*
X265777Y585431D01*
X266391Y585500D01*
X267009Y585500D01*
X267623Y585431D01*
X268225Y585293D01*
X268808Y585089D01*
X269365Y584821D01*
X269888Y584493D01*
X270371Y584108D01*
X270808Y583671D01*
X271193Y583188D01*
X271521Y582665D01*
X271789Y582108D01*
X271993Y581525D01*
X272131Y580923D01*
X272200Y580309D01*
X272200Y579691D01*
X272131Y579077D01*
X271993Y578475D01*
X271789Y577892D01*
X271521Y577335D01*
X271193Y576812D01*
X270808Y576329D01*
X270371Y575893D01*
X269888Y575507D01*
X269365Y575179D01*
X268808Y574911D01*
X268225Y574707D01*
X267623Y574569D01*
X267009Y574500D01*
X266391Y574500D01*
X266391Y509500D02*
X265777Y509569D01*
X265175Y509707D01*
X264592Y509911D01*
X264035Y510179D01*
X263512Y510507D01*
X263029Y510893D01*
X262593Y511329D01*
X262207Y511812D01*
X261879Y512335D01*
X261611Y512892D01*
X261407Y513475D01*
X261269Y514077D01*
X261200Y514691D01*
X261200Y515309D01*
X261269Y515923D01*
X261407Y516525D01*
X261611Y517108D01*
X261879Y517665D01*
X262207Y518188D01*
X262593Y518671D01*
X263029Y519108D01*
X263512Y519493D01*
X264035Y519821D01*
X264592Y520089D01*
X265175Y520293D01*
X265777Y520431D01*
X266391Y520500D01*
X267009Y520500D01*
X267623Y520431D01*
X268225Y520293D01*
X268808Y520089D01*
X269365Y519821D01*
X269888Y519493D01*
X270371Y519108D01*
X270808Y518671D01*
X271193Y518188D01*
X271521Y517665D01*
X271789Y517108D01*
X271993Y516525D01*
X272131Y515923D01*
X272200Y515309D01*
X272200Y514691D01*
X272131Y514077D01*
X271993Y513475D01*
X271789Y512892D01*
X271521Y512335D01*
X271193Y511812D01*
X270808Y511329D01*
X270371Y510893D01*
X269888Y510507D01*
X269365Y510179D01*
X268808Y509911D01*
X268225Y509707D01*
X267623Y509569D01*
X267009Y509500D01*
X266391Y509500D01*
X399291Y574500D02*
X398677Y574569D01*
X398075Y574707D01*
X397492Y574911D01*
X396935Y575179D01*
X396412Y575507D01*
X395929Y575893D01*
X395493Y576329D01*
X395107Y576812D01*
X394779Y577335D01*
X394511Y577892D01*
X394307Y578475D01*
X394169Y579077D01*
X394100Y579691D01*
X394100Y580309D01*
X394169Y580923D01*
X394307Y581525D01*
X394511Y582108D01*
X394779Y582665D01*
X395107Y583188D01*
X395493Y583671D01*
X395929Y584108D01*
X396412Y584493D01*
X396935Y584821D01*
X397492Y585089D01*
X398075Y585293D01*
X398677Y585431D01*
X399291Y585500D01*
X399909Y585500D01*
X400523Y585431D01*
X401125Y585293D01*
X401708Y585089D01*
X402265Y584821D01*
X402788Y584493D01*
X403271Y584108D01*
X403708Y583671D01*
X404093Y583188D01*
X404421Y582665D01*
X404689Y582108D01*
X404893Y581525D01*
X405031Y580923D01*
X405100Y580309D01*
X405100Y579691D01*
X405031Y579077D01*
X404893Y578475D01*
X404689Y577892D01*
X404421Y577335D01*
X404093Y576812D01*
X403708Y576329D01*
X403271Y575893D01*
X402788Y575507D01*
X402265Y575179D01*
X401708Y574911D01*
X401125Y574707D01*
X400523Y574569D01*
X399909Y574500D01*
X399291Y574500D01*
X399291Y509500D02*
X398677Y509569D01*
X398075Y509707D01*
X397492Y509911D01*
X396935Y510179D01*
X396412Y510507D01*
X395929Y510893D01*
X395493Y511329D01*
X395107Y511812D01*
X394779Y512335D01*
X394511Y512892D01*
X394307Y513475D01*
X394169Y514077D01*
X394100Y514691D01*
X394100Y515309D01*
X394169Y515923D01*
X394307Y516525D01*
X394511Y517108D01*
X394779Y517665D01*
X395107Y518188D01*
X395493Y518671D01*
X395929Y519108D01*
X396412Y519493D01*
X396935Y519821D01*
X397492Y520089D01*
X398075Y520293D01*
X398677Y520431D01*
X399291Y520500D01*
X399909Y520500D01*
X400523Y520431D01*
X401125Y520293D01*
X401708Y520089D01*
X402265Y519821D01*
X402788Y519493D01*
X403271Y519108D01*
X403708Y518671D01*
X404093Y518188D01*
X404421Y517665D01*
X404689Y517108D01*
X404893Y516525D01*
X405031Y515923D01*
X405100Y515309D01*
X405100Y514691D01*
X405031Y514077D01*
X404893Y513475D01*
X404689Y512892D01*
X404421Y512335D01*
X404093Y511812D01*
X403708Y511329D01*
X403271Y510893D01*
X402788Y510507D01*
X402265Y510179D01*
X401708Y509911D01*
X401125Y509707D01*
X400523Y509569D01*
X399909Y509500D01*
X399291Y509500D01*
X55309Y25000D02*
X55923Y24931D01*
X56525Y24793D01*
X57108Y24589D01*
X57665Y24321D01*
X58188Y23993D01*
X58671Y23608D01*
X59108Y23171D01*
X59493Y22688D01*
X59821Y22165D01*
X60089Y21608D01*
X60293Y21025D01*
X60431Y20423D01*
X60500Y19809D01*
X60500Y19191D01*
X60431Y18577D01*
X60293Y17975D01*
X60089Y17392D01*
X59821Y16835D01*
X59493Y16312D01*
X59108Y15829D01*
X58671Y15393D01*
X58188Y15007D01*
X57665Y14679D01*
X57108Y14411D01*
X56525Y14207D01*
X55923Y14069D01*
X55309Y14000D01*
X54691Y14000D01*
X54077Y14069D01*
X53475Y14207D01*
X52892Y14411D01*
X52335Y14679D01*
X51812Y15007D01*
X51329Y15393D01*
X50893Y15829D01*
X50507Y16312D01*
X50179Y16835D01*
X49911Y17392D01*
X49707Y17975D01*
X49569Y18577D01*
X49500Y19191D01*
X49500Y19809D01*
X49569Y20423D01*
X49707Y21025D01*
X49911Y21608D01*
X50179Y22165D01*
X50507Y22688D01*
X50893Y23171D01*
X51329Y23608D01*
X51812Y23993D01*
X52335Y24321D01*
X52892Y24589D01*
X53475Y24793D01*
X54077Y24931D01*
X54691Y25000D01*
X55309Y25000D01*
X55309Y90000D02*
X55923Y89931D01*
X56525Y89793D01*
X57108Y89589D01*
X57665Y89321D01*
X58188Y88993D01*
X58671Y88608D01*
X59108Y88171D01*
X59493Y87688D01*
X59821Y87165D01*
X60089Y86608D01*
X60293Y86025D01*
X60431Y85423D01*
X60500Y84809D01*
X60500Y84191D01*
X60431Y83577D01*
X60293Y82975D01*
X60089Y82392D01*
X59821Y81835D01*
X59493Y81312D01*
X59108Y80829D01*
X58671Y80393D01*
X58188Y80007D01*
X57665Y79679D01*
X57108Y79411D01*
X56525Y79207D01*
X55923Y79069D01*
X55309Y79000D01*
X54691Y79000D01*
X54077Y79069D01*
X53475Y79207D01*
X52892Y79411D01*
X52335Y79679D01*
X51812Y80007D01*
X51329Y80393D01*
X50893Y80829D01*
X50507Y81312D01*
X50179Y81835D01*
X49911Y82392D01*
X49707Y82975D01*
X49569Y83577D01*
X49500Y84191D01*
X49500Y84809D01*
X49569Y85423D01*
X49707Y86025D01*
X49911Y86608D01*
X50179Y87165D01*
X50507Y87688D01*
X50893Y88171D01*
X51329Y88608D01*
X51812Y88993D01*
X52335Y89321D01*
X52892Y89589D01*
X53475Y89793D01*
X54077Y89931D01*
X54691Y90000D01*
X55309Y90000D01*
M02*
