M48
;GenerationSoftware,Autodesk,EAGLE,9.6.2*%
;CreationDate,2021-04-26T00:34:34Z*%
FMAT,2
ICI,OFF
METRIC,TZ,000.000
T8C0.350
T7C0.400
T6C0.770
T5C0.800
T4C1.000
T3C1.016
T2C1.100
T1C1.200
%
G90
M71
T1
X29470Y56500
X10600Y56500
X16200Y56500
X25300Y3450
X19700Y3450
X42300Y3450
X36700Y3450
X59300Y3450
X50440Y56520
X56040Y56520
X23870Y56500
X8300Y3450
X53700Y3450
X2700Y3450
X37160Y56500
X42760Y56500
T2
X39500Y8450
X22500Y1950
X22500Y8450
X13400Y58000
X13400Y51500
X26670Y58000
X26670Y51500
X39960Y58000
X39960Y51500
X5500Y1950
X5500Y8450
X3986Y55059
X6486Y52559
X56500Y1950
X56500Y8450
X53240Y58020
X53240Y51520
X39500Y1950
X1486Y52559
T3
X31900Y37920
X34470Y22680
X40430Y35090
X42970Y35090
X40430Y32550
X42970Y32550
X40430Y30010
X42970Y30010
X40430Y27470
X42970Y27470
X40430Y24930
X42970Y24930
X31930Y22680
X29390Y22680
X26850Y22680
X24310Y22680
X21770Y22680
X19230Y22680
X16690Y22680
X14150Y22680
X11610Y22680
X9070Y22680
X6530Y22680
X3990Y22680
X1450Y22680
X1420Y37920
X3960Y37920
X6500Y37920
X34440Y37920
X9040Y37920
X14120Y37920
X11580Y37920
X16660Y37920
X19200Y37920
X21740Y37920
X24280Y37920
X26820Y37920
X29360Y37920
T4
X39960Y47800
X42760Y48500
X37160Y48500
X5500Y12150
X2700Y11450
X8300Y11450
X4360Y42670
X4360Y47170
X1860Y41420
X13400Y47800
X39500Y12150
X56500Y12150
X53700Y11450
X59300Y11450
X53240Y47820
X56040Y48520
X50440Y48520
X1860Y48420
X36700Y11450
X42300Y11450
X22500Y12150
X19700Y11450
X25300Y11450
X16200Y48500
X10600Y48500
X26670Y47800
X29470Y48500
X23870Y48500
T5
X10180Y14230
X17800Y14230
X10155Y7270
X17775Y2190
X17775Y4730
X17775Y7270
X10155Y4730
X34770Y2363
X10180Y11690
X51860Y4683
X51860Y7223
X44240Y4683
X44240Y7223
X51860Y2143
X44240Y2143
X10155Y2190
X34770Y4903
X34770Y7443
X27150Y7443
X27150Y4903
X27150Y2363
X17800Y11690
X17800Y16770
X10180Y16770
T6
X41331Y45482
X44531Y45482
X39131Y45482
X44531Y40402
X41331Y40402
X39131Y40402
X36931Y40402
X36931Y45482
T7
X37250Y26500
X20000Y15000
X14500Y16750
X45750Y10750
X38400Y36150
X42250Y17000
X41010Y23430
X46192Y18000
X13950Y12970
X40140Y18790
X36250Y30000
X13020Y20970
X50250Y51750
X44750Y18000
X48250Y10500
X44305Y38805
X45406Y41407
X40320Y14560
X43440Y17410
X33250Y43500
X32000Y41500
X41250Y18180
X5000Y15000
X32950Y10800
X19200Y45740
X16640Y45780
X12910Y45245
X37000Y42250
X39000Y42250
X37220Y24820
X35470Y24070
X29100Y14600
X34750Y15500
X37830Y39360
X60750Y6500
X57500Y6500
X51000Y12250
X37250Y28500
X37250Y27500
X34000Y12750
T8
X59620Y50900
X30150Y15880
X8130Y45290
X50290Y53530
X24390Y43610
X48750Y54750
X26000Y44250
M30