M48
;GenerationSoftware,Autodesk,EAGLE,9.6.2*%
;CreationDate,2020-10-07T14:39:11Z*%
FMAT,2
ICI,OFF
METRIC,TZ,000.000
T15C0.400
T14C0.670
T13C0.750
T12C0.760
T11C0.770
T10C0.800
T9C0.813
T8C0.900
T7C0.950
T6C1.000
T5C1.100
T4C1.200
T3C1.500
T2C1.600
T1C2.600
%
G90
M71
T1
X7020Y12020
X67020Y12020
X7020Y62020
X67020Y62020
T2
X64600Y19100
X64600Y44100
T3
X71586Y57593
X71586Y49393
T4
X4000Y56800
X4000Y27200
X50800Y70000
X57200Y70000
X62800Y70000
X4000Y39200
X4000Y51200
X4000Y44800
X4000Y32800
X45200Y70000
T5
X2500Y30000
X9000Y30000
X48000Y71500
X48000Y65000
X2500Y54000
X9000Y54000
X60000Y71500
X60000Y65000
X2500Y42000
X9000Y42000
T6
X12000Y39200
X12000Y44800
X12700Y42000
X57200Y62000
X62800Y62000
X60000Y61300
X12000Y51200
X12000Y56800
X12700Y54000
X9060Y72380
X14810Y69880
X10310Y69880
X66020Y27445
X66020Y30215
X66020Y32985
X39957Y54840
X39957Y52300
X39957Y49760
X39957Y47220
X39957Y44680
X63180Y37140
X39957Y39600
X39957Y37060
X39957Y34520
X39957Y31980
X39957Y29440
X19637Y57380
X19637Y54840
X19637Y52300
X19637Y49760
X19637Y47220
X19637Y44680
X19637Y42140
X19637Y39600
X19637Y37060
X63180Y34370
X19637Y31980
X19637Y29440
X19637Y59920
X19637Y62460
X19637Y65000
X19637Y67540
X63180Y31600
X45200Y62000
X50800Y62000
X39957Y57380
X48000Y61300
X16060Y72380
X63180Y28830
X39957Y42140
X63180Y26060
X66020Y35755
X12000Y27200
X12000Y32800
X12700Y30000
X19637Y34520
T7
X58500Y18520
X54762Y30000
X54762Y18520
X58500Y33000
X51000Y33000
X51000Y44480
X54754Y33000
X54754Y44480
X58500Y44480
X58500Y30000
T8
X45764Y54035
X63395Y9639
X12885Y12988
X12885Y22988
X12885Y20988
X12885Y18988
X12885Y16988
X12885Y14988
X63395Y2019
X45764Y46415
T9
X36508Y6166
X48224Y18817
X44064Y36734
X44064Y39274
X42878Y60162
X42878Y70322
X45152Y5476
X47514Y43762
X61770Y49960
X61770Y55040
X61770Y52500
X47420Y56000
X48224Y28977
X57580Y56000
X47514Y33602
X44135Y34270
X44135Y31730
X45152Y8016
X45152Y10556
X26344Y8743
X36504Y8743
X26348Y6166
X40756Y3014
X26385Y3501
X36545Y3501
X50916Y3014
X54849Y60207
X54849Y70367
T10
X71586Y55493
X71586Y53493
X71586Y51493
T11
X54149Y47658
X54149Y52738
X56349Y52738
X56349Y47658
X51949Y47658
X48749Y47658
X48749Y52738
X51949Y52738
T12
X1791Y20306
X4331Y17766
X4331Y22846
T13
X59041Y9583
X51441Y9583
X12680Y3475
X12680Y8525
X66397Y56033
X66397Y50983
T14
X38190Y17000
X38190Y14460
X28190Y19540
X25810Y17000
X35810Y14460
X35810Y17000
X35810Y19540
X18190Y14460
X18190Y17000
X18190Y19540
X25810Y19540
X28190Y17000
X25810Y14460
X28190Y14460
X45810Y14460
X45810Y17000
X45810Y19540
X38190Y19540
T15
X12000Y64000
X14000Y64000
X23000Y44000
X8000Y6000
X36880Y33480
X46101Y32258
X53000Y70000
X53000Y69000
X30000Y55000
X23000Y42000
X31000Y54000
X8000Y4000
X23000Y43000
X48500Y51000
X42500Y53500
X16500Y58500
X8000Y8000
X36380Y54980
X48500Y49500
X8000Y23000
X55000Y56000
X39000Y4000
X39000Y9000
X28880Y60980
M30