G04 EAGLE Gerber RS-274X export*
G75*
%MOMM*%
%FSLAX34Y34*%
%LPD*%
%INSoldermask Top*%
%IPPOS*%
%AMOC8*
5,1,8,0,0,1.08239X$1,22.5*%
G01*
%ADD10C,1.981200*%
%ADD11C,1.553200*%
%ADD12C,1.803200*%
%ADD13P,1.539592X8X202.500000*%
%ADD14C,1.422400*%
%ADD15C,1.603200*%
%ADD16C,2.453200*%
%ADD17C,1.506200*%
%ADD18C,1.523200*%
%ADD19P,1.539592X8X112.500000*%
%ADD20R,1.273200X1.273200*%
%ADD21C,1.273200*%
%ADD22C,1.703200*%
%ADD23C,1.803200*%
%ADD24C,2.003200*%
%ADD25C,1.303200*%
%ADD26P,1.539592X8X22.500000*%
%ADD27P,1.539592X8X292.500000*%
%ADD28R,1.553200X1.553200*%
%ADD29R,1.903200X1.903200*%
%ADD30C,1.903200*%
%ADD31C,2.803200*%
%ADD32C,1.403200*%
%ADD33C,3.403200*%
%ADD34C,2.133600*%


D10*
X590410Y95830D03*
X514410Y95830D03*
D11*
X633950Y20190D03*
X633950Y96390D03*
D12*
X399570Y573800D03*
X399570Y548400D03*
X399570Y523000D03*
X399570Y497600D03*
X399570Y472200D03*
X399570Y446800D03*
X399570Y421400D03*
X399570Y396000D03*
X399570Y370600D03*
X399570Y345200D03*
X399570Y319800D03*
X399570Y294400D03*
X196370Y573800D03*
X196370Y548400D03*
X196370Y523000D03*
X196370Y497600D03*
X196370Y472200D03*
X196370Y446800D03*
X196370Y421400D03*
X196370Y396000D03*
X196370Y370600D03*
X196370Y345200D03*
X196370Y319800D03*
X196370Y294400D03*
X196370Y599200D03*
X196370Y624600D03*
X196370Y650000D03*
X196370Y675400D03*
D13*
X509160Y30140D03*
X407560Y30140D03*
D14*
X445424Y105560D02*
X457616Y105560D01*
X457616Y54760D02*
X445424Y54760D01*
X445424Y80160D02*
X457616Y80160D01*
D15*
X715860Y514930D03*
X715860Y534930D03*
X715860Y554930D03*
D16*
X715860Y493930D03*
X715860Y575930D03*
D17*
X43310Y177660D03*
X17910Y203060D03*
X43310Y228460D03*
D13*
X365450Y35010D03*
X263850Y35010D03*
X365080Y61660D03*
X263480Y61660D03*
X365040Y87430D03*
X263440Y87430D03*
D11*
X457640Y540350D03*
X457640Y464150D03*
D18*
X487490Y476580D03*
X519490Y476580D03*
X541490Y476580D03*
X563490Y476580D03*
X563490Y527380D03*
X541490Y527380D03*
X519490Y527380D03*
X487490Y527380D03*
D19*
X428780Y601620D03*
X428780Y703220D03*
D20*
X458100Y144600D03*
D21*
X458100Y170000D03*
X458100Y195400D03*
X381900Y195400D03*
X381900Y170000D03*
X381900Y144600D03*
D22*
X127000Y532500D02*
X127000Y547500D01*
D23*
X128000Y568000D02*
X112000Y568000D01*
X112000Y512000D02*
X128000Y512000D01*
D24*
X49000Y568000D02*
X31000Y568000D01*
X31000Y512000D02*
X49000Y512000D01*
D25*
X25000Y540000D03*
X90000Y540000D03*
D22*
X592500Y613000D02*
X607500Y613000D01*
D23*
X628000Y612000D02*
X628000Y628000D01*
X572000Y628000D02*
X572000Y612000D01*
D24*
X628000Y691000D02*
X628000Y709000D01*
X572000Y709000D02*
X572000Y691000D01*
D25*
X600000Y715000D03*
X600000Y650000D03*
D22*
X127000Y427500D02*
X127000Y412500D01*
D23*
X128000Y448000D02*
X112000Y448000D01*
X112000Y392000D02*
X128000Y392000D01*
D24*
X49000Y448000D02*
X31000Y448000D01*
X31000Y392000D02*
X49000Y392000D01*
D25*
X25000Y420000D03*
X90000Y420000D03*
D22*
X127000Y307500D02*
X127000Y292500D01*
D23*
X128000Y328000D02*
X112000Y328000D01*
X112000Y272000D02*
X128000Y272000D01*
D24*
X49000Y328000D02*
X31000Y328000D01*
X31000Y272000D02*
X49000Y272000D01*
D25*
X25000Y300000D03*
X90000Y300000D03*
D20*
X358100Y144600D03*
D21*
X358100Y170000D03*
X358100Y195400D03*
X281900Y195400D03*
X281900Y170000D03*
X281900Y144600D03*
D20*
X258100Y144600D03*
D21*
X258100Y170000D03*
X258100Y195400D03*
X181900Y195400D03*
X181900Y170000D03*
X181900Y144600D03*
D14*
X611604Y499600D02*
X623796Y499600D01*
X623796Y550400D02*
X611604Y550400D01*
X611604Y525000D02*
X623796Y525000D01*
D26*
X474200Y560000D03*
X575800Y560000D03*
D27*
X475140Y437620D03*
X475140Y336020D03*
X441350Y342700D03*
X441350Y317300D03*
D22*
X472500Y613000D02*
X487500Y613000D01*
D23*
X508000Y612000D02*
X508000Y628000D01*
X452000Y628000D02*
X452000Y612000D01*
D24*
X508000Y691000D02*
X508000Y709000D01*
X452000Y709000D02*
X452000Y691000D01*
D25*
X480000Y715000D03*
X480000Y650000D03*
D19*
X548490Y602070D03*
X548490Y703670D03*
X482240Y188170D03*
X482240Y289770D03*
X440640Y367340D03*
X440640Y392740D03*
D28*
X128850Y129880D03*
D11*
X128850Y149880D03*
X128850Y169880D03*
X128850Y189880D03*
X128850Y209880D03*
X128850Y229880D03*
D29*
X510000Y330000D03*
D30*
X510000Y444800D03*
D29*
X547540Y330000D03*
D30*
X547540Y444800D03*
D29*
X585000Y330000D03*
D30*
X585000Y444800D03*
D29*
X585000Y300000D03*
D30*
X585000Y185200D03*
D29*
X547620Y300000D03*
D30*
X547620Y185200D03*
D31*
X70197Y120197D03*
X670197Y120197D03*
X70197Y620197D03*
X670197Y620197D03*
D32*
X663970Y509830D03*
X663970Y560330D03*
X126800Y85250D03*
X126800Y34750D03*
D10*
X631800Y371400D03*
X631800Y343700D03*
X631800Y316000D03*
X631800Y288300D03*
X631800Y260600D03*
X660200Y357550D03*
X660200Y329850D03*
X660200Y302150D03*
X660200Y274450D03*
D33*
X646000Y207000D02*
X646000Y175000D01*
X646000Y425000D02*
X646000Y457000D01*
D34*
X103100Y698800D03*
X148100Y698800D03*
X90600Y723800D03*
X160600Y723800D03*
M02*
