G04 EAGLE Gerber RS-274X export*
G75*
%MOMM*%
%FSLAX34Y34*%
%LPD*%
%IN*%
%IPPOS*%
%AMOC8*
5,1,8,0,0,1.08239X$1,22.5*%
G01*
%ADD10C,0.000000*%
%ADD11C,0.127000*%
%ADD12C,0.254000*%


D10*
X19500Y540000D02*
X19502Y540148D01*
X19508Y540296D01*
X19518Y540444D01*
X19532Y540592D01*
X19550Y540739D01*
X19572Y540886D01*
X19598Y541032D01*
X19627Y541177D01*
X19661Y541322D01*
X19699Y541465D01*
X19740Y541608D01*
X19785Y541749D01*
X19835Y541889D01*
X19887Y542027D01*
X19944Y542165D01*
X20004Y542300D01*
X20068Y542434D01*
X20135Y542566D01*
X20206Y542696D01*
X20281Y542825D01*
X20359Y542951D01*
X20440Y543075D01*
X20524Y543197D01*
X20612Y543316D01*
X20703Y543433D01*
X20797Y543548D01*
X20895Y543660D01*
X20995Y543769D01*
X21098Y543876D01*
X21204Y543980D01*
X21312Y544081D01*
X21424Y544179D01*
X21538Y544274D01*
X21654Y544365D01*
X21773Y544454D01*
X21894Y544539D01*
X22018Y544621D01*
X22144Y544700D01*
X22271Y544775D01*
X22401Y544847D01*
X22533Y544916D01*
X22666Y544980D01*
X22801Y545041D01*
X22938Y545099D01*
X23076Y545153D01*
X23216Y545203D01*
X23357Y545249D01*
X23499Y545291D01*
X23642Y545330D01*
X23786Y545364D01*
X23932Y545395D01*
X24077Y545422D01*
X24224Y545445D01*
X24371Y545464D01*
X24519Y545479D01*
X24666Y545490D01*
X24815Y545497D01*
X24963Y545500D01*
X25111Y545499D01*
X25259Y545494D01*
X25407Y545485D01*
X25555Y545472D01*
X25703Y545455D01*
X25849Y545434D01*
X25996Y545409D01*
X26141Y545380D01*
X26286Y545348D01*
X26429Y545311D01*
X26572Y545271D01*
X26714Y545226D01*
X26854Y545178D01*
X26993Y545126D01*
X27130Y545071D01*
X27266Y545011D01*
X27401Y544948D01*
X27533Y544882D01*
X27664Y544812D01*
X27793Y544738D01*
X27919Y544661D01*
X28044Y544581D01*
X28166Y544497D01*
X28287Y544410D01*
X28404Y544320D01*
X28520Y544226D01*
X28632Y544130D01*
X28742Y544031D01*
X28850Y543928D01*
X28954Y543823D01*
X29056Y543715D01*
X29154Y543604D01*
X29250Y543491D01*
X29343Y543375D01*
X29432Y543257D01*
X29518Y543136D01*
X29601Y543013D01*
X29681Y542888D01*
X29757Y542761D01*
X29830Y542631D01*
X29899Y542500D01*
X29964Y542367D01*
X30027Y542233D01*
X30085Y542096D01*
X30140Y541958D01*
X30190Y541819D01*
X30238Y541678D01*
X30281Y541537D01*
X30321Y541394D01*
X30356Y541250D01*
X30388Y541105D01*
X30416Y540959D01*
X30440Y540813D01*
X30460Y540666D01*
X30476Y540518D01*
X30488Y540371D01*
X30496Y540222D01*
X30500Y540074D01*
X30500Y539926D01*
X30496Y539778D01*
X30488Y539629D01*
X30476Y539482D01*
X30460Y539334D01*
X30440Y539187D01*
X30416Y539041D01*
X30388Y538895D01*
X30356Y538750D01*
X30321Y538606D01*
X30281Y538463D01*
X30238Y538322D01*
X30190Y538181D01*
X30140Y538042D01*
X30085Y537904D01*
X30027Y537767D01*
X29964Y537633D01*
X29899Y537500D01*
X29830Y537369D01*
X29757Y537239D01*
X29681Y537112D01*
X29601Y536987D01*
X29518Y536864D01*
X29432Y536743D01*
X29343Y536625D01*
X29250Y536509D01*
X29154Y536396D01*
X29056Y536285D01*
X28954Y536177D01*
X28850Y536072D01*
X28742Y535969D01*
X28632Y535870D01*
X28520Y535774D01*
X28404Y535680D01*
X28287Y535590D01*
X28166Y535503D01*
X28044Y535419D01*
X27919Y535339D01*
X27793Y535262D01*
X27664Y535188D01*
X27533Y535118D01*
X27401Y535052D01*
X27266Y534989D01*
X27130Y534929D01*
X26993Y534874D01*
X26854Y534822D01*
X26714Y534774D01*
X26572Y534729D01*
X26429Y534689D01*
X26286Y534652D01*
X26141Y534620D01*
X25996Y534591D01*
X25849Y534566D01*
X25703Y534545D01*
X25555Y534528D01*
X25407Y534515D01*
X25259Y534506D01*
X25111Y534501D01*
X24963Y534500D01*
X24815Y534503D01*
X24666Y534510D01*
X24519Y534521D01*
X24371Y534536D01*
X24224Y534555D01*
X24077Y534578D01*
X23932Y534605D01*
X23786Y534636D01*
X23642Y534670D01*
X23499Y534709D01*
X23357Y534751D01*
X23216Y534797D01*
X23076Y534847D01*
X22938Y534901D01*
X22801Y534959D01*
X22666Y535020D01*
X22533Y535084D01*
X22401Y535153D01*
X22271Y535225D01*
X22144Y535300D01*
X22018Y535379D01*
X21894Y535461D01*
X21773Y535546D01*
X21654Y535635D01*
X21538Y535726D01*
X21424Y535821D01*
X21312Y535919D01*
X21204Y536020D01*
X21098Y536124D01*
X20995Y536231D01*
X20895Y536340D01*
X20797Y536452D01*
X20703Y536567D01*
X20612Y536684D01*
X20524Y536803D01*
X20440Y536925D01*
X20359Y537049D01*
X20281Y537175D01*
X20206Y537304D01*
X20135Y537434D01*
X20068Y537566D01*
X20004Y537700D01*
X19944Y537835D01*
X19887Y537973D01*
X19835Y538111D01*
X19785Y538251D01*
X19740Y538392D01*
X19699Y538535D01*
X19661Y538678D01*
X19627Y538823D01*
X19598Y538968D01*
X19572Y539114D01*
X19550Y539261D01*
X19532Y539408D01*
X19518Y539556D01*
X19508Y539704D01*
X19502Y539852D01*
X19500Y540000D01*
X84500Y540000D02*
X84502Y540148D01*
X84508Y540296D01*
X84518Y540444D01*
X84532Y540592D01*
X84550Y540739D01*
X84572Y540886D01*
X84598Y541032D01*
X84627Y541177D01*
X84661Y541322D01*
X84699Y541465D01*
X84740Y541608D01*
X84785Y541749D01*
X84835Y541889D01*
X84887Y542027D01*
X84944Y542165D01*
X85004Y542300D01*
X85068Y542434D01*
X85135Y542566D01*
X85206Y542696D01*
X85281Y542825D01*
X85359Y542951D01*
X85440Y543075D01*
X85524Y543197D01*
X85612Y543316D01*
X85703Y543433D01*
X85797Y543548D01*
X85895Y543660D01*
X85995Y543769D01*
X86098Y543876D01*
X86204Y543980D01*
X86312Y544081D01*
X86424Y544179D01*
X86538Y544274D01*
X86654Y544365D01*
X86773Y544454D01*
X86894Y544539D01*
X87018Y544621D01*
X87144Y544700D01*
X87271Y544775D01*
X87401Y544847D01*
X87533Y544916D01*
X87666Y544980D01*
X87801Y545041D01*
X87938Y545099D01*
X88076Y545153D01*
X88216Y545203D01*
X88357Y545249D01*
X88499Y545291D01*
X88642Y545330D01*
X88786Y545364D01*
X88932Y545395D01*
X89077Y545422D01*
X89224Y545445D01*
X89371Y545464D01*
X89519Y545479D01*
X89666Y545490D01*
X89815Y545497D01*
X89963Y545500D01*
X90111Y545499D01*
X90259Y545494D01*
X90407Y545485D01*
X90555Y545472D01*
X90703Y545455D01*
X90849Y545434D01*
X90996Y545409D01*
X91141Y545380D01*
X91286Y545348D01*
X91429Y545311D01*
X91572Y545271D01*
X91714Y545226D01*
X91854Y545178D01*
X91993Y545126D01*
X92130Y545071D01*
X92266Y545011D01*
X92401Y544948D01*
X92533Y544882D01*
X92664Y544812D01*
X92793Y544738D01*
X92919Y544661D01*
X93044Y544581D01*
X93166Y544497D01*
X93287Y544410D01*
X93404Y544320D01*
X93520Y544226D01*
X93632Y544130D01*
X93742Y544031D01*
X93850Y543928D01*
X93954Y543823D01*
X94056Y543715D01*
X94154Y543604D01*
X94250Y543491D01*
X94343Y543375D01*
X94432Y543257D01*
X94518Y543136D01*
X94601Y543013D01*
X94681Y542888D01*
X94757Y542761D01*
X94830Y542631D01*
X94899Y542500D01*
X94964Y542367D01*
X95027Y542233D01*
X95085Y542096D01*
X95140Y541958D01*
X95190Y541819D01*
X95238Y541678D01*
X95281Y541537D01*
X95321Y541394D01*
X95356Y541250D01*
X95388Y541105D01*
X95416Y540959D01*
X95440Y540813D01*
X95460Y540666D01*
X95476Y540518D01*
X95488Y540371D01*
X95496Y540222D01*
X95500Y540074D01*
X95500Y539926D01*
X95496Y539778D01*
X95488Y539629D01*
X95476Y539482D01*
X95460Y539334D01*
X95440Y539187D01*
X95416Y539041D01*
X95388Y538895D01*
X95356Y538750D01*
X95321Y538606D01*
X95281Y538463D01*
X95238Y538322D01*
X95190Y538181D01*
X95140Y538042D01*
X95085Y537904D01*
X95027Y537767D01*
X94964Y537633D01*
X94899Y537500D01*
X94830Y537369D01*
X94757Y537239D01*
X94681Y537112D01*
X94601Y536987D01*
X94518Y536864D01*
X94432Y536743D01*
X94343Y536625D01*
X94250Y536509D01*
X94154Y536396D01*
X94056Y536285D01*
X93954Y536177D01*
X93850Y536072D01*
X93742Y535969D01*
X93632Y535870D01*
X93520Y535774D01*
X93404Y535680D01*
X93287Y535590D01*
X93166Y535503D01*
X93044Y535419D01*
X92919Y535339D01*
X92793Y535262D01*
X92664Y535188D01*
X92533Y535118D01*
X92401Y535052D01*
X92266Y534989D01*
X92130Y534929D01*
X91993Y534874D01*
X91854Y534822D01*
X91714Y534774D01*
X91572Y534729D01*
X91429Y534689D01*
X91286Y534652D01*
X91141Y534620D01*
X90996Y534591D01*
X90849Y534566D01*
X90703Y534545D01*
X90555Y534528D01*
X90407Y534515D01*
X90259Y534506D01*
X90111Y534501D01*
X89963Y534500D01*
X89815Y534503D01*
X89666Y534510D01*
X89519Y534521D01*
X89371Y534536D01*
X89224Y534555D01*
X89077Y534578D01*
X88932Y534605D01*
X88786Y534636D01*
X88642Y534670D01*
X88499Y534709D01*
X88357Y534751D01*
X88216Y534797D01*
X88076Y534847D01*
X87938Y534901D01*
X87801Y534959D01*
X87666Y535020D01*
X87533Y535084D01*
X87401Y535153D01*
X87271Y535225D01*
X87144Y535300D01*
X87018Y535379D01*
X86894Y535461D01*
X86773Y535546D01*
X86654Y535635D01*
X86538Y535726D01*
X86424Y535821D01*
X86312Y535919D01*
X86204Y536020D01*
X86098Y536124D01*
X85995Y536231D01*
X85895Y536340D01*
X85797Y536452D01*
X85703Y536567D01*
X85612Y536684D01*
X85524Y536803D01*
X85440Y536925D01*
X85359Y537049D01*
X85281Y537175D01*
X85206Y537304D01*
X85135Y537434D01*
X85068Y537566D01*
X85004Y537700D01*
X84944Y537835D01*
X84887Y537973D01*
X84835Y538111D01*
X84785Y538251D01*
X84740Y538392D01*
X84699Y538535D01*
X84661Y538678D01*
X84627Y538823D01*
X84598Y538968D01*
X84572Y539114D01*
X84550Y539261D01*
X84532Y539408D01*
X84518Y539556D01*
X84508Y539704D01*
X84502Y539852D01*
X84500Y540000D01*
X594500Y715000D02*
X594502Y715148D01*
X594508Y715296D01*
X594518Y715444D01*
X594532Y715592D01*
X594550Y715739D01*
X594572Y715886D01*
X594598Y716032D01*
X594627Y716177D01*
X594661Y716322D01*
X594699Y716465D01*
X594740Y716608D01*
X594785Y716749D01*
X594835Y716889D01*
X594887Y717027D01*
X594944Y717165D01*
X595004Y717300D01*
X595068Y717434D01*
X595135Y717566D01*
X595206Y717696D01*
X595281Y717825D01*
X595359Y717951D01*
X595440Y718075D01*
X595524Y718197D01*
X595612Y718316D01*
X595703Y718433D01*
X595797Y718548D01*
X595895Y718660D01*
X595995Y718769D01*
X596098Y718876D01*
X596204Y718980D01*
X596312Y719081D01*
X596424Y719179D01*
X596538Y719274D01*
X596654Y719365D01*
X596773Y719454D01*
X596894Y719539D01*
X597018Y719621D01*
X597144Y719700D01*
X597271Y719775D01*
X597401Y719847D01*
X597533Y719916D01*
X597666Y719980D01*
X597801Y720041D01*
X597938Y720099D01*
X598076Y720153D01*
X598216Y720203D01*
X598357Y720249D01*
X598499Y720291D01*
X598642Y720330D01*
X598786Y720364D01*
X598932Y720395D01*
X599077Y720422D01*
X599224Y720445D01*
X599371Y720464D01*
X599519Y720479D01*
X599666Y720490D01*
X599815Y720497D01*
X599963Y720500D01*
X600111Y720499D01*
X600259Y720494D01*
X600407Y720485D01*
X600555Y720472D01*
X600703Y720455D01*
X600849Y720434D01*
X600996Y720409D01*
X601141Y720380D01*
X601286Y720348D01*
X601429Y720311D01*
X601572Y720271D01*
X601714Y720226D01*
X601854Y720178D01*
X601993Y720126D01*
X602130Y720071D01*
X602266Y720011D01*
X602401Y719948D01*
X602533Y719882D01*
X602664Y719812D01*
X602793Y719738D01*
X602919Y719661D01*
X603044Y719581D01*
X603166Y719497D01*
X603287Y719410D01*
X603404Y719320D01*
X603520Y719226D01*
X603632Y719130D01*
X603742Y719031D01*
X603850Y718928D01*
X603954Y718823D01*
X604056Y718715D01*
X604154Y718604D01*
X604250Y718491D01*
X604343Y718375D01*
X604432Y718257D01*
X604518Y718136D01*
X604601Y718013D01*
X604681Y717888D01*
X604757Y717761D01*
X604830Y717631D01*
X604899Y717500D01*
X604964Y717367D01*
X605027Y717233D01*
X605085Y717096D01*
X605140Y716958D01*
X605190Y716819D01*
X605238Y716678D01*
X605281Y716537D01*
X605321Y716394D01*
X605356Y716250D01*
X605388Y716105D01*
X605416Y715959D01*
X605440Y715813D01*
X605460Y715666D01*
X605476Y715518D01*
X605488Y715371D01*
X605496Y715222D01*
X605500Y715074D01*
X605500Y714926D01*
X605496Y714778D01*
X605488Y714629D01*
X605476Y714482D01*
X605460Y714334D01*
X605440Y714187D01*
X605416Y714041D01*
X605388Y713895D01*
X605356Y713750D01*
X605321Y713606D01*
X605281Y713463D01*
X605238Y713322D01*
X605190Y713181D01*
X605140Y713042D01*
X605085Y712904D01*
X605027Y712767D01*
X604964Y712633D01*
X604899Y712500D01*
X604830Y712369D01*
X604757Y712239D01*
X604681Y712112D01*
X604601Y711987D01*
X604518Y711864D01*
X604432Y711743D01*
X604343Y711625D01*
X604250Y711509D01*
X604154Y711396D01*
X604056Y711285D01*
X603954Y711177D01*
X603850Y711072D01*
X603742Y710969D01*
X603632Y710870D01*
X603520Y710774D01*
X603404Y710680D01*
X603287Y710590D01*
X603166Y710503D01*
X603044Y710419D01*
X602919Y710339D01*
X602793Y710262D01*
X602664Y710188D01*
X602533Y710118D01*
X602401Y710052D01*
X602266Y709989D01*
X602130Y709929D01*
X601993Y709874D01*
X601854Y709822D01*
X601714Y709774D01*
X601572Y709729D01*
X601429Y709689D01*
X601286Y709652D01*
X601141Y709620D01*
X600996Y709591D01*
X600849Y709566D01*
X600703Y709545D01*
X600555Y709528D01*
X600407Y709515D01*
X600259Y709506D01*
X600111Y709501D01*
X599963Y709500D01*
X599815Y709503D01*
X599666Y709510D01*
X599519Y709521D01*
X599371Y709536D01*
X599224Y709555D01*
X599077Y709578D01*
X598932Y709605D01*
X598786Y709636D01*
X598642Y709670D01*
X598499Y709709D01*
X598357Y709751D01*
X598216Y709797D01*
X598076Y709847D01*
X597938Y709901D01*
X597801Y709959D01*
X597666Y710020D01*
X597533Y710084D01*
X597401Y710153D01*
X597271Y710225D01*
X597144Y710300D01*
X597018Y710379D01*
X596894Y710461D01*
X596773Y710546D01*
X596654Y710635D01*
X596538Y710726D01*
X596424Y710821D01*
X596312Y710919D01*
X596204Y711020D01*
X596098Y711124D01*
X595995Y711231D01*
X595895Y711340D01*
X595797Y711452D01*
X595703Y711567D01*
X595612Y711684D01*
X595524Y711803D01*
X595440Y711925D01*
X595359Y712049D01*
X595281Y712175D01*
X595206Y712304D01*
X595135Y712434D01*
X595068Y712566D01*
X595004Y712700D01*
X594944Y712835D01*
X594887Y712973D01*
X594835Y713111D01*
X594785Y713251D01*
X594740Y713392D01*
X594699Y713535D01*
X594661Y713678D01*
X594627Y713823D01*
X594598Y713968D01*
X594572Y714114D01*
X594550Y714261D01*
X594532Y714408D01*
X594518Y714556D01*
X594508Y714704D01*
X594502Y714852D01*
X594500Y715000D01*
X594500Y650000D02*
X594502Y650148D01*
X594508Y650296D01*
X594518Y650444D01*
X594532Y650592D01*
X594550Y650739D01*
X594572Y650886D01*
X594598Y651032D01*
X594627Y651177D01*
X594661Y651322D01*
X594699Y651465D01*
X594740Y651608D01*
X594785Y651749D01*
X594835Y651889D01*
X594887Y652027D01*
X594944Y652165D01*
X595004Y652300D01*
X595068Y652434D01*
X595135Y652566D01*
X595206Y652696D01*
X595281Y652825D01*
X595359Y652951D01*
X595440Y653075D01*
X595524Y653197D01*
X595612Y653316D01*
X595703Y653433D01*
X595797Y653548D01*
X595895Y653660D01*
X595995Y653769D01*
X596098Y653876D01*
X596204Y653980D01*
X596312Y654081D01*
X596424Y654179D01*
X596538Y654274D01*
X596654Y654365D01*
X596773Y654454D01*
X596894Y654539D01*
X597018Y654621D01*
X597144Y654700D01*
X597271Y654775D01*
X597401Y654847D01*
X597533Y654916D01*
X597666Y654980D01*
X597801Y655041D01*
X597938Y655099D01*
X598076Y655153D01*
X598216Y655203D01*
X598357Y655249D01*
X598499Y655291D01*
X598642Y655330D01*
X598786Y655364D01*
X598932Y655395D01*
X599077Y655422D01*
X599224Y655445D01*
X599371Y655464D01*
X599519Y655479D01*
X599666Y655490D01*
X599815Y655497D01*
X599963Y655500D01*
X600111Y655499D01*
X600259Y655494D01*
X600407Y655485D01*
X600555Y655472D01*
X600703Y655455D01*
X600849Y655434D01*
X600996Y655409D01*
X601141Y655380D01*
X601286Y655348D01*
X601429Y655311D01*
X601572Y655271D01*
X601714Y655226D01*
X601854Y655178D01*
X601993Y655126D01*
X602130Y655071D01*
X602266Y655011D01*
X602401Y654948D01*
X602533Y654882D01*
X602664Y654812D01*
X602793Y654738D01*
X602919Y654661D01*
X603044Y654581D01*
X603166Y654497D01*
X603287Y654410D01*
X603404Y654320D01*
X603520Y654226D01*
X603632Y654130D01*
X603742Y654031D01*
X603850Y653928D01*
X603954Y653823D01*
X604056Y653715D01*
X604154Y653604D01*
X604250Y653491D01*
X604343Y653375D01*
X604432Y653257D01*
X604518Y653136D01*
X604601Y653013D01*
X604681Y652888D01*
X604757Y652761D01*
X604830Y652631D01*
X604899Y652500D01*
X604964Y652367D01*
X605027Y652233D01*
X605085Y652096D01*
X605140Y651958D01*
X605190Y651819D01*
X605238Y651678D01*
X605281Y651537D01*
X605321Y651394D01*
X605356Y651250D01*
X605388Y651105D01*
X605416Y650959D01*
X605440Y650813D01*
X605460Y650666D01*
X605476Y650518D01*
X605488Y650371D01*
X605496Y650222D01*
X605500Y650074D01*
X605500Y649926D01*
X605496Y649778D01*
X605488Y649629D01*
X605476Y649482D01*
X605460Y649334D01*
X605440Y649187D01*
X605416Y649041D01*
X605388Y648895D01*
X605356Y648750D01*
X605321Y648606D01*
X605281Y648463D01*
X605238Y648322D01*
X605190Y648181D01*
X605140Y648042D01*
X605085Y647904D01*
X605027Y647767D01*
X604964Y647633D01*
X604899Y647500D01*
X604830Y647369D01*
X604757Y647239D01*
X604681Y647112D01*
X604601Y646987D01*
X604518Y646864D01*
X604432Y646743D01*
X604343Y646625D01*
X604250Y646509D01*
X604154Y646396D01*
X604056Y646285D01*
X603954Y646177D01*
X603850Y646072D01*
X603742Y645969D01*
X603632Y645870D01*
X603520Y645774D01*
X603404Y645680D01*
X603287Y645590D01*
X603166Y645503D01*
X603044Y645419D01*
X602919Y645339D01*
X602793Y645262D01*
X602664Y645188D01*
X602533Y645118D01*
X602401Y645052D01*
X602266Y644989D01*
X602130Y644929D01*
X601993Y644874D01*
X601854Y644822D01*
X601714Y644774D01*
X601572Y644729D01*
X601429Y644689D01*
X601286Y644652D01*
X601141Y644620D01*
X600996Y644591D01*
X600849Y644566D01*
X600703Y644545D01*
X600555Y644528D01*
X600407Y644515D01*
X600259Y644506D01*
X600111Y644501D01*
X599963Y644500D01*
X599815Y644503D01*
X599666Y644510D01*
X599519Y644521D01*
X599371Y644536D01*
X599224Y644555D01*
X599077Y644578D01*
X598932Y644605D01*
X598786Y644636D01*
X598642Y644670D01*
X598499Y644709D01*
X598357Y644751D01*
X598216Y644797D01*
X598076Y644847D01*
X597938Y644901D01*
X597801Y644959D01*
X597666Y645020D01*
X597533Y645084D01*
X597401Y645153D01*
X597271Y645225D01*
X597144Y645300D01*
X597018Y645379D01*
X596894Y645461D01*
X596773Y645546D01*
X596654Y645635D01*
X596538Y645726D01*
X596424Y645821D01*
X596312Y645919D01*
X596204Y646020D01*
X596098Y646124D01*
X595995Y646231D01*
X595895Y646340D01*
X595797Y646452D01*
X595703Y646567D01*
X595612Y646684D01*
X595524Y646803D01*
X595440Y646925D01*
X595359Y647049D01*
X595281Y647175D01*
X595206Y647304D01*
X595135Y647434D01*
X595068Y647566D01*
X595004Y647700D01*
X594944Y647835D01*
X594887Y647973D01*
X594835Y648111D01*
X594785Y648251D01*
X594740Y648392D01*
X594699Y648535D01*
X594661Y648678D01*
X594627Y648823D01*
X594598Y648968D01*
X594572Y649114D01*
X594550Y649261D01*
X594532Y649408D01*
X594518Y649556D01*
X594508Y649704D01*
X594502Y649852D01*
X594500Y650000D01*
X19500Y420000D02*
X19502Y420148D01*
X19508Y420296D01*
X19518Y420444D01*
X19532Y420592D01*
X19550Y420739D01*
X19572Y420886D01*
X19598Y421032D01*
X19627Y421177D01*
X19661Y421322D01*
X19699Y421465D01*
X19740Y421608D01*
X19785Y421749D01*
X19835Y421889D01*
X19887Y422027D01*
X19944Y422165D01*
X20004Y422300D01*
X20068Y422434D01*
X20135Y422566D01*
X20206Y422696D01*
X20281Y422825D01*
X20359Y422951D01*
X20440Y423075D01*
X20524Y423197D01*
X20612Y423316D01*
X20703Y423433D01*
X20797Y423548D01*
X20895Y423660D01*
X20995Y423769D01*
X21098Y423876D01*
X21204Y423980D01*
X21312Y424081D01*
X21424Y424179D01*
X21538Y424274D01*
X21654Y424365D01*
X21773Y424454D01*
X21894Y424539D01*
X22018Y424621D01*
X22144Y424700D01*
X22271Y424775D01*
X22401Y424847D01*
X22533Y424916D01*
X22666Y424980D01*
X22801Y425041D01*
X22938Y425099D01*
X23076Y425153D01*
X23216Y425203D01*
X23357Y425249D01*
X23499Y425291D01*
X23642Y425330D01*
X23786Y425364D01*
X23932Y425395D01*
X24077Y425422D01*
X24224Y425445D01*
X24371Y425464D01*
X24519Y425479D01*
X24666Y425490D01*
X24815Y425497D01*
X24963Y425500D01*
X25111Y425499D01*
X25259Y425494D01*
X25407Y425485D01*
X25555Y425472D01*
X25703Y425455D01*
X25849Y425434D01*
X25996Y425409D01*
X26141Y425380D01*
X26286Y425348D01*
X26429Y425311D01*
X26572Y425271D01*
X26714Y425226D01*
X26854Y425178D01*
X26993Y425126D01*
X27130Y425071D01*
X27266Y425011D01*
X27401Y424948D01*
X27533Y424882D01*
X27664Y424812D01*
X27793Y424738D01*
X27919Y424661D01*
X28044Y424581D01*
X28166Y424497D01*
X28287Y424410D01*
X28404Y424320D01*
X28520Y424226D01*
X28632Y424130D01*
X28742Y424031D01*
X28850Y423928D01*
X28954Y423823D01*
X29056Y423715D01*
X29154Y423604D01*
X29250Y423491D01*
X29343Y423375D01*
X29432Y423257D01*
X29518Y423136D01*
X29601Y423013D01*
X29681Y422888D01*
X29757Y422761D01*
X29830Y422631D01*
X29899Y422500D01*
X29964Y422367D01*
X30027Y422233D01*
X30085Y422096D01*
X30140Y421958D01*
X30190Y421819D01*
X30238Y421678D01*
X30281Y421537D01*
X30321Y421394D01*
X30356Y421250D01*
X30388Y421105D01*
X30416Y420959D01*
X30440Y420813D01*
X30460Y420666D01*
X30476Y420518D01*
X30488Y420371D01*
X30496Y420222D01*
X30500Y420074D01*
X30500Y419926D01*
X30496Y419778D01*
X30488Y419629D01*
X30476Y419482D01*
X30460Y419334D01*
X30440Y419187D01*
X30416Y419041D01*
X30388Y418895D01*
X30356Y418750D01*
X30321Y418606D01*
X30281Y418463D01*
X30238Y418322D01*
X30190Y418181D01*
X30140Y418042D01*
X30085Y417904D01*
X30027Y417767D01*
X29964Y417633D01*
X29899Y417500D01*
X29830Y417369D01*
X29757Y417239D01*
X29681Y417112D01*
X29601Y416987D01*
X29518Y416864D01*
X29432Y416743D01*
X29343Y416625D01*
X29250Y416509D01*
X29154Y416396D01*
X29056Y416285D01*
X28954Y416177D01*
X28850Y416072D01*
X28742Y415969D01*
X28632Y415870D01*
X28520Y415774D01*
X28404Y415680D01*
X28287Y415590D01*
X28166Y415503D01*
X28044Y415419D01*
X27919Y415339D01*
X27793Y415262D01*
X27664Y415188D01*
X27533Y415118D01*
X27401Y415052D01*
X27266Y414989D01*
X27130Y414929D01*
X26993Y414874D01*
X26854Y414822D01*
X26714Y414774D01*
X26572Y414729D01*
X26429Y414689D01*
X26286Y414652D01*
X26141Y414620D01*
X25996Y414591D01*
X25849Y414566D01*
X25703Y414545D01*
X25555Y414528D01*
X25407Y414515D01*
X25259Y414506D01*
X25111Y414501D01*
X24963Y414500D01*
X24815Y414503D01*
X24666Y414510D01*
X24519Y414521D01*
X24371Y414536D01*
X24224Y414555D01*
X24077Y414578D01*
X23932Y414605D01*
X23786Y414636D01*
X23642Y414670D01*
X23499Y414709D01*
X23357Y414751D01*
X23216Y414797D01*
X23076Y414847D01*
X22938Y414901D01*
X22801Y414959D01*
X22666Y415020D01*
X22533Y415084D01*
X22401Y415153D01*
X22271Y415225D01*
X22144Y415300D01*
X22018Y415379D01*
X21894Y415461D01*
X21773Y415546D01*
X21654Y415635D01*
X21538Y415726D01*
X21424Y415821D01*
X21312Y415919D01*
X21204Y416020D01*
X21098Y416124D01*
X20995Y416231D01*
X20895Y416340D01*
X20797Y416452D01*
X20703Y416567D01*
X20612Y416684D01*
X20524Y416803D01*
X20440Y416925D01*
X20359Y417049D01*
X20281Y417175D01*
X20206Y417304D01*
X20135Y417434D01*
X20068Y417566D01*
X20004Y417700D01*
X19944Y417835D01*
X19887Y417973D01*
X19835Y418111D01*
X19785Y418251D01*
X19740Y418392D01*
X19699Y418535D01*
X19661Y418678D01*
X19627Y418823D01*
X19598Y418968D01*
X19572Y419114D01*
X19550Y419261D01*
X19532Y419408D01*
X19518Y419556D01*
X19508Y419704D01*
X19502Y419852D01*
X19500Y420000D01*
X84500Y420000D02*
X84502Y420148D01*
X84508Y420296D01*
X84518Y420444D01*
X84532Y420592D01*
X84550Y420739D01*
X84572Y420886D01*
X84598Y421032D01*
X84627Y421177D01*
X84661Y421322D01*
X84699Y421465D01*
X84740Y421608D01*
X84785Y421749D01*
X84835Y421889D01*
X84887Y422027D01*
X84944Y422165D01*
X85004Y422300D01*
X85068Y422434D01*
X85135Y422566D01*
X85206Y422696D01*
X85281Y422825D01*
X85359Y422951D01*
X85440Y423075D01*
X85524Y423197D01*
X85612Y423316D01*
X85703Y423433D01*
X85797Y423548D01*
X85895Y423660D01*
X85995Y423769D01*
X86098Y423876D01*
X86204Y423980D01*
X86312Y424081D01*
X86424Y424179D01*
X86538Y424274D01*
X86654Y424365D01*
X86773Y424454D01*
X86894Y424539D01*
X87018Y424621D01*
X87144Y424700D01*
X87271Y424775D01*
X87401Y424847D01*
X87533Y424916D01*
X87666Y424980D01*
X87801Y425041D01*
X87938Y425099D01*
X88076Y425153D01*
X88216Y425203D01*
X88357Y425249D01*
X88499Y425291D01*
X88642Y425330D01*
X88786Y425364D01*
X88932Y425395D01*
X89077Y425422D01*
X89224Y425445D01*
X89371Y425464D01*
X89519Y425479D01*
X89666Y425490D01*
X89815Y425497D01*
X89963Y425500D01*
X90111Y425499D01*
X90259Y425494D01*
X90407Y425485D01*
X90555Y425472D01*
X90703Y425455D01*
X90849Y425434D01*
X90996Y425409D01*
X91141Y425380D01*
X91286Y425348D01*
X91429Y425311D01*
X91572Y425271D01*
X91714Y425226D01*
X91854Y425178D01*
X91993Y425126D01*
X92130Y425071D01*
X92266Y425011D01*
X92401Y424948D01*
X92533Y424882D01*
X92664Y424812D01*
X92793Y424738D01*
X92919Y424661D01*
X93044Y424581D01*
X93166Y424497D01*
X93287Y424410D01*
X93404Y424320D01*
X93520Y424226D01*
X93632Y424130D01*
X93742Y424031D01*
X93850Y423928D01*
X93954Y423823D01*
X94056Y423715D01*
X94154Y423604D01*
X94250Y423491D01*
X94343Y423375D01*
X94432Y423257D01*
X94518Y423136D01*
X94601Y423013D01*
X94681Y422888D01*
X94757Y422761D01*
X94830Y422631D01*
X94899Y422500D01*
X94964Y422367D01*
X95027Y422233D01*
X95085Y422096D01*
X95140Y421958D01*
X95190Y421819D01*
X95238Y421678D01*
X95281Y421537D01*
X95321Y421394D01*
X95356Y421250D01*
X95388Y421105D01*
X95416Y420959D01*
X95440Y420813D01*
X95460Y420666D01*
X95476Y420518D01*
X95488Y420371D01*
X95496Y420222D01*
X95500Y420074D01*
X95500Y419926D01*
X95496Y419778D01*
X95488Y419629D01*
X95476Y419482D01*
X95460Y419334D01*
X95440Y419187D01*
X95416Y419041D01*
X95388Y418895D01*
X95356Y418750D01*
X95321Y418606D01*
X95281Y418463D01*
X95238Y418322D01*
X95190Y418181D01*
X95140Y418042D01*
X95085Y417904D01*
X95027Y417767D01*
X94964Y417633D01*
X94899Y417500D01*
X94830Y417369D01*
X94757Y417239D01*
X94681Y417112D01*
X94601Y416987D01*
X94518Y416864D01*
X94432Y416743D01*
X94343Y416625D01*
X94250Y416509D01*
X94154Y416396D01*
X94056Y416285D01*
X93954Y416177D01*
X93850Y416072D01*
X93742Y415969D01*
X93632Y415870D01*
X93520Y415774D01*
X93404Y415680D01*
X93287Y415590D01*
X93166Y415503D01*
X93044Y415419D01*
X92919Y415339D01*
X92793Y415262D01*
X92664Y415188D01*
X92533Y415118D01*
X92401Y415052D01*
X92266Y414989D01*
X92130Y414929D01*
X91993Y414874D01*
X91854Y414822D01*
X91714Y414774D01*
X91572Y414729D01*
X91429Y414689D01*
X91286Y414652D01*
X91141Y414620D01*
X90996Y414591D01*
X90849Y414566D01*
X90703Y414545D01*
X90555Y414528D01*
X90407Y414515D01*
X90259Y414506D01*
X90111Y414501D01*
X89963Y414500D01*
X89815Y414503D01*
X89666Y414510D01*
X89519Y414521D01*
X89371Y414536D01*
X89224Y414555D01*
X89077Y414578D01*
X88932Y414605D01*
X88786Y414636D01*
X88642Y414670D01*
X88499Y414709D01*
X88357Y414751D01*
X88216Y414797D01*
X88076Y414847D01*
X87938Y414901D01*
X87801Y414959D01*
X87666Y415020D01*
X87533Y415084D01*
X87401Y415153D01*
X87271Y415225D01*
X87144Y415300D01*
X87018Y415379D01*
X86894Y415461D01*
X86773Y415546D01*
X86654Y415635D01*
X86538Y415726D01*
X86424Y415821D01*
X86312Y415919D01*
X86204Y416020D01*
X86098Y416124D01*
X85995Y416231D01*
X85895Y416340D01*
X85797Y416452D01*
X85703Y416567D01*
X85612Y416684D01*
X85524Y416803D01*
X85440Y416925D01*
X85359Y417049D01*
X85281Y417175D01*
X85206Y417304D01*
X85135Y417434D01*
X85068Y417566D01*
X85004Y417700D01*
X84944Y417835D01*
X84887Y417973D01*
X84835Y418111D01*
X84785Y418251D01*
X84740Y418392D01*
X84699Y418535D01*
X84661Y418678D01*
X84627Y418823D01*
X84598Y418968D01*
X84572Y419114D01*
X84550Y419261D01*
X84532Y419408D01*
X84518Y419556D01*
X84508Y419704D01*
X84502Y419852D01*
X84500Y420000D01*
X19500Y300000D02*
X19502Y300148D01*
X19508Y300296D01*
X19518Y300444D01*
X19532Y300592D01*
X19550Y300739D01*
X19572Y300886D01*
X19598Y301032D01*
X19627Y301177D01*
X19661Y301322D01*
X19699Y301465D01*
X19740Y301608D01*
X19785Y301749D01*
X19835Y301889D01*
X19887Y302027D01*
X19944Y302165D01*
X20004Y302300D01*
X20068Y302434D01*
X20135Y302566D01*
X20206Y302696D01*
X20281Y302825D01*
X20359Y302951D01*
X20440Y303075D01*
X20524Y303197D01*
X20612Y303316D01*
X20703Y303433D01*
X20797Y303548D01*
X20895Y303660D01*
X20995Y303769D01*
X21098Y303876D01*
X21204Y303980D01*
X21312Y304081D01*
X21424Y304179D01*
X21538Y304274D01*
X21654Y304365D01*
X21773Y304454D01*
X21894Y304539D01*
X22018Y304621D01*
X22144Y304700D01*
X22271Y304775D01*
X22401Y304847D01*
X22533Y304916D01*
X22666Y304980D01*
X22801Y305041D01*
X22938Y305099D01*
X23076Y305153D01*
X23216Y305203D01*
X23357Y305249D01*
X23499Y305291D01*
X23642Y305330D01*
X23786Y305364D01*
X23932Y305395D01*
X24077Y305422D01*
X24224Y305445D01*
X24371Y305464D01*
X24519Y305479D01*
X24666Y305490D01*
X24815Y305497D01*
X24963Y305500D01*
X25111Y305499D01*
X25259Y305494D01*
X25407Y305485D01*
X25555Y305472D01*
X25703Y305455D01*
X25849Y305434D01*
X25996Y305409D01*
X26141Y305380D01*
X26286Y305348D01*
X26429Y305311D01*
X26572Y305271D01*
X26714Y305226D01*
X26854Y305178D01*
X26993Y305126D01*
X27130Y305071D01*
X27266Y305011D01*
X27401Y304948D01*
X27533Y304882D01*
X27664Y304812D01*
X27793Y304738D01*
X27919Y304661D01*
X28044Y304581D01*
X28166Y304497D01*
X28287Y304410D01*
X28404Y304320D01*
X28520Y304226D01*
X28632Y304130D01*
X28742Y304031D01*
X28850Y303928D01*
X28954Y303823D01*
X29056Y303715D01*
X29154Y303604D01*
X29250Y303491D01*
X29343Y303375D01*
X29432Y303257D01*
X29518Y303136D01*
X29601Y303013D01*
X29681Y302888D01*
X29757Y302761D01*
X29830Y302631D01*
X29899Y302500D01*
X29964Y302367D01*
X30027Y302233D01*
X30085Y302096D01*
X30140Y301958D01*
X30190Y301819D01*
X30238Y301678D01*
X30281Y301537D01*
X30321Y301394D01*
X30356Y301250D01*
X30388Y301105D01*
X30416Y300959D01*
X30440Y300813D01*
X30460Y300666D01*
X30476Y300518D01*
X30488Y300371D01*
X30496Y300222D01*
X30500Y300074D01*
X30500Y299926D01*
X30496Y299778D01*
X30488Y299629D01*
X30476Y299482D01*
X30460Y299334D01*
X30440Y299187D01*
X30416Y299041D01*
X30388Y298895D01*
X30356Y298750D01*
X30321Y298606D01*
X30281Y298463D01*
X30238Y298322D01*
X30190Y298181D01*
X30140Y298042D01*
X30085Y297904D01*
X30027Y297767D01*
X29964Y297633D01*
X29899Y297500D01*
X29830Y297369D01*
X29757Y297239D01*
X29681Y297112D01*
X29601Y296987D01*
X29518Y296864D01*
X29432Y296743D01*
X29343Y296625D01*
X29250Y296509D01*
X29154Y296396D01*
X29056Y296285D01*
X28954Y296177D01*
X28850Y296072D01*
X28742Y295969D01*
X28632Y295870D01*
X28520Y295774D01*
X28404Y295680D01*
X28287Y295590D01*
X28166Y295503D01*
X28044Y295419D01*
X27919Y295339D01*
X27793Y295262D01*
X27664Y295188D01*
X27533Y295118D01*
X27401Y295052D01*
X27266Y294989D01*
X27130Y294929D01*
X26993Y294874D01*
X26854Y294822D01*
X26714Y294774D01*
X26572Y294729D01*
X26429Y294689D01*
X26286Y294652D01*
X26141Y294620D01*
X25996Y294591D01*
X25849Y294566D01*
X25703Y294545D01*
X25555Y294528D01*
X25407Y294515D01*
X25259Y294506D01*
X25111Y294501D01*
X24963Y294500D01*
X24815Y294503D01*
X24666Y294510D01*
X24519Y294521D01*
X24371Y294536D01*
X24224Y294555D01*
X24077Y294578D01*
X23932Y294605D01*
X23786Y294636D01*
X23642Y294670D01*
X23499Y294709D01*
X23357Y294751D01*
X23216Y294797D01*
X23076Y294847D01*
X22938Y294901D01*
X22801Y294959D01*
X22666Y295020D01*
X22533Y295084D01*
X22401Y295153D01*
X22271Y295225D01*
X22144Y295300D01*
X22018Y295379D01*
X21894Y295461D01*
X21773Y295546D01*
X21654Y295635D01*
X21538Y295726D01*
X21424Y295821D01*
X21312Y295919D01*
X21204Y296020D01*
X21098Y296124D01*
X20995Y296231D01*
X20895Y296340D01*
X20797Y296452D01*
X20703Y296567D01*
X20612Y296684D01*
X20524Y296803D01*
X20440Y296925D01*
X20359Y297049D01*
X20281Y297175D01*
X20206Y297304D01*
X20135Y297434D01*
X20068Y297566D01*
X20004Y297700D01*
X19944Y297835D01*
X19887Y297973D01*
X19835Y298111D01*
X19785Y298251D01*
X19740Y298392D01*
X19699Y298535D01*
X19661Y298678D01*
X19627Y298823D01*
X19598Y298968D01*
X19572Y299114D01*
X19550Y299261D01*
X19532Y299408D01*
X19518Y299556D01*
X19508Y299704D01*
X19502Y299852D01*
X19500Y300000D01*
X84500Y300000D02*
X84502Y300148D01*
X84508Y300296D01*
X84518Y300444D01*
X84532Y300592D01*
X84550Y300739D01*
X84572Y300886D01*
X84598Y301032D01*
X84627Y301177D01*
X84661Y301322D01*
X84699Y301465D01*
X84740Y301608D01*
X84785Y301749D01*
X84835Y301889D01*
X84887Y302027D01*
X84944Y302165D01*
X85004Y302300D01*
X85068Y302434D01*
X85135Y302566D01*
X85206Y302696D01*
X85281Y302825D01*
X85359Y302951D01*
X85440Y303075D01*
X85524Y303197D01*
X85612Y303316D01*
X85703Y303433D01*
X85797Y303548D01*
X85895Y303660D01*
X85995Y303769D01*
X86098Y303876D01*
X86204Y303980D01*
X86312Y304081D01*
X86424Y304179D01*
X86538Y304274D01*
X86654Y304365D01*
X86773Y304454D01*
X86894Y304539D01*
X87018Y304621D01*
X87144Y304700D01*
X87271Y304775D01*
X87401Y304847D01*
X87533Y304916D01*
X87666Y304980D01*
X87801Y305041D01*
X87938Y305099D01*
X88076Y305153D01*
X88216Y305203D01*
X88357Y305249D01*
X88499Y305291D01*
X88642Y305330D01*
X88786Y305364D01*
X88932Y305395D01*
X89077Y305422D01*
X89224Y305445D01*
X89371Y305464D01*
X89519Y305479D01*
X89666Y305490D01*
X89815Y305497D01*
X89963Y305500D01*
X90111Y305499D01*
X90259Y305494D01*
X90407Y305485D01*
X90555Y305472D01*
X90703Y305455D01*
X90849Y305434D01*
X90996Y305409D01*
X91141Y305380D01*
X91286Y305348D01*
X91429Y305311D01*
X91572Y305271D01*
X91714Y305226D01*
X91854Y305178D01*
X91993Y305126D01*
X92130Y305071D01*
X92266Y305011D01*
X92401Y304948D01*
X92533Y304882D01*
X92664Y304812D01*
X92793Y304738D01*
X92919Y304661D01*
X93044Y304581D01*
X93166Y304497D01*
X93287Y304410D01*
X93404Y304320D01*
X93520Y304226D01*
X93632Y304130D01*
X93742Y304031D01*
X93850Y303928D01*
X93954Y303823D01*
X94056Y303715D01*
X94154Y303604D01*
X94250Y303491D01*
X94343Y303375D01*
X94432Y303257D01*
X94518Y303136D01*
X94601Y303013D01*
X94681Y302888D01*
X94757Y302761D01*
X94830Y302631D01*
X94899Y302500D01*
X94964Y302367D01*
X95027Y302233D01*
X95085Y302096D01*
X95140Y301958D01*
X95190Y301819D01*
X95238Y301678D01*
X95281Y301537D01*
X95321Y301394D01*
X95356Y301250D01*
X95388Y301105D01*
X95416Y300959D01*
X95440Y300813D01*
X95460Y300666D01*
X95476Y300518D01*
X95488Y300371D01*
X95496Y300222D01*
X95500Y300074D01*
X95500Y299926D01*
X95496Y299778D01*
X95488Y299629D01*
X95476Y299482D01*
X95460Y299334D01*
X95440Y299187D01*
X95416Y299041D01*
X95388Y298895D01*
X95356Y298750D01*
X95321Y298606D01*
X95281Y298463D01*
X95238Y298322D01*
X95190Y298181D01*
X95140Y298042D01*
X95085Y297904D01*
X95027Y297767D01*
X94964Y297633D01*
X94899Y297500D01*
X94830Y297369D01*
X94757Y297239D01*
X94681Y297112D01*
X94601Y296987D01*
X94518Y296864D01*
X94432Y296743D01*
X94343Y296625D01*
X94250Y296509D01*
X94154Y296396D01*
X94056Y296285D01*
X93954Y296177D01*
X93850Y296072D01*
X93742Y295969D01*
X93632Y295870D01*
X93520Y295774D01*
X93404Y295680D01*
X93287Y295590D01*
X93166Y295503D01*
X93044Y295419D01*
X92919Y295339D01*
X92793Y295262D01*
X92664Y295188D01*
X92533Y295118D01*
X92401Y295052D01*
X92266Y294989D01*
X92130Y294929D01*
X91993Y294874D01*
X91854Y294822D01*
X91714Y294774D01*
X91572Y294729D01*
X91429Y294689D01*
X91286Y294652D01*
X91141Y294620D01*
X90996Y294591D01*
X90849Y294566D01*
X90703Y294545D01*
X90555Y294528D01*
X90407Y294515D01*
X90259Y294506D01*
X90111Y294501D01*
X89963Y294500D01*
X89815Y294503D01*
X89666Y294510D01*
X89519Y294521D01*
X89371Y294536D01*
X89224Y294555D01*
X89077Y294578D01*
X88932Y294605D01*
X88786Y294636D01*
X88642Y294670D01*
X88499Y294709D01*
X88357Y294751D01*
X88216Y294797D01*
X88076Y294847D01*
X87938Y294901D01*
X87801Y294959D01*
X87666Y295020D01*
X87533Y295084D01*
X87401Y295153D01*
X87271Y295225D01*
X87144Y295300D01*
X87018Y295379D01*
X86894Y295461D01*
X86773Y295546D01*
X86654Y295635D01*
X86538Y295726D01*
X86424Y295821D01*
X86312Y295919D01*
X86204Y296020D01*
X86098Y296124D01*
X85995Y296231D01*
X85895Y296340D01*
X85797Y296452D01*
X85703Y296567D01*
X85612Y296684D01*
X85524Y296803D01*
X85440Y296925D01*
X85359Y297049D01*
X85281Y297175D01*
X85206Y297304D01*
X85135Y297434D01*
X85068Y297566D01*
X85004Y297700D01*
X84944Y297835D01*
X84887Y297973D01*
X84835Y298111D01*
X84785Y298251D01*
X84740Y298392D01*
X84699Y298535D01*
X84661Y298678D01*
X84627Y298823D01*
X84598Y298968D01*
X84572Y299114D01*
X84550Y299261D01*
X84532Y299408D01*
X84518Y299556D01*
X84508Y299704D01*
X84502Y299852D01*
X84500Y300000D01*
X474500Y715000D02*
X474502Y715148D01*
X474508Y715296D01*
X474518Y715444D01*
X474532Y715592D01*
X474550Y715739D01*
X474572Y715886D01*
X474598Y716032D01*
X474627Y716177D01*
X474661Y716322D01*
X474699Y716465D01*
X474740Y716608D01*
X474785Y716749D01*
X474835Y716889D01*
X474887Y717027D01*
X474944Y717165D01*
X475004Y717300D01*
X475068Y717434D01*
X475135Y717566D01*
X475206Y717696D01*
X475281Y717825D01*
X475359Y717951D01*
X475440Y718075D01*
X475524Y718197D01*
X475612Y718316D01*
X475703Y718433D01*
X475797Y718548D01*
X475895Y718660D01*
X475995Y718769D01*
X476098Y718876D01*
X476204Y718980D01*
X476312Y719081D01*
X476424Y719179D01*
X476538Y719274D01*
X476654Y719365D01*
X476773Y719454D01*
X476894Y719539D01*
X477018Y719621D01*
X477144Y719700D01*
X477271Y719775D01*
X477401Y719847D01*
X477533Y719916D01*
X477666Y719980D01*
X477801Y720041D01*
X477938Y720099D01*
X478076Y720153D01*
X478216Y720203D01*
X478357Y720249D01*
X478499Y720291D01*
X478642Y720330D01*
X478786Y720364D01*
X478932Y720395D01*
X479077Y720422D01*
X479224Y720445D01*
X479371Y720464D01*
X479519Y720479D01*
X479666Y720490D01*
X479815Y720497D01*
X479963Y720500D01*
X480111Y720499D01*
X480259Y720494D01*
X480407Y720485D01*
X480555Y720472D01*
X480703Y720455D01*
X480849Y720434D01*
X480996Y720409D01*
X481141Y720380D01*
X481286Y720348D01*
X481429Y720311D01*
X481572Y720271D01*
X481714Y720226D01*
X481854Y720178D01*
X481993Y720126D01*
X482130Y720071D01*
X482266Y720011D01*
X482401Y719948D01*
X482533Y719882D01*
X482664Y719812D01*
X482793Y719738D01*
X482919Y719661D01*
X483044Y719581D01*
X483166Y719497D01*
X483287Y719410D01*
X483404Y719320D01*
X483520Y719226D01*
X483632Y719130D01*
X483742Y719031D01*
X483850Y718928D01*
X483954Y718823D01*
X484056Y718715D01*
X484154Y718604D01*
X484250Y718491D01*
X484343Y718375D01*
X484432Y718257D01*
X484518Y718136D01*
X484601Y718013D01*
X484681Y717888D01*
X484757Y717761D01*
X484830Y717631D01*
X484899Y717500D01*
X484964Y717367D01*
X485027Y717233D01*
X485085Y717096D01*
X485140Y716958D01*
X485190Y716819D01*
X485238Y716678D01*
X485281Y716537D01*
X485321Y716394D01*
X485356Y716250D01*
X485388Y716105D01*
X485416Y715959D01*
X485440Y715813D01*
X485460Y715666D01*
X485476Y715518D01*
X485488Y715371D01*
X485496Y715222D01*
X485500Y715074D01*
X485500Y714926D01*
X485496Y714778D01*
X485488Y714629D01*
X485476Y714482D01*
X485460Y714334D01*
X485440Y714187D01*
X485416Y714041D01*
X485388Y713895D01*
X485356Y713750D01*
X485321Y713606D01*
X485281Y713463D01*
X485238Y713322D01*
X485190Y713181D01*
X485140Y713042D01*
X485085Y712904D01*
X485027Y712767D01*
X484964Y712633D01*
X484899Y712500D01*
X484830Y712369D01*
X484757Y712239D01*
X484681Y712112D01*
X484601Y711987D01*
X484518Y711864D01*
X484432Y711743D01*
X484343Y711625D01*
X484250Y711509D01*
X484154Y711396D01*
X484056Y711285D01*
X483954Y711177D01*
X483850Y711072D01*
X483742Y710969D01*
X483632Y710870D01*
X483520Y710774D01*
X483404Y710680D01*
X483287Y710590D01*
X483166Y710503D01*
X483044Y710419D01*
X482919Y710339D01*
X482793Y710262D01*
X482664Y710188D01*
X482533Y710118D01*
X482401Y710052D01*
X482266Y709989D01*
X482130Y709929D01*
X481993Y709874D01*
X481854Y709822D01*
X481714Y709774D01*
X481572Y709729D01*
X481429Y709689D01*
X481286Y709652D01*
X481141Y709620D01*
X480996Y709591D01*
X480849Y709566D01*
X480703Y709545D01*
X480555Y709528D01*
X480407Y709515D01*
X480259Y709506D01*
X480111Y709501D01*
X479963Y709500D01*
X479815Y709503D01*
X479666Y709510D01*
X479519Y709521D01*
X479371Y709536D01*
X479224Y709555D01*
X479077Y709578D01*
X478932Y709605D01*
X478786Y709636D01*
X478642Y709670D01*
X478499Y709709D01*
X478357Y709751D01*
X478216Y709797D01*
X478076Y709847D01*
X477938Y709901D01*
X477801Y709959D01*
X477666Y710020D01*
X477533Y710084D01*
X477401Y710153D01*
X477271Y710225D01*
X477144Y710300D01*
X477018Y710379D01*
X476894Y710461D01*
X476773Y710546D01*
X476654Y710635D01*
X476538Y710726D01*
X476424Y710821D01*
X476312Y710919D01*
X476204Y711020D01*
X476098Y711124D01*
X475995Y711231D01*
X475895Y711340D01*
X475797Y711452D01*
X475703Y711567D01*
X475612Y711684D01*
X475524Y711803D01*
X475440Y711925D01*
X475359Y712049D01*
X475281Y712175D01*
X475206Y712304D01*
X475135Y712434D01*
X475068Y712566D01*
X475004Y712700D01*
X474944Y712835D01*
X474887Y712973D01*
X474835Y713111D01*
X474785Y713251D01*
X474740Y713392D01*
X474699Y713535D01*
X474661Y713678D01*
X474627Y713823D01*
X474598Y713968D01*
X474572Y714114D01*
X474550Y714261D01*
X474532Y714408D01*
X474518Y714556D01*
X474508Y714704D01*
X474502Y714852D01*
X474500Y715000D01*
X474500Y650000D02*
X474502Y650148D01*
X474508Y650296D01*
X474518Y650444D01*
X474532Y650592D01*
X474550Y650739D01*
X474572Y650886D01*
X474598Y651032D01*
X474627Y651177D01*
X474661Y651322D01*
X474699Y651465D01*
X474740Y651608D01*
X474785Y651749D01*
X474835Y651889D01*
X474887Y652027D01*
X474944Y652165D01*
X475004Y652300D01*
X475068Y652434D01*
X475135Y652566D01*
X475206Y652696D01*
X475281Y652825D01*
X475359Y652951D01*
X475440Y653075D01*
X475524Y653197D01*
X475612Y653316D01*
X475703Y653433D01*
X475797Y653548D01*
X475895Y653660D01*
X475995Y653769D01*
X476098Y653876D01*
X476204Y653980D01*
X476312Y654081D01*
X476424Y654179D01*
X476538Y654274D01*
X476654Y654365D01*
X476773Y654454D01*
X476894Y654539D01*
X477018Y654621D01*
X477144Y654700D01*
X477271Y654775D01*
X477401Y654847D01*
X477533Y654916D01*
X477666Y654980D01*
X477801Y655041D01*
X477938Y655099D01*
X478076Y655153D01*
X478216Y655203D01*
X478357Y655249D01*
X478499Y655291D01*
X478642Y655330D01*
X478786Y655364D01*
X478932Y655395D01*
X479077Y655422D01*
X479224Y655445D01*
X479371Y655464D01*
X479519Y655479D01*
X479666Y655490D01*
X479815Y655497D01*
X479963Y655500D01*
X480111Y655499D01*
X480259Y655494D01*
X480407Y655485D01*
X480555Y655472D01*
X480703Y655455D01*
X480849Y655434D01*
X480996Y655409D01*
X481141Y655380D01*
X481286Y655348D01*
X481429Y655311D01*
X481572Y655271D01*
X481714Y655226D01*
X481854Y655178D01*
X481993Y655126D01*
X482130Y655071D01*
X482266Y655011D01*
X482401Y654948D01*
X482533Y654882D01*
X482664Y654812D01*
X482793Y654738D01*
X482919Y654661D01*
X483044Y654581D01*
X483166Y654497D01*
X483287Y654410D01*
X483404Y654320D01*
X483520Y654226D01*
X483632Y654130D01*
X483742Y654031D01*
X483850Y653928D01*
X483954Y653823D01*
X484056Y653715D01*
X484154Y653604D01*
X484250Y653491D01*
X484343Y653375D01*
X484432Y653257D01*
X484518Y653136D01*
X484601Y653013D01*
X484681Y652888D01*
X484757Y652761D01*
X484830Y652631D01*
X484899Y652500D01*
X484964Y652367D01*
X485027Y652233D01*
X485085Y652096D01*
X485140Y651958D01*
X485190Y651819D01*
X485238Y651678D01*
X485281Y651537D01*
X485321Y651394D01*
X485356Y651250D01*
X485388Y651105D01*
X485416Y650959D01*
X485440Y650813D01*
X485460Y650666D01*
X485476Y650518D01*
X485488Y650371D01*
X485496Y650222D01*
X485500Y650074D01*
X485500Y649926D01*
X485496Y649778D01*
X485488Y649629D01*
X485476Y649482D01*
X485460Y649334D01*
X485440Y649187D01*
X485416Y649041D01*
X485388Y648895D01*
X485356Y648750D01*
X485321Y648606D01*
X485281Y648463D01*
X485238Y648322D01*
X485190Y648181D01*
X485140Y648042D01*
X485085Y647904D01*
X485027Y647767D01*
X484964Y647633D01*
X484899Y647500D01*
X484830Y647369D01*
X484757Y647239D01*
X484681Y647112D01*
X484601Y646987D01*
X484518Y646864D01*
X484432Y646743D01*
X484343Y646625D01*
X484250Y646509D01*
X484154Y646396D01*
X484056Y646285D01*
X483954Y646177D01*
X483850Y646072D01*
X483742Y645969D01*
X483632Y645870D01*
X483520Y645774D01*
X483404Y645680D01*
X483287Y645590D01*
X483166Y645503D01*
X483044Y645419D01*
X482919Y645339D01*
X482793Y645262D01*
X482664Y645188D01*
X482533Y645118D01*
X482401Y645052D01*
X482266Y644989D01*
X482130Y644929D01*
X481993Y644874D01*
X481854Y644822D01*
X481714Y644774D01*
X481572Y644729D01*
X481429Y644689D01*
X481286Y644652D01*
X481141Y644620D01*
X480996Y644591D01*
X480849Y644566D01*
X480703Y644545D01*
X480555Y644528D01*
X480407Y644515D01*
X480259Y644506D01*
X480111Y644501D01*
X479963Y644500D01*
X479815Y644503D01*
X479666Y644510D01*
X479519Y644521D01*
X479371Y644536D01*
X479224Y644555D01*
X479077Y644578D01*
X478932Y644605D01*
X478786Y644636D01*
X478642Y644670D01*
X478499Y644709D01*
X478357Y644751D01*
X478216Y644797D01*
X478076Y644847D01*
X477938Y644901D01*
X477801Y644959D01*
X477666Y645020D01*
X477533Y645084D01*
X477401Y645153D01*
X477271Y645225D01*
X477144Y645300D01*
X477018Y645379D01*
X476894Y645461D01*
X476773Y645546D01*
X476654Y645635D01*
X476538Y645726D01*
X476424Y645821D01*
X476312Y645919D01*
X476204Y646020D01*
X476098Y646124D01*
X475995Y646231D01*
X475895Y646340D01*
X475797Y646452D01*
X475703Y646567D01*
X475612Y646684D01*
X475524Y646803D01*
X475440Y646925D01*
X475359Y647049D01*
X475281Y647175D01*
X475206Y647304D01*
X475135Y647434D01*
X475068Y647566D01*
X475004Y647700D01*
X474944Y647835D01*
X474887Y647973D01*
X474835Y648111D01*
X474785Y648251D01*
X474740Y648392D01*
X474699Y648535D01*
X474661Y648678D01*
X474627Y648823D01*
X474598Y648968D01*
X474572Y649114D01*
X474550Y649261D01*
X474532Y649408D01*
X474518Y649556D01*
X474508Y649704D01*
X474502Y649852D01*
X474500Y650000D01*
D11*
X670896Y10000D02*
X670893Y9758D01*
X670884Y9517D01*
X670870Y9276D01*
X670849Y9035D01*
X670823Y8795D01*
X670791Y8555D01*
X670753Y8316D01*
X670710Y8079D01*
X670660Y7842D01*
X670605Y7607D01*
X670545Y7373D01*
X670478Y7141D01*
X670407Y6910D01*
X670329Y6681D01*
X670246Y6454D01*
X670158Y6229D01*
X670064Y6006D01*
X669965Y5786D01*
X669860Y5568D01*
X669751Y5353D01*
X669636Y5140D01*
X669516Y4930D01*
X669391Y4724D01*
X669261Y4520D01*
X669126Y4319D01*
X668986Y4122D01*
X668842Y3928D01*
X668693Y3738D01*
X668539Y3552D01*
X668381Y3369D01*
X668219Y3190D01*
X668052Y3015D01*
X667881Y2844D01*
X667706Y2677D01*
X667527Y2515D01*
X667344Y2357D01*
X667158Y2203D01*
X666968Y2054D01*
X666774Y1910D01*
X666577Y1770D01*
X666376Y1635D01*
X666172Y1505D01*
X665966Y1380D01*
X665756Y1260D01*
X665543Y1145D01*
X665328Y1036D01*
X665110Y931D01*
X664890Y832D01*
X664667Y738D01*
X664442Y650D01*
X664215Y567D01*
X663986Y489D01*
X663755Y418D01*
X663523Y351D01*
X663289Y291D01*
X663054Y236D01*
X662817Y186D01*
X662580Y143D01*
X662341Y105D01*
X662101Y73D01*
X661861Y47D01*
X661620Y26D01*
X661379Y12D01*
X661138Y3D01*
X660896Y0D01*
X730000Y69500D02*
X730248Y69509D01*
X730495Y69524D01*
X730742Y69545D01*
X730988Y69572D01*
X731234Y69605D01*
X731478Y69644D01*
X731722Y69688D01*
X731965Y69739D01*
X732206Y69795D01*
X732446Y69858D01*
X732684Y69926D01*
X732920Y70000D01*
X733155Y70079D01*
X733388Y70164D01*
X733618Y70255D01*
X733847Y70351D01*
X734073Y70453D01*
X734296Y70560D01*
X734517Y70672D01*
X734735Y70790D01*
X734950Y70913D01*
X735162Y71042D01*
X735371Y71175D01*
X735576Y71313D01*
X735778Y71456D01*
X735977Y71605D01*
X736172Y71757D01*
X736363Y71915D01*
X736551Y72077D01*
X736734Y72244D01*
X736913Y72415D01*
X737089Y72590D01*
X737259Y72769D01*
X737426Y72953D01*
X737588Y73140D01*
X737745Y73331D01*
X737898Y73527D01*
X738046Y73725D01*
X738189Y73927D01*
X738328Y74133D01*
X738461Y74342D01*
X738589Y74554D01*
X738712Y74769D01*
X738830Y74987D01*
X738942Y75208D01*
X739049Y75431D01*
X739151Y75657D01*
X739247Y75886D01*
X739338Y76116D01*
X739423Y76349D01*
X739502Y76584D01*
X739576Y76820D01*
X739643Y77059D01*
X739706Y77298D01*
X739762Y77540D01*
X739812Y77782D01*
X739857Y78026D01*
X739896Y78271D01*
X739929Y78516D01*
X739955Y78763D01*
X739976Y79010D01*
X739991Y79257D01*
X740000Y79504D01*
X740003Y79752D01*
X740000Y80000D01*
X740000Y660000D02*
X739997Y660242D01*
X739988Y660483D01*
X739974Y660724D01*
X739953Y660965D01*
X739927Y661205D01*
X739895Y661445D01*
X739857Y661684D01*
X739814Y661921D01*
X739764Y662158D01*
X739709Y662393D01*
X739649Y662627D01*
X739582Y662859D01*
X739511Y663090D01*
X739433Y663319D01*
X739350Y663546D01*
X739262Y663771D01*
X739168Y663994D01*
X739069Y664214D01*
X738964Y664432D01*
X738855Y664647D01*
X738740Y664860D01*
X738620Y665070D01*
X738495Y665276D01*
X738365Y665480D01*
X738230Y665681D01*
X738090Y665878D01*
X737946Y666072D01*
X737797Y666262D01*
X737643Y666448D01*
X737485Y666631D01*
X737323Y666810D01*
X737156Y666985D01*
X736985Y667156D01*
X736810Y667323D01*
X736631Y667485D01*
X736448Y667643D01*
X736262Y667797D01*
X736072Y667946D01*
X735878Y668090D01*
X735681Y668230D01*
X735480Y668365D01*
X735276Y668495D01*
X735070Y668620D01*
X734860Y668740D01*
X734647Y668855D01*
X734432Y668964D01*
X734214Y669069D01*
X733994Y669168D01*
X733771Y669262D01*
X733546Y669350D01*
X733319Y669433D01*
X733090Y669511D01*
X732859Y669582D01*
X732627Y669649D01*
X732393Y669709D01*
X732158Y669764D01*
X731921Y669814D01*
X731684Y669857D01*
X731445Y669895D01*
X731205Y669927D01*
X730965Y669953D01*
X730724Y669974D01*
X730483Y669988D01*
X730242Y669997D01*
X730000Y670000D01*
X670896Y730395D02*
X670893Y730637D01*
X670884Y730878D01*
X670870Y731119D01*
X670849Y731360D01*
X670823Y731600D01*
X670791Y731840D01*
X670753Y732079D01*
X670710Y732316D01*
X670660Y732553D01*
X670605Y732788D01*
X670545Y733022D01*
X670478Y733254D01*
X670407Y733485D01*
X670329Y733714D01*
X670246Y733941D01*
X670158Y734166D01*
X670064Y734389D01*
X669965Y734609D01*
X669860Y734827D01*
X669751Y735042D01*
X669636Y735255D01*
X669516Y735465D01*
X669391Y735671D01*
X669261Y735875D01*
X669126Y736076D01*
X668986Y736273D01*
X668842Y736467D01*
X668693Y736657D01*
X668539Y736843D01*
X668381Y737026D01*
X668219Y737205D01*
X668052Y737380D01*
X667881Y737551D01*
X667706Y737718D01*
X667527Y737880D01*
X667344Y738038D01*
X667158Y738192D01*
X666968Y738341D01*
X666774Y738485D01*
X666577Y738625D01*
X666376Y738760D01*
X666172Y738890D01*
X665966Y739015D01*
X665756Y739135D01*
X665543Y739250D01*
X665328Y739359D01*
X665110Y739464D01*
X664890Y739563D01*
X664667Y739657D01*
X664442Y739745D01*
X664215Y739828D01*
X663986Y739906D01*
X663755Y739977D01*
X663523Y740044D01*
X663289Y740104D01*
X663054Y740159D01*
X662817Y740209D01*
X662580Y740252D01*
X662341Y740290D01*
X662101Y740322D01*
X661861Y740348D01*
X661620Y740369D01*
X661379Y740383D01*
X661138Y740392D01*
X660896Y740395D01*
X79499Y740395D02*
X79257Y740392D01*
X79016Y740383D01*
X78775Y740369D01*
X78534Y740348D01*
X78294Y740322D01*
X78054Y740290D01*
X77815Y740252D01*
X77578Y740209D01*
X77341Y740159D01*
X77106Y740104D01*
X76872Y740044D01*
X76640Y739977D01*
X76409Y739906D01*
X76180Y739828D01*
X75953Y739745D01*
X75728Y739657D01*
X75505Y739563D01*
X75285Y739464D01*
X75067Y739359D01*
X74852Y739250D01*
X74639Y739135D01*
X74429Y739015D01*
X74223Y738890D01*
X74019Y738760D01*
X73818Y738625D01*
X73621Y738485D01*
X73427Y738341D01*
X73237Y738192D01*
X73051Y738038D01*
X72868Y737880D01*
X72689Y737718D01*
X72514Y737551D01*
X72343Y737380D01*
X72176Y737205D01*
X72014Y737026D01*
X71856Y736843D01*
X71702Y736657D01*
X71553Y736467D01*
X71409Y736273D01*
X71269Y736076D01*
X71134Y735875D01*
X71004Y735671D01*
X70879Y735465D01*
X70759Y735255D01*
X70644Y735042D01*
X70535Y734827D01*
X70430Y734609D01*
X70331Y734389D01*
X70237Y734166D01*
X70149Y733941D01*
X70066Y733714D01*
X69988Y733485D01*
X69917Y733254D01*
X69850Y733022D01*
X69790Y732788D01*
X69735Y732553D01*
X69685Y732316D01*
X69642Y732079D01*
X69604Y731840D01*
X69572Y731600D01*
X69546Y731360D01*
X69525Y731119D01*
X69511Y730878D01*
X69502Y730637D01*
X69499Y730395D01*
X10000Y670896D02*
X9758Y670893D01*
X9517Y670884D01*
X9276Y670870D01*
X9035Y670849D01*
X8795Y670823D01*
X8555Y670791D01*
X8316Y670753D01*
X8079Y670710D01*
X7842Y670660D01*
X7607Y670605D01*
X7373Y670545D01*
X7141Y670478D01*
X6910Y670407D01*
X6681Y670329D01*
X6454Y670246D01*
X6229Y670158D01*
X6006Y670064D01*
X5786Y669965D01*
X5568Y669860D01*
X5353Y669751D01*
X5140Y669636D01*
X4930Y669516D01*
X4724Y669391D01*
X4520Y669261D01*
X4319Y669126D01*
X4122Y668986D01*
X3928Y668842D01*
X3738Y668693D01*
X3552Y668539D01*
X3369Y668381D01*
X3190Y668219D01*
X3015Y668052D01*
X2844Y667881D01*
X2677Y667706D01*
X2515Y667527D01*
X2357Y667344D01*
X2203Y667158D01*
X2054Y666968D01*
X1910Y666774D01*
X1770Y666577D01*
X1635Y666376D01*
X1505Y666172D01*
X1380Y665966D01*
X1260Y665756D01*
X1145Y665543D01*
X1036Y665328D01*
X931Y665110D01*
X832Y664890D01*
X738Y664667D01*
X650Y664442D01*
X567Y664215D01*
X489Y663986D01*
X418Y663755D01*
X351Y663523D01*
X291Y663289D01*
X236Y663054D01*
X186Y662817D01*
X143Y662580D01*
X105Y662341D01*
X73Y662101D01*
X47Y661861D01*
X26Y661620D01*
X12Y661379D01*
X3Y661138D01*
X0Y660896D01*
X0Y79499D02*
X3Y79257D01*
X12Y79016D01*
X26Y78775D01*
X47Y78534D01*
X73Y78294D01*
X105Y78054D01*
X143Y77815D01*
X186Y77578D01*
X236Y77341D01*
X291Y77106D01*
X351Y76872D01*
X418Y76640D01*
X489Y76409D01*
X567Y76180D01*
X650Y75953D01*
X738Y75728D01*
X832Y75505D01*
X931Y75285D01*
X1036Y75067D01*
X1145Y74852D01*
X1260Y74639D01*
X1380Y74429D01*
X1505Y74223D01*
X1635Y74019D01*
X1770Y73818D01*
X1910Y73621D01*
X2054Y73427D01*
X2203Y73237D01*
X2357Y73051D01*
X2515Y72868D01*
X2677Y72689D01*
X2844Y72514D01*
X3015Y72343D01*
X3190Y72176D01*
X3369Y72014D01*
X3552Y71856D01*
X3738Y71702D01*
X3928Y71553D01*
X4122Y71409D01*
X4319Y71269D01*
X4520Y71134D01*
X4724Y71004D01*
X4930Y70879D01*
X5140Y70759D01*
X5353Y70644D01*
X5568Y70535D01*
X5786Y70430D01*
X6006Y70331D01*
X6229Y70237D01*
X6454Y70149D01*
X6681Y70066D01*
X6910Y69988D01*
X7141Y69917D01*
X7373Y69850D01*
X7607Y69790D01*
X7842Y69735D01*
X8079Y69685D01*
X8316Y69642D01*
X8555Y69604D01*
X8795Y69572D01*
X9035Y69546D01*
X9276Y69525D01*
X9517Y69511D01*
X9758Y69502D01*
X10000Y69499D01*
X69499Y10000D02*
X69502Y9758D01*
X69511Y9517D01*
X69525Y9276D01*
X69546Y9035D01*
X69572Y8795D01*
X69604Y8555D01*
X69642Y8316D01*
X69685Y8079D01*
X69735Y7842D01*
X69790Y7607D01*
X69850Y7373D01*
X69917Y7141D01*
X69988Y6910D01*
X70066Y6681D01*
X70149Y6454D01*
X70237Y6229D01*
X70331Y6006D01*
X70430Y5786D01*
X70535Y5568D01*
X70644Y5353D01*
X70759Y5140D01*
X70879Y4930D01*
X71004Y4724D01*
X71134Y4520D01*
X71269Y4319D01*
X71409Y4122D01*
X71553Y3928D01*
X71702Y3738D01*
X71856Y3552D01*
X72014Y3369D01*
X72176Y3190D01*
X72343Y3015D01*
X72514Y2844D01*
X72689Y2677D01*
X72868Y2515D01*
X73051Y2357D01*
X73237Y2203D01*
X73427Y2054D01*
X73621Y1910D01*
X73818Y1770D01*
X74019Y1635D01*
X74223Y1505D01*
X74429Y1380D01*
X74639Y1260D01*
X74852Y1145D01*
X75067Y1036D01*
X75285Y931D01*
X75505Y832D01*
X75728Y738D01*
X75953Y650D01*
X76180Y567D01*
X76409Y489D01*
X76640Y418D01*
X76872Y351D01*
X77106Y291D01*
X77341Y236D01*
X77578Y186D01*
X77815Y143D01*
X78054Y105D01*
X78294Y73D01*
X78534Y47D01*
X78775Y26D01*
X79016Y12D01*
X79257Y3D01*
X79499Y0D01*
X670896Y10000D02*
X670896Y35197D01*
X705197Y670896D02*
X730000Y670000D01*
X670896Y705197D02*
X670896Y730395D01*
X670895Y705197D02*
X670905Y704368D01*
X670935Y703540D01*
X670985Y702712D01*
X671055Y701886D01*
X671145Y701062D01*
X671255Y700241D01*
X671385Y699422D01*
X671534Y698607D01*
X671703Y697795D01*
X671892Y696988D01*
X672100Y696186D01*
X672327Y695389D01*
X672574Y694597D01*
X672840Y693812D01*
X673124Y693033D01*
X673427Y692262D01*
X673749Y691498D01*
X674089Y690742D01*
X674448Y689995D01*
X674824Y689256D01*
X675218Y688527D01*
X675630Y687807D01*
X676059Y687098D01*
X676504Y686399D01*
X676967Y685711D01*
X677446Y685035D01*
X677941Y684370D01*
X678453Y683718D01*
X678979Y683078D01*
X679522Y682451D01*
X680079Y681837D01*
X680651Y681237D01*
X681237Y680651D01*
X681837Y680079D01*
X682451Y679522D01*
X683078Y678979D01*
X683718Y678453D01*
X684370Y677941D01*
X685035Y677446D01*
X685711Y676967D01*
X686399Y676504D01*
X687098Y676059D01*
X687807Y675630D01*
X688527Y675218D01*
X689256Y674824D01*
X689995Y674448D01*
X690742Y674089D01*
X691498Y673749D01*
X692262Y673427D01*
X693033Y673124D01*
X693812Y672840D01*
X694597Y672574D01*
X695388Y672327D01*
X696186Y672100D01*
X696988Y671892D01*
X697795Y671703D01*
X698607Y671534D01*
X699422Y671385D01*
X700241Y671255D01*
X701062Y671145D01*
X701886Y671055D01*
X702712Y670985D01*
X703540Y670935D01*
X704368Y670905D01*
X705197Y670895D01*
X705197Y69499D02*
X730000Y69500D01*
X705197Y69499D02*
X704368Y69489D01*
X703540Y69459D01*
X702712Y69409D01*
X701886Y69339D01*
X701062Y69249D01*
X700241Y69139D01*
X699422Y69009D01*
X698607Y68860D01*
X697795Y68691D01*
X696988Y68502D01*
X696186Y68294D01*
X695388Y68067D01*
X694597Y67820D01*
X693812Y67554D01*
X693033Y67270D01*
X692262Y66967D01*
X691498Y66645D01*
X690742Y66305D01*
X689995Y65946D01*
X689256Y65570D01*
X688527Y65176D01*
X687807Y64764D01*
X687098Y64335D01*
X686399Y63890D01*
X685711Y63427D01*
X685035Y62948D01*
X684370Y62453D01*
X683718Y61941D01*
X683078Y61415D01*
X682451Y60872D01*
X681837Y60315D01*
X681237Y59743D01*
X680651Y59157D01*
X680079Y58557D01*
X679522Y57943D01*
X678979Y57316D01*
X678453Y56676D01*
X677941Y56024D01*
X677446Y55359D01*
X676967Y54683D01*
X676504Y53995D01*
X676059Y53296D01*
X675630Y52587D01*
X675218Y51867D01*
X674824Y51138D01*
X674448Y50399D01*
X674089Y49652D01*
X673749Y48896D01*
X673427Y48132D01*
X673124Y47361D01*
X672840Y46582D01*
X672574Y45797D01*
X672327Y45005D01*
X672100Y44208D01*
X671892Y43406D01*
X671703Y42599D01*
X671534Y41787D01*
X671385Y40972D01*
X671255Y40153D01*
X671145Y39332D01*
X671055Y38508D01*
X670985Y37682D01*
X670935Y36854D01*
X670905Y36026D01*
X670895Y35197D01*
X660896Y740395D02*
X79499Y740395D01*
X69499Y730395D02*
X69499Y705197D01*
X35197Y670896D02*
X10000Y670896D01*
X35197Y670895D02*
X36026Y670905D01*
X36854Y670935D01*
X37682Y670985D01*
X38508Y671055D01*
X39332Y671145D01*
X40153Y671255D01*
X40972Y671385D01*
X41787Y671534D01*
X42599Y671703D01*
X43406Y671892D01*
X44208Y672100D01*
X45006Y672327D01*
X45797Y672574D01*
X46582Y672840D01*
X47361Y673124D01*
X48132Y673427D01*
X48896Y673749D01*
X49652Y674089D01*
X50399Y674448D01*
X51138Y674824D01*
X51867Y675218D01*
X52587Y675630D01*
X53296Y676059D01*
X53995Y676504D01*
X54683Y676967D01*
X55359Y677446D01*
X56024Y677941D01*
X56676Y678453D01*
X57316Y678979D01*
X57943Y679522D01*
X58557Y680079D01*
X59157Y680651D01*
X59743Y681237D01*
X60315Y681837D01*
X60872Y682451D01*
X61415Y683078D01*
X61941Y683718D01*
X62453Y684370D01*
X62948Y685035D01*
X63427Y685711D01*
X63890Y686399D01*
X64335Y687098D01*
X64764Y687807D01*
X65176Y688527D01*
X65570Y689256D01*
X65946Y689995D01*
X66305Y690742D01*
X66645Y691498D01*
X66967Y692262D01*
X67270Y693033D01*
X67554Y693812D01*
X67820Y694597D01*
X68067Y695388D01*
X68294Y696186D01*
X68502Y696988D01*
X68691Y697795D01*
X68860Y698607D01*
X69009Y699422D01*
X69139Y700241D01*
X69249Y701062D01*
X69339Y701886D01*
X69409Y702712D01*
X69459Y703540D01*
X69489Y704368D01*
X69499Y705197D01*
X0Y660896D02*
X0Y79499D01*
X10000Y69499D02*
X35197Y69499D01*
X69499Y35197D02*
X69499Y10000D01*
X79499Y0D02*
X660896Y0D01*
X69499Y35197D02*
X69489Y36026D01*
X69459Y36854D01*
X69409Y37682D01*
X69339Y38508D01*
X69249Y39332D01*
X69139Y40153D01*
X69009Y40972D01*
X68860Y41787D01*
X68691Y42599D01*
X68502Y43406D01*
X68294Y44208D01*
X68067Y45006D01*
X67820Y45797D01*
X67554Y46582D01*
X67270Y47361D01*
X66967Y48132D01*
X66645Y48896D01*
X66305Y49652D01*
X65946Y50399D01*
X65570Y51138D01*
X65176Y51867D01*
X64764Y52587D01*
X64335Y53296D01*
X63890Y53995D01*
X63427Y54683D01*
X62948Y55359D01*
X62453Y56024D01*
X61941Y56676D01*
X61415Y57316D01*
X60872Y57943D01*
X60315Y58557D01*
X59743Y59157D01*
X59157Y59743D01*
X58557Y60315D01*
X57943Y60872D01*
X57316Y61415D01*
X56676Y61941D01*
X56024Y62453D01*
X55359Y62948D01*
X54683Y63427D01*
X53995Y63890D01*
X53296Y64335D01*
X52587Y64764D01*
X51867Y65176D01*
X51138Y65570D01*
X50399Y65946D01*
X49652Y66305D01*
X48896Y66645D01*
X48132Y66967D01*
X47361Y67270D01*
X46582Y67554D01*
X45797Y67820D01*
X45006Y68067D01*
X44208Y68294D01*
X43406Y68502D01*
X42599Y68691D01*
X41787Y68860D01*
X40972Y69009D01*
X40153Y69139D01*
X39332Y69249D01*
X38508Y69339D01*
X37682Y69409D01*
X36854Y69459D01*
X36026Y69489D01*
X35197Y69499D01*
D10*
X57197Y120197D02*
X57201Y120516D01*
X57213Y120835D01*
X57232Y121153D01*
X57260Y121471D01*
X57295Y121788D01*
X57338Y122104D01*
X57388Y122420D01*
X57447Y122733D01*
X57513Y123045D01*
X57587Y123356D01*
X57668Y123664D01*
X57757Y123971D01*
X57853Y124275D01*
X57957Y124577D01*
X58068Y124876D01*
X58187Y125172D01*
X58312Y125465D01*
X58445Y125755D01*
X58585Y126042D01*
X58732Y126325D01*
X58886Y126605D01*
X59047Y126880D01*
X59214Y127152D01*
X59388Y127419D01*
X59568Y127683D01*
X59755Y127941D01*
X59948Y128195D01*
X60148Y128444D01*
X60353Y128688D01*
X60565Y128927D01*
X60782Y129161D01*
X61005Y129389D01*
X61233Y129612D01*
X61467Y129829D01*
X61706Y130041D01*
X61950Y130246D01*
X62199Y130446D01*
X62453Y130639D01*
X62711Y130826D01*
X62975Y131006D01*
X63242Y131180D01*
X63514Y131347D01*
X63789Y131508D01*
X64069Y131662D01*
X64352Y131809D01*
X64639Y131949D01*
X64929Y132082D01*
X65222Y132207D01*
X65518Y132326D01*
X65817Y132437D01*
X66119Y132541D01*
X66423Y132637D01*
X66730Y132726D01*
X67038Y132807D01*
X67349Y132881D01*
X67661Y132947D01*
X67974Y133006D01*
X68290Y133056D01*
X68606Y133099D01*
X68923Y133134D01*
X69241Y133162D01*
X69559Y133181D01*
X69878Y133193D01*
X70197Y133197D01*
X70516Y133193D01*
X70835Y133181D01*
X71153Y133162D01*
X71471Y133134D01*
X71788Y133099D01*
X72104Y133056D01*
X72420Y133006D01*
X72733Y132947D01*
X73045Y132881D01*
X73356Y132807D01*
X73664Y132726D01*
X73971Y132637D01*
X74275Y132541D01*
X74577Y132437D01*
X74876Y132326D01*
X75172Y132207D01*
X75465Y132082D01*
X75755Y131949D01*
X76042Y131809D01*
X76325Y131662D01*
X76605Y131508D01*
X76880Y131347D01*
X77152Y131180D01*
X77419Y131006D01*
X77683Y130826D01*
X77941Y130639D01*
X78195Y130446D01*
X78444Y130246D01*
X78688Y130041D01*
X78927Y129829D01*
X79161Y129612D01*
X79389Y129389D01*
X79612Y129161D01*
X79829Y128927D01*
X80041Y128688D01*
X80246Y128444D01*
X80446Y128195D01*
X80639Y127941D01*
X80826Y127683D01*
X81006Y127419D01*
X81180Y127152D01*
X81347Y126880D01*
X81508Y126605D01*
X81662Y126325D01*
X81809Y126042D01*
X81949Y125755D01*
X82082Y125465D01*
X82207Y125172D01*
X82326Y124876D01*
X82437Y124577D01*
X82541Y124275D01*
X82637Y123971D01*
X82726Y123664D01*
X82807Y123356D01*
X82881Y123045D01*
X82947Y122733D01*
X83006Y122420D01*
X83056Y122104D01*
X83099Y121788D01*
X83134Y121471D01*
X83162Y121153D01*
X83181Y120835D01*
X83193Y120516D01*
X83197Y120197D01*
X83193Y119878D01*
X83181Y119559D01*
X83162Y119241D01*
X83134Y118923D01*
X83099Y118606D01*
X83056Y118290D01*
X83006Y117974D01*
X82947Y117661D01*
X82881Y117349D01*
X82807Y117038D01*
X82726Y116730D01*
X82637Y116423D01*
X82541Y116119D01*
X82437Y115817D01*
X82326Y115518D01*
X82207Y115222D01*
X82082Y114929D01*
X81949Y114639D01*
X81809Y114352D01*
X81662Y114069D01*
X81508Y113789D01*
X81347Y113514D01*
X81180Y113242D01*
X81006Y112975D01*
X80826Y112711D01*
X80639Y112453D01*
X80446Y112199D01*
X80246Y111950D01*
X80041Y111706D01*
X79829Y111467D01*
X79612Y111233D01*
X79389Y111005D01*
X79161Y110782D01*
X78927Y110565D01*
X78688Y110353D01*
X78444Y110148D01*
X78195Y109948D01*
X77941Y109755D01*
X77683Y109568D01*
X77419Y109388D01*
X77152Y109214D01*
X76880Y109047D01*
X76605Y108886D01*
X76325Y108732D01*
X76042Y108585D01*
X75755Y108445D01*
X75465Y108312D01*
X75172Y108187D01*
X74876Y108068D01*
X74577Y107957D01*
X74275Y107853D01*
X73971Y107757D01*
X73664Y107668D01*
X73356Y107587D01*
X73045Y107513D01*
X72733Y107447D01*
X72420Y107388D01*
X72104Y107338D01*
X71788Y107295D01*
X71471Y107260D01*
X71153Y107232D01*
X70835Y107213D01*
X70516Y107201D01*
X70197Y107197D01*
X69878Y107201D01*
X69559Y107213D01*
X69241Y107232D01*
X68923Y107260D01*
X68606Y107295D01*
X68290Y107338D01*
X67974Y107388D01*
X67661Y107447D01*
X67349Y107513D01*
X67038Y107587D01*
X66730Y107668D01*
X66423Y107757D01*
X66119Y107853D01*
X65817Y107957D01*
X65518Y108068D01*
X65222Y108187D01*
X64929Y108312D01*
X64639Y108445D01*
X64352Y108585D01*
X64069Y108732D01*
X63789Y108886D01*
X63514Y109047D01*
X63242Y109214D01*
X62975Y109388D01*
X62711Y109568D01*
X62453Y109755D01*
X62199Y109948D01*
X61950Y110148D01*
X61706Y110353D01*
X61467Y110565D01*
X61233Y110782D01*
X61005Y111005D01*
X60782Y111233D01*
X60565Y111467D01*
X60353Y111706D01*
X60148Y111950D01*
X59948Y112199D01*
X59755Y112453D01*
X59568Y112711D01*
X59388Y112975D01*
X59214Y113242D01*
X59047Y113514D01*
X58886Y113789D01*
X58732Y114069D01*
X58585Y114352D01*
X58445Y114639D01*
X58312Y114929D01*
X58187Y115222D01*
X58068Y115518D01*
X57957Y115817D01*
X57853Y116119D01*
X57757Y116423D01*
X57668Y116730D01*
X57587Y117038D01*
X57513Y117349D01*
X57447Y117661D01*
X57388Y117974D01*
X57338Y118290D01*
X57295Y118606D01*
X57260Y118923D01*
X57232Y119241D01*
X57213Y119559D01*
X57201Y119878D01*
X57197Y120197D01*
X657197Y120197D02*
X657201Y120516D01*
X657213Y120835D01*
X657232Y121153D01*
X657260Y121471D01*
X657295Y121788D01*
X657338Y122104D01*
X657388Y122420D01*
X657447Y122733D01*
X657513Y123045D01*
X657587Y123356D01*
X657668Y123664D01*
X657757Y123971D01*
X657853Y124275D01*
X657957Y124577D01*
X658068Y124876D01*
X658187Y125172D01*
X658312Y125465D01*
X658445Y125755D01*
X658585Y126042D01*
X658732Y126325D01*
X658886Y126605D01*
X659047Y126880D01*
X659214Y127152D01*
X659388Y127419D01*
X659568Y127683D01*
X659755Y127941D01*
X659948Y128195D01*
X660148Y128444D01*
X660353Y128688D01*
X660565Y128927D01*
X660782Y129161D01*
X661005Y129389D01*
X661233Y129612D01*
X661467Y129829D01*
X661706Y130041D01*
X661950Y130246D01*
X662199Y130446D01*
X662453Y130639D01*
X662711Y130826D01*
X662975Y131006D01*
X663242Y131180D01*
X663514Y131347D01*
X663789Y131508D01*
X664069Y131662D01*
X664352Y131809D01*
X664639Y131949D01*
X664929Y132082D01*
X665222Y132207D01*
X665518Y132326D01*
X665817Y132437D01*
X666119Y132541D01*
X666423Y132637D01*
X666730Y132726D01*
X667038Y132807D01*
X667349Y132881D01*
X667661Y132947D01*
X667974Y133006D01*
X668290Y133056D01*
X668606Y133099D01*
X668923Y133134D01*
X669241Y133162D01*
X669559Y133181D01*
X669878Y133193D01*
X670197Y133197D01*
X670516Y133193D01*
X670835Y133181D01*
X671153Y133162D01*
X671471Y133134D01*
X671788Y133099D01*
X672104Y133056D01*
X672420Y133006D01*
X672733Y132947D01*
X673045Y132881D01*
X673356Y132807D01*
X673664Y132726D01*
X673971Y132637D01*
X674275Y132541D01*
X674577Y132437D01*
X674876Y132326D01*
X675172Y132207D01*
X675465Y132082D01*
X675755Y131949D01*
X676042Y131809D01*
X676325Y131662D01*
X676605Y131508D01*
X676880Y131347D01*
X677152Y131180D01*
X677419Y131006D01*
X677683Y130826D01*
X677941Y130639D01*
X678195Y130446D01*
X678444Y130246D01*
X678688Y130041D01*
X678927Y129829D01*
X679161Y129612D01*
X679389Y129389D01*
X679612Y129161D01*
X679829Y128927D01*
X680041Y128688D01*
X680246Y128444D01*
X680446Y128195D01*
X680639Y127941D01*
X680826Y127683D01*
X681006Y127419D01*
X681180Y127152D01*
X681347Y126880D01*
X681508Y126605D01*
X681662Y126325D01*
X681809Y126042D01*
X681949Y125755D01*
X682082Y125465D01*
X682207Y125172D01*
X682326Y124876D01*
X682437Y124577D01*
X682541Y124275D01*
X682637Y123971D01*
X682726Y123664D01*
X682807Y123356D01*
X682881Y123045D01*
X682947Y122733D01*
X683006Y122420D01*
X683056Y122104D01*
X683099Y121788D01*
X683134Y121471D01*
X683162Y121153D01*
X683181Y120835D01*
X683193Y120516D01*
X683197Y120197D01*
X683193Y119878D01*
X683181Y119559D01*
X683162Y119241D01*
X683134Y118923D01*
X683099Y118606D01*
X683056Y118290D01*
X683006Y117974D01*
X682947Y117661D01*
X682881Y117349D01*
X682807Y117038D01*
X682726Y116730D01*
X682637Y116423D01*
X682541Y116119D01*
X682437Y115817D01*
X682326Y115518D01*
X682207Y115222D01*
X682082Y114929D01*
X681949Y114639D01*
X681809Y114352D01*
X681662Y114069D01*
X681508Y113789D01*
X681347Y113514D01*
X681180Y113242D01*
X681006Y112975D01*
X680826Y112711D01*
X680639Y112453D01*
X680446Y112199D01*
X680246Y111950D01*
X680041Y111706D01*
X679829Y111467D01*
X679612Y111233D01*
X679389Y111005D01*
X679161Y110782D01*
X678927Y110565D01*
X678688Y110353D01*
X678444Y110148D01*
X678195Y109948D01*
X677941Y109755D01*
X677683Y109568D01*
X677419Y109388D01*
X677152Y109214D01*
X676880Y109047D01*
X676605Y108886D01*
X676325Y108732D01*
X676042Y108585D01*
X675755Y108445D01*
X675465Y108312D01*
X675172Y108187D01*
X674876Y108068D01*
X674577Y107957D01*
X674275Y107853D01*
X673971Y107757D01*
X673664Y107668D01*
X673356Y107587D01*
X673045Y107513D01*
X672733Y107447D01*
X672420Y107388D01*
X672104Y107338D01*
X671788Y107295D01*
X671471Y107260D01*
X671153Y107232D01*
X670835Y107213D01*
X670516Y107201D01*
X670197Y107197D01*
X669878Y107201D01*
X669559Y107213D01*
X669241Y107232D01*
X668923Y107260D01*
X668606Y107295D01*
X668290Y107338D01*
X667974Y107388D01*
X667661Y107447D01*
X667349Y107513D01*
X667038Y107587D01*
X666730Y107668D01*
X666423Y107757D01*
X666119Y107853D01*
X665817Y107957D01*
X665518Y108068D01*
X665222Y108187D01*
X664929Y108312D01*
X664639Y108445D01*
X664352Y108585D01*
X664069Y108732D01*
X663789Y108886D01*
X663514Y109047D01*
X663242Y109214D01*
X662975Y109388D01*
X662711Y109568D01*
X662453Y109755D01*
X662199Y109948D01*
X661950Y110148D01*
X661706Y110353D01*
X661467Y110565D01*
X661233Y110782D01*
X661005Y111005D01*
X660782Y111233D01*
X660565Y111467D01*
X660353Y111706D01*
X660148Y111950D01*
X659948Y112199D01*
X659755Y112453D01*
X659568Y112711D01*
X659388Y112975D01*
X659214Y113242D01*
X659047Y113514D01*
X658886Y113789D01*
X658732Y114069D01*
X658585Y114352D01*
X658445Y114639D01*
X658312Y114929D01*
X658187Y115222D01*
X658068Y115518D01*
X657957Y115817D01*
X657853Y116119D01*
X657757Y116423D01*
X657668Y116730D01*
X657587Y117038D01*
X657513Y117349D01*
X657447Y117661D01*
X657388Y117974D01*
X657338Y118290D01*
X657295Y118606D01*
X657260Y118923D01*
X657232Y119241D01*
X657213Y119559D01*
X657201Y119878D01*
X657197Y120197D01*
X57197Y620197D02*
X57201Y620516D01*
X57213Y620835D01*
X57232Y621153D01*
X57260Y621471D01*
X57295Y621788D01*
X57338Y622104D01*
X57388Y622420D01*
X57447Y622733D01*
X57513Y623045D01*
X57587Y623356D01*
X57668Y623664D01*
X57757Y623971D01*
X57853Y624275D01*
X57957Y624577D01*
X58068Y624876D01*
X58187Y625172D01*
X58312Y625465D01*
X58445Y625755D01*
X58585Y626042D01*
X58732Y626325D01*
X58886Y626605D01*
X59047Y626880D01*
X59214Y627152D01*
X59388Y627419D01*
X59568Y627683D01*
X59755Y627941D01*
X59948Y628195D01*
X60148Y628444D01*
X60353Y628688D01*
X60565Y628927D01*
X60782Y629161D01*
X61005Y629389D01*
X61233Y629612D01*
X61467Y629829D01*
X61706Y630041D01*
X61950Y630246D01*
X62199Y630446D01*
X62453Y630639D01*
X62711Y630826D01*
X62975Y631006D01*
X63242Y631180D01*
X63514Y631347D01*
X63789Y631508D01*
X64069Y631662D01*
X64352Y631809D01*
X64639Y631949D01*
X64929Y632082D01*
X65222Y632207D01*
X65518Y632326D01*
X65817Y632437D01*
X66119Y632541D01*
X66423Y632637D01*
X66730Y632726D01*
X67038Y632807D01*
X67349Y632881D01*
X67661Y632947D01*
X67974Y633006D01*
X68290Y633056D01*
X68606Y633099D01*
X68923Y633134D01*
X69241Y633162D01*
X69559Y633181D01*
X69878Y633193D01*
X70197Y633197D01*
X70516Y633193D01*
X70835Y633181D01*
X71153Y633162D01*
X71471Y633134D01*
X71788Y633099D01*
X72104Y633056D01*
X72420Y633006D01*
X72733Y632947D01*
X73045Y632881D01*
X73356Y632807D01*
X73664Y632726D01*
X73971Y632637D01*
X74275Y632541D01*
X74577Y632437D01*
X74876Y632326D01*
X75172Y632207D01*
X75465Y632082D01*
X75755Y631949D01*
X76042Y631809D01*
X76325Y631662D01*
X76605Y631508D01*
X76880Y631347D01*
X77152Y631180D01*
X77419Y631006D01*
X77683Y630826D01*
X77941Y630639D01*
X78195Y630446D01*
X78444Y630246D01*
X78688Y630041D01*
X78927Y629829D01*
X79161Y629612D01*
X79389Y629389D01*
X79612Y629161D01*
X79829Y628927D01*
X80041Y628688D01*
X80246Y628444D01*
X80446Y628195D01*
X80639Y627941D01*
X80826Y627683D01*
X81006Y627419D01*
X81180Y627152D01*
X81347Y626880D01*
X81508Y626605D01*
X81662Y626325D01*
X81809Y626042D01*
X81949Y625755D01*
X82082Y625465D01*
X82207Y625172D01*
X82326Y624876D01*
X82437Y624577D01*
X82541Y624275D01*
X82637Y623971D01*
X82726Y623664D01*
X82807Y623356D01*
X82881Y623045D01*
X82947Y622733D01*
X83006Y622420D01*
X83056Y622104D01*
X83099Y621788D01*
X83134Y621471D01*
X83162Y621153D01*
X83181Y620835D01*
X83193Y620516D01*
X83197Y620197D01*
X83193Y619878D01*
X83181Y619559D01*
X83162Y619241D01*
X83134Y618923D01*
X83099Y618606D01*
X83056Y618290D01*
X83006Y617974D01*
X82947Y617661D01*
X82881Y617349D01*
X82807Y617038D01*
X82726Y616730D01*
X82637Y616423D01*
X82541Y616119D01*
X82437Y615817D01*
X82326Y615518D01*
X82207Y615222D01*
X82082Y614929D01*
X81949Y614639D01*
X81809Y614352D01*
X81662Y614069D01*
X81508Y613789D01*
X81347Y613514D01*
X81180Y613242D01*
X81006Y612975D01*
X80826Y612711D01*
X80639Y612453D01*
X80446Y612199D01*
X80246Y611950D01*
X80041Y611706D01*
X79829Y611467D01*
X79612Y611233D01*
X79389Y611005D01*
X79161Y610782D01*
X78927Y610565D01*
X78688Y610353D01*
X78444Y610148D01*
X78195Y609948D01*
X77941Y609755D01*
X77683Y609568D01*
X77419Y609388D01*
X77152Y609214D01*
X76880Y609047D01*
X76605Y608886D01*
X76325Y608732D01*
X76042Y608585D01*
X75755Y608445D01*
X75465Y608312D01*
X75172Y608187D01*
X74876Y608068D01*
X74577Y607957D01*
X74275Y607853D01*
X73971Y607757D01*
X73664Y607668D01*
X73356Y607587D01*
X73045Y607513D01*
X72733Y607447D01*
X72420Y607388D01*
X72104Y607338D01*
X71788Y607295D01*
X71471Y607260D01*
X71153Y607232D01*
X70835Y607213D01*
X70516Y607201D01*
X70197Y607197D01*
X69878Y607201D01*
X69559Y607213D01*
X69241Y607232D01*
X68923Y607260D01*
X68606Y607295D01*
X68290Y607338D01*
X67974Y607388D01*
X67661Y607447D01*
X67349Y607513D01*
X67038Y607587D01*
X66730Y607668D01*
X66423Y607757D01*
X66119Y607853D01*
X65817Y607957D01*
X65518Y608068D01*
X65222Y608187D01*
X64929Y608312D01*
X64639Y608445D01*
X64352Y608585D01*
X64069Y608732D01*
X63789Y608886D01*
X63514Y609047D01*
X63242Y609214D01*
X62975Y609388D01*
X62711Y609568D01*
X62453Y609755D01*
X62199Y609948D01*
X61950Y610148D01*
X61706Y610353D01*
X61467Y610565D01*
X61233Y610782D01*
X61005Y611005D01*
X60782Y611233D01*
X60565Y611467D01*
X60353Y611706D01*
X60148Y611950D01*
X59948Y612199D01*
X59755Y612453D01*
X59568Y612711D01*
X59388Y612975D01*
X59214Y613242D01*
X59047Y613514D01*
X58886Y613789D01*
X58732Y614069D01*
X58585Y614352D01*
X58445Y614639D01*
X58312Y614929D01*
X58187Y615222D01*
X58068Y615518D01*
X57957Y615817D01*
X57853Y616119D01*
X57757Y616423D01*
X57668Y616730D01*
X57587Y617038D01*
X57513Y617349D01*
X57447Y617661D01*
X57388Y617974D01*
X57338Y618290D01*
X57295Y618606D01*
X57260Y618923D01*
X57232Y619241D01*
X57213Y619559D01*
X57201Y619878D01*
X57197Y620197D01*
X657197Y620197D02*
X657201Y620516D01*
X657213Y620835D01*
X657232Y621153D01*
X657260Y621471D01*
X657295Y621788D01*
X657338Y622104D01*
X657388Y622420D01*
X657447Y622733D01*
X657513Y623045D01*
X657587Y623356D01*
X657668Y623664D01*
X657757Y623971D01*
X657853Y624275D01*
X657957Y624577D01*
X658068Y624876D01*
X658187Y625172D01*
X658312Y625465D01*
X658445Y625755D01*
X658585Y626042D01*
X658732Y626325D01*
X658886Y626605D01*
X659047Y626880D01*
X659214Y627152D01*
X659388Y627419D01*
X659568Y627683D01*
X659755Y627941D01*
X659948Y628195D01*
X660148Y628444D01*
X660353Y628688D01*
X660565Y628927D01*
X660782Y629161D01*
X661005Y629389D01*
X661233Y629612D01*
X661467Y629829D01*
X661706Y630041D01*
X661950Y630246D01*
X662199Y630446D01*
X662453Y630639D01*
X662711Y630826D01*
X662975Y631006D01*
X663242Y631180D01*
X663514Y631347D01*
X663789Y631508D01*
X664069Y631662D01*
X664352Y631809D01*
X664639Y631949D01*
X664929Y632082D01*
X665222Y632207D01*
X665518Y632326D01*
X665817Y632437D01*
X666119Y632541D01*
X666423Y632637D01*
X666730Y632726D01*
X667038Y632807D01*
X667349Y632881D01*
X667661Y632947D01*
X667974Y633006D01*
X668290Y633056D01*
X668606Y633099D01*
X668923Y633134D01*
X669241Y633162D01*
X669559Y633181D01*
X669878Y633193D01*
X670197Y633197D01*
X670516Y633193D01*
X670835Y633181D01*
X671153Y633162D01*
X671471Y633134D01*
X671788Y633099D01*
X672104Y633056D01*
X672420Y633006D01*
X672733Y632947D01*
X673045Y632881D01*
X673356Y632807D01*
X673664Y632726D01*
X673971Y632637D01*
X674275Y632541D01*
X674577Y632437D01*
X674876Y632326D01*
X675172Y632207D01*
X675465Y632082D01*
X675755Y631949D01*
X676042Y631809D01*
X676325Y631662D01*
X676605Y631508D01*
X676880Y631347D01*
X677152Y631180D01*
X677419Y631006D01*
X677683Y630826D01*
X677941Y630639D01*
X678195Y630446D01*
X678444Y630246D01*
X678688Y630041D01*
X678927Y629829D01*
X679161Y629612D01*
X679389Y629389D01*
X679612Y629161D01*
X679829Y628927D01*
X680041Y628688D01*
X680246Y628444D01*
X680446Y628195D01*
X680639Y627941D01*
X680826Y627683D01*
X681006Y627419D01*
X681180Y627152D01*
X681347Y626880D01*
X681508Y626605D01*
X681662Y626325D01*
X681809Y626042D01*
X681949Y625755D01*
X682082Y625465D01*
X682207Y625172D01*
X682326Y624876D01*
X682437Y624577D01*
X682541Y624275D01*
X682637Y623971D01*
X682726Y623664D01*
X682807Y623356D01*
X682881Y623045D01*
X682947Y622733D01*
X683006Y622420D01*
X683056Y622104D01*
X683099Y621788D01*
X683134Y621471D01*
X683162Y621153D01*
X683181Y620835D01*
X683193Y620516D01*
X683197Y620197D01*
X683193Y619878D01*
X683181Y619559D01*
X683162Y619241D01*
X683134Y618923D01*
X683099Y618606D01*
X683056Y618290D01*
X683006Y617974D01*
X682947Y617661D01*
X682881Y617349D01*
X682807Y617038D01*
X682726Y616730D01*
X682637Y616423D01*
X682541Y616119D01*
X682437Y615817D01*
X682326Y615518D01*
X682207Y615222D01*
X682082Y614929D01*
X681949Y614639D01*
X681809Y614352D01*
X681662Y614069D01*
X681508Y613789D01*
X681347Y613514D01*
X681180Y613242D01*
X681006Y612975D01*
X680826Y612711D01*
X680639Y612453D01*
X680446Y612199D01*
X680246Y611950D01*
X680041Y611706D01*
X679829Y611467D01*
X679612Y611233D01*
X679389Y611005D01*
X679161Y610782D01*
X678927Y610565D01*
X678688Y610353D01*
X678444Y610148D01*
X678195Y609948D01*
X677941Y609755D01*
X677683Y609568D01*
X677419Y609388D01*
X677152Y609214D01*
X676880Y609047D01*
X676605Y608886D01*
X676325Y608732D01*
X676042Y608585D01*
X675755Y608445D01*
X675465Y608312D01*
X675172Y608187D01*
X674876Y608068D01*
X674577Y607957D01*
X674275Y607853D01*
X673971Y607757D01*
X673664Y607668D01*
X673356Y607587D01*
X673045Y607513D01*
X672733Y607447D01*
X672420Y607388D01*
X672104Y607338D01*
X671788Y607295D01*
X671471Y607260D01*
X671153Y607232D01*
X670835Y607213D01*
X670516Y607201D01*
X670197Y607197D01*
X669878Y607201D01*
X669559Y607213D01*
X669241Y607232D01*
X668923Y607260D01*
X668606Y607295D01*
X668290Y607338D01*
X667974Y607388D01*
X667661Y607447D01*
X667349Y607513D01*
X667038Y607587D01*
X666730Y607668D01*
X666423Y607757D01*
X666119Y607853D01*
X665817Y607957D01*
X665518Y608068D01*
X665222Y608187D01*
X664929Y608312D01*
X664639Y608445D01*
X664352Y608585D01*
X664069Y608732D01*
X663789Y608886D01*
X663514Y609047D01*
X663242Y609214D01*
X662975Y609388D01*
X662711Y609568D01*
X662453Y609755D01*
X662199Y609948D01*
X661950Y610148D01*
X661706Y610353D01*
X661467Y610565D01*
X661233Y610782D01*
X661005Y611005D01*
X660782Y611233D01*
X660565Y611467D01*
X660353Y611706D01*
X660148Y611950D01*
X659948Y612199D01*
X659755Y612453D01*
X659568Y612711D01*
X659388Y612975D01*
X659214Y613242D01*
X659047Y613514D01*
X658886Y613789D01*
X658732Y614069D01*
X658585Y614352D01*
X658445Y614639D01*
X658312Y614929D01*
X658187Y615222D01*
X658068Y615518D01*
X657957Y615817D01*
X657853Y616119D01*
X657757Y616423D01*
X657668Y616730D01*
X657587Y617038D01*
X657513Y617349D01*
X657447Y617661D01*
X657388Y617974D01*
X657338Y618290D01*
X657295Y618606D01*
X657260Y618923D01*
X657232Y619241D01*
X657213Y619559D01*
X657201Y619878D01*
X657197Y620197D01*
D11*
X740000Y650000D02*
X740000Y660000D01*
X740000Y650000D02*
X739998Y649860D01*
X739992Y649720D01*
X739982Y649580D01*
X739969Y649440D01*
X739951Y649301D01*
X739929Y649162D01*
X739904Y649025D01*
X739875Y648887D01*
X739842Y648751D01*
X739805Y648616D01*
X739764Y648482D01*
X739719Y648349D01*
X739671Y648217D01*
X739619Y648087D01*
X739564Y647958D01*
X739505Y647831D01*
X739442Y647705D01*
X739376Y647581D01*
X739307Y647460D01*
X739234Y647340D01*
X739157Y647222D01*
X739078Y647107D01*
X738995Y646993D01*
X738909Y646883D01*
X738820Y646774D01*
X738728Y646668D01*
X738633Y646565D01*
X738536Y646464D01*
X738435Y646367D01*
X738332Y646272D01*
X738226Y646180D01*
X738117Y646091D01*
X738007Y646005D01*
X737893Y645922D01*
X737778Y645843D01*
X737660Y645766D01*
X737540Y645693D01*
X737419Y645624D01*
X737295Y645558D01*
X737169Y645495D01*
X737042Y645436D01*
X736913Y645381D01*
X736783Y645329D01*
X736651Y645281D01*
X736518Y645236D01*
X736384Y645195D01*
X736249Y645158D01*
X736113Y645125D01*
X735975Y645096D01*
X735838Y645071D01*
X735699Y645049D01*
X735560Y645031D01*
X735420Y645018D01*
X735280Y645008D01*
X735140Y645002D01*
X735000Y645000D01*
X710000Y645000D01*
X709758Y644997D01*
X709517Y644988D01*
X709276Y644974D01*
X709035Y644953D01*
X708795Y644927D01*
X708555Y644895D01*
X708316Y644857D01*
X708079Y644814D01*
X707842Y644764D01*
X707607Y644709D01*
X707373Y644649D01*
X707141Y644582D01*
X706910Y644511D01*
X706681Y644433D01*
X706454Y644350D01*
X706229Y644262D01*
X706006Y644168D01*
X705786Y644069D01*
X705568Y643964D01*
X705353Y643855D01*
X705140Y643740D01*
X704930Y643620D01*
X704724Y643495D01*
X704520Y643365D01*
X704319Y643230D01*
X704122Y643090D01*
X703928Y642946D01*
X703738Y642797D01*
X703552Y642643D01*
X703369Y642485D01*
X703190Y642323D01*
X703015Y642156D01*
X702844Y641985D01*
X702677Y641810D01*
X702515Y641631D01*
X702357Y641448D01*
X702203Y641262D01*
X702054Y641072D01*
X701910Y640878D01*
X701770Y640681D01*
X701635Y640480D01*
X701505Y640276D01*
X701380Y640070D01*
X701260Y639860D01*
X701145Y639647D01*
X701036Y639432D01*
X700931Y639214D01*
X700832Y638994D01*
X700738Y638771D01*
X700650Y638546D01*
X700567Y638319D01*
X700489Y638090D01*
X700418Y637859D01*
X700351Y637627D01*
X700291Y637393D01*
X700236Y637158D01*
X700186Y636921D01*
X700143Y636684D01*
X700105Y636445D01*
X700073Y636205D01*
X700047Y635965D01*
X700026Y635724D01*
X700012Y635483D01*
X700003Y635242D01*
X700000Y635000D01*
X700000Y605000D01*
X700003Y604758D01*
X700012Y604517D01*
X700026Y604276D01*
X700047Y604035D01*
X700073Y603795D01*
X700105Y603555D01*
X700143Y603316D01*
X700186Y603079D01*
X700236Y602842D01*
X700291Y602607D01*
X700351Y602373D01*
X700418Y602141D01*
X700489Y601910D01*
X700567Y601681D01*
X700650Y601454D01*
X700738Y601229D01*
X700832Y601006D01*
X700931Y600786D01*
X701036Y600568D01*
X701145Y600353D01*
X701260Y600140D01*
X701380Y599930D01*
X701505Y599724D01*
X701635Y599520D01*
X701770Y599319D01*
X701910Y599122D01*
X702054Y598928D01*
X702203Y598738D01*
X702357Y598552D01*
X702515Y598369D01*
X702677Y598190D01*
X702844Y598015D01*
X703015Y597844D01*
X703190Y597677D01*
X703369Y597515D01*
X703552Y597357D01*
X703738Y597203D01*
X703928Y597054D01*
X704122Y596910D01*
X704319Y596770D01*
X704520Y596635D01*
X704724Y596505D01*
X704930Y596380D01*
X705140Y596260D01*
X705353Y596145D01*
X705568Y596036D01*
X705786Y595931D01*
X706006Y595832D01*
X706229Y595738D01*
X706454Y595650D01*
X706681Y595567D01*
X706910Y595489D01*
X707141Y595418D01*
X707373Y595351D01*
X707607Y595291D01*
X707842Y595236D01*
X708079Y595186D01*
X708316Y595143D01*
X708555Y595105D01*
X708795Y595073D01*
X709035Y595047D01*
X709276Y595026D01*
X709517Y595012D01*
X709758Y595003D01*
X710000Y595000D01*
X735000Y595000D01*
X735140Y594998D01*
X735280Y594992D01*
X735420Y594982D01*
X735560Y594969D01*
X735699Y594951D01*
X735838Y594929D01*
X735975Y594904D01*
X736113Y594875D01*
X736249Y594842D01*
X736384Y594805D01*
X736518Y594764D01*
X736651Y594719D01*
X736783Y594671D01*
X736913Y594619D01*
X737042Y594564D01*
X737169Y594505D01*
X737295Y594442D01*
X737419Y594376D01*
X737540Y594307D01*
X737660Y594234D01*
X737778Y594157D01*
X737893Y594078D01*
X738007Y593995D01*
X738117Y593909D01*
X738226Y593820D01*
X738332Y593728D01*
X738435Y593633D01*
X738536Y593536D01*
X738633Y593435D01*
X738728Y593332D01*
X738820Y593226D01*
X738909Y593117D01*
X738995Y593007D01*
X739078Y592893D01*
X739157Y592778D01*
X739234Y592660D01*
X739307Y592540D01*
X739376Y592419D01*
X739442Y592295D01*
X739505Y592169D01*
X739564Y592042D01*
X739619Y591913D01*
X739671Y591783D01*
X739719Y591651D01*
X739764Y591518D01*
X739805Y591384D01*
X739842Y591249D01*
X739875Y591113D01*
X739904Y590975D01*
X739929Y590838D01*
X739951Y590699D01*
X739969Y590560D01*
X739982Y590420D01*
X739992Y590280D01*
X739998Y590140D01*
X740000Y590000D01*
X740000Y80000D01*
D12*
X0Y79499D02*
X38Y78628D01*
X152Y77763D01*
X341Y76911D01*
X603Y76079D01*
X937Y75273D01*
X1340Y74499D01*
X1808Y73763D01*
X2340Y73071D01*
X2929Y72428D01*
X3572Y71839D01*
X4264Y71308D01*
X5000Y70839D01*
X5774Y70436D01*
X6580Y70102D01*
X7412Y69840D01*
X8264Y69651D01*
X9128Y69537D01*
X10000Y69499D01*
X35197Y69499D01*
X38187Y69369D01*
X41154Y68978D01*
X44075Y68330D01*
X46929Y67430D01*
X49694Y66285D01*
X52348Y64904D01*
X54872Y63296D01*
X57246Y61474D01*
X59452Y59452D01*
X61474Y57246D01*
X63296Y54872D01*
X64904Y52348D01*
X66285Y49694D01*
X67430Y46929D01*
X68330Y44075D01*
X68978Y41154D01*
X69369Y38187D01*
X69499Y35197D01*
X69499Y10000D01*
X69537Y9128D01*
X69651Y8264D01*
X69840Y7412D01*
X70102Y6580D01*
X70436Y5774D01*
X70839Y5000D01*
X71308Y4264D01*
X71839Y3572D01*
X72428Y2929D01*
X73071Y2340D01*
X73763Y1808D01*
X74499Y1340D01*
X75273Y937D01*
X76079Y603D01*
X76911Y341D01*
X77763Y152D01*
X78628Y38D01*
X79499Y0D01*
X660896Y0D01*
X661767Y38D01*
X662632Y152D01*
X663484Y341D01*
X664316Y603D01*
X665122Y937D01*
X665896Y1340D01*
X666631Y1808D01*
X667323Y2340D01*
X667967Y2929D01*
X668556Y3572D01*
X669087Y4264D01*
X669556Y5000D01*
X669959Y5774D01*
X670292Y6580D01*
X670555Y7412D01*
X670744Y8264D01*
X670857Y9128D01*
X670896Y10000D01*
X670896Y35197D01*
X671026Y38187D01*
X671417Y41154D01*
X672064Y44075D01*
X672964Y46929D01*
X674109Y49694D01*
X675491Y52348D01*
X677099Y54872D01*
X678921Y57246D01*
X680942Y59452D01*
X683149Y61474D01*
X685523Y63296D01*
X688046Y64904D01*
X690701Y66285D01*
X693465Y67430D01*
X696319Y68330D01*
X699241Y68978D01*
X702208Y69369D01*
X705197Y69499D01*
X730000Y69500D01*
X730892Y69561D01*
X731776Y69699D01*
X732644Y69914D01*
X733491Y70204D01*
X734308Y70566D01*
X735092Y70998D01*
X735834Y71497D01*
X736530Y72059D01*
X737175Y72679D01*
X737763Y73353D01*
X738290Y74076D01*
X738752Y74842D01*
X739145Y75645D01*
X739467Y76479D01*
X739715Y77339D01*
X739888Y78216D01*
X739983Y79106D01*
X740000Y80000D01*
X740000Y590000D01*
X739981Y590436D01*
X739924Y590868D01*
X739830Y591294D01*
X739698Y591710D01*
X739532Y592113D01*
X739330Y592500D01*
X739096Y592868D01*
X738830Y593214D01*
X738536Y593536D01*
X738214Y593830D01*
X737868Y594096D01*
X737500Y594330D01*
X737113Y594532D01*
X736710Y594698D01*
X736294Y594830D01*
X735868Y594924D01*
X735436Y594981D01*
X735000Y595000D01*
X710000Y595000D01*
X709128Y595038D01*
X708264Y595152D01*
X707412Y595341D01*
X706580Y595603D01*
X705774Y595937D01*
X705000Y596340D01*
X704264Y596808D01*
X703572Y597340D01*
X702929Y597929D01*
X702340Y598572D01*
X701808Y599264D01*
X701340Y600000D01*
X700937Y600774D01*
X700603Y601580D01*
X700341Y602412D01*
X700152Y603264D01*
X700038Y604128D01*
X700000Y605000D01*
X700000Y635000D01*
X700038Y635872D01*
X700152Y636736D01*
X700341Y637588D01*
X700603Y638420D01*
X700937Y639226D01*
X701340Y640000D01*
X701808Y640736D01*
X702340Y641428D01*
X702929Y642071D01*
X703572Y642660D01*
X704264Y643192D01*
X705000Y643660D01*
X705774Y644063D01*
X706580Y644397D01*
X707412Y644659D01*
X708264Y644848D01*
X709128Y644962D01*
X710000Y645000D01*
X735000Y645000D01*
X735436Y645019D01*
X735868Y645076D01*
X736294Y645170D01*
X736710Y645302D01*
X737113Y645468D01*
X737500Y645670D01*
X737868Y645904D01*
X738214Y646170D01*
X738536Y646464D01*
X738830Y646786D01*
X739096Y647132D01*
X739330Y647500D01*
X739532Y647887D01*
X739698Y648290D01*
X739830Y648706D01*
X739924Y649132D01*
X739981Y649564D01*
X740000Y650000D01*
X740000Y660000D01*
X739962Y660872D01*
X739848Y661736D01*
X739659Y662588D01*
X739397Y663420D01*
X739063Y664226D01*
X738660Y665000D01*
X738192Y665736D01*
X737660Y666428D01*
X737071Y667071D01*
X736428Y667660D01*
X735736Y668192D01*
X735000Y668660D01*
X734226Y669063D01*
X733420Y669397D01*
X732588Y669659D01*
X731736Y669848D01*
X730872Y669962D01*
X730000Y670000D01*
X705197Y670896D01*
X702208Y671026D01*
X699241Y671417D01*
X696319Y672064D01*
X693465Y672964D01*
X690701Y674109D01*
X688046Y675491D01*
X685523Y677099D01*
X683149Y678921D01*
X680942Y680942D01*
X678921Y683149D01*
X677099Y685523D01*
X675491Y688046D01*
X674109Y690701D01*
X672964Y693465D01*
X672064Y696319D01*
X671417Y699241D01*
X671026Y702208D01*
X670896Y705197D01*
X670896Y730395D01*
X670857Y731266D01*
X670744Y732131D01*
X670555Y732983D01*
X670292Y733815D01*
X669959Y734621D01*
X669556Y735395D01*
X669087Y736130D01*
X668556Y736823D01*
X667967Y737466D01*
X667323Y738055D01*
X666631Y738586D01*
X665896Y739055D01*
X665122Y739458D01*
X664316Y739792D01*
X663484Y740054D01*
X662632Y740243D01*
X661767Y740357D01*
X660896Y740395D01*
X79499Y740395D01*
X78628Y740357D01*
X77763Y740243D01*
X76911Y740054D01*
X76079Y739792D01*
X75273Y739458D01*
X74499Y739055D01*
X73763Y738586D01*
X73071Y738055D01*
X72428Y737466D01*
X71839Y736823D01*
X71308Y736130D01*
X70839Y735395D01*
X70436Y734621D01*
X70102Y733815D01*
X69840Y732983D01*
X69651Y732131D01*
X69537Y731266D01*
X69499Y730395D01*
X69499Y705197D01*
X69369Y702208D01*
X68978Y699241D01*
X68330Y696319D01*
X67430Y693465D01*
X66285Y690701D01*
X64904Y688046D01*
X63296Y685523D01*
X61474Y683149D01*
X59452Y680942D01*
X57246Y678921D01*
X54872Y677099D01*
X52348Y675491D01*
X49694Y674109D01*
X46929Y672964D01*
X44075Y672064D01*
X41154Y671417D01*
X38187Y671026D01*
X35197Y670896D01*
X10000Y670896D01*
X9128Y670857D01*
X8264Y670744D01*
X7412Y670555D01*
X6580Y670292D01*
X5774Y669959D01*
X5000Y669556D01*
X4264Y669087D01*
X3572Y668556D01*
X2929Y667967D01*
X2340Y667323D01*
X1808Y666631D01*
X1340Y665896D01*
X937Y665122D01*
X603Y664316D01*
X341Y663484D01*
X152Y662632D01*
X38Y661767D01*
X0Y660896D01*
X0Y79499D01*
X472500Y608000D02*
X487500Y608000D01*
X487500Y618000D01*
X472500Y618000D01*
X472500Y608000D01*
X32500Y266000D02*
X47500Y266000D01*
X47500Y278000D01*
X32500Y278000D01*
X32500Y266000D01*
X32500Y322000D02*
X47500Y322000D01*
X47500Y334000D01*
X32500Y334000D01*
X32500Y322000D01*
X112500Y267000D02*
X127500Y267000D01*
X127500Y277000D01*
X112500Y277000D01*
X112500Y267000D01*
X112500Y507000D02*
X127500Y507000D01*
X127500Y517000D01*
X112500Y517000D01*
X112500Y507000D01*
X112500Y563000D02*
X127500Y563000D01*
X127500Y573000D01*
X112500Y573000D01*
X112500Y563000D01*
X32500Y562000D02*
X47500Y562000D01*
X47500Y574000D01*
X32500Y574000D01*
X32500Y562000D01*
X32500Y506000D02*
X47500Y506000D01*
X47500Y518000D01*
X32500Y518000D01*
X32500Y506000D01*
X592500Y608000D02*
X607500Y608000D01*
X607500Y618000D01*
X592500Y618000D01*
X592500Y608000D01*
X112500Y443000D02*
X127500Y443000D01*
X127500Y453000D01*
X112500Y453000D01*
X112500Y443000D01*
X112500Y387000D02*
X127500Y387000D01*
X127500Y397000D01*
X112500Y397000D01*
X112500Y387000D01*
X32500Y442000D02*
X47500Y442000D01*
X47500Y454000D01*
X32500Y454000D01*
X32500Y442000D01*
X32500Y386000D02*
X47500Y386000D01*
X47500Y398000D01*
X32500Y398000D01*
X32500Y386000D01*
X112500Y323000D02*
X127500Y323000D01*
X127500Y333000D01*
X112500Y333000D01*
X112500Y323000D01*
X446000Y692500D02*
X458000Y692500D01*
X458000Y707500D01*
X446000Y707500D01*
X446000Y692500D01*
X502000Y692500D02*
X514000Y692500D01*
X514000Y707500D01*
X502000Y707500D01*
X502000Y692500D01*
X122000Y292500D02*
X132000Y292500D01*
X132000Y307500D01*
X122000Y307500D01*
X122000Y292500D01*
X122000Y532500D02*
X132000Y532500D01*
X132000Y547500D01*
X122000Y547500D01*
X122000Y532500D01*
X622000Y692500D02*
X634000Y692500D01*
X634000Y707500D01*
X622000Y707500D01*
X622000Y692500D01*
X566000Y692500D02*
X578000Y692500D01*
X578000Y707500D01*
X566000Y707500D01*
X566000Y692500D01*
X122000Y412500D02*
X132000Y412500D01*
X132000Y427500D01*
X122000Y427500D01*
X122000Y412500D01*
X638000Y183000D02*
X638030Y182303D01*
X638122Y181611D01*
X638273Y180929D01*
X638482Y180264D01*
X638750Y179619D01*
X639072Y179000D01*
X639447Y178411D01*
X639872Y177858D01*
X640343Y177343D01*
X640858Y176872D01*
X641411Y176447D01*
X642000Y176072D01*
X642619Y175750D01*
X643264Y175482D01*
X643929Y175273D01*
X644611Y175122D01*
X645303Y175030D01*
X646000Y175000D01*
X646697Y175030D01*
X647389Y175122D01*
X648071Y175273D01*
X648736Y175482D01*
X649381Y175750D01*
X650000Y176072D01*
X650589Y176447D01*
X651142Y176872D01*
X651657Y177343D01*
X652128Y177858D01*
X652553Y178411D01*
X652928Y179000D01*
X653250Y179619D01*
X653518Y180264D01*
X653727Y180929D01*
X653878Y181611D01*
X653970Y182303D01*
X654000Y183000D01*
X654000Y199000D01*
X653970Y199697D01*
X653878Y200389D01*
X653727Y201071D01*
X653518Y201736D01*
X653250Y202381D01*
X652928Y203000D01*
X652553Y203589D01*
X652128Y204142D01*
X651657Y204657D01*
X651142Y205128D01*
X650589Y205553D01*
X650000Y205928D01*
X649381Y206250D01*
X648736Y206518D01*
X648071Y206727D01*
X647389Y206878D01*
X646697Y206970D01*
X646000Y207000D01*
X645303Y206970D01*
X644611Y206878D01*
X643929Y206727D01*
X643264Y206518D01*
X642619Y206250D01*
X642000Y205928D01*
X641411Y205553D01*
X640858Y205128D01*
X640343Y204657D01*
X639872Y204142D01*
X639447Y203589D01*
X639072Y203000D01*
X638750Y202381D01*
X638482Y201736D01*
X638273Y201071D01*
X638122Y200389D01*
X638030Y199697D01*
X638000Y199000D01*
X638000Y183000D01*
X638000Y433000D02*
X638030Y432303D01*
X638122Y431611D01*
X638273Y430929D01*
X638482Y430264D01*
X638750Y429619D01*
X639072Y429000D01*
X639447Y428411D01*
X639872Y427858D01*
X640343Y427343D01*
X640858Y426872D01*
X641411Y426447D01*
X642000Y426072D01*
X642619Y425750D01*
X643264Y425482D01*
X643929Y425273D01*
X644611Y425122D01*
X645303Y425030D01*
X646000Y425000D01*
X646697Y425030D01*
X647389Y425122D01*
X648071Y425273D01*
X648736Y425482D01*
X649381Y425750D01*
X650000Y426072D01*
X650589Y426447D01*
X651142Y426872D01*
X651657Y427343D01*
X652128Y427858D01*
X652553Y428411D01*
X652928Y429000D01*
X653250Y429619D01*
X653518Y430264D01*
X653727Y430929D01*
X653878Y431611D01*
X653970Y432303D01*
X654000Y433000D01*
X654000Y449000D01*
X653970Y449697D01*
X653878Y450389D01*
X653727Y451071D01*
X653518Y451736D01*
X653250Y452381D01*
X652928Y453000D01*
X652553Y453589D01*
X652128Y454142D01*
X651657Y454657D01*
X651142Y455128D01*
X650589Y455553D01*
X650000Y455928D01*
X649381Y456250D01*
X648736Y456518D01*
X648071Y456727D01*
X647389Y456878D01*
X646697Y456970D01*
X646000Y457000D01*
X645303Y456970D01*
X644611Y456878D01*
X643929Y456727D01*
X643264Y456518D01*
X642619Y456250D01*
X642000Y455928D01*
X641411Y455553D01*
X640858Y455128D01*
X640343Y454657D01*
X639872Y454142D01*
X639447Y453589D01*
X639072Y453000D01*
X638750Y452381D01*
X638482Y451736D01*
X638273Y451071D01*
X638122Y450389D01*
X638030Y449697D01*
X638000Y449000D01*
X638000Y433000D01*
X447000Y612500D02*
X457000Y612500D01*
X457000Y627500D01*
X447000Y627500D01*
X447000Y612500D01*
X503000Y612500D02*
X513000Y612500D01*
X513000Y627500D01*
X503000Y627500D01*
X503000Y612500D01*
X623000Y612500D02*
X633000Y612500D01*
X633000Y627500D01*
X623000Y627500D01*
X623000Y612500D01*
X567000Y612500D02*
X577000Y612500D01*
X577000Y627500D01*
X567000Y627500D01*
X567000Y612500D01*
X30500Y539691D02*
X30431Y539077D01*
X30293Y538475D01*
X30089Y537892D01*
X29821Y537335D01*
X29493Y536812D01*
X29108Y536329D01*
X28671Y535893D01*
X28188Y535507D01*
X27665Y535179D01*
X27108Y534911D01*
X26525Y534707D01*
X25923Y534569D01*
X25309Y534500D01*
X24691Y534500D01*
X24077Y534569D01*
X23475Y534707D01*
X22892Y534911D01*
X22335Y535179D01*
X21812Y535507D01*
X21329Y535893D01*
X20893Y536329D01*
X20507Y536812D01*
X20179Y537335D01*
X19911Y537892D01*
X19707Y538475D01*
X19569Y539077D01*
X19500Y539691D01*
X19500Y540309D01*
X19569Y540923D01*
X19707Y541525D01*
X19911Y542108D01*
X20179Y542665D01*
X20507Y543188D01*
X20893Y543671D01*
X21329Y544108D01*
X21812Y544493D01*
X22335Y544821D01*
X22892Y545089D01*
X23475Y545293D01*
X24077Y545431D01*
X24691Y545500D01*
X25309Y545500D01*
X25923Y545431D01*
X26525Y545293D01*
X27108Y545089D01*
X27665Y544821D01*
X28188Y544493D01*
X28671Y544108D01*
X29108Y543671D01*
X29493Y543188D01*
X29821Y542665D01*
X30089Y542108D01*
X30293Y541525D01*
X30431Y540923D01*
X30500Y540309D01*
X30500Y539691D01*
X95500Y539691D02*
X95431Y539077D01*
X95293Y538475D01*
X95089Y537892D01*
X94821Y537335D01*
X94493Y536812D01*
X94108Y536329D01*
X93671Y535893D01*
X93188Y535507D01*
X92665Y535179D01*
X92108Y534911D01*
X91525Y534707D01*
X90923Y534569D01*
X90309Y534500D01*
X89691Y534500D01*
X89077Y534569D01*
X88475Y534707D01*
X87892Y534911D01*
X87335Y535179D01*
X86812Y535507D01*
X86329Y535893D01*
X85893Y536329D01*
X85507Y536812D01*
X85179Y537335D01*
X84911Y537892D01*
X84707Y538475D01*
X84569Y539077D01*
X84500Y539691D01*
X84500Y540309D01*
X84569Y540923D01*
X84707Y541525D01*
X84911Y542108D01*
X85179Y542665D01*
X85507Y543188D01*
X85893Y543671D01*
X86329Y544108D01*
X86812Y544493D01*
X87335Y544821D01*
X87892Y545089D01*
X88475Y545293D01*
X89077Y545431D01*
X89691Y545500D01*
X90309Y545500D01*
X90923Y545431D01*
X91525Y545293D01*
X92108Y545089D01*
X92665Y544821D01*
X93188Y544493D01*
X93671Y544108D01*
X94108Y543671D01*
X94493Y543188D01*
X94821Y542665D01*
X95089Y542108D01*
X95293Y541525D01*
X95431Y540923D01*
X95500Y540309D01*
X95500Y539691D01*
X599691Y709500D02*
X599077Y709569D01*
X598475Y709707D01*
X597892Y709911D01*
X597335Y710179D01*
X596812Y710507D01*
X596329Y710893D01*
X595893Y711329D01*
X595507Y711812D01*
X595179Y712335D01*
X594911Y712892D01*
X594707Y713475D01*
X594569Y714077D01*
X594500Y714691D01*
X594500Y715309D01*
X594569Y715923D01*
X594707Y716525D01*
X594911Y717108D01*
X595179Y717665D01*
X595507Y718188D01*
X595893Y718671D01*
X596329Y719108D01*
X596812Y719493D01*
X597335Y719821D01*
X597892Y720089D01*
X598475Y720293D01*
X599077Y720431D01*
X599691Y720500D01*
X600309Y720500D01*
X600923Y720431D01*
X601525Y720293D01*
X602108Y720089D01*
X602665Y719821D01*
X603188Y719493D01*
X603671Y719108D01*
X604108Y718671D01*
X604493Y718188D01*
X604821Y717665D01*
X605089Y717108D01*
X605293Y716525D01*
X605431Y715923D01*
X605500Y715309D01*
X605500Y714691D01*
X605431Y714077D01*
X605293Y713475D01*
X605089Y712892D01*
X604821Y712335D01*
X604493Y711812D01*
X604108Y711329D01*
X603671Y710893D01*
X603188Y710507D01*
X602665Y710179D01*
X602108Y709911D01*
X601525Y709707D01*
X600923Y709569D01*
X600309Y709500D01*
X599691Y709500D01*
X599691Y644500D02*
X599077Y644569D01*
X598475Y644707D01*
X597892Y644911D01*
X597335Y645179D01*
X596812Y645507D01*
X596329Y645893D01*
X595893Y646329D01*
X595507Y646812D01*
X595179Y647335D01*
X594911Y647892D01*
X594707Y648475D01*
X594569Y649077D01*
X594500Y649691D01*
X594500Y650309D01*
X594569Y650923D01*
X594707Y651525D01*
X594911Y652108D01*
X595179Y652665D01*
X595507Y653188D01*
X595893Y653671D01*
X596329Y654108D01*
X596812Y654493D01*
X597335Y654821D01*
X597892Y655089D01*
X598475Y655293D01*
X599077Y655431D01*
X599691Y655500D01*
X600309Y655500D01*
X600923Y655431D01*
X601525Y655293D01*
X602108Y655089D01*
X602665Y654821D01*
X603188Y654493D01*
X603671Y654108D01*
X604108Y653671D01*
X604493Y653188D01*
X604821Y652665D01*
X605089Y652108D01*
X605293Y651525D01*
X605431Y650923D01*
X605500Y650309D01*
X605500Y649691D01*
X605431Y649077D01*
X605293Y648475D01*
X605089Y647892D01*
X604821Y647335D01*
X604493Y646812D01*
X604108Y646329D01*
X603671Y645893D01*
X603188Y645507D01*
X602665Y645179D01*
X602108Y644911D01*
X601525Y644707D01*
X600923Y644569D01*
X600309Y644500D01*
X599691Y644500D01*
X30500Y419691D02*
X30431Y419077D01*
X30293Y418475D01*
X30089Y417892D01*
X29821Y417335D01*
X29493Y416812D01*
X29108Y416329D01*
X28671Y415893D01*
X28188Y415507D01*
X27665Y415179D01*
X27108Y414911D01*
X26525Y414707D01*
X25923Y414569D01*
X25309Y414500D01*
X24691Y414500D01*
X24077Y414569D01*
X23475Y414707D01*
X22892Y414911D01*
X22335Y415179D01*
X21812Y415507D01*
X21329Y415893D01*
X20893Y416329D01*
X20507Y416812D01*
X20179Y417335D01*
X19911Y417892D01*
X19707Y418475D01*
X19569Y419077D01*
X19500Y419691D01*
X19500Y420309D01*
X19569Y420923D01*
X19707Y421525D01*
X19911Y422108D01*
X20179Y422665D01*
X20507Y423188D01*
X20893Y423671D01*
X21329Y424108D01*
X21812Y424493D01*
X22335Y424821D01*
X22892Y425089D01*
X23475Y425293D01*
X24077Y425431D01*
X24691Y425500D01*
X25309Y425500D01*
X25923Y425431D01*
X26525Y425293D01*
X27108Y425089D01*
X27665Y424821D01*
X28188Y424493D01*
X28671Y424108D01*
X29108Y423671D01*
X29493Y423188D01*
X29821Y422665D01*
X30089Y422108D01*
X30293Y421525D01*
X30431Y420923D01*
X30500Y420309D01*
X30500Y419691D01*
X95500Y419691D02*
X95431Y419077D01*
X95293Y418475D01*
X95089Y417892D01*
X94821Y417335D01*
X94493Y416812D01*
X94108Y416329D01*
X93671Y415893D01*
X93188Y415507D01*
X92665Y415179D01*
X92108Y414911D01*
X91525Y414707D01*
X90923Y414569D01*
X90309Y414500D01*
X89691Y414500D01*
X89077Y414569D01*
X88475Y414707D01*
X87892Y414911D01*
X87335Y415179D01*
X86812Y415507D01*
X86329Y415893D01*
X85893Y416329D01*
X85507Y416812D01*
X85179Y417335D01*
X84911Y417892D01*
X84707Y418475D01*
X84569Y419077D01*
X84500Y419691D01*
X84500Y420309D01*
X84569Y420923D01*
X84707Y421525D01*
X84911Y422108D01*
X85179Y422665D01*
X85507Y423188D01*
X85893Y423671D01*
X86329Y424108D01*
X86812Y424493D01*
X87335Y424821D01*
X87892Y425089D01*
X88475Y425293D01*
X89077Y425431D01*
X89691Y425500D01*
X90309Y425500D01*
X90923Y425431D01*
X91525Y425293D01*
X92108Y425089D01*
X92665Y424821D01*
X93188Y424493D01*
X93671Y424108D01*
X94108Y423671D01*
X94493Y423188D01*
X94821Y422665D01*
X95089Y422108D01*
X95293Y421525D01*
X95431Y420923D01*
X95500Y420309D01*
X95500Y419691D01*
X30500Y299691D02*
X30431Y299077D01*
X30293Y298475D01*
X30089Y297892D01*
X29821Y297335D01*
X29493Y296812D01*
X29108Y296329D01*
X28671Y295893D01*
X28188Y295507D01*
X27665Y295179D01*
X27108Y294911D01*
X26525Y294707D01*
X25923Y294569D01*
X25309Y294500D01*
X24691Y294500D01*
X24077Y294569D01*
X23475Y294707D01*
X22892Y294911D01*
X22335Y295179D01*
X21812Y295507D01*
X21329Y295893D01*
X20893Y296329D01*
X20507Y296812D01*
X20179Y297335D01*
X19911Y297892D01*
X19707Y298475D01*
X19569Y299077D01*
X19500Y299691D01*
X19500Y300309D01*
X19569Y300923D01*
X19707Y301525D01*
X19911Y302108D01*
X20179Y302665D01*
X20507Y303188D01*
X20893Y303671D01*
X21329Y304108D01*
X21812Y304493D01*
X22335Y304821D01*
X22892Y305089D01*
X23475Y305293D01*
X24077Y305431D01*
X24691Y305500D01*
X25309Y305500D01*
X25923Y305431D01*
X26525Y305293D01*
X27108Y305089D01*
X27665Y304821D01*
X28188Y304493D01*
X28671Y304108D01*
X29108Y303671D01*
X29493Y303188D01*
X29821Y302665D01*
X30089Y302108D01*
X30293Y301525D01*
X30431Y300923D01*
X30500Y300309D01*
X30500Y299691D01*
X95500Y299691D02*
X95431Y299077D01*
X95293Y298475D01*
X95089Y297892D01*
X94821Y297335D01*
X94493Y296812D01*
X94108Y296329D01*
X93671Y295893D01*
X93188Y295507D01*
X92665Y295179D01*
X92108Y294911D01*
X91525Y294707D01*
X90923Y294569D01*
X90309Y294500D01*
X89691Y294500D01*
X89077Y294569D01*
X88475Y294707D01*
X87892Y294911D01*
X87335Y295179D01*
X86812Y295507D01*
X86329Y295893D01*
X85893Y296329D01*
X85507Y296812D01*
X85179Y297335D01*
X84911Y297892D01*
X84707Y298475D01*
X84569Y299077D01*
X84500Y299691D01*
X84500Y300309D01*
X84569Y300923D01*
X84707Y301525D01*
X84911Y302108D01*
X85179Y302665D01*
X85507Y303188D01*
X85893Y303671D01*
X86329Y304108D01*
X86812Y304493D01*
X87335Y304821D01*
X87892Y305089D01*
X88475Y305293D01*
X89077Y305431D01*
X89691Y305500D01*
X90309Y305500D01*
X90923Y305431D01*
X91525Y305293D01*
X92108Y305089D01*
X92665Y304821D01*
X93188Y304493D01*
X93671Y304108D01*
X94108Y303671D01*
X94493Y303188D01*
X94821Y302665D01*
X95089Y302108D01*
X95293Y301525D01*
X95431Y300923D01*
X95500Y300309D01*
X95500Y299691D01*
X479691Y709500D02*
X479077Y709569D01*
X478475Y709707D01*
X477892Y709911D01*
X477335Y710179D01*
X476812Y710507D01*
X476329Y710893D01*
X475893Y711329D01*
X475507Y711812D01*
X475179Y712335D01*
X474911Y712892D01*
X474707Y713475D01*
X474569Y714077D01*
X474500Y714691D01*
X474500Y715309D01*
X474569Y715923D01*
X474707Y716525D01*
X474911Y717108D01*
X475179Y717665D01*
X475507Y718188D01*
X475893Y718671D01*
X476329Y719108D01*
X476812Y719493D01*
X477335Y719821D01*
X477892Y720089D01*
X478475Y720293D01*
X479077Y720431D01*
X479691Y720500D01*
X480309Y720500D01*
X480923Y720431D01*
X481525Y720293D01*
X482108Y720089D01*
X482665Y719821D01*
X483188Y719493D01*
X483671Y719108D01*
X484108Y718671D01*
X484493Y718188D01*
X484821Y717665D01*
X485089Y717108D01*
X485293Y716525D01*
X485431Y715923D01*
X485500Y715309D01*
X485500Y714691D01*
X485431Y714077D01*
X485293Y713475D01*
X485089Y712892D01*
X484821Y712335D01*
X484493Y711812D01*
X484108Y711329D01*
X483671Y710893D01*
X483188Y710507D01*
X482665Y710179D01*
X482108Y709911D01*
X481525Y709707D01*
X480923Y709569D01*
X480309Y709500D01*
X479691Y709500D01*
X479691Y644500D02*
X479077Y644569D01*
X478475Y644707D01*
X477892Y644911D01*
X477335Y645179D01*
X476812Y645507D01*
X476329Y645893D01*
X475893Y646329D01*
X475507Y646812D01*
X475179Y647335D01*
X474911Y647892D01*
X474707Y648475D01*
X474569Y649077D01*
X474500Y649691D01*
X474500Y650309D01*
X474569Y650923D01*
X474707Y651525D01*
X474911Y652108D01*
X475179Y652665D01*
X475507Y653188D01*
X475893Y653671D01*
X476329Y654108D01*
X476812Y654493D01*
X477335Y654821D01*
X477892Y655089D01*
X478475Y655293D01*
X479077Y655431D01*
X479691Y655500D01*
X480309Y655500D01*
X480923Y655431D01*
X481525Y655293D01*
X482108Y655089D01*
X482665Y654821D01*
X483188Y654493D01*
X483671Y654108D01*
X484108Y653671D01*
X484493Y653188D01*
X484821Y652665D01*
X485089Y652108D01*
X485293Y651525D01*
X485431Y650923D01*
X485500Y650309D01*
X485500Y649691D01*
X485431Y649077D01*
X485293Y648475D01*
X485089Y647892D01*
X484821Y647335D01*
X484493Y646812D01*
X484108Y646329D01*
X483671Y645893D01*
X483188Y645507D01*
X482665Y645179D01*
X482108Y644911D01*
X481525Y644707D01*
X480923Y644569D01*
X480309Y644500D01*
X479691Y644500D01*
X83197Y119733D02*
X83131Y118807D01*
X82999Y117888D01*
X82802Y116980D01*
X82540Y116089D01*
X82215Y115219D01*
X81830Y114375D01*
X81385Y113560D01*
X80883Y112778D01*
X80326Y112035D01*
X79718Y111333D01*
X79061Y110677D01*
X78360Y110069D01*
X77616Y109512D01*
X76835Y109010D01*
X76020Y108565D01*
X75175Y108179D01*
X74305Y107855D01*
X73414Y107593D01*
X72507Y107396D01*
X71588Y107264D01*
X70662Y107197D01*
X69733Y107197D01*
X68807Y107264D01*
X67888Y107396D01*
X66980Y107593D01*
X66089Y107855D01*
X65219Y108179D01*
X64375Y108565D01*
X63560Y109010D01*
X62778Y109512D01*
X62035Y110069D01*
X61333Y110677D01*
X60677Y111333D01*
X60069Y112035D01*
X59512Y112778D01*
X59010Y113560D01*
X58565Y114375D01*
X58179Y115219D01*
X57855Y116089D01*
X57593Y116980D01*
X57396Y117888D01*
X57264Y118807D01*
X57197Y119733D01*
X57197Y120662D01*
X57264Y121588D01*
X57396Y122507D01*
X57593Y123414D01*
X57855Y124305D01*
X58179Y125175D01*
X58565Y126020D01*
X59010Y126835D01*
X59512Y127616D01*
X60069Y128360D01*
X60677Y129061D01*
X61333Y129718D01*
X62035Y130326D01*
X62778Y130883D01*
X63560Y131385D01*
X64375Y131830D01*
X65219Y132215D01*
X66089Y132540D01*
X66980Y132802D01*
X67888Y132999D01*
X68807Y133131D01*
X69733Y133197D01*
X70662Y133197D01*
X71588Y133131D01*
X72507Y132999D01*
X73414Y132802D01*
X74305Y132540D01*
X75175Y132215D01*
X76020Y131830D01*
X76835Y131385D01*
X77616Y130883D01*
X78360Y130326D01*
X79061Y129718D01*
X79718Y129061D01*
X80326Y128360D01*
X80883Y127616D01*
X81385Y126835D01*
X81830Y126020D01*
X82215Y125175D01*
X82540Y124305D01*
X82802Y123414D01*
X82999Y122507D01*
X83131Y121588D01*
X83197Y120662D01*
X83197Y119733D01*
X683197Y119733D02*
X683131Y118807D01*
X682999Y117888D01*
X682802Y116980D01*
X682540Y116089D01*
X682215Y115219D01*
X681830Y114375D01*
X681385Y113560D01*
X680883Y112778D01*
X680326Y112035D01*
X679718Y111333D01*
X679061Y110677D01*
X678360Y110069D01*
X677616Y109512D01*
X676835Y109010D01*
X676020Y108565D01*
X675175Y108179D01*
X674305Y107855D01*
X673414Y107593D01*
X672507Y107396D01*
X671588Y107264D01*
X670662Y107197D01*
X669733Y107197D01*
X668807Y107264D01*
X667888Y107396D01*
X666980Y107593D01*
X666089Y107855D01*
X665219Y108179D01*
X664375Y108565D01*
X663560Y109010D01*
X662778Y109512D01*
X662035Y110069D01*
X661333Y110677D01*
X660677Y111333D01*
X660069Y112035D01*
X659512Y112778D01*
X659010Y113560D01*
X658565Y114375D01*
X658179Y115219D01*
X657855Y116089D01*
X657593Y116980D01*
X657396Y117888D01*
X657264Y118807D01*
X657197Y119733D01*
X657197Y120662D01*
X657264Y121588D01*
X657396Y122507D01*
X657593Y123414D01*
X657855Y124305D01*
X658179Y125175D01*
X658565Y126020D01*
X659010Y126835D01*
X659512Y127616D01*
X660069Y128360D01*
X660677Y129061D01*
X661333Y129718D01*
X662035Y130326D01*
X662778Y130883D01*
X663560Y131385D01*
X664375Y131830D01*
X665219Y132215D01*
X666089Y132540D01*
X666980Y132802D01*
X667888Y132999D01*
X668807Y133131D01*
X669733Y133197D01*
X670662Y133197D01*
X671588Y133131D01*
X672507Y132999D01*
X673414Y132802D01*
X674305Y132540D01*
X675175Y132215D01*
X676020Y131830D01*
X676835Y131385D01*
X677616Y130883D01*
X678360Y130326D01*
X679061Y129718D01*
X679718Y129061D01*
X680326Y128360D01*
X680883Y127616D01*
X681385Y126835D01*
X681830Y126020D01*
X682215Y125175D01*
X682540Y124305D01*
X682802Y123414D01*
X682999Y122507D01*
X683131Y121588D01*
X683197Y120662D01*
X683197Y119733D01*
X83197Y619733D02*
X83131Y618807D01*
X82999Y617888D01*
X82802Y616980D01*
X82540Y616089D01*
X82215Y615219D01*
X81830Y614375D01*
X81385Y613560D01*
X80883Y612778D01*
X80326Y612035D01*
X79718Y611333D01*
X79061Y610677D01*
X78360Y610069D01*
X77616Y609512D01*
X76835Y609010D01*
X76020Y608565D01*
X75175Y608179D01*
X74305Y607855D01*
X73414Y607593D01*
X72507Y607396D01*
X71588Y607264D01*
X70662Y607197D01*
X69733Y607197D01*
X68807Y607264D01*
X67888Y607396D01*
X66980Y607593D01*
X66089Y607855D01*
X65219Y608179D01*
X64375Y608565D01*
X63560Y609010D01*
X62778Y609512D01*
X62035Y610069D01*
X61333Y610677D01*
X60677Y611333D01*
X60069Y612035D01*
X59512Y612778D01*
X59010Y613560D01*
X58565Y614375D01*
X58179Y615219D01*
X57855Y616089D01*
X57593Y616980D01*
X57396Y617888D01*
X57264Y618807D01*
X57197Y619733D01*
X57197Y620662D01*
X57264Y621588D01*
X57396Y622507D01*
X57593Y623414D01*
X57855Y624305D01*
X58179Y625175D01*
X58565Y626020D01*
X59010Y626835D01*
X59512Y627616D01*
X60069Y628360D01*
X60677Y629061D01*
X61333Y629718D01*
X62035Y630326D01*
X62778Y630883D01*
X63560Y631385D01*
X64375Y631830D01*
X65219Y632215D01*
X66089Y632540D01*
X66980Y632802D01*
X67888Y632999D01*
X68807Y633131D01*
X69733Y633197D01*
X70662Y633197D01*
X71588Y633131D01*
X72507Y632999D01*
X73414Y632802D01*
X74305Y632540D01*
X75175Y632215D01*
X76020Y631830D01*
X76835Y631385D01*
X77616Y630883D01*
X78360Y630326D01*
X79061Y629718D01*
X79718Y629061D01*
X80326Y628360D01*
X80883Y627616D01*
X81385Y626835D01*
X81830Y626020D01*
X82215Y625175D01*
X82540Y624305D01*
X82802Y623414D01*
X82999Y622507D01*
X83131Y621588D01*
X83197Y620662D01*
X83197Y619733D01*
X683197Y619733D02*
X683131Y618807D01*
X682999Y617888D01*
X682802Y616980D01*
X682540Y616089D01*
X682215Y615219D01*
X681830Y614375D01*
X681385Y613560D01*
X680883Y612778D01*
X680326Y612035D01*
X679718Y611333D01*
X679061Y610677D01*
X678360Y610069D01*
X677616Y609512D01*
X676835Y609010D01*
X676020Y608565D01*
X675175Y608179D01*
X674305Y607855D01*
X673414Y607593D01*
X672507Y607396D01*
X671588Y607264D01*
X670662Y607197D01*
X669733Y607197D01*
X668807Y607264D01*
X667888Y607396D01*
X666980Y607593D01*
X666089Y607855D01*
X665219Y608179D01*
X664375Y608565D01*
X663560Y609010D01*
X662778Y609512D01*
X662035Y610069D01*
X661333Y610677D01*
X660677Y611333D01*
X660069Y612035D01*
X659512Y612778D01*
X659010Y613560D01*
X658565Y614375D01*
X658179Y615219D01*
X657855Y616089D01*
X657593Y616980D01*
X657396Y617888D01*
X657264Y618807D01*
X657197Y619733D01*
X657197Y620662D01*
X657264Y621588D01*
X657396Y622507D01*
X657593Y623414D01*
X657855Y624305D01*
X658179Y625175D01*
X658565Y626020D01*
X659010Y626835D01*
X659512Y627616D01*
X660069Y628360D01*
X660677Y629061D01*
X661333Y629718D01*
X662035Y630326D01*
X662778Y630883D01*
X663560Y631385D01*
X664375Y631830D01*
X665219Y632215D01*
X666089Y632540D01*
X666980Y632802D01*
X667888Y632999D01*
X668807Y633131D01*
X669733Y633197D01*
X670662Y633197D01*
X671588Y633131D01*
X672507Y632999D01*
X673414Y632802D01*
X674305Y632540D01*
X675175Y632215D01*
X676020Y631830D01*
X676835Y631385D01*
X677616Y630883D01*
X678360Y630326D01*
X679061Y629718D01*
X679718Y629061D01*
X680326Y628360D01*
X680883Y627616D01*
X681385Y626835D01*
X681830Y626020D01*
X682215Y625175D01*
X682540Y624305D01*
X682802Y623414D01*
X682999Y622507D01*
X683131Y621588D01*
X683197Y620662D01*
X683197Y619733D01*
M02*
