G04 EAGLE Gerber RS-274X export*
G75*
%MOMM*%
%FSLAX34Y34*%
%LPD*%
%IN*%
%IPPOS*%
%AMOC8*
5,1,8,0,0,1.08239X$1,22.5*%
G01*
%ADD10C,0.000000*%
%ADD11C,0.127000*%
%ADD12C,0.254000*%


D10*
X14500Y43800D02*
X14502Y43948D01*
X14508Y44096D01*
X14518Y44244D01*
X14532Y44392D01*
X14550Y44539D01*
X14572Y44686D01*
X14598Y44832D01*
X14627Y44977D01*
X14661Y45122D01*
X14699Y45265D01*
X14740Y45408D01*
X14785Y45549D01*
X14835Y45689D01*
X14887Y45827D01*
X14944Y45965D01*
X15004Y46100D01*
X15068Y46234D01*
X15135Y46366D01*
X15206Y46496D01*
X15281Y46625D01*
X15359Y46751D01*
X15440Y46875D01*
X15524Y46997D01*
X15612Y47116D01*
X15703Y47233D01*
X15797Y47348D01*
X15895Y47460D01*
X15995Y47569D01*
X16098Y47676D01*
X16204Y47780D01*
X16312Y47881D01*
X16424Y47979D01*
X16538Y48074D01*
X16654Y48165D01*
X16773Y48254D01*
X16894Y48339D01*
X17018Y48421D01*
X17144Y48500D01*
X17271Y48575D01*
X17401Y48647D01*
X17533Y48716D01*
X17666Y48780D01*
X17801Y48841D01*
X17938Y48899D01*
X18076Y48953D01*
X18216Y49003D01*
X18357Y49049D01*
X18499Y49091D01*
X18642Y49130D01*
X18786Y49164D01*
X18932Y49195D01*
X19077Y49222D01*
X19224Y49245D01*
X19371Y49264D01*
X19519Y49279D01*
X19666Y49290D01*
X19815Y49297D01*
X19963Y49300D01*
X20111Y49299D01*
X20259Y49294D01*
X20407Y49285D01*
X20555Y49272D01*
X20703Y49255D01*
X20849Y49234D01*
X20996Y49209D01*
X21141Y49180D01*
X21286Y49148D01*
X21429Y49111D01*
X21572Y49071D01*
X21714Y49026D01*
X21854Y48978D01*
X21993Y48926D01*
X22130Y48871D01*
X22266Y48811D01*
X22401Y48748D01*
X22533Y48682D01*
X22664Y48612D01*
X22793Y48538D01*
X22919Y48461D01*
X23044Y48381D01*
X23166Y48297D01*
X23287Y48210D01*
X23404Y48120D01*
X23520Y48026D01*
X23632Y47930D01*
X23742Y47831D01*
X23850Y47728D01*
X23954Y47623D01*
X24056Y47515D01*
X24154Y47404D01*
X24250Y47291D01*
X24343Y47175D01*
X24432Y47057D01*
X24518Y46936D01*
X24601Y46813D01*
X24681Y46688D01*
X24757Y46561D01*
X24830Y46431D01*
X24899Y46300D01*
X24964Y46167D01*
X25027Y46033D01*
X25085Y45896D01*
X25140Y45758D01*
X25190Y45619D01*
X25238Y45478D01*
X25281Y45337D01*
X25321Y45194D01*
X25356Y45050D01*
X25388Y44905D01*
X25416Y44759D01*
X25440Y44613D01*
X25460Y44466D01*
X25476Y44318D01*
X25488Y44171D01*
X25496Y44022D01*
X25500Y43874D01*
X25500Y43726D01*
X25496Y43578D01*
X25488Y43429D01*
X25476Y43282D01*
X25460Y43134D01*
X25440Y42987D01*
X25416Y42841D01*
X25388Y42695D01*
X25356Y42550D01*
X25321Y42406D01*
X25281Y42263D01*
X25238Y42122D01*
X25190Y41981D01*
X25140Y41842D01*
X25085Y41704D01*
X25027Y41567D01*
X24964Y41433D01*
X24899Y41300D01*
X24830Y41169D01*
X24757Y41039D01*
X24681Y40912D01*
X24601Y40787D01*
X24518Y40664D01*
X24432Y40543D01*
X24343Y40425D01*
X24250Y40309D01*
X24154Y40196D01*
X24056Y40085D01*
X23954Y39977D01*
X23850Y39872D01*
X23742Y39769D01*
X23632Y39670D01*
X23520Y39574D01*
X23404Y39480D01*
X23287Y39390D01*
X23166Y39303D01*
X23044Y39219D01*
X22919Y39139D01*
X22793Y39062D01*
X22664Y38988D01*
X22533Y38918D01*
X22401Y38852D01*
X22266Y38789D01*
X22130Y38729D01*
X21993Y38674D01*
X21854Y38622D01*
X21714Y38574D01*
X21572Y38529D01*
X21429Y38489D01*
X21286Y38452D01*
X21141Y38420D01*
X20996Y38391D01*
X20849Y38366D01*
X20703Y38345D01*
X20555Y38328D01*
X20407Y38315D01*
X20259Y38306D01*
X20111Y38301D01*
X19963Y38300D01*
X19815Y38303D01*
X19666Y38310D01*
X19519Y38321D01*
X19371Y38336D01*
X19224Y38355D01*
X19077Y38378D01*
X18932Y38405D01*
X18786Y38436D01*
X18642Y38470D01*
X18499Y38509D01*
X18357Y38551D01*
X18216Y38597D01*
X18076Y38647D01*
X17938Y38701D01*
X17801Y38759D01*
X17666Y38820D01*
X17533Y38884D01*
X17401Y38953D01*
X17271Y39025D01*
X17144Y39100D01*
X17018Y39179D01*
X16894Y39261D01*
X16773Y39346D01*
X16654Y39435D01*
X16538Y39526D01*
X16424Y39621D01*
X16312Y39719D01*
X16204Y39820D01*
X16098Y39924D01*
X15995Y40031D01*
X15895Y40140D01*
X15797Y40252D01*
X15703Y40367D01*
X15612Y40484D01*
X15524Y40603D01*
X15440Y40725D01*
X15359Y40849D01*
X15281Y40975D01*
X15206Y41104D01*
X15135Y41234D01*
X15068Y41366D01*
X15004Y41500D01*
X14944Y41635D01*
X14887Y41773D01*
X14835Y41911D01*
X14785Y42051D01*
X14740Y42192D01*
X14699Y42335D01*
X14661Y42478D01*
X14627Y42623D01*
X14598Y42768D01*
X14572Y42914D01*
X14550Y43061D01*
X14532Y43208D01*
X14518Y43356D01*
X14508Y43504D01*
X14502Y43652D01*
X14500Y43800D01*
X79500Y43800D02*
X79502Y43948D01*
X79508Y44096D01*
X79518Y44244D01*
X79532Y44392D01*
X79550Y44539D01*
X79572Y44686D01*
X79598Y44832D01*
X79627Y44977D01*
X79661Y45122D01*
X79699Y45265D01*
X79740Y45408D01*
X79785Y45549D01*
X79835Y45689D01*
X79887Y45827D01*
X79944Y45965D01*
X80004Y46100D01*
X80068Y46234D01*
X80135Y46366D01*
X80206Y46496D01*
X80281Y46625D01*
X80359Y46751D01*
X80440Y46875D01*
X80524Y46997D01*
X80612Y47116D01*
X80703Y47233D01*
X80797Y47348D01*
X80895Y47460D01*
X80995Y47569D01*
X81098Y47676D01*
X81204Y47780D01*
X81312Y47881D01*
X81424Y47979D01*
X81538Y48074D01*
X81654Y48165D01*
X81773Y48254D01*
X81894Y48339D01*
X82018Y48421D01*
X82144Y48500D01*
X82271Y48575D01*
X82401Y48647D01*
X82533Y48716D01*
X82666Y48780D01*
X82801Y48841D01*
X82938Y48899D01*
X83076Y48953D01*
X83216Y49003D01*
X83357Y49049D01*
X83499Y49091D01*
X83642Y49130D01*
X83786Y49164D01*
X83932Y49195D01*
X84077Y49222D01*
X84224Y49245D01*
X84371Y49264D01*
X84519Y49279D01*
X84666Y49290D01*
X84815Y49297D01*
X84963Y49300D01*
X85111Y49299D01*
X85259Y49294D01*
X85407Y49285D01*
X85555Y49272D01*
X85703Y49255D01*
X85849Y49234D01*
X85996Y49209D01*
X86141Y49180D01*
X86286Y49148D01*
X86429Y49111D01*
X86572Y49071D01*
X86714Y49026D01*
X86854Y48978D01*
X86993Y48926D01*
X87130Y48871D01*
X87266Y48811D01*
X87401Y48748D01*
X87533Y48682D01*
X87664Y48612D01*
X87793Y48538D01*
X87919Y48461D01*
X88044Y48381D01*
X88166Y48297D01*
X88287Y48210D01*
X88404Y48120D01*
X88520Y48026D01*
X88632Y47930D01*
X88742Y47831D01*
X88850Y47728D01*
X88954Y47623D01*
X89056Y47515D01*
X89154Y47404D01*
X89250Y47291D01*
X89343Y47175D01*
X89432Y47057D01*
X89518Y46936D01*
X89601Y46813D01*
X89681Y46688D01*
X89757Y46561D01*
X89830Y46431D01*
X89899Y46300D01*
X89964Y46167D01*
X90027Y46033D01*
X90085Y45896D01*
X90140Y45758D01*
X90190Y45619D01*
X90238Y45478D01*
X90281Y45337D01*
X90321Y45194D01*
X90356Y45050D01*
X90388Y44905D01*
X90416Y44759D01*
X90440Y44613D01*
X90460Y44466D01*
X90476Y44318D01*
X90488Y44171D01*
X90496Y44022D01*
X90500Y43874D01*
X90500Y43726D01*
X90496Y43578D01*
X90488Y43429D01*
X90476Y43282D01*
X90460Y43134D01*
X90440Y42987D01*
X90416Y42841D01*
X90388Y42695D01*
X90356Y42550D01*
X90321Y42406D01*
X90281Y42263D01*
X90238Y42122D01*
X90190Y41981D01*
X90140Y41842D01*
X90085Y41704D01*
X90027Y41567D01*
X89964Y41433D01*
X89899Y41300D01*
X89830Y41169D01*
X89757Y41039D01*
X89681Y40912D01*
X89601Y40787D01*
X89518Y40664D01*
X89432Y40543D01*
X89343Y40425D01*
X89250Y40309D01*
X89154Y40196D01*
X89056Y40085D01*
X88954Y39977D01*
X88850Y39872D01*
X88742Y39769D01*
X88632Y39670D01*
X88520Y39574D01*
X88404Y39480D01*
X88287Y39390D01*
X88166Y39303D01*
X88044Y39219D01*
X87919Y39139D01*
X87793Y39062D01*
X87664Y38988D01*
X87533Y38918D01*
X87401Y38852D01*
X87266Y38789D01*
X87130Y38729D01*
X86993Y38674D01*
X86854Y38622D01*
X86714Y38574D01*
X86572Y38529D01*
X86429Y38489D01*
X86286Y38452D01*
X86141Y38420D01*
X85996Y38391D01*
X85849Y38366D01*
X85703Y38345D01*
X85555Y38328D01*
X85407Y38315D01*
X85259Y38306D01*
X85111Y38301D01*
X84963Y38300D01*
X84815Y38303D01*
X84666Y38310D01*
X84519Y38321D01*
X84371Y38336D01*
X84224Y38355D01*
X84077Y38378D01*
X83932Y38405D01*
X83786Y38436D01*
X83642Y38470D01*
X83499Y38509D01*
X83357Y38551D01*
X83216Y38597D01*
X83076Y38647D01*
X82938Y38701D01*
X82801Y38759D01*
X82666Y38820D01*
X82533Y38884D01*
X82401Y38953D01*
X82271Y39025D01*
X82144Y39100D01*
X82018Y39179D01*
X81894Y39261D01*
X81773Y39346D01*
X81654Y39435D01*
X81538Y39526D01*
X81424Y39621D01*
X81312Y39719D01*
X81204Y39820D01*
X81098Y39924D01*
X80995Y40031D01*
X80895Y40140D01*
X80797Y40252D01*
X80703Y40367D01*
X80612Y40484D01*
X80524Y40603D01*
X80440Y40725D01*
X80359Y40849D01*
X80281Y40975D01*
X80206Y41104D01*
X80135Y41234D01*
X80068Y41366D01*
X80004Y41500D01*
X79944Y41635D01*
X79887Y41773D01*
X79835Y41911D01*
X79785Y42051D01*
X79740Y42192D01*
X79699Y42335D01*
X79661Y42478D01*
X79627Y42623D01*
X79598Y42768D01*
X79572Y42914D01*
X79550Y43061D01*
X79532Y43208D01*
X79518Y43356D01*
X79508Y43504D01*
X79502Y43652D01*
X79500Y43800D01*
X394500Y558000D02*
X394502Y558148D01*
X394508Y558296D01*
X394518Y558444D01*
X394532Y558592D01*
X394550Y558739D01*
X394572Y558886D01*
X394598Y559032D01*
X394627Y559177D01*
X394661Y559322D01*
X394699Y559465D01*
X394740Y559608D01*
X394785Y559749D01*
X394835Y559889D01*
X394887Y560027D01*
X394944Y560165D01*
X395004Y560300D01*
X395068Y560434D01*
X395135Y560566D01*
X395206Y560696D01*
X395281Y560825D01*
X395359Y560951D01*
X395440Y561075D01*
X395524Y561197D01*
X395612Y561316D01*
X395703Y561433D01*
X395797Y561548D01*
X395895Y561660D01*
X395995Y561769D01*
X396098Y561876D01*
X396204Y561980D01*
X396312Y562081D01*
X396424Y562179D01*
X396538Y562274D01*
X396654Y562365D01*
X396773Y562454D01*
X396894Y562539D01*
X397018Y562621D01*
X397144Y562700D01*
X397271Y562775D01*
X397401Y562847D01*
X397533Y562916D01*
X397666Y562980D01*
X397801Y563041D01*
X397938Y563099D01*
X398076Y563153D01*
X398216Y563203D01*
X398357Y563249D01*
X398499Y563291D01*
X398642Y563330D01*
X398786Y563364D01*
X398932Y563395D01*
X399077Y563422D01*
X399224Y563445D01*
X399371Y563464D01*
X399519Y563479D01*
X399666Y563490D01*
X399815Y563497D01*
X399963Y563500D01*
X400111Y563499D01*
X400259Y563494D01*
X400407Y563485D01*
X400555Y563472D01*
X400703Y563455D01*
X400849Y563434D01*
X400996Y563409D01*
X401141Y563380D01*
X401286Y563348D01*
X401429Y563311D01*
X401572Y563271D01*
X401714Y563226D01*
X401854Y563178D01*
X401993Y563126D01*
X402130Y563071D01*
X402266Y563011D01*
X402401Y562948D01*
X402533Y562882D01*
X402664Y562812D01*
X402793Y562738D01*
X402919Y562661D01*
X403044Y562581D01*
X403166Y562497D01*
X403287Y562410D01*
X403404Y562320D01*
X403520Y562226D01*
X403632Y562130D01*
X403742Y562031D01*
X403850Y561928D01*
X403954Y561823D01*
X404056Y561715D01*
X404154Y561604D01*
X404250Y561491D01*
X404343Y561375D01*
X404432Y561257D01*
X404518Y561136D01*
X404601Y561013D01*
X404681Y560888D01*
X404757Y560761D01*
X404830Y560631D01*
X404899Y560500D01*
X404964Y560367D01*
X405027Y560233D01*
X405085Y560096D01*
X405140Y559958D01*
X405190Y559819D01*
X405238Y559678D01*
X405281Y559537D01*
X405321Y559394D01*
X405356Y559250D01*
X405388Y559105D01*
X405416Y558959D01*
X405440Y558813D01*
X405460Y558666D01*
X405476Y558518D01*
X405488Y558371D01*
X405496Y558222D01*
X405500Y558074D01*
X405500Y557926D01*
X405496Y557778D01*
X405488Y557629D01*
X405476Y557482D01*
X405460Y557334D01*
X405440Y557187D01*
X405416Y557041D01*
X405388Y556895D01*
X405356Y556750D01*
X405321Y556606D01*
X405281Y556463D01*
X405238Y556322D01*
X405190Y556181D01*
X405140Y556042D01*
X405085Y555904D01*
X405027Y555767D01*
X404964Y555633D01*
X404899Y555500D01*
X404830Y555369D01*
X404757Y555239D01*
X404681Y555112D01*
X404601Y554987D01*
X404518Y554864D01*
X404432Y554743D01*
X404343Y554625D01*
X404250Y554509D01*
X404154Y554396D01*
X404056Y554285D01*
X403954Y554177D01*
X403850Y554072D01*
X403742Y553969D01*
X403632Y553870D01*
X403520Y553774D01*
X403404Y553680D01*
X403287Y553590D01*
X403166Y553503D01*
X403044Y553419D01*
X402919Y553339D01*
X402793Y553262D01*
X402664Y553188D01*
X402533Y553118D01*
X402401Y553052D01*
X402266Y552989D01*
X402130Y552929D01*
X401993Y552874D01*
X401854Y552822D01*
X401714Y552774D01*
X401572Y552729D01*
X401429Y552689D01*
X401286Y552652D01*
X401141Y552620D01*
X400996Y552591D01*
X400849Y552566D01*
X400703Y552545D01*
X400555Y552528D01*
X400407Y552515D01*
X400259Y552506D01*
X400111Y552501D01*
X399963Y552500D01*
X399815Y552503D01*
X399666Y552510D01*
X399519Y552521D01*
X399371Y552536D01*
X399224Y552555D01*
X399077Y552578D01*
X398932Y552605D01*
X398786Y552636D01*
X398642Y552670D01*
X398499Y552709D01*
X398357Y552751D01*
X398216Y552797D01*
X398076Y552847D01*
X397938Y552901D01*
X397801Y552959D01*
X397666Y553020D01*
X397533Y553084D01*
X397401Y553153D01*
X397271Y553225D01*
X397144Y553300D01*
X397018Y553379D01*
X396894Y553461D01*
X396773Y553546D01*
X396654Y553635D01*
X396538Y553726D01*
X396424Y553821D01*
X396312Y553919D01*
X396204Y554020D01*
X396098Y554124D01*
X395995Y554231D01*
X395895Y554340D01*
X395797Y554452D01*
X395703Y554567D01*
X395612Y554684D01*
X395524Y554803D01*
X395440Y554925D01*
X395359Y555049D01*
X395281Y555175D01*
X395206Y555304D01*
X395135Y555434D01*
X395068Y555566D01*
X395004Y555700D01*
X394944Y555835D01*
X394887Y555973D01*
X394835Y556111D01*
X394785Y556251D01*
X394740Y556392D01*
X394699Y556535D01*
X394661Y556678D01*
X394627Y556823D01*
X394598Y556968D01*
X394572Y557114D01*
X394550Y557261D01*
X394532Y557408D01*
X394518Y557556D01*
X394508Y557704D01*
X394502Y557852D01*
X394500Y558000D01*
X329500Y558000D02*
X329502Y558148D01*
X329508Y558296D01*
X329518Y558444D01*
X329532Y558592D01*
X329550Y558739D01*
X329572Y558886D01*
X329598Y559032D01*
X329627Y559177D01*
X329661Y559322D01*
X329699Y559465D01*
X329740Y559608D01*
X329785Y559749D01*
X329835Y559889D01*
X329887Y560027D01*
X329944Y560165D01*
X330004Y560300D01*
X330068Y560434D01*
X330135Y560566D01*
X330206Y560696D01*
X330281Y560825D01*
X330359Y560951D01*
X330440Y561075D01*
X330524Y561197D01*
X330612Y561316D01*
X330703Y561433D01*
X330797Y561548D01*
X330895Y561660D01*
X330995Y561769D01*
X331098Y561876D01*
X331204Y561980D01*
X331312Y562081D01*
X331424Y562179D01*
X331538Y562274D01*
X331654Y562365D01*
X331773Y562454D01*
X331894Y562539D01*
X332018Y562621D01*
X332144Y562700D01*
X332271Y562775D01*
X332401Y562847D01*
X332533Y562916D01*
X332666Y562980D01*
X332801Y563041D01*
X332938Y563099D01*
X333076Y563153D01*
X333216Y563203D01*
X333357Y563249D01*
X333499Y563291D01*
X333642Y563330D01*
X333786Y563364D01*
X333932Y563395D01*
X334077Y563422D01*
X334224Y563445D01*
X334371Y563464D01*
X334519Y563479D01*
X334666Y563490D01*
X334815Y563497D01*
X334963Y563500D01*
X335111Y563499D01*
X335259Y563494D01*
X335407Y563485D01*
X335555Y563472D01*
X335703Y563455D01*
X335849Y563434D01*
X335996Y563409D01*
X336141Y563380D01*
X336286Y563348D01*
X336429Y563311D01*
X336572Y563271D01*
X336714Y563226D01*
X336854Y563178D01*
X336993Y563126D01*
X337130Y563071D01*
X337266Y563011D01*
X337401Y562948D01*
X337533Y562882D01*
X337664Y562812D01*
X337793Y562738D01*
X337919Y562661D01*
X338044Y562581D01*
X338166Y562497D01*
X338287Y562410D01*
X338404Y562320D01*
X338520Y562226D01*
X338632Y562130D01*
X338742Y562031D01*
X338850Y561928D01*
X338954Y561823D01*
X339056Y561715D01*
X339154Y561604D01*
X339250Y561491D01*
X339343Y561375D01*
X339432Y561257D01*
X339518Y561136D01*
X339601Y561013D01*
X339681Y560888D01*
X339757Y560761D01*
X339830Y560631D01*
X339899Y560500D01*
X339964Y560367D01*
X340027Y560233D01*
X340085Y560096D01*
X340140Y559958D01*
X340190Y559819D01*
X340238Y559678D01*
X340281Y559537D01*
X340321Y559394D01*
X340356Y559250D01*
X340388Y559105D01*
X340416Y558959D01*
X340440Y558813D01*
X340460Y558666D01*
X340476Y558518D01*
X340488Y558371D01*
X340496Y558222D01*
X340500Y558074D01*
X340500Y557926D01*
X340496Y557778D01*
X340488Y557629D01*
X340476Y557482D01*
X340460Y557334D01*
X340440Y557187D01*
X340416Y557041D01*
X340388Y556895D01*
X340356Y556750D01*
X340321Y556606D01*
X340281Y556463D01*
X340238Y556322D01*
X340190Y556181D01*
X340140Y556042D01*
X340085Y555904D01*
X340027Y555767D01*
X339964Y555633D01*
X339899Y555500D01*
X339830Y555369D01*
X339757Y555239D01*
X339681Y555112D01*
X339601Y554987D01*
X339518Y554864D01*
X339432Y554743D01*
X339343Y554625D01*
X339250Y554509D01*
X339154Y554396D01*
X339056Y554285D01*
X338954Y554177D01*
X338850Y554072D01*
X338742Y553969D01*
X338632Y553870D01*
X338520Y553774D01*
X338404Y553680D01*
X338287Y553590D01*
X338166Y553503D01*
X338044Y553419D01*
X337919Y553339D01*
X337793Y553262D01*
X337664Y553188D01*
X337533Y553118D01*
X337401Y553052D01*
X337266Y552989D01*
X337130Y552929D01*
X336993Y552874D01*
X336854Y552822D01*
X336714Y552774D01*
X336572Y552729D01*
X336429Y552689D01*
X336286Y552652D01*
X336141Y552620D01*
X335996Y552591D01*
X335849Y552566D01*
X335703Y552545D01*
X335555Y552528D01*
X335407Y552515D01*
X335259Y552506D01*
X335111Y552501D01*
X334963Y552500D01*
X334815Y552503D01*
X334666Y552510D01*
X334519Y552521D01*
X334371Y552536D01*
X334224Y552555D01*
X334077Y552578D01*
X333932Y552605D01*
X333786Y552636D01*
X333642Y552670D01*
X333499Y552709D01*
X333357Y552751D01*
X333216Y552797D01*
X333076Y552847D01*
X332938Y552901D01*
X332801Y552959D01*
X332666Y553020D01*
X332533Y553084D01*
X332401Y553153D01*
X332271Y553225D01*
X332144Y553300D01*
X332018Y553379D01*
X331894Y553461D01*
X331773Y553546D01*
X331654Y553635D01*
X331538Y553726D01*
X331424Y553821D01*
X331312Y553919D01*
X331204Y554020D01*
X331098Y554124D01*
X330995Y554231D01*
X330895Y554340D01*
X330797Y554452D01*
X330703Y554567D01*
X330612Y554684D01*
X330524Y554803D01*
X330440Y554925D01*
X330359Y555049D01*
X330281Y555175D01*
X330206Y555304D01*
X330135Y555434D01*
X330068Y555566D01*
X330004Y555700D01*
X329944Y555835D01*
X329887Y555973D01*
X329835Y556111D01*
X329785Y556251D01*
X329740Y556392D01*
X329699Y556535D01*
X329661Y556678D01*
X329627Y556823D01*
X329598Y556968D01*
X329572Y557114D01*
X329550Y557261D01*
X329532Y557408D01*
X329518Y557556D01*
X329508Y557704D01*
X329502Y557852D01*
X329500Y558000D01*
X14500Y215200D02*
X14502Y215348D01*
X14508Y215496D01*
X14518Y215644D01*
X14532Y215792D01*
X14550Y215939D01*
X14572Y216086D01*
X14598Y216232D01*
X14627Y216377D01*
X14661Y216522D01*
X14699Y216665D01*
X14740Y216808D01*
X14785Y216949D01*
X14835Y217089D01*
X14887Y217227D01*
X14944Y217365D01*
X15004Y217500D01*
X15068Y217634D01*
X15135Y217766D01*
X15206Y217896D01*
X15281Y218025D01*
X15359Y218151D01*
X15440Y218275D01*
X15524Y218397D01*
X15612Y218516D01*
X15703Y218633D01*
X15797Y218748D01*
X15895Y218860D01*
X15995Y218969D01*
X16098Y219076D01*
X16204Y219180D01*
X16312Y219281D01*
X16424Y219379D01*
X16538Y219474D01*
X16654Y219565D01*
X16773Y219654D01*
X16894Y219739D01*
X17018Y219821D01*
X17144Y219900D01*
X17271Y219975D01*
X17401Y220047D01*
X17533Y220116D01*
X17666Y220180D01*
X17801Y220241D01*
X17938Y220299D01*
X18076Y220353D01*
X18216Y220403D01*
X18357Y220449D01*
X18499Y220491D01*
X18642Y220530D01*
X18786Y220564D01*
X18932Y220595D01*
X19077Y220622D01*
X19224Y220645D01*
X19371Y220664D01*
X19519Y220679D01*
X19666Y220690D01*
X19815Y220697D01*
X19963Y220700D01*
X20111Y220699D01*
X20259Y220694D01*
X20407Y220685D01*
X20555Y220672D01*
X20703Y220655D01*
X20849Y220634D01*
X20996Y220609D01*
X21141Y220580D01*
X21286Y220548D01*
X21429Y220511D01*
X21572Y220471D01*
X21714Y220426D01*
X21854Y220378D01*
X21993Y220326D01*
X22130Y220271D01*
X22266Y220211D01*
X22401Y220148D01*
X22533Y220082D01*
X22664Y220012D01*
X22793Y219938D01*
X22919Y219861D01*
X23044Y219781D01*
X23166Y219697D01*
X23287Y219610D01*
X23404Y219520D01*
X23520Y219426D01*
X23632Y219330D01*
X23742Y219231D01*
X23850Y219128D01*
X23954Y219023D01*
X24056Y218915D01*
X24154Y218804D01*
X24250Y218691D01*
X24343Y218575D01*
X24432Y218457D01*
X24518Y218336D01*
X24601Y218213D01*
X24681Y218088D01*
X24757Y217961D01*
X24830Y217831D01*
X24899Y217700D01*
X24964Y217567D01*
X25027Y217433D01*
X25085Y217296D01*
X25140Y217158D01*
X25190Y217019D01*
X25238Y216878D01*
X25281Y216737D01*
X25321Y216594D01*
X25356Y216450D01*
X25388Y216305D01*
X25416Y216159D01*
X25440Y216013D01*
X25460Y215866D01*
X25476Y215718D01*
X25488Y215571D01*
X25496Y215422D01*
X25500Y215274D01*
X25500Y215126D01*
X25496Y214978D01*
X25488Y214829D01*
X25476Y214682D01*
X25460Y214534D01*
X25440Y214387D01*
X25416Y214241D01*
X25388Y214095D01*
X25356Y213950D01*
X25321Y213806D01*
X25281Y213663D01*
X25238Y213522D01*
X25190Y213381D01*
X25140Y213242D01*
X25085Y213104D01*
X25027Y212967D01*
X24964Y212833D01*
X24899Y212700D01*
X24830Y212569D01*
X24757Y212439D01*
X24681Y212312D01*
X24601Y212187D01*
X24518Y212064D01*
X24432Y211943D01*
X24343Y211825D01*
X24250Y211709D01*
X24154Y211596D01*
X24056Y211485D01*
X23954Y211377D01*
X23850Y211272D01*
X23742Y211169D01*
X23632Y211070D01*
X23520Y210974D01*
X23404Y210880D01*
X23287Y210790D01*
X23166Y210703D01*
X23044Y210619D01*
X22919Y210539D01*
X22793Y210462D01*
X22664Y210388D01*
X22533Y210318D01*
X22401Y210252D01*
X22266Y210189D01*
X22130Y210129D01*
X21993Y210074D01*
X21854Y210022D01*
X21714Y209974D01*
X21572Y209929D01*
X21429Y209889D01*
X21286Y209852D01*
X21141Y209820D01*
X20996Y209791D01*
X20849Y209766D01*
X20703Y209745D01*
X20555Y209728D01*
X20407Y209715D01*
X20259Y209706D01*
X20111Y209701D01*
X19963Y209700D01*
X19815Y209703D01*
X19666Y209710D01*
X19519Y209721D01*
X19371Y209736D01*
X19224Y209755D01*
X19077Y209778D01*
X18932Y209805D01*
X18786Y209836D01*
X18642Y209870D01*
X18499Y209909D01*
X18357Y209951D01*
X18216Y209997D01*
X18076Y210047D01*
X17938Y210101D01*
X17801Y210159D01*
X17666Y210220D01*
X17533Y210284D01*
X17401Y210353D01*
X17271Y210425D01*
X17144Y210500D01*
X17018Y210579D01*
X16894Y210661D01*
X16773Y210746D01*
X16654Y210835D01*
X16538Y210926D01*
X16424Y211021D01*
X16312Y211119D01*
X16204Y211220D01*
X16098Y211324D01*
X15995Y211431D01*
X15895Y211540D01*
X15797Y211652D01*
X15703Y211767D01*
X15612Y211884D01*
X15524Y212003D01*
X15440Y212125D01*
X15359Y212249D01*
X15281Y212375D01*
X15206Y212504D01*
X15135Y212634D01*
X15068Y212766D01*
X15004Y212900D01*
X14944Y213035D01*
X14887Y213173D01*
X14835Y213311D01*
X14785Y213451D01*
X14740Y213592D01*
X14699Y213735D01*
X14661Y213878D01*
X14627Y214023D01*
X14598Y214168D01*
X14572Y214314D01*
X14550Y214461D01*
X14532Y214608D01*
X14518Y214756D01*
X14508Y214904D01*
X14502Y215052D01*
X14500Y215200D01*
X79500Y215200D02*
X79502Y215348D01*
X79508Y215496D01*
X79518Y215644D01*
X79532Y215792D01*
X79550Y215939D01*
X79572Y216086D01*
X79598Y216232D01*
X79627Y216377D01*
X79661Y216522D01*
X79699Y216665D01*
X79740Y216808D01*
X79785Y216949D01*
X79835Y217089D01*
X79887Y217227D01*
X79944Y217365D01*
X80004Y217500D01*
X80068Y217634D01*
X80135Y217766D01*
X80206Y217896D01*
X80281Y218025D01*
X80359Y218151D01*
X80440Y218275D01*
X80524Y218397D01*
X80612Y218516D01*
X80703Y218633D01*
X80797Y218748D01*
X80895Y218860D01*
X80995Y218969D01*
X81098Y219076D01*
X81204Y219180D01*
X81312Y219281D01*
X81424Y219379D01*
X81538Y219474D01*
X81654Y219565D01*
X81773Y219654D01*
X81894Y219739D01*
X82018Y219821D01*
X82144Y219900D01*
X82271Y219975D01*
X82401Y220047D01*
X82533Y220116D01*
X82666Y220180D01*
X82801Y220241D01*
X82938Y220299D01*
X83076Y220353D01*
X83216Y220403D01*
X83357Y220449D01*
X83499Y220491D01*
X83642Y220530D01*
X83786Y220564D01*
X83932Y220595D01*
X84077Y220622D01*
X84224Y220645D01*
X84371Y220664D01*
X84519Y220679D01*
X84666Y220690D01*
X84815Y220697D01*
X84963Y220700D01*
X85111Y220699D01*
X85259Y220694D01*
X85407Y220685D01*
X85555Y220672D01*
X85703Y220655D01*
X85849Y220634D01*
X85996Y220609D01*
X86141Y220580D01*
X86286Y220548D01*
X86429Y220511D01*
X86572Y220471D01*
X86714Y220426D01*
X86854Y220378D01*
X86993Y220326D01*
X87130Y220271D01*
X87266Y220211D01*
X87401Y220148D01*
X87533Y220082D01*
X87664Y220012D01*
X87793Y219938D01*
X87919Y219861D01*
X88044Y219781D01*
X88166Y219697D01*
X88287Y219610D01*
X88404Y219520D01*
X88520Y219426D01*
X88632Y219330D01*
X88742Y219231D01*
X88850Y219128D01*
X88954Y219023D01*
X89056Y218915D01*
X89154Y218804D01*
X89250Y218691D01*
X89343Y218575D01*
X89432Y218457D01*
X89518Y218336D01*
X89601Y218213D01*
X89681Y218088D01*
X89757Y217961D01*
X89830Y217831D01*
X89899Y217700D01*
X89964Y217567D01*
X90027Y217433D01*
X90085Y217296D01*
X90140Y217158D01*
X90190Y217019D01*
X90238Y216878D01*
X90281Y216737D01*
X90321Y216594D01*
X90356Y216450D01*
X90388Y216305D01*
X90416Y216159D01*
X90440Y216013D01*
X90460Y215866D01*
X90476Y215718D01*
X90488Y215571D01*
X90496Y215422D01*
X90500Y215274D01*
X90500Y215126D01*
X90496Y214978D01*
X90488Y214829D01*
X90476Y214682D01*
X90460Y214534D01*
X90440Y214387D01*
X90416Y214241D01*
X90388Y214095D01*
X90356Y213950D01*
X90321Y213806D01*
X90281Y213663D01*
X90238Y213522D01*
X90190Y213381D01*
X90140Y213242D01*
X90085Y213104D01*
X90027Y212967D01*
X89964Y212833D01*
X89899Y212700D01*
X89830Y212569D01*
X89757Y212439D01*
X89681Y212312D01*
X89601Y212187D01*
X89518Y212064D01*
X89432Y211943D01*
X89343Y211825D01*
X89250Y211709D01*
X89154Y211596D01*
X89056Y211485D01*
X88954Y211377D01*
X88850Y211272D01*
X88742Y211169D01*
X88632Y211070D01*
X88520Y210974D01*
X88404Y210880D01*
X88287Y210790D01*
X88166Y210703D01*
X88044Y210619D01*
X87919Y210539D01*
X87793Y210462D01*
X87664Y210388D01*
X87533Y210318D01*
X87401Y210252D01*
X87266Y210189D01*
X87130Y210129D01*
X86993Y210074D01*
X86854Y210022D01*
X86714Y209974D01*
X86572Y209929D01*
X86429Y209889D01*
X86286Y209852D01*
X86141Y209820D01*
X85996Y209791D01*
X85849Y209766D01*
X85703Y209745D01*
X85555Y209728D01*
X85407Y209715D01*
X85259Y209706D01*
X85111Y209701D01*
X84963Y209700D01*
X84815Y209703D01*
X84666Y209710D01*
X84519Y209721D01*
X84371Y209736D01*
X84224Y209755D01*
X84077Y209778D01*
X83932Y209805D01*
X83786Y209836D01*
X83642Y209870D01*
X83499Y209909D01*
X83357Y209951D01*
X83216Y209997D01*
X83076Y210047D01*
X82938Y210101D01*
X82801Y210159D01*
X82666Y210220D01*
X82533Y210284D01*
X82401Y210353D01*
X82271Y210425D01*
X82144Y210500D01*
X82018Y210579D01*
X81894Y210661D01*
X81773Y210746D01*
X81654Y210835D01*
X81538Y210926D01*
X81424Y211021D01*
X81312Y211119D01*
X81204Y211220D01*
X81098Y211324D01*
X80995Y211431D01*
X80895Y211540D01*
X80797Y211652D01*
X80703Y211767D01*
X80612Y211884D01*
X80524Y212003D01*
X80440Y212125D01*
X80359Y212249D01*
X80281Y212375D01*
X80206Y212504D01*
X80135Y212634D01*
X80068Y212766D01*
X80004Y212900D01*
X79944Y213035D01*
X79887Y213173D01*
X79835Y213311D01*
X79785Y213451D01*
X79740Y213592D01*
X79699Y213735D01*
X79661Y213878D01*
X79627Y214023D01*
X79598Y214168D01*
X79572Y214314D01*
X79550Y214461D01*
X79532Y214608D01*
X79518Y214756D01*
X79508Y214904D01*
X79502Y215052D01*
X79500Y215200D01*
X14500Y558000D02*
X14502Y558148D01*
X14508Y558296D01*
X14518Y558444D01*
X14532Y558592D01*
X14550Y558739D01*
X14572Y558886D01*
X14598Y559032D01*
X14627Y559177D01*
X14661Y559322D01*
X14699Y559465D01*
X14740Y559608D01*
X14785Y559749D01*
X14835Y559889D01*
X14887Y560027D01*
X14944Y560165D01*
X15004Y560300D01*
X15068Y560434D01*
X15135Y560566D01*
X15206Y560696D01*
X15281Y560825D01*
X15359Y560951D01*
X15440Y561075D01*
X15524Y561197D01*
X15612Y561316D01*
X15703Y561433D01*
X15797Y561548D01*
X15895Y561660D01*
X15995Y561769D01*
X16098Y561876D01*
X16204Y561980D01*
X16312Y562081D01*
X16424Y562179D01*
X16538Y562274D01*
X16654Y562365D01*
X16773Y562454D01*
X16894Y562539D01*
X17018Y562621D01*
X17144Y562700D01*
X17271Y562775D01*
X17401Y562847D01*
X17533Y562916D01*
X17666Y562980D01*
X17801Y563041D01*
X17938Y563099D01*
X18076Y563153D01*
X18216Y563203D01*
X18357Y563249D01*
X18499Y563291D01*
X18642Y563330D01*
X18786Y563364D01*
X18932Y563395D01*
X19077Y563422D01*
X19224Y563445D01*
X19371Y563464D01*
X19519Y563479D01*
X19666Y563490D01*
X19815Y563497D01*
X19963Y563500D01*
X20111Y563499D01*
X20259Y563494D01*
X20407Y563485D01*
X20555Y563472D01*
X20703Y563455D01*
X20849Y563434D01*
X20996Y563409D01*
X21141Y563380D01*
X21286Y563348D01*
X21429Y563311D01*
X21572Y563271D01*
X21714Y563226D01*
X21854Y563178D01*
X21993Y563126D01*
X22130Y563071D01*
X22266Y563011D01*
X22401Y562948D01*
X22533Y562882D01*
X22664Y562812D01*
X22793Y562738D01*
X22919Y562661D01*
X23044Y562581D01*
X23166Y562497D01*
X23287Y562410D01*
X23404Y562320D01*
X23520Y562226D01*
X23632Y562130D01*
X23742Y562031D01*
X23850Y561928D01*
X23954Y561823D01*
X24056Y561715D01*
X24154Y561604D01*
X24250Y561491D01*
X24343Y561375D01*
X24432Y561257D01*
X24518Y561136D01*
X24601Y561013D01*
X24681Y560888D01*
X24757Y560761D01*
X24830Y560631D01*
X24899Y560500D01*
X24964Y560367D01*
X25027Y560233D01*
X25085Y560096D01*
X25140Y559958D01*
X25190Y559819D01*
X25238Y559678D01*
X25281Y559537D01*
X25321Y559394D01*
X25356Y559250D01*
X25388Y559105D01*
X25416Y558959D01*
X25440Y558813D01*
X25460Y558666D01*
X25476Y558518D01*
X25488Y558371D01*
X25496Y558222D01*
X25500Y558074D01*
X25500Y557926D01*
X25496Y557778D01*
X25488Y557629D01*
X25476Y557482D01*
X25460Y557334D01*
X25440Y557187D01*
X25416Y557041D01*
X25388Y556895D01*
X25356Y556750D01*
X25321Y556606D01*
X25281Y556463D01*
X25238Y556322D01*
X25190Y556181D01*
X25140Y556042D01*
X25085Y555904D01*
X25027Y555767D01*
X24964Y555633D01*
X24899Y555500D01*
X24830Y555369D01*
X24757Y555239D01*
X24681Y555112D01*
X24601Y554987D01*
X24518Y554864D01*
X24432Y554743D01*
X24343Y554625D01*
X24250Y554509D01*
X24154Y554396D01*
X24056Y554285D01*
X23954Y554177D01*
X23850Y554072D01*
X23742Y553969D01*
X23632Y553870D01*
X23520Y553774D01*
X23404Y553680D01*
X23287Y553590D01*
X23166Y553503D01*
X23044Y553419D01*
X22919Y553339D01*
X22793Y553262D01*
X22664Y553188D01*
X22533Y553118D01*
X22401Y553052D01*
X22266Y552989D01*
X22130Y552929D01*
X21993Y552874D01*
X21854Y552822D01*
X21714Y552774D01*
X21572Y552729D01*
X21429Y552689D01*
X21286Y552652D01*
X21141Y552620D01*
X20996Y552591D01*
X20849Y552566D01*
X20703Y552545D01*
X20555Y552528D01*
X20407Y552515D01*
X20259Y552506D01*
X20111Y552501D01*
X19963Y552500D01*
X19815Y552503D01*
X19666Y552510D01*
X19519Y552521D01*
X19371Y552536D01*
X19224Y552555D01*
X19077Y552578D01*
X18932Y552605D01*
X18786Y552636D01*
X18642Y552670D01*
X18499Y552709D01*
X18357Y552751D01*
X18216Y552797D01*
X18076Y552847D01*
X17938Y552901D01*
X17801Y552959D01*
X17666Y553020D01*
X17533Y553084D01*
X17401Y553153D01*
X17271Y553225D01*
X17144Y553300D01*
X17018Y553379D01*
X16894Y553461D01*
X16773Y553546D01*
X16654Y553635D01*
X16538Y553726D01*
X16424Y553821D01*
X16312Y553919D01*
X16204Y554020D01*
X16098Y554124D01*
X15995Y554231D01*
X15895Y554340D01*
X15797Y554452D01*
X15703Y554567D01*
X15612Y554684D01*
X15524Y554803D01*
X15440Y554925D01*
X15359Y555049D01*
X15281Y555175D01*
X15206Y555304D01*
X15135Y555434D01*
X15068Y555566D01*
X15004Y555700D01*
X14944Y555835D01*
X14887Y555973D01*
X14835Y556111D01*
X14785Y556251D01*
X14740Y556392D01*
X14699Y556535D01*
X14661Y556678D01*
X14627Y556823D01*
X14598Y556968D01*
X14572Y557114D01*
X14550Y557261D01*
X14532Y557408D01*
X14518Y557556D01*
X14508Y557704D01*
X14502Y557852D01*
X14500Y558000D01*
X79500Y558000D02*
X79502Y558148D01*
X79508Y558296D01*
X79518Y558444D01*
X79532Y558592D01*
X79550Y558739D01*
X79572Y558886D01*
X79598Y559032D01*
X79627Y559177D01*
X79661Y559322D01*
X79699Y559465D01*
X79740Y559608D01*
X79785Y559749D01*
X79835Y559889D01*
X79887Y560027D01*
X79944Y560165D01*
X80004Y560300D01*
X80068Y560434D01*
X80135Y560566D01*
X80206Y560696D01*
X80281Y560825D01*
X80359Y560951D01*
X80440Y561075D01*
X80524Y561197D01*
X80612Y561316D01*
X80703Y561433D01*
X80797Y561548D01*
X80895Y561660D01*
X80995Y561769D01*
X81098Y561876D01*
X81204Y561980D01*
X81312Y562081D01*
X81424Y562179D01*
X81538Y562274D01*
X81654Y562365D01*
X81773Y562454D01*
X81894Y562539D01*
X82018Y562621D01*
X82144Y562700D01*
X82271Y562775D01*
X82401Y562847D01*
X82533Y562916D01*
X82666Y562980D01*
X82801Y563041D01*
X82938Y563099D01*
X83076Y563153D01*
X83216Y563203D01*
X83357Y563249D01*
X83499Y563291D01*
X83642Y563330D01*
X83786Y563364D01*
X83932Y563395D01*
X84077Y563422D01*
X84224Y563445D01*
X84371Y563464D01*
X84519Y563479D01*
X84666Y563490D01*
X84815Y563497D01*
X84963Y563500D01*
X85111Y563499D01*
X85259Y563494D01*
X85407Y563485D01*
X85555Y563472D01*
X85703Y563455D01*
X85849Y563434D01*
X85996Y563409D01*
X86141Y563380D01*
X86286Y563348D01*
X86429Y563311D01*
X86572Y563271D01*
X86714Y563226D01*
X86854Y563178D01*
X86993Y563126D01*
X87130Y563071D01*
X87266Y563011D01*
X87401Y562948D01*
X87533Y562882D01*
X87664Y562812D01*
X87793Y562738D01*
X87919Y562661D01*
X88044Y562581D01*
X88166Y562497D01*
X88287Y562410D01*
X88404Y562320D01*
X88520Y562226D01*
X88632Y562130D01*
X88742Y562031D01*
X88850Y561928D01*
X88954Y561823D01*
X89056Y561715D01*
X89154Y561604D01*
X89250Y561491D01*
X89343Y561375D01*
X89432Y561257D01*
X89518Y561136D01*
X89601Y561013D01*
X89681Y560888D01*
X89757Y560761D01*
X89830Y560631D01*
X89899Y560500D01*
X89964Y560367D01*
X90027Y560233D01*
X90085Y560096D01*
X90140Y559958D01*
X90190Y559819D01*
X90238Y559678D01*
X90281Y559537D01*
X90321Y559394D01*
X90356Y559250D01*
X90388Y559105D01*
X90416Y558959D01*
X90440Y558813D01*
X90460Y558666D01*
X90476Y558518D01*
X90488Y558371D01*
X90496Y558222D01*
X90500Y558074D01*
X90500Y557926D01*
X90496Y557778D01*
X90488Y557629D01*
X90476Y557482D01*
X90460Y557334D01*
X90440Y557187D01*
X90416Y557041D01*
X90388Y556895D01*
X90356Y556750D01*
X90321Y556606D01*
X90281Y556463D01*
X90238Y556322D01*
X90190Y556181D01*
X90140Y556042D01*
X90085Y555904D01*
X90027Y555767D01*
X89964Y555633D01*
X89899Y555500D01*
X89830Y555369D01*
X89757Y555239D01*
X89681Y555112D01*
X89601Y554987D01*
X89518Y554864D01*
X89432Y554743D01*
X89343Y554625D01*
X89250Y554509D01*
X89154Y554396D01*
X89056Y554285D01*
X88954Y554177D01*
X88850Y554072D01*
X88742Y553969D01*
X88632Y553870D01*
X88520Y553774D01*
X88404Y553680D01*
X88287Y553590D01*
X88166Y553503D01*
X88044Y553419D01*
X87919Y553339D01*
X87793Y553262D01*
X87664Y553188D01*
X87533Y553118D01*
X87401Y553052D01*
X87266Y552989D01*
X87130Y552929D01*
X86993Y552874D01*
X86854Y552822D01*
X86714Y552774D01*
X86572Y552729D01*
X86429Y552689D01*
X86286Y552652D01*
X86141Y552620D01*
X85996Y552591D01*
X85849Y552566D01*
X85703Y552545D01*
X85555Y552528D01*
X85407Y552515D01*
X85259Y552506D01*
X85111Y552501D01*
X84963Y552500D01*
X84815Y552503D01*
X84666Y552510D01*
X84519Y552521D01*
X84371Y552536D01*
X84224Y552555D01*
X84077Y552578D01*
X83932Y552605D01*
X83786Y552636D01*
X83642Y552670D01*
X83499Y552709D01*
X83357Y552751D01*
X83216Y552797D01*
X83076Y552847D01*
X82938Y552901D01*
X82801Y552959D01*
X82666Y553020D01*
X82533Y553084D01*
X82401Y553153D01*
X82271Y553225D01*
X82144Y553300D01*
X82018Y553379D01*
X81894Y553461D01*
X81773Y553546D01*
X81654Y553635D01*
X81538Y553726D01*
X81424Y553821D01*
X81312Y553919D01*
X81204Y554020D01*
X81098Y554124D01*
X80995Y554231D01*
X80895Y554340D01*
X80797Y554452D01*
X80703Y554567D01*
X80612Y554684D01*
X80524Y554803D01*
X80440Y554925D01*
X80359Y555049D01*
X80281Y555175D01*
X80206Y555304D01*
X80135Y555434D01*
X80068Y555566D01*
X80004Y555700D01*
X79944Y555835D01*
X79887Y555973D01*
X79835Y556111D01*
X79785Y556251D01*
X79740Y556392D01*
X79699Y556535D01*
X79661Y556678D01*
X79627Y556823D01*
X79598Y556968D01*
X79572Y557114D01*
X79550Y557261D01*
X79532Y557408D01*
X79518Y557556D01*
X79508Y557704D01*
X79502Y557852D01*
X79500Y558000D01*
X394600Y44000D02*
X394602Y44148D01*
X394608Y44296D01*
X394618Y44444D01*
X394632Y44592D01*
X394650Y44739D01*
X394672Y44886D01*
X394698Y45032D01*
X394727Y45177D01*
X394761Y45322D01*
X394799Y45465D01*
X394840Y45608D01*
X394885Y45749D01*
X394935Y45889D01*
X394987Y46027D01*
X395044Y46165D01*
X395104Y46300D01*
X395168Y46434D01*
X395235Y46566D01*
X395306Y46696D01*
X395381Y46825D01*
X395459Y46951D01*
X395540Y47075D01*
X395624Y47197D01*
X395712Y47316D01*
X395803Y47433D01*
X395897Y47548D01*
X395995Y47660D01*
X396095Y47769D01*
X396198Y47876D01*
X396304Y47980D01*
X396412Y48081D01*
X396524Y48179D01*
X396638Y48274D01*
X396754Y48365D01*
X396873Y48454D01*
X396994Y48539D01*
X397118Y48621D01*
X397244Y48700D01*
X397371Y48775D01*
X397501Y48847D01*
X397633Y48916D01*
X397766Y48980D01*
X397901Y49041D01*
X398038Y49099D01*
X398176Y49153D01*
X398316Y49203D01*
X398457Y49249D01*
X398599Y49291D01*
X398742Y49330D01*
X398886Y49364D01*
X399032Y49395D01*
X399177Y49422D01*
X399324Y49445D01*
X399471Y49464D01*
X399619Y49479D01*
X399766Y49490D01*
X399915Y49497D01*
X400063Y49500D01*
X400211Y49499D01*
X400359Y49494D01*
X400507Y49485D01*
X400655Y49472D01*
X400803Y49455D01*
X400949Y49434D01*
X401096Y49409D01*
X401241Y49380D01*
X401386Y49348D01*
X401529Y49311D01*
X401672Y49271D01*
X401814Y49226D01*
X401954Y49178D01*
X402093Y49126D01*
X402230Y49071D01*
X402366Y49011D01*
X402501Y48948D01*
X402633Y48882D01*
X402764Y48812D01*
X402893Y48738D01*
X403019Y48661D01*
X403144Y48581D01*
X403266Y48497D01*
X403387Y48410D01*
X403504Y48320D01*
X403620Y48226D01*
X403732Y48130D01*
X403842Y48031D01*
X403950Y47928D01*
X404054Y47823D01*
X404156Y47715D01*
X404254Y47604D01*
X404350Y47491D01*
X404443Y47375D01*
X404532Y47257D01*
X404618Y47136D01*
X404701Y47013D01*
X404781Y46888D01*
X404857Y46761D01*
X404930Y46631D01*
X404999Y46500D01*
X405064Y46367D01*
X405127Y46233D01*
X405185Y46096D01*
X405240Y45958D01*
X405290Y45819D01*
X405338Y45678D01*
X405381Y45537D01*
X405421Y45394D01*
X405456Y45250D01*
X405488Y45105D01*
X405516Y44959D01*
X405540Y44813D01*
X405560Y44666D01*
X405576Y44518D01*
X405588Y44371D01*
X405596Y44222D01*
X405600Y44074D01*
X405600Y43926D01*
X405596Y43778D01*
X405588Y43629D01*
X405576Y43482D01*
X405560Y43334D01*
X405540Y43187D01*
X405516Y43041D01*
X405488Y42895D01*
X405456Y42750D01*
X405421Y42606D01*
X405381Y42463D01*
X405338Y42322D01*
X405290Y42181D01*
X405240Y42042D01*
X405185Y41904D01*
X405127Y41767D01*
X405064Y41633D01*
X404999Y41500D01*
X404930Y41369D01*
X404857Y41239D01*
X404781Y41112D01*
X404701Y40987D01*
X404618Y40864D01*
X404532Y40743D01*
X404443Y40625D01*
X404350Y40509D01*
X404254Y40396D01*
X404156Y40285D01*
X404054Y40177D01*
X403950Y40072D01*
X403842Y39969D01*
X403732Y39870D01*
X403620Y39774D01*
X403504Y39680D01*
X403387Y39590D01*
X403266Y39503D01*
X403144Y39419D01*
X403019Y39339D01*
X402893Y39262D01*
X402764Y39188D01*
X402633Y39118D01*
X402501Y39052D01*
X402366Y38989D01*
X402230Y38929D01*
X402093Y38874D01*
X401954Y38822D01*
X401814Y38774D01*
X401672Y38729D01*
X401529Y38689D01*
X401386Y38652D01*
X401241Y38620D01*
X401096Y38591D01*
X400949Y38566D01*
X400803Y38545D01*
X400655Y38528D01*
X400507Y38515D01*
X400359Y38506D01*
X400211Y38501D01*
X400063Y38500D01*
X399915Y38503D01*
X399766Y38510D01*
X399619Y38521D01*
X399471Y38536D01*
X399324Y38555D01*
X399177Y38578D01*
X399032Y38605D01*
X398886Y38636D01*
X398742Y38670D01*
X398599Y38709D01*
X398457Y38751D01*
X398316Y38797D01*
X398176Y38847D01*
X398038Y38901D01*
X397901Y38959D01*
X397766Y39020D01*
X397633Y39084D01*
X397501Y39153D01*
X397371Y39225D01*
X397244Y39300D01*
X397118Y39379D01*
X396994Y39461D01*
X396873Y39546D01*
X396754Y39635D01*
X396638Y39726D01*
X396524Y39821D01*
X396412Y39919D01*
X396304Y40020D01*
X396198Y40124D01*
X396095Y40231D01*
X395995Y40340D01*
X395897Y40452D01*
X395803Y40567D01*
X395712Y40684D01*
X395624Y40803D01*
X395540Y40925D01*
X395459Y41049D01*
X395381Y41175D01*
X395306Y41304D01*
X395235Y41434D01*
X395168Y41566D01*
X395104Y41700D01*
X395044Y41835D01*
X394987Y41973D01*
X394935Y42111D01*
X394885Y42251D01*
X394840Y42392D01*
X394799Y42535D01*
X394761Y42678D01*
X394727Y42823D01*
X394698Y42968D01*
X394672Y43114D01*
X394650Y43261D01*
X394632Y43408D01*
X394618Y43556D01*
X394608Y43704D01*
X394602Y43852D01*
X394600Y44000D01*
X329600Y44000D02*
X329602Y44148D01*
X329608Y44296D01*
X329618Y44444D01*
X329632Y44592D01*
X329650Y44739D01*
X329672Y44886D01*
X329698Y45032D01*
X329727Y45177D01*
X329761Y45322D01*
X329799Y45465D01*
X329840Y45608D01*
X329885Y45749D01*
X329935Y45889D01*
X329987Y46027D01*
X330044Y46165D01*
X330104Y46300D01*
X330168Y46434D01*
X330235Y46566D01*
X330306Y46696D01*
X330381Y46825D01*
X330459Y46951D01*
X330540Y47075D01*
X330624Y47197D01*
X330712Y47316D01*
X330803Y47433D01*
X330897Y47548D01*
X330995Y47660D01*
X331095Y47769D01*
X331198Y47876D01*
X331304Y47980D01*
X331412Y48081D01*
X331524Y48179D01*
X331638Y48274D01*
X331754Y48365D01*
X331873Y48454D01*
X331994Y48539D01*
X332118Y48621D01*
X332244Y48700D01*
X332371Y48775D01*
X332501Y48847D01*
X332633Y48916D01*
X332766Y48980D01*
X332901Y49041D01*
X333038Y49099D01*
X333176Y49153D01*
X333316Y49203D01*
X333457Y49249D01*
X333599Y49291D01*
X333742Y49330D01*
X333886Y49364D01*
X334032Y49395D01*
X334177Y49422D01*
X334324Y49445D01*
X334471Y49464D01*
X334619Y49479D01*
X334766Y49490D01*
X334915Y49497D01*
X335063Y49500D01*
X335211Y49499D01*
X335359Y49494D01*
X335507Y49485D01*
X335655Y49472D01*
X335803Y49455D01*
X335949Y49434D01*
X336096Y49409D01*
X336241Y49380D01*
X336386Y49348D01*
X336529Y49311D01*
X336672Y49271D01*
X336814Y49226D01*
X336954Y49178D01*
X337093Y49126D01*
X337230Y49071D01*
X337366Y49011D01*
X337501Y48948D01*
X337633Y48882D01*
X337764Y48812D01*
X337893Y48738D01*
X338019Y48661D01*
X338144Y48581D01*
X338266Y48497D01*
X338387Y48410D01*
X338504Y48320D01*
X338620Y48226D01*
X338732Y48130D01*
X338842Y48031D01*
X338950Y47928D01*
X339054Y47823D01*
X339156Y47715D01*
X339254Y47604D01*
X339350Y47491D01*
X339443Y47375D01*
X339532Y47257D01*
X339618Y47136D01*
X339701Y47013D01*
X339781Y46888D01*
X339857Y46761D01*
X339930Y46631D01*
X339999Y46500D01*
X340064Y46367D01*
X340127Y46233D01*
X340185Y46096D01*
X340240Y45958D01*
X340290Y45819D01*
X340338Y45678D01*
X340381Y45537D01*
X340421Y45394D01*
X340456Y45250D01*
X340488Y45105D01*
X340516Y44959D01*
X340540Y44813D01*
X340560Y44666D01*
X340576Y44518D01*
X340588Y44371D01*
X340596Y44222D01*
X340600Y44074D01*
X340600Y43926D01*
X340596Y43778D01*
X340588Y43629D01*
X340576Y43482D01*
X340560Y43334D01*
X340540Y43187D01*
X340516Y43041D01*
X340488Y42895D01*
X340456Y42750D01*
X340421Y42606D01*
X340381Y42463D01*
X340338Y42322D01*
X340290Y42181D01*
X340240Y42042D01*
X340185Y41904D01*
X340127Y41767D01*
X340064Y41633D01*
X339999Y41500D01*
X339930Y41369D01*
X339857Y41239D01*
X339781Y41112D01*
X339701Y40987D01*
X339618Y40864D01*
X339532Y40743D01*
X339443Y40625D01*
X339350Y40509D01*
X339254Y40396D01*
X339156Y40285D01*
X339054Y40177D01*
X338950Y40072D01*
X338842Y39969D01*
X338732Y39870D01*
X338620Y39774D01*
X338504Y39680D01*
X338387Y39590D01*
X338266Y39503D01*
X338144Y39419D01*
X338019Y39339D01*
X337893Y39262D01*
X337764Y39188D01*
X337633Y39118D01*
X337501Y39052D01*
X337366Y38989D01*
X337230Y38929D01*
X337093Y38874D01*
X336954Y38822D01*
X336814Y38774D01*
X336672Y38729D01*
X336529Y38689D01*
X336386Y38652D01*
X336241Y38620D01*
X336096Y38591D01*
X335949Y38566D01*
X335803Y38545D01*
X335655Y38528D01*
X335507Y38515D01*
X335359Y38506D01*
X335211Y38501D01*
X335063Y38500D01*
X334915Y38503D01*
X334766Y38510D01*
X334619Y38521D01*
X334471Y38536D01*
X334324Y38555D01*
X334177Y38578D01*
X334032Y38605D01*
X333886Y38636D01*
X333742Y38670D01*
X333599Y38709D01*
X333457Y38751D01*
X333316Y38797D01*
X333176Y38847D01*
X333038Y38901D01*
X332901Y38959D01*
X332766Y39020D01*
X332633Y39084D01*
X332501Y39153D01*
X332371Y39225D01*
X332244Y39300D01*
X332118Y39379D01*
X331994Y39461D01*
X331873Y39546D01*
X331754Y39635D01*
X331638Y39726D01*
X331524Y39821D01*
X331412Y39919D01*
X331304Y40020D01*
X331198Y40124D01*
X331095Y40231D01*
X330995Y40340D01*
X330897Y40452D01*
X330803Y40567D01*
X330712Y40684D01*
X330624Y40803D01*
X330540Y40925D01*
X330459Y41049D01*
X330381Y41175D01*
X330306Y41304D01*
X330235Y41434D01*
X330168Y41566D01*
X330104Y41700D01*
X330044Y41835D01*
X329987Y41973D01*
X329935Y42111D01*
X329885Y42251D01*
X329840Y42392D01*
X329799Y42535D01*
X329761Y42678D01*
X329727Y42823D01*
X329698Y42968D01*
X329672Y43114D01*
X329650Y43261D01*
X329632Y43408D01*
X329618Y43556D01*
X329608Y43704D01*
X329602Y43852D01*
X329600Y44000D01*
X394500Y215200D02*
X394502Y215348D01*
X394508Y215496D01*
X394518Y215644D01*
X394532Y215792D01*
X394550Y215939D01*
X394572Y216086D01*
X394598Y216232D01*
X394627Y216377D01*
X394661Y216522D01*
X394699Y216665D01*
X394740Y216808D01*
X394785Y216949D01*
X394835Y217089D01*
X394887Y217227D01*
X394944Y217365D01*
X395004Y217500D01*
X395068Y217634D01*
X395135Y217766D01*
X395206Y217896D01*
X395281Y218025D01*
X395359Y218151D01*
X395440Y218275D01*
X395524Y218397D01*
X395612Y218516D01*
X395703Y218633D01*
X395797Y218748D01*
X395895Y218860D01*
X395995Y218969D01*
X396098Y219076D01*
X396204Y219180D01*
X396312Y219281D01*
X396424Y219379D01*
X396538Y219474D01*
X396654Y219565D01*
X396773Y219654D01*
X396894Y219739D01*
X397018Y219821D01*
X397144Y219900D01*
X397271Y219975D01*
X397401Y220047D01*
X397533Y220116D01*
X397666Y220180D01*
X397801Y220241D01*
X397938Y220299D01*
X398076Y220353D01*
X398216Y220403D01*
X398357Y220449D01*
X398499Y220491D01*
X398642Y220530D01*
X398786Y220564D01*
X398932Y220595D01*
X399077Y220622D01*
X399224Y220645D01*
X399371Y220664D01*
X399519Y220679D01*
X399666Y220690D01*
X399815Y220697D01*
X399963Y220700D01*
X400111Y220699D01*
X400259Y220694D01*
X400407Y220685D01*
X400555Y220672D01*
X400703Y220655D01*
X400849Y220634D01*
X400996Y220609D01*
X401141Y220580D01*
X401286Y220548D01*
X401429Y220511D01*
X401572Y220471D01*
X401714Y220426D01*
X401854Y220378D01*
X401993Y220326D01*
X402130Y220271D01*
X402266Y220211D01*
X402401Y220148D01*
X402533Y220082D01*
X402664Y220012D01*
X402793Y219938D01*
X402919Y219861D01*
X403044Y219781D01*
X403166Y219697D01*
X403287Y219610D01*
X403404Y219520D01*
X403520Y219426D01*
X403632Y219330D01*
X403742Y219231D01*
X403850Y219128D01*
X403954Y219023D01*
X404056Y218915D01*
X404154Y218804D01*
X404250Y218691D01*
X404343Y218575D01*
X404432Y218457D01*
X404518Y218336D01*
X404601Y218213D01*
X404681Y218088D01*
X404757Y217961D01*
X404830Y217831D01*
X404899Y217700D01*
X404964Y217567D01*
X405027Y217433D01*
X405085Y217296D01*
X405140Y217158D01*
X405190Y217019D01*
X405238Y216878D01*
X405281Y216737D01*
X405321Y216594D01*
X405356Y216450D01*
X405388Y216305D01*
X405416Y216159D01*
X405440Y216013D01*
X405460Y215866D01*
X405476Y215718D01*
X405488Y215571D01*
X405496Y215422D01*
X405500Y215274D01*
X405500Y215126D01*
X405496Y214978D01*
X405488Y214829D01*
X405476Y214682D01*
X405460Y214534D01*
X405440Y214387D01*
X405416Y214241D01*
X405388Y214095D01*
X405356Y213950D01*
X405321Y213806D01*
X405281Y213663D01*
X405238Y213522D01*
X405190Y213381D01*
X405140Y213242D01*
X405085Y213104D01*
X405027Y212967D01*
X404964Y212833D01*
X404899Y212700D01*
X404830Y212569D01*
X404757Y212439D01*
X404681Y212312D01*
X404601Y212187D01*
X404518Y212064D01*
X404432Y211943D01*
X404343Y211825D01*
X404250Y211709D01*
X404154Y211596D01*
X404056Y211485D01*
X403954Y211377D01*
X403850Y211272D01*
X403742Y211169D01*
X403632Y211070D01*
X403520Y210974D01*
X403404Y210880D01*
X403287Y210790D01*
X403166Y210703D01*
X403044Y210619D01*
X402919Y210539D01*
X402793Y210462D01*
X402664Y210388D01*
X402533Y210318D01*
X402401Y210252D01*
X402266Y210189D01*
X402130Y210129D01*
X401993Y210074D01*
X401854Y210022D01*
X401714Y209974D01*
X401572Y209929D01*
X401429Y209889D01*
X401286Y209852D01*
X401141Y209820D01*
X400996Y209791D01*
X400849Y209766D01*
X400703Y209745D01*
X400555Y209728D01*
X400407Y209715D01*
X400259Y209706D01*
X400111Y209701D01*
X399963Y209700D01*
X399815Y209703D01*
X399666Y209710D01*
X399519Y209721D01*
X399371Y209736D01*
X399224Y209755D01*
X399077Y209778D01*
X398932Y209805D01*
X398786Y209836D01*
X398642Y209870D01*
X398499Y209909D01*
X398357Y209951D01*
X398216Y209997D01*
X398076Y210047D01*
X397938Y210101D01*
X397801Y210159D01*
X397666Y210220D01*
X397533Y210284D01*
X397401Y210353D01*
X397271Y210425D01*
X397144Y210500D01*
X397018Y210579D01*
X396894Y210661D01*
X396773Y210746D01*
X396654Y210835D01*
X396538Y210926D01*
X396424Y211021D01*
X396312Y211119D01*
X396204Y211220D01*
X396098Y211324D01*
X395995Y211431D01*
X395895Y211540D01*
X395797Y211652D01*
X395703Y211767D01*
X395612Y211884D01*
X395524Y212003D01*
X395440Y212125D01*
X395359Y212249D01*
X395281Y212375D01*
X395206Y212504D01*
X395135Y212634D01*
X395068Y212766D01*
X395004Y212900D01*
X394944Y213035D01*
X394887Y213173D01*
X394835Y213311D01*
X394785Y213451D01*
X394740Y213592D01*
X394699Y213735D01*
X394661Y213878D01*
X394627Y214023D01*
X394598Y214168D01*
X394572Y214314D01*
X394550Y214461D01*
X394532Y214608D01*
X394518Y214756D01*
X394508Y214904D01*
X394502Y215052D01*
X394500Y215200D01*
X329500Y215200D02*
X329502Y215348D01*
X329508Y215496D01*
X329518Y215644D01*
X329532Y215792D01*
X329550Y215939D01*
X329572Y216086D01*
X329598Y216232D01*
X329627Y216377D01*
X329661Y216522D01*
X329699Y216665D01*
X329740Y216808D01*
X329785Y216949D01*
X329835Y217089D01*
X329887Y217227D01*
X329944Y217365D01*
X330004Y217500D01*
X330068Y217634D01*
X330135Y217766D01*
X330206Y217896D01*
X330281Y218025D01*
X330359Y218151D01*
X330440Y218275D01*
X330524Y218397D01*
X330612Y218516D01*
X330703Y218633D01*
X330797Y218748D01*
X330895Y218860D01*
X330995Y218969D01*
X331098Y219076D01*
X331204Y219180D01*
X331312Y219281D01*
X331424Y219379D01*
X331538Y219474D01*
X331654Y219565D01*
X331773Y219654D01*
X331894Y219739D01*
X332018Y219821D01*
X332144Y219900D01*
X332271Y219975D01*
X332401Y220047D01*
X332533Y220116D01*
X332666Y220180D01*
X332801Y220241D01*
X332938Y220299D01*
X333076Y220353D01*
X333216Y220403D01*
X333357Y220449D01*
X333499Y220491D01*
X333642Y220530D01*
X333786Y220564D01*
X333932Y220595D01*
X334077Y220622D01*
X334224Y220645D01*
X334371Y220664D01*
X334519Y220679D01*
X334666Y220690D01*
X334815Y220697D01*
X334963Y220700D01*
X335111Y220699D01*
X335259Y220694D01*
X335407Y220685D01*
X335555Y220672D01*
X335703Y220655D01*
X335849Y220634D01*
X335996Y220609D01*
X336141Y220580D01*
X336286Y220548D01*
X336429Y220511D01*
X336572Y220471D01*
X336714Y220426D01*
X336854Y220378D01*
X336993Y220326D01*
X337130Y220271D01*
X337266Y220211D01*
X337401Y220148D01*
X337533Y220082D01*
X337664Y220012D01*
X337793Y219938D01*
X337919Y219861D01*
X338044Y219781D01*
X338166Y219697D01*
X338287Y219610D01*
X338404Y219520D01*
X338520Y219426D01*
X338632Y219330D01*
X338742Y219231D01*
X338850Y219128D01*
X338954Y219023D01*
X339056Y218915D01*
X339154Y218804D01*
X339250Y218691D01*
X339343Y218575D01*
X339432Y218457D01*
X339518Y218336D01*
X339601Y218213D01*
X339681Y218088D01*
X339757Y217961D01*
X339830Y217831D01*
X339899Y217700D01*
X339964Y217567D01*
X340027Y217433D01*
X340085Y217296D01*
X340140Y217158D01*
X340190Y217019D01*
X340238Y216878D01*
X340281Y216737D01*
X340321Y216594D01*
X340356Y216450D01*
X340388Y216305D01*
X340416Y216159D01*
X340440Y216013D01*
X340460Y215866D01*
X340476Y215718D01*
X340488Y215571D01*
X340496Y215422D01*
X340500Y215274D01*
X340500Y215126D01*
X340496Y214978D01*
X340488Y214829D01*
X340476Y214682D01*
X340460Y214534D01*
X340440Y214387D01*
X340416Y214241D01*
X340388Y214095D01*
X340356Y213950D01*
X340321Y213806D01*
X340281Y213663D01*
X340238Y213522D01*
X340190Y213381D01*
X340140Y213242D01*
X340085Y213104D01*
X340027Y212967D01*
X339964Y212833D01*
X339899Y212700D01*
X339830Y212569D01*
X339757Y212439D01*
X339681Y212312D01*
X339601Y212187D01*
X339518Y212064D01*
X339432Y211943D01*
X339343Y211825D01*
X339250Y211709D01*
X339154Y211596D01*
X339056Y211485D01*
X338954Y211377D01*
X338850Y211272D01*
X338742Y211169D01*
X338632Y211070D01*
X338520Y210974D01*
X338404Y210880D01*
X338287Y210790D01*
X338166Y210703D01*
X338044Y210619D01*
X337919Y210539D01*
X337793Y210462D01*
X337664Y210388D01*
X337533Y210318D01*
X337401Y210252D01*
X337266Y210189D01*
X337130Y210129D01*
X336993Y210074D01*
X336854Y210022D01*
X336714Y209974D01*
X336572Y209929D01*
X336429Y209889D01*
X336286Y209852D01*
X336141Y209820D01*
X335996Y209791D01*
X335849Y209766D01*
X335703Y209745D01*
X335555Y209728D01*
X335407Y209715D01*
X335259Y209706D01*
X335111Y209701D01*
X334963Y209700D01*
X334815Y209703D01*
X334666Y209710D01*
X334519Y209721D01*
X334371Y209736D01*
X334224Y209755D01*
X334077Y209778D01*
X333932Y209805D01*
X333786Y209836D01*
X333642Y209870D01*
X333499Y209909D01*
X333357Y209951D01*
X333216Y209997D01*
X333076Y210047D01*
X332938Y210101D01*
X332801Y210159D01*
X332666Y210220D01*
X332533Y210284D01*
X332401Y210353D01*
X332271Y210425D01*
X332144Y210500D01*
X332018Y210579D01*
X331894Y210661D01*
X331773Y210746D01*
X331654Y210835D01*
X331538Y210926D01*
X331424Y211021D01*
X331312Y211119D01*
X331204Y211220D01*
X331098Y211324D01*
X330995Y211431D01*
X330895Y211540D01*
X330797Y211652D01*
X330703Y211767D01*
X330612Y211884D01*
X330524Y212003D01*
X330440Y212125D01*
X330359Y212249D01*
X330281Y212375D01*
X330206Y212504D01*
X330135Y212634D01*
X330068Y212766D01*
X330004Y212900D01*
X329944Y213035D01*
X329887Y213173D01*
X329835Y213311D01*
X329785Y213451D01*
X329740Y213592D01*
X329699Y213735D01*
X329661Y213878D01*
X329627Y214023D01*
X329598Y214168D01*
X329572Y214314D01*
X329550Y214461D01*
X329532Y214608D01*
X329518Y214756D01*
X329508Y214904D01*
X329502Y215052D01*
X329500Y215200D01*
X394500Y386600D02*
X394502Y386748D01*
X394508Y386896D01*
X394518Y387044D01*
X394532Y387192D01*
X394550Y387339D01*
X394572Y387486D01*
X394598Y387632D01*
X394627Y387777D01*
X394661Y387922D01*
X394699Y388065D01*
X394740Y388208D01*
X394785Y388349D01*
X394835Y388489D01*
X394887Y388627D01*
X394944Y388765D01*
X395004Y388900D01*
X395068Y389034D01*
X395135Y389166D01*
X395206Y389296D01*
X395281Y389425D01*
X395359Y389551D01*
X395440Y389675D01*
X395524Y389797D01*
X395612Y389916D01*
X395703Y390033D01*
X395797Y390148D01*
X395895Y390260D01*
X395995Y390369D01*
X396098Y390476D01*
X396204Y390580D01*
X396312Y390681D01*
X396424Y390779D01*
X396538Y390874D01*
X396654Y390965D01*
X396773Y391054D01*
X396894Y391139D01*
X397018Y391221D01*
X397144Y391300D01*
X397271Y391375D01*
X397401Y391447D01*
X397533Y391516D01*
X397666Y391580D01*
X397801Y391641D01*
X397938Y391699D01*
X398076Y391753D01*
X398216Y391803D01*
X398357Y391849D01*
X398499Y391891D01*
X398642Y391930D01*
X398786Y391964D01*
X398932Y391995D01*
X399077Y392022D01*
X399224Y392045D01*
X399371Y392064D01*
X399519Y392079D01*
X399666Y392090D01*
X399815Y392097D01*
X399963Y392100D01*
X400111Y392099D01*
X400259Y392094D01*
X400407Y392085D01*
X400555Y392072D01*
X400703Y392055D01*
X400849Y392034D01*
X400996Y392009D01*
X401141Y391980D01*
X401286Y391948D01*
X401429Y391911D01*
X401572Y391871D01*
X401714Y391826D01*
X401854Y391778D01*
X401993Y391726D01*
X402130Y391671D01*
X402266Y391611D01*
X402401Y391548D01*
X402533Y391482D01*
X402664Y391412D01*
X402793Y391338D01*
X402919Y391261D01*
X403044Y391181D01*
X403166Y391097D01*
X403287Y391010D01*
X403404Y390920D01*
X403520Y390826D01*
X403632Y390730D01*
X403742Y390631D01*
X403850Y390528D01*
X403954Y390423D01*
X404056Y390315D01*
X404154Y390204D01*
X404250Y390091D01*
X404343Y389975D01*
X404432Y389857D01*
X404518Y389736D01*
X404601Y389613D01*
X404681Y389488D01*
X404757Y389361D01*
X404830Y389231D01*
X404899Y389100D01*
X404964Y388967D01*
X405027Y388833D01*
X405085Y388696D01*
X405140Y388558D01*
X405190Y388419D01*
X405238Y388278D01*
X405281Y388137D01*
X405321Y387994D01*
X405356Y387850D01*
X405388Y387705D01*
X405416Y387559D01*
X405440Y387413D01*
X405460Y387266D01*
X405476Y387118D01*
X405488Y386971D01*
X405496Y386822D01*
X405500Y386674D01*
X405500Y386526D01*
X405496Y386378D01*
X405488Y386229D01*
X405476Y386082D01*
X405460Y385934D01*
X405440Y385787D01*
X405416Y385641D01*
X405388Y385495D01*
X405356Y385350D01*
X405321Y385206D01*
X405281Y385063D01*
X405238Y384922D01*
X405190Y384781D01*
X405140Y384642D01*
X405085Y384504D01*
X405027Y384367D01*
X404964Y384233D01*
X404899Y384100D01*
X404830Y383969D01*
X404757Y383839D01*
X404681Y383712D01*
X404601Y383587D01*
X404518Y383464D01*
X404432Y383343D01*
X404343Y383225D01*
X404250Y383109D01*
X404154Y382996D01*
X404056Y382885D01*
X403954Y382777D01*
X403850Y382672D01*
X403742Y382569D01*
X403632Y382470D01*
X403520Y382374D01*
X403404Y382280D01*
X403287Y382190D01*
X403166Y382103D01*
X403044Y382019D01*
X402919Y381939D01*
X402793Y381862D01*
X402664Y381788D01*
X402533Y381718D01*
X402401Y381652D01*
X402266Y381589D01*
X402130Y381529D01*
X401993Y381474D01*
X401854Y381422D01*
X401714Y381374D01*
X401572Y381329D01*
X401429Y381289D01*
X401286Y381252D01*
X401141Y381220D01*
X400996Y381191D01*
X400849Y381166D01*
X400703Y381145D01*
X400555Y381128D01*
X400407Y381115D01*
X400259Y381106D01*
X400111Y381101D01*
X399963Y381100D01*
X399815Y381103D01*
X399666Y381110D01*
X399519Y381121D01*
X399371Y381136D01*
X399224Y381155D01*
X399077Y381178D01*
X398932Y381205D01*
X398786Y381236D01*
X398642Y381270D01*
X398499Y381309D01*
X398357Y381351D01*
X398216Y381397D01*
X398076Y381447D01*
X397938Y381501D01*
X397801Y381559D01*
X397666Y381620D01*
X397533Y381684D01*
X397401Y381753D01*
X397271Y381825D01*
X397144Y381900D01*
X397018Y381979D01*
X396894Y382061D01*
X396773Y382146D01*
X396654Y382235D01*
X396538Y382326D01*
X396424Y382421D01*
X396312Y382519D01*
X396204Y382620D01*
X396098Y382724D01*
X395995Y382831D01*
X395895Y382940D01*
X395797Y383052D01*
X395703Y383167D01*
X395612Y383284D01*
X395524Y383403D01*
X395440Y383525D01*
X395359Y383649D01*
X395281Y383775D01*
X395206Y383904D01*
X395135Y384034D01*
X395068Y384166D01*
X395004Y384300D01*
X394944Y384435D01*
X394887Y384573D01*
X394835Y384711D01*
X394785Y384851D01*
X394740Y384992D01*
X394699Y385135D01*
X394661Y385278D01*
X394627Y385423D01*
X394598Y385568D01*
X394572Y385714D01*
X394550Y385861D01*
X394532Y386008D01*
X394518Y386156D01*
X394508Y386304D01*
X394502Y386452D01*
X394500Y386600D01*
X329500Y386600D02*
X329502Y386748D01*
X329508Y386896D01*
X329518Y387044D01*
X329532Y387192D01*
X329550Y387339D01*
X329572Y387486D01*
X329598Y387632D01*
X329627Y387777D01*
X329661Y387922D01*
X329699Y388065D01*
X329740Y388208D01*
X329785Y388349D01*
X329835Y388489D01*
X329887Y388627D01*
X329944Y388765D01*
X330004Y388900D01*
X330068Y389034D01*
X330135Y389166D01*
X330206Y389296D01*
X330281Y389425D01*
X330359Y389551D01*
X330440Y389675D01*
X330524Y389797D01*
X330612Y389916D01*
X330703Y390033D01*
X330797Y390148D01*
X330895Y390260D01*
X330995Y390369D01*
X331098Y390476D01*
X331204Y390580D01*
X331312Y390681D01*
X331424Y390779D01*
X331538Y390874D01*
X331654Y390965D01*
X331773Y391054D01*
X331894Y391139D01*
X332018Y391221D01*
X332144Y391300D01*
X332271Y391375D01*
X332401Y391447D01*
X332533Y391516D01*
X332666Y391580D01*
X332801Y391641D01*
X332938Y391699D01*
X333076Y391753D01*
X333216Y391803D01*
X333357Y391849D01*
X333499Y391891D01*
X333642Y391930D01*
X333786Y391964D01*
X333932Y391995D01*
X334077Y392022D01*
X334224Y392045D01*
X334371Y392064D01*
X334519Y392079D01*
X334666Y392090D01*
X334815Y392097D01*
X334963Y392100D01*
X335111Y392099D01*
X335259Y392094D01*
X335407Y392085D01*
X335555Y392072D01*
X335703Y392055D01*
X335849Y392034D01*
X335996Y392009D01*
X336141Y391980D01*
X336286Y391948D01*
X336429Y391911D01*
X336572Y391871D01*
X336714Y391826D01*
X336854Y391778D01*
X336993Y391726D01*
X337130Y391671D01*
X337266Y391611D01*
X337401Y391548D01*
X337533Y391482D01*
X337664Y391412D01*
X337793Y391338D01*
X337919Y391261D01*
X338044Y391181D01*
X338166Y391097D01*
X338287Y391010D01*
X338404Y390920D01*
X338520Y390826D01*
X338632Y390730D01*
X338742Y390631D01*
X338850Y390528D01*
X338954Y390423D01*
X339056Y390315D01*
X339154Y390204D01*
X339250Y390091D01*
X339343Y389975D01*
X339432Y389857D01*
X339518Y389736D01*
X339601Y389613D01*
X339681Y389488D01*
X339757Y389361D01*
X339830Y389231D01*
X339899Y389100D01*
X339964Y388967D01*
X340027Y388833D01*
X340085Y388696D01*
X340140Y388558D01*
X340190Y388419D01*
X340238Y388278D01*
X340281Y388137D01*
X340321Y387994D01*
X340356Y387850D01*
X340388Y387705D01*
X340416Y387559D01*
X340440Y387413D01*
X340460Y387266D01*
X340476Y387118D01*
X340488Y386971D01*
X340496Y386822D01*
X340500Y386674D01*
X340500Y386526D01*
X340496Y386378D01*
X340488Y386229D01*
X340476Y386082D01*
X340460Y385934D01*
X340440Y385787D01*
X340416Y385641D01*
X340388Y385495D01*
X340356Y385350D01*
X340321Y385206D01*
X340281Y385063D01*
X340238Y384922D01*
X340190Y384781D01*
X340140Y384642D01*
X340085Y384504D01*
X340027Y384367D01*
X339964Y384233D01*
X339899Y384100D01*
X339830Y383969D01*
X339757Y383839D01*
X339681Y383712D01*
X339601Y383587D01*
X339518Y383464D01*
X339432Y383343D01*
X339343Y383225D01*
X339250Y383109D01*
X339154Y382996D01*
X339056Y382885D01*
X338954Y382777D01*
X338850Y382672D01*
X338742Y382569D01*
X338632Y382470D01*
X338520Y382374D01*
X338404Y382280D01*
X338287Y382190D01*
X338166Y382103D01*
X338044Y382019D01*
X337919Y381939D01*
X337793Y381862D01*
X337664Y381788D01*
X337533Y381718D01*
X337401Y381652D01*
X337266Y381589D01*
X337130Y381529D01*
X336993Y381474D01*
X336854Y381422D01*
X336714Y381374D01*
X336572Y381329D01*
X336429Y381289D01*
X336286Y381252D01*
X336141Y381220D01*
X335996Y381191D01*
X335849Y381166D01*
X335703Y381145D01*
X335555Y381128D01*
X335407Y381115D01*
X335259Y381106D01*
X335111Y381101D01*
X334963Y381100D01*
X334815Y381103D01*
X334666Y381110D01*
X334519Y381121D01*
X334371Y381136D01*
X334224Y381155D01*
X334077Y381178D01*
X333932Y381205D01*
X333786Y381236D01*
X333642Y381270D01*
X333499Y381309D01*
X333357Y381351D01*
X333216Y381397D01*
X333076Y381447D01*
X332938Y381501D01*
X332801Y381559D01*
X332666Y381620D01*
X332533Y381684D01*
X332401Y381753D01*
X332271Y381825D01*
X332144Y381900D01*
X332018Y381979D01*
X331894Y382061D01*
X331773Y382146D01*
X331654Y382235D01*
X331538Y382326D01*
X331424Y382421D01*
X331312Y382519D01*
X331204Y382620D01*
X331098Y382724D01*
X330995Y382831D01*
X330895Y382940D01*
X330797Y383052D01*
X330703Y383167D01*
X330612Y383284D01*
X330524Y383403D01*
X330440Y383525D01*
X330359Y383649D01*
X330281Y383775D01*
X330206Y383904D01*
X330135Y384034D01*
X330068Y384166D01*
X330004Y384300D01*
X329944Y384435D01*
X329887Y384573D01*
X329835Y384711D01*
X329785Y384851D01*
X329740Y384992D01*
X329699Y385135D01*
X329661Y385278D01*
X329627Y385423D01*
X329598Y385568D01*
X329572Y385714D01*
X329550Y385861D01*
X329532Y386008D01*
X329518Y386156D01*
X329508Y386304D01*
X329502Y386452D01*
X329500Y386600D01*
X14500Y386600D02*
X14502Y386748D01*
X14508Y386896D01*
X14518Y387044D01*
X14532Y387192D01*
X14550Y387339D01*
X14572Y387486D01*
X14598Y387632D01*
X14627Y387777D01*
X14661Y387922D01*
X14699Y388065D01*
X14740Y388208D01*
X14785Y388349D01*
X14835Y388489D01*
X14887Y388627D01*
X14944Y388765D01*
X15004Y388900D01*
X15068Y389034D01*
X15135Y389166D01*
X15206Y389296D01*
X15281Y389425D01*
X15359Y389551D01*
X15440Y389675D01*
X15524Y389797D01*
X15612Y389916D01*
X15703Y390033D01*
X15797Y390148D01*
X15895Y390260D01*
X15995Y390369D01*
X16098Y390476D01*
X16204Y390580D01*
X16312Y390681D01*
X16424Y390779D01*
X16538Y390874D01*
X16654Y390965D01*
X16773Y391054D01*
X16894Y391139D01*
X17018Y391221D01*
X17144Y391300D01*
X17271Y391375D01*
X17401Y391447D01*
X17533Y391516D01*
X17666Y391580D01*
X17801Y391641D01*
X17938Y391699D01*
X18076Y391753D01*
X18216Y391803D01*
X18357Y391849D01*
X18499Y391891D01*
X18642Y391930D01*
X18786Y391964D01*
X18932Y391995D01*
X19077Y392022D01*
X19224Y392045D01*
X19371Y392064D01*
X19519Y392079D01*
X19666Y392090D01*
X19815Y392097D01*
X19963Y392100D01*
X20111Y392099D01*
X20259Y392094D01*
X20407Y392085D01*
X20555Y392072D01*
X20703Y392055D01*
X20849Y392034D01*
X20996Y392009D01*
X21141Y391980D01*
X21286Y391948D01*
X21429Y391911D01*
X21572Y391871D01*
X21714Y391826D01*
X21854Y391778D01*
X21993Y391726D01*
X22130Y391671D01*
X22266Y391611D01*
X22401Y391548D01*
X22533Y391482D01*
X22664Y391412D01*
X22793Y391338D01*
X22919Y391261D01*
X23044Y391181D01*
X23166Y391097D01*
X23287Y391010D01*
X23404Y390920D01*
X23520Y390826D01*
X23632Y390730D01*
X23742Y390631D01*
X23850Y390528D01*
X23954Y390423D01*
X24056Y390315D01*
X24154Y390204D01*
X24250Y390091D01*
X24343Y389975D01*
X24432Y389857D01*
X24518Y389736D01*
X24601Y389613D01*
X24681Y389488D01*
X24757Y389361D01*
X24830Y389231D01*
X24899Y389100D01*
X24964Y388967D01*
X25027Y388833D01*
X25085Y388696D01*
X25140Y388558D01*
X25190Y388419D01*
X25238Y388278D01*
X25281Y388137D01*
X25321Y387994D01*
X25356Y387850D01*
X25388Y387705D01*
X25416Y387559D01*
X25440Y387413D01*
X25460Y387266D01*
X25476Y387118D01*
X25488Y386971D01*
X25496Y386822D01*
X25500Y386674D01*
X25500Y386526D01*
X25496Y386378D01*
X25488Y386229D01*
X25476Y386082D01*
X25460Y385934D01*
X25440Y385787D01*
X25416Y385641D01*
X25388Y385495D01*
X25356Y385350D01*
X25321Y385206D01*
X25281Y385063D01*
X25238Y384922D01*
X25190Y384781D01*
X25140Y384642D01*
X25085Y384504D01*
X25027Y384367D01*
X24964Y384233D01*
X24899Y384100D01*
X24830Y383969D01*
X24757Y383839D01*
X24681Y383712D01*
X24601Y383587D01*
X24518Y383464D01*
X24432Y383343D01*
X24343Y383225D01*
X24250Y383109D01*
X24154Y382996D01*
X24056Y382885D01*
X23954Y382777D01*
X23850Y382672D01*
X23742Y382569D01*
X23632Y382470D01*
X23520Y382374D01*
X23404Y382280D01*
X23287Y382190D01*
X23166Y382103D01*
X23044Y382019D01*
X22919Y381939D01*
X22793Y381862D01*
X22664Y381788D01*
X22533Y381718D01*
X22401Y381652D01*
X22266Y381589D01*
X22130Y381529D01*
X21993Y381474D01*
X21854Y381422D01*
X21714Y381374D01*
X21572Y381329D01*
X21429Y381289D01*
X21286Y381252D01*
X21141Y381220D01*
X20996Y381191D01*
X20849Y381166D01*
X20703Y381145D01*
X20555Y381128D01*
X20407Y381115D01*
X20259Y381106D01*
X20111Y381101D01*
X19963Y381100D01*
X19815Y381103D01*
X19666Y381110D01*
X19519Y381121D01*
X19371Y381136D01*
X19224Y381155D01*
X19077Y381178D01*
X18932Y381205D01*
X18786Y381236D01*
X18642Y381270D01*
X18499Y381309D01*
X18357Y381351D01*
X18216Y381397D01*
X18076Y381447D01*
X17938Y381501D01*
X17801Y381559D01*
X17666Y381620D01*
X17533Y381684D01*
X17401Y381753D01*
X17271Y381825D01*
X17144Y381900D01*
X17018Y381979D01*
X16894Y382061D01*
X16773Y382146D01*
X16654Y382235D01*
X16538Y382326D01*
X16424Y382421D01*
X16312Y382519D01*
X16204Y382620D01*
X16098Y382724D01*
X15995Y382831D01*
X15895Y382940D01*
X15797Y383052D01*
X15703Y383167D01*
X15612Y383284D01*
X15524Y383403D01*
X15440Y383525D01*
X15359Y383649D01*
X15281Y383775D01*
X15206Y383904D01*
X15135Y384034D01*
X15068Y384166D01*
X15004Y384300D01*
X14944Y384435D01*
X14887Y384573D01*
X14835Y384711D01*
X14785Y384851D01*
X14740Y384992D01*
X14699Y385135D01*
X14661Y385278D01*
X14627Y385423D01*
X14598Y385568D01*
X14572Y385714D01*
X14550Y385861D01*
X14532Y386008D01*
X14518Y386156D01*
X14508Y386304D01*
X14502Y386452D01*
X14500Y386600D01*
X79500Y386600D02*
X79502Y386748D01*
X79508Y386896D01*
X79518Y387044D01*
X79532Y387192D01*
X79550Y387339D01*
X79572Y387486D01*
X79598Y387632D01*
X79627Y387777D01*
X79661Y387922D01*
X79699Y388065D01*
X79740Y388208D01*
X79785Y388349D01*
X79835Y388489D01*
X79887Y388627D01*
X79944Y388765D01*
X80004Y388900D01*
X80068Y389034D01*
X80135Y389166D01*
X80206Y389296D01*
X80281Y389425D01*
X80359Y389551D01*
X80440Y389675D01*
X80524Y389797D01*
X80612Y389916D01*
X80703Y390033D01*
X80797Y390148D01*
X80895Y390260D01*
X80995Y390369D01*
X81098Y390476D01*
X81204Y390580D01*
X81312Y390681D01*
X81424Y390779D01*
X81538Y390874D01*
X81654Y390965D01*
X81773Y391054D01*
X81894Y391139D01*
X82018Y391221D01*
X82144Y391300D01*
X82271Y391375D01*
X82401Y391447D01*
X82533Y391516D01*
X82666Y391580D01*
X82801Y391641D01*
X82938Y391699D01*
X83076Y391753D01*
X83216Y391803D01*
X83357Y391849D01*
X83499Y391891D01*
X83642Y391930D01*
X83786Y391964D01*
X83932Y391995D01*
X84077Y392022D01*
X84224Y392045D01*
X84371Y392064D01*
X84519Y392079D01*
X84666Y392090D01*
X84815Y392097D01*
X84963Y392100D01*
X85111Y392099D01*
X85259Y392094D01*
X85407Y392085D01*
X85555Y392072D01*
X85703Y392055D01*
X85849Y392034D01*
X85996Y392009D01*
X86141Y391980D01*
X86286Y391948D01*
X86429Y391911D01*
X86572Y391871D01*
X86714Y391826D01*
X86854Y391778D01*
X86993Y391726D01*
X87130Y391671D01*
X87266Y391611D01*
X87401Y391548D01*
X87533Y391482D01*
X87664Y391412D01*
X87793Y391338D01*
X87919Y391261D01*
X88044Y391181D01*
X88166Y391097D01*
X88287Y391010D01*
X88404Y390920D01*
X88520Y390826D01*
X88632Y390730D01*
X88742Y390631D01*
X88850Y390528D01*
X88954Y390423D01*
X89056Y390315D01*
X89154Y390204D01*
X89250Y390091D01*
X89343Y389975D01*
X89432Y389857D01*
X89518Y389736D01*
X89601Y389613D01*
X89681Y389488D01*
X89757Y389361D01*
X89830Y389231D01*
X89899Y389100D01*
X89964Y388967D01*
X90027Y388833D01*
X90085Y388696D01*
X90140Y388558D01*
X90190Y388419D01*
X90238Y388278D01*
X90281Y388137D01*
X90321Y387994D01*
X90356Y387850D01*
X90388Y387705D01*
X90416Y387559D01*
X90440Y387413D01*
X90460Y387266D01*
X90476Y387118D01*
X90488Y386971D01*
X90496Y386822D01*
X90500Y386674D01*
X90500Y386526D01*
X90496Y386378D01*
X90488Y386229D01*
X90476Y386082D01*
X90460Y385934D01*
X90440Y385787D01*
X90416Y385641D01*
X90388Y385495D01*
X90356Y385350D01*
X90321Y385206D01*
X90281Y385063D01*
X90238Y384922D01*
X90190Y384781D01*
X90140Y384642D01*
X90085Y384504D01*
X90027Y384367D01*
X89964Y384233D01*
X89899Y384100D01*
X89830Y383969D01*
X89757Y383839D01*
X89681Y383712D01*
X89601Y383587D01*
X89518Y383464D01*
X89432Y383343D01*
X89343Y383225D01*
X89250Y383109D01*
X89154Y382996D01*
X89056Y382885D01*
X88954Y382777D01*
X88850Y382672D01*
X88742Y382569D01*
X88632Y382470D01*
X88520Y382374D01*
X88404Y382280D01*
X88287Y382190D01*
X88166Y382103D01*
X88044Y382019D01*
X87919Y381939D01*
X87793Y381862D01*
X87664Y381788D01*
X87533Y381718D01*
X87401Y381652D01*
X87266Y381589D01*
X87130Y381529D01*
X86993Y381474D01*
X86854Y381422D01*
X86714Y381374D01*
X86572Y381329D01*
X86429Y381289D01*
X86286Y381252D01*
X86141Y381220D01*
X85996Y381191D01*
X85849Y381166D01*
X85703Y381145D01*
X85555Y381128D01*
X85407Y381115D01*
X85259Y381106D01*
X85111Y381101D01*
X84963Y381100D01*
X84815Y381103D01*
X84666Y381110D01*
X84519Y381121D01*
X84371Y381136D01*
X84224Y381155D01*
X84077Y381178D01*
X83932Y381205D01*
X83786Y381236D01*
X83642Y381270D01*
X83499Y381309D01*
X83357Y381351D01*
X83216Y381397D01*
X83076Y381447D01*
X82938Y381501D01*
X82801Y381559D01*
X82666Y381620D01*
X82533Y381684D01*
X82401Y381753D01*
X82271Y381825D01*
X82144Y381900D01*
X82018Y381979D01*
X81894Y382061D01*
X81773Y382146D01*
X81654Y382235D01*
X81538Y382326D01*
X81424Y382421D01*
X81312Y382519D01*
X81204Y382620D01*
X81098Y382724D01*
X80995Y382831D01*
X80895Y382940D01*
X80797Y383052D01*
X80703Y383167D01*
X80612Y383284D01*
X80524Y383403D01*
X80440Y383525D01*
X80359Y383649D01*
X80281Y383775D01*
X80206Y383904D01*
X80135Y384034D01*
X80068Y384166D01*
X80004Y384300D01*
X79944Y384435D01*
X79887Y384573D01*
X79835Y384711D01*
X79785Y384851D01*
X79740Y384992D01*
X79699Y385135D01*
X79661Y385278D01*
X79627Y385423D01*
X79598Y385568D01*
X79572Y385714D01*
X79550Y385861D01*
X79532Y386008D01*
X79518Y386156D01*
X79508Y386304D01*
X79502Y386452D01*
X79500Y386600D01*
X164500Y20000D02*
X164502Y20148D01*
X164508Y20296D01*
X164518Y20444D01*
X164532Y20592D01*
X164550Y20739D01*
X164572Y20886D01*
X164598Y21032D01*
X164627Y21177D01*
X164661Y21322D01*
X164699Y21465D01*
X164740Y21608D01*
X164785Y21749D01*
X164835Y21889D01*
X164887Y22027D01*
X164944Y22165D01*
X165004Y22300D01*
X165068Y22434D01*
X165135Y22566D01*
X165206Y22696D01*
X165281Y22825D01*
X165359Y22951D01*
X165440Y23075D01*
X165524Y23197D01*
X165612Y23316D01*
X165703Y23433D01*
X165797Y23548D01*
X165895Y23660D01*
X165995Y23769D01*
X166098Y23876D01*
X166204Y23980D01*
X166312Y24081D01*
X166424Y24179D01*
X166538Y24274D01*
X166654Y24365D01*
X166773Y24454D01*
X166894Y24539D01*
X167018Y24621D01*
X167144Y24700D01*
X167271Y24775D01*
X167401Y24847D01*
X167533Y24916D01*
X167666Y24980D01*
X167801Y25041D01*
X167938Y25099D01*
X168076Y25153D01*
X168216Y25203D01*
X168357Y25249D01*
X168499Y25291D01*
X168642Y25330D01*
X168786Y25364D01*
X168932Y25395D01*
X169077Y25422D01*
X169224Y25445D01*
X169371Y25464D01*
X169519Y25479D01*
X169666Y25490D01*
X169815Y25497D01*
X169963Y25500D01*
X170111Y25499D01*
X170259Y25494D01*
X170407Y25485D01*
X170555Y25472D01*
X170703Y25455D01*
X170849Y25434D01*
X170996Y25409D01*
X171141Y25380D01*
X171286Y25348D01*
X171429Y25311D01*
X171572Y25271D01*
X171714Y25226D01*
X171854Y25178D01*
X171993Y25126D01*
X172130Y25071D01*
X172266Y25011D01*
X172401Y24948D01*
X172533Y24882D01*
X172664Y24812D01*
X172793Y24738D01*
X172919Y24661D01*
X173044Y24581D01*
X173166Y24497D01*
X173287Y24410D01*
X173404Y24320D01*
X173520Y24226D01*
X173632Y24130D01*
X173742Y24031D01*
X173850Y23928D01*
X173954Y23823D01*
X174056Y23715D01*
X174154Y23604D01*
X174250Y23491D01*
X174343Y23375D01*
X174432Y23257D01*
X174518Y23136D01*
X174601Y23013D01*
X174681Y22888D01*
X174757Y22761D01*
X174830Y22631D01*
X174899Y22500D01*
X174964Y22367D01*
X175027Y22233D01*
X175085Y22096D01*
X175140Y21958D01*
X175190Y21819D01*
X175238Y21678D01*
X175281Y21537D01*
X175321Y21394D01*
X175356Y21250D01*
X175388Y21105D01*
X175416Y20959D01*
X175440Y20813D01*
X175460Y20666D01*
X175476Y20518D01*
X175488Y20371D01*
X175496Y20222D01*
X175500Y20074D01*
X175500Y19926D01*
X175496Y19778D01*
X175488Y19629D01*
X175476Y19482D01*
X175460Y19334D01*
X175440Y19187D01*
X175416Y19041D01*
X175388Y18895D01*
X175356Y18750D01*
X175321Y18606D01*
X175281Y18463D01*
X175238Y18322D01*
X175190Y18181D01*
X175140Y18042D01*
X175085Y17904D01*
X175027Y17767D01*
X174964Y17633D01*
X174899Y17500D01*
X174830Y17369D01*
X174757Y17239D01*
X174681Y17112D01*
X174601Y16987D01*
X174518Y16864D01*
X174432Y16743D01*
X174343Y16625D01*
X174250Y16509D01*
X174154Y16396D01*
X174056Y16285D01*
X173954Y16177D01*
X173850Y16072D01*
X173742Y15969D01*
X173632Y15870D01*
X173520Y15774D01*
X173404Y15680D01*
X173287Y15590D01*
X173166Y15503D01*
X173044Y15419D01*
X172919Y15339D01*
X172793Y15262D01*
X172664Y15188D01*
X172533Y15118D01*
X172401Y15052D01*
X172266Y14989D01*
X172130Y14929D01*
X171993Y14874D01*
X171854Y14822D01*
X171714Y14774D01*
X171572Y14729D01*
X171429Y14689D01*
X171286Y14652D01*
X171141Y14620D01*
X170996Y14591D01*
X170849Y14566D01*
X170703Y14545D01*
X170555Y14528D01*
X170407Y14515D01*
X170259Y14506D01*
X170111Y14501D01*
X169963Y14500D01*
X169815Y14503D01*
X169666Y14510D01*
X169519Y14521D01*
X169371Y14536D01*
X169224Y14555D01*
X169077Y14578D01*
X168932Y14605D01*
X168786Y14636D01*
X168642Y14670D01*
X168499Y14709D01*
X168357Y14751D01*
X168216Y14797D01*
X168076Y14847D01*
X167938Y14901D01*
X167801Y14959D01*
X167666Y15020D01*
X167533Y15084D01*
X167401Y15153D01*
X167271Y15225D01*
X167144Y15300D01*
X167018Y15379D01*
X166894Y15461D01*
X166773Y15546D01*
X166654Y15635D01*
X166538Y15726D01*
X166424Y15821D01*
X166312Y15919D01*
X166204Y16020D01*
X166098Y16124D01*
X165995Y16231D01*
X165895Y16340D01*
X165797Y16452D01*
X165703Y16567D01*
X165612Y16684D01*
X165524Y16803D01*
X165440Y16925D01*
X165359Y17049D01*
X165281Y17175D01*
X165206Y17304D01*
X165135Y17434D01*
X165068Y17566D01*
X165004Y17700D01*
X164944Y17835D01*
X164887Y17973D01*
X164835Y18111D01*
X164785Y18251D01*
X164740Y18392D01*
X164699Y18535D01*
X164661Y18678D01*
X164627Y18823D01*
X164598Y18968D01*
X164572Y19114D01*
X164550Y19261D01*
X164532Y19408D01*
X164518Y19556D01*
X164508Y19704D01*
X164502Y19852D01*
X164500Y20000D01*
X164500Y85000D02*
X164502Y85148D01*
X164508Y85296D01*
X164518Y85444D01*
X164532Y85592D01*
X164550Y85739D01*
X164572Y85886D01*
X164598Y86032D01*
X164627Y86177D01*
X164661Y86322D01*
X164699Y86465D01*
X164740Y86608D01*
X164785Y86749D01*
X164835Y86889D01*
X164887Y87027D01*
X164944Y87165D01*
X165004Y87300D01*
X165068Y87434D01*
X165135Y87566D01*
X165206Y87696D01*
X165281Y87825D01*
X165359Y87951D01*
X165440Y88075D01*
X165524Y88197D01*
X165612Y88316D01*
X165703Y88433D01*
X165797Y88548D01*
X165895Y88660D01*
X165995Y88769D01*
X166098Y88876D01*
X166204Y88980D01*
X166312Y89081D01*
X166424Y89179D01*
X166538Y89274D01*
X166654Y89365D01*
X166773Y89454D01*
X166894Y89539D01*
X167018Y89621D01*
X167144Y89700D01*
X167271Y89775D01*
X167401Y89847D01*
X167533Y89916D01*
X167666Y89980D01*
X167801Y90041D01*
X167938Y90099D01*
X168076Y90153D01*
X168216Y90203D01*
X168357Y90249D01*
X168499Y90291D01*
X168642Y90330D01*
X168786Y90364D01*
X168932Y90395D01*
X169077Y90422D01*
X169224Y90445D01*
X169371Y90464D01*
X169519Y90479D01*
X169666Y90490D01*
X169815Y90497D01*
X169963Y90500D01*
X170111Y90499D01*
X170259Y90494D01*
X170407Y90485D01*
X170555Y90472D01*
X170703Y90455D01*
X170849Y90434D01*
X170996Y90409D01*
X171141Y90380D01*
X171286Y90348D01*
X171429Y90311D01*
X171572Y90271D01*
X171714Y90226D01*
X171854Y90178D01*
X171993Y90126D01*
X172130Y90071D01*
X172266Y90011D01*
X172401Y89948D01*
X172533Y89882D01*
X172664Y89812D01*
X172793Y89738D01*
X172919Y89661D01*
X173044Y89581D01*
X173166Y89497D01*
X173287Y89410D01*
X173404Y89320D01*
X173520Y89226D01*
X173632Y89130D01*
X173742Y89031D01*
X173850Y88928D01*
X173954Y88823D01*
X174056Y88715D01*
X174154Y88604D01*
X174250Y88491D01*
X174343Y88375D01*
X174432Y88257D01*
X174518Y88136D01*
X174601Y88013D01*
X174681Y87888D01*
X174757Y87761D01*
X174830Y87631D01*
X174899Y87500D01*
X174964Y87367D01*
X175027Y87233D01*
X175085Y87096D01*
X175140Y86958D01*
X175190Y86819D01*
X175238Y86678D01*
X175281Y86537D01*
X175321Y86394D01*
X175356Y86250D01*
X175388Y86105D01*
X175416Y85959D01*
X175440Y85813D01*
X175460Y85666D01*
X175476Y85518D01*
X175488Y85371D01*
X175496Y85222D01*
X175500Y85074D01*
X175500Y84926D01*
X175496Y84778D01*
X175488Y84629D01*
X175476Y84482D01*
X175460Y84334D01*
X175440Y84187D01*
X175416Y84041D01*
X175388Y83895D01*
X175356Y83750D01*
X175321Y83606D01*
X175281Y83463D01*
X175238Y83322D01*
X175190Y83181D01*
X175140Y83042D01*
X175085Y82904D01*
X175027Y82767D01*
X174964Y82633D01*
X174899Y82500D01*
X174830Y82369D01*
X174757Y82239D01*
X174681Y82112D01*
X174601Y81987D01*
X174518Y81864D01*
X174432Y81743D01*
X174343Y81625D01*
X174250Y81509D01*
X174154Y81396D01*
X174056Y81285D01*
X173954Y81177D01*
X173850Y81072D01*
X173742Y80969D01*
X173632Y80870D01*
X173520Y80774D01*
X173404Y80680D01*
X173287Y80590D01*
X173166Y80503D01*
X173044Y80419D01*
X172919Y80339D01*
X172793Y80262D01*
X172664Y80188D01*
X172533Y80118D01*
X172401Y80052D01*
X172266Y79989D01*
X172130Y79929D01*
X171993Y79874D01*
X171854Y79822D01*
X171714Y79774D01*
X171572Y79729D01*
X171429Y79689D01*
X171286Y79652D01*
X171141Y79620D01*
X170996Y79591D01*
X170849Y79566D01*
X170703Y79545D01*
X170555Y79528D01*
X170407Y79515D01*
X170259Y79506D01*
X170111Y79501D01*
X169963Y79500D01*
X169815Y79503D01*
X169666Y79510D01*
X169519Y79521D01*
X169371Y79536D01*
X169224Y79555D01*
X169077Y79578D01*
X168932Y79605D01*
X168786Y79636D01*
X168642Y79670D01*
X168499Y79709D01*
X168357Y79751D01*
X168216Y79797D01*
X168076Y79847D01*
X167938Y79901D01*
X167801Y79959D01*
X167666Y80020D01*
X167533Y80084D01*
X167401Y80153D01*
X167271Y80225D01*
X167144Y80300D01*
X167018Y80379D01*
X166894Y80461D01*
X166773Y80546D01*
X166654Y80635D01*
X166538Y80726D01*
X166424Y80821D01*
X166312Y80919D01*
X166204Y81020D01*
X166098Y81124D01*
X165995Y81231D01*
X165895Y81340D01*
X165797Y81452D01*
X165703Y81567D01*
X165612Y81684D01*
X165524Y81803D01*
X165440Y81925D01*
X165359Y82049D01*
X165281Y82175D01*
X165206Y82304D01*
X165135Y82434D01*
X165068Y82566D01*
X165004Y82700D01*
X164944Y82835D01*
X164887Y82973D01*
X164835Y83111D01*
X164785Y83251D01*
X164740Y83392D01*
X164699Y83535D01*
X164661Y83678D01*
X164627Y83823D01*
X164598Y83968D01*
X164572Y84114D01*
X164550Y84261D01*
X164532Y84408D01*
X164518Y84556D01*
X164508Y84704D01*
X164502Y84852D01*
X164500Y85000D01*
X244500Y20000D02*
X244502Y20148D01*
X244508Y20296D01*
X244518Y20444D01*
X244532Y20592D01*
X244550Y20739D01*
X244572Y20886D01*
X244598Y21032D01*
X244627Y21177D01*
X244661Y21322D01*
X244699Y21465D01*
X244740Y21608D01*
X244785Y21749D01*
X244835Y21889D01*
X244887Y22027D01*
X244944Y22165D01*
X245004Y22300D01*
X245068Y22434D01*
X245135Y22566D01*
X245206Y22696D01*
X245281Y22825D01*
X245359Y22951D01*
X245440Y23075D01*
X245524Y23197D01*
X245612Y23316D01*
X245703Y23433D01*
X245797Y23548D01*
X245895Y23660D01*
X245995Y23769D01*
X246098Y23876D01*
X246204Y23980D01*
X246312Y24081D01*
X246424Y24179D01*
X246538Y24274D01*
X246654Y24365D01*
X246773Y24454D01*
X246894Y24539D01*
X247018Y24621D01*
X247144Y24700D01*
X247271Y24775D01*
X247401Y24847D01*
X247533Y24916D01*
X247666Y24980D01*
X247801Y25041D01*
X247938Y25099D01*
X248076Y25153D01*
X248216Y25203D01*
X248357Y25249D01*
X248499Y25291D01*
X248642Y25330D01*
X248786Y25364D01*
X248932Y25395D01*
X249077Y25422D01*
X249224Y25445D01*
X249371Y25464D01*
X249519Y25479D01*
X249666Y25490D01*
X249815Y25497D01*
X249963Y25500D01*
X250111Y25499D01*
X250259Y25494D01*
X250407Y25485D01*
X250555Y25472D01*
X250703Y25455D01*
X250849Y25434D01*
X250996Y25409D01*
X251141Y25380D01*
X251286Y25348D01*
X251429Y25311D01*
X251572Y25271D01*
X251714Y25226D01*
X251854Y25178D01*
X251993Y25126D01*
X252130Y25071D01*
X252266Y25011D01*
X252401Y24948D01*
X252533Y24882D01*
X252664Y24812D01*
X252793Y24738D01*
X252919Y24661D01*
X253044Y24581D01*
X253166Y24497D01*
X253287Y24410D01*
X253404Y24320D01*
X253520Y24226D01*
X253632Y24130D01*
X253742Y24031D01*
X253850Y23928D01*
X253954Y23823D01*
X254056Y23715D01*
X254154Y23604D01*
X254250Y23491D01*
X254343Y23375D01*
X254432Y23257D01*
X254518Y23136D01*
X254601Y23013D01*
X254681Y22888D01*
X254757Y22761D01*
X254830Y22631D01*
X254899Y22500D01*
X254964Y22367D01*
X255027Y22233D01*
X255085Y22096D01*
X255140Y21958D01*
X255190Y21819D01*
X255238Y21678D01*
X255281Y21537D01*
X255321Y21394D01*
X255356Y21250D01*
X255388Y21105D01*
X255416Y20959D01*
X255440Y20813D01*
X255460Y20666D01*
X255476Y20518D01*
X255488Y20371D01*
X255496Y20222D01*
X255500Y20074D01*
X255500Y19926D01*
X255496Y19778D01*
X255488Y19629D01*
X255476Y19482D01*
X255460Y19334D01*
X255440Y19187D01*
X255416Y19041D01*
X255388Y18895D01*
X255356Y18750D01*
X255321Y18606D01*
X255281Y18463D01*
X255238Y18322D01*
X255190Y18181D01*
X255140Y18042D01*
X255085Y17904D01*
X255027Y17767D01*
X254964Y17633D01*
X254899Y17500D01*
X254830Y17369D01*
X254757Y17239D01*
X254681Y17112D01*
X254601Y16987D01*
X254518Y16864D01*
X254432Y16743D01*
X254343Y16625D01*
X254250Y16509D01*
X254154Y16396D01*
X254056Y16285D01*
X253954Y16177D01*
X253850Y16072D01*
X253742Y15969D01*
X253632Y15870D01*
X253520Y15774D01*
X253404Y15680D01*
X253287Y15590D01*
X253166Y15503D01*
X253044Y15419D01*
X252919Y15339D01*
X252793Y15262D01*
X252664Y15188D01*
X252533Y15118D01*
X252401Y15052D01*
X252266Y14989D01*
X252130Y14929D01*
X251993Y14874D01*
X251854Y14822D01*
X251714Y14774D01*
X251572Y14729D01*
X251429Y14689D01*
X251286Y14652D01*
X251141Y14620D01*
X250996Y14591D01*
X250849Y14566D01*
X250703Y14545D01*
X250555Y14528D01*
X250407Y14515D01*
X250259Y14506D01*
X250111Y14501D01*
X249963Y14500D01*
X249815Y14503D01*
X249666Y14510D01*
X249519Y14521D01*
X249371Y14536D01*
X249224Y14555D01*
X249077Y14578D01*
X248932Y14605D01*
X248786Y14636D01*
X248642Y14670D01*
X248499Y14709D01*
X248357Y14751D01*
X248216Y14797D01*
X248076Y14847D01*
X247938Y14901D01*
X247801Y14959D01*
X247666Y15020D01*
X247533Y15084D01*
X247401Y15153D01*
X247271Y15225D01*
X247144Y15300D01*
X247018Y15379D01*
X246894Y15461D01*
X246773Y15546D01*
X246654Y15635D01*
X246538Y15726D01*
X246424Y15821D01*
X246312Y15919D01*
X246204Y16020D01*
X246098Y16124D01*
X245995Y16231D01*
X245895Y16340D01*
X245797Y16452D01*
X245703Y16567D01*
X245612Y16684D01*
X245524Y16803D01*
X245440Y16925D01*
X245359Y17049D01*
X245281Y17175D01*
X245206Y17304D01*
X245135Y17434D01*
X245068Y17566D01*
X245004Y17700D01*
X244944Y17835D01*
X244887Y17973D01*
X244835Y18111D01*
X244785Y18251D01*
X244740Y18392D01*
X244699Y18535D01*
X244661Y18678D01*
X244627Y18823D01*
X244598Y18968D01*
X244572Y19114D01*
X244550Y19261D01*
X244532Y19408D01*
X244518Y19556D01*
X244508Y19704D01*
X244502Y19852D01*
X244500Y20000D01*
X244500Y85000D02*
X244502Y85148D01*
X244508Y85296D01*
X244518Y85444D01*
X244532Y85592D01*
X244550Y85739D01*
X244572Y85886D01*
X244598Y86032D01*
X244627Y86177D01*
X244661Y86322D01*
X244699Y86465D01*
X244740Y86608D01*
X244785Y86749D01*
X244835Y86889D01*
X244887Y87027D01*
X244944Y87165D01*
X245004Y87300D01*
X245068Y87434D01*
X245135Y87566D01*
X245206Y87696D01*
X245281Y87825D01*
X245359Y87951D01*
X245440Y88075D01*
X245524Y88197D01*
X245612Y88316D01*
X245703Y88433D01*
X245797Y88548D01*
X245895Y88660D01*
X245995Y88769D01*
X246098Y88876D01*
X246204Y88980D01*
X246312Y89081D01*
X246424Y89179D01*
X246538Y89274D01*
X246654Y89365D01*
X246773Y89454D01*
X246894Y89539D01*
X247018Y89621D01*
X247144Y89700D01*
X247271Y89775D01*
X247401Y89847D01*
X247533Y89916D01*
X247666Y89980D01*
X247801Y90041D01*
X247938Y90099D01*
X248076Y90153D01*
X248216Y90203D01*
X248357Y90249D01*
X248499Y90291D01*
X248642Y90330D01*
X248786Y90364D01*
X248932Y90395D01*
X249077Y90422D01*
X249224Y90445D01*
X249371Y90464D01*
X249519Y90479D01*
X249666Y90490D01*
X249815Y90497D01*
X249963Y90500D01*
X250111Y90499D01*
X250259Y90494D01*
X250407Y90485D01*
X250555Y90472D01*
X250703Y90455D01*
X250849Y90434D01*
X250996Y90409D01*
X251141Y90380D01*
X251286Y90348D01*
X251429Y90311D01*
X251572Y90271D01*
X251714Y90226D01*
X251854Y90178D01*
X251993Y90126D01*
X252130Y90071D01*
X252266Y90011D01*
X252401Y89948D01*
X252533Y89882D01*
X252664Y89812D01*
X252793Y89738D01*
X252919Y89661D01*
X253044Y89581D01*
X253166Y89497D01*
X253287Y89410D01*
X253404Y89320D01*
X253520Y89226D01*
X253632Y89130D01*
X253742Y89031D01*
X253850Y88928D01*
X253954Y88823D01*
X254056Y88715D01*
X254154Y88604D01*
X254250Y88491D01*
X254343Y88375D01*
X254432Y88257D01*
X254518Y88136D01*
X254601Y88013D01*
X254681Y87888D01*
X254757Y87761D01*
X254830Y87631D01*
X254899Y87500D01*
X254964Y87367D01*
X255027Y87233D01*
X255085Y87096D01*
X255140Y86958D01*
X255190Y86819D01*
X255238Y86678D01*
X255281Y86537D01*
X255321Y86394D01*
X255356Y86250D01*
X255388Y86105D01*
X255416Y85959D01*
X255440Y85813D01*
X255460Y85666D01*
X255476Y85518D01*
X255488Y85371D01*
X255496Y85222D01*
X255500Y85074D01*
X255500Y84926D01*
X255496Y84778D01*
X255488Y84629D01*
X255476Y84482D01*
X255460Y84334D01*
X255440Y84187D01*
X255416Y84041D01*
X255388Y83895D01*
X255356Y83750D01*
X255321Y83606D01*
X255281Y83463D01*
X255238Y83322D01*
X255190Y83181D01*
X255140Y83042D01*
X255085Y82904D01*
X255027Y82767D01*
X254964Y82633D01*
X254899Y82500D01*
X254830Y82369D01*
X254757Y82239D01*
X254681Y82112D01*
X254601Y81987D01*
X254518Y81864D01*
X254432Y81743D01*
X254343Y81625D01*
X254250Y81509D01*
X254154Y81396D01*
X254056Y81285D01*
X253954Y81177D01*
X253850Y81072D01*
X253742Y80969D01*
X253632Y80870D01*
X253520Y80774D01*
X253404Y80680D01*
X253287Y80590D01*
X253166Y80503D01*
X253044Y80419D01*
X252919Y80339D01*
X252793Y80262D01*
X252664Y80188D01*
X252533Y80118D01*
X252401Y80052D01*
X252266Y79989D01*
X252130Y79929D01*
X251993Y79874D01*
X251854Y79822D01*
X251714Y79774D01*
X251572Y79729D01*
X251429Y79689D01*
X251286Y79652D01*
X251141Y79620D01*
X250996Y79591D01*
X250849Y79566D01*
X250703Y79545D01*
X250555Y79528D01*
X250407Y79515D01*
X250259Y79506D01*
X250111Y79501D01*
X249963Y79500D01*
X249815Y79503D01*
X249666Y79510D01*
X249519Y79521D01*
X249371Y79536D01*
X249224Y79555D01*
X249077Y79578D01*
X248932Y79605D01*
X248786Y79636D01*
X248642Y79670D01*
X248499Y79709D01*
X248357Y79751D01*
X248216Y79797D01*
X248076Y79847D01*
X247938Y79901D01*
X247801Y79959D01*
X247666Y80020D01*
X247533Y80084D01*
X247401Y80153D01*
X247271Y80225D01*
X247144Y80300D01*
X247018Y80379D01*
X246894Y80461D01*
X246773Y80546D01*
X246654Y80635D01*
X246538Y80726D01*
X246424Y80821D01*
X246312Y80919D01*
X246204Y81020D01*
X246098Y81124D01*
X245995Y81231D01*
X245895Y81340D01*
X245797Y81452D01*
X245703Y81567D01*
X245612Y81684D01*
X245524Y81803D01*
X245440Y81925D01*
X245359Y82049D01*
X245281Y82175D01*
X245206Y82304D01*
X245135Y82434D01*
X245068Y82566D01*
X245004Y82700D01*
X244944Y82835D01*
X244887Y82973D01*
X244835Y83111D01*
X244785Y83251D01*
X244740Y83392D01*
X244699Y83535D01*
X244661Y83678D01*
X244627Y83823D01*
X244598Y83968D01*
X244572Y84114D01*
X244550Y84261D01*
X244532Y84408D01*
X244518Y84556D01*
X244508Y84704D01*
X244502Y84852D01*
X244500Y85000D01*
D11*
X20600Y100D02*
X20117Y106D01*
X19634Y123D01*
X19151Y153D01*
X18670Y193D01*
X18189Y246D01*
X17710Y310D01*
X17233Y385D01*
X16757Y473D01*
X16284Y571D01*
X15814Y681D01*
X15346Y802D01*
X14881Y935D01*
X14420Y1079D01*
X13962Y1234D01*
X13508Y1400D01*
X13058Y1577D01*
X12613Y1764D01*
X12172Y1963D01*
X11736Y2171D01*
X11306Y2391D01*
X10880Y2621D01*
X10461Y2861D01*
X10047Y3111D01*
X9640Y3371D01*
X9239Y3640D01*
X8844Y3920D01*
X8457Y4208D01*
X8076Y4507D01*
X7703Y4814D01*
X7338Y5130D01*
X6980Y5455D01*
X6630Y5788D01*
X6288Y6130D01*
X5955Y6480D01*
X5630Y6838D01*
X5314Y7203D01*
X5007Y7576D01*
X4708Y7957D01*
X4420Y8344D01*
X4140Y8739D01*
X3871Y9140D01*
X3611Y9547D01*
X3361Y9961D01*
X3121Y10380D01*
X2891Y10806D01*
X2671Y11236D01*
X2463Y11672D01*
X2264Y12113D01*
X2077Y12558D01*
X1900Y13008D01*
X1734Y13462D01*
X1579Y13920D01*
X1435Y14381D01*
X1302Y14846D01*
X1181Y15314D01*
X1071Y15784D01*
X973Y16257D01*
X885Y16733D01*
X810Y17210D01*
X746Y17689D01*
X693Y18170D01*
X653Y18651D01*
X623Y19134D01*
X606Y19617D01*
X600Y20100D01*
X600Y580100D01*
X606Y580583D01*
X623Y581066D01*
X653Y581549D01*
X693Y582030D01*
X746Y582511D01*
X810Y582990D01*
X885Y583467D01*
X973Y583943D01*
X1071Y584416D01*
X1181Y584886D01*
X1302Y585354D01*
X1435Y585819D01*
X1579Y586280D01*
X1734Y586738D01*
X1900Y587192D01*
X2077Y587642D01*
X2264Y588087D01*
X2463Y588528D01*
X2671Y588964D01*
X2891Y589394D01*
X3121Y589820D01*
X3361Y590239D01*
X3611Y590653D01*
X3871Y591060D01*
X4140Y591461D01*
X4420Y591856D01*
X4708Y592243D01*
X5007Y592624D01*
X5314Y592997D01*
X5630Y593362D01*
X5955Y593720D01*
X6288Y594070D01*
X6630Y594412D01*
X6980Y594745D01*
X7338Y595070D01*
X7703Y595386D01*
X8076Y595693D01*
X8457Y595992D01*
X8844Y596280D01*
X9239Y596560D01*
X9640Y596829D01*
X10047Y597089D01*
X10461Y597339D01*
X10880Y597579D01*
X11306Y597809D01*
X11736Y598029D01*
X12172Y598237D01*
X12613Y598436D01*
X13058Y598623D01*
X13508Y598800D01*
X13962Y598966D01*
X14420Y599121D01*
X14881Y599265D01*
X15346Y599398D01*
X15814Y599519D01*
X16284Y599629D01*
X16757Y599727D01*
X17233Y599815D01*
X17710Y599890D01*
X18189Y599954D01*
X18670Y600007D01*
X19151Y600047D01*
X19634Y600077D01*
X20117Y600094D01*
X20600Y600100D01*
X400600Y600100D01*
X401083Y600094D01*
X401566Y600077D01*
X402049Y600047D01*
X402530Y600007D01*
X403011Y599954D01*
X403490Y599890D01*
X403967Y599815D01*
X404443Y599727D01*
X404916Y599629D01*
X405386Y599519D01*
X405854Y599398D01*
X406319Y599265D01*
X406780Y599121D01*
X407238Y598966D01*
X407692Y598800D01*
X408142Y598623D01*
X408587Y598436D01*
X409028Y598237D01*
X409464Y598029D01*
X409894Y597809D01*
X410320Y597579D01*
X410739Y597339D01*
X411153Y597089D01*
X411560Y596829D01*
X411961Y596560D01*
X412356Y596280D01*
X412743Y595992D01*
X413124Y595693D01*
X413497Y595386D01*
X413862Y595070D01*
X414220Y594745D01*
X414570Y594412D01*
X414912Y594070D01*
X415245Y593720D01*
X415570Y593362D01*
X415886Y592997D01*
X416193Y592624D01*
X416492Y592243D01*
X416780Y591856D01*
X417060Y591461D01*
X417329Y591060D01*
X417589Y590653D01*
X417839Y590239D01*
X418079Y589820D01*
X418309Y589394D01*
X418529Y588964D01*
X418737Y588528D01*
X418936Y588087D01*
X419123Y587642D01*
X419300Y587192D01*
X419466Y586738D01*
X419621Y586280D01*
X419765Y585819D01*
X419898Y585354D01*
X420019Y584886D01*
X420129Y584416D01*
X420227Y583943D01*
X420315Y583467D01*
X420390Y582990D01*
X420454Y582511D01*
X420507Y582030D01*
X420547Y581549D01*
X420577Y581066D01*
X420594Y580583D01*
X420600Y580100D01*
X420600Y20100D01*
X420594Y19617D01*
X420577Y19134D01*
X420547Y18651D01*
X420507Y18170D01*
X420454Y17689D01*
X420390Y17210D01*
X420315Y16733D01*
X420227Y16257D01*
X420129Y15784D01*
X420019Y15314D01*
X419898Y14846D01*
X419765Y14381D01*
X419621Y13920D01*
X419466Y13462D01*
X419300Y13008D01*
X419123Y12558D01*
X418936Y12113D01*
X418737Y11672D01*
X418529Y11236D01*
X418309Y10806D01*
X418079Y10380D01*
X417839Y9961D01*
X417589Y9547D01*
X417329Y9140D01*
X417060Y8739D01*
X416780Y8344D01*
X416492Y7957D01*
X416193Y7576D01*
X415886Y7203D01*
X415570Y6838D01*
X415245Y6480D01*
X414912Y6130D01*
X414570Y5788D01*
X414220Y5455D01*
X413862Y5130D01*
X413497Y4814D01*
X413124Y4507D01*
X412743Y4208D01*
X412356Y3920D01*
X411961Y3640D01*
X411560Y3371D01*
X411153Y3111D01*
X410739Y2861D01*
X410320Y2621D01*
X409894Y2391D01*
X409464Y2171D01*
X409028Y1963D01*
X408587Y1764D01*
X408142Y1577D01*
X407692Y1400D01*
X407238Y1234D01*
X406780Y1079D01*
X406319Y935D01*
X405854Y802D01*
X405386Y681D01*
X404916Y571D01*
X404443Y473D01*
X403967Y385D01*
X403490Y310D01*
X403011Y246D01*
X402530Y193D01*
X402049Y153D01*
X401566Y123D01*
X401083Y106D01*
X400600Y100D01*
X20600Y100D01*
D12*
X600Y20100D02*
X676Y18357D01*
X904Y16627D01*
X1281Y14924D01*
X1806Y13260D01*
X2474Y11648D01*
X3280Y10100D01*
X4217Y8628D01*
X5279Y7244D01*
X6458Y5958D01*
X7744Y4779D01*
X9128Y3717D01*
X10600Y2780D01*
X12148Y1974D01*
X13760Y1306D01*
X15424Y781D01*
X17127Y404D01*
X18857Y176D01*
X20600Y100D01*
X400600Y100D01*
X402343Y176D01*
X404073Y404D01*
X405776Y781D01*
X407440Y1306D01*
X409052Y1974D01*
X410600Y2780D01*
X412072Y3717D01*
X413456Y4779D01*
X414742Y5958D01*
X415921Y7244D01*
X416983Y8628D01*
X417921Y10100D01*
X418726Y11648D01*
X419394Y13260D01*
X419919Y14924D01*
X420296Y16627D01*
X420524Y18357D01*
X420600Y20100D01*
X420600Y580100D01*
X420524Y581843D01*
X420296Y583573D01*
X419919Y585276D01*
X419394Y586940D01*
X418726Y588552D01*
X417921Y590100D01*
X416983Y591572D01*
X415921Y592956D01*
X414742Y594242D01*
X413456Y595421D01*
X412072Y596483D01*
X410600Y597421D01*
X409052Y598226D01*
X407440Y598894D01*
X405776Y599419D01*
X404073Y599796D01*
X402343Y600024D01*
X400600Y600100D01*
X20600Y600100D01*
X18857Y600024D01*
X17127Y599796D01*
X15424Y599419D01*
X13760Y598894D01*
X12148Y598226D01*
X10600Y597421D01*
X9128Y596483D01*
X7744Y595421D01*
X6458Y594242D01*
X5279Y592956D01*
X4217Y591572D01*
X3280Y590100D01*
X2474Y588552D01*
X1806Y586940D01*
X1281Y585276D01*
X904Y583573D01*
X676Y581843D01*
X600Y580100D01*
X600Y20100D01*
X242500Y117000D02*
X257500Y117000D01*
X257500Y127000D01*
X242500Y127000D01*
X242500Y117000D01*
X162500Y117000D02*
X177500Y117000D01*
X177500Y127000D01*
X162500Y127000D01*
X162500Y117000D01*
X27500Y352600D02*
X42500Y352600D01*
X42500Y364600D01*
X27500Y364600D01*
X27500Y352600D01*
X27500Y408600D02*
X42500Y408600D01*
X42500Y420600D01*
X27500Y420600D01*
X27500Y408600D01*
X107500Y353600D02*
X122500Y353600D01*
X122500Y363600D01*
X107500Y363600D01*
X107500Y353600D01*
X107500Y409600D02*
X122500Y409600D01*
X122500Y419600D01*
X107500Y419600D01*
X107500Y409600D01*
X377500Y408600D02*
X392500Y408600D01*
X392500Y420600D01*
X377500Y420600D01*
X377500Y408600D01*
X377500Y352600D02*
X392500Y352600D01*
X392500Y364600D01*
X377500Y364600D01*
X377500Y352600D01*
X297500Y409600D02*
X312500Y409600D01*
X312500Y419600D01*
X297500Y419600D01*
X297500Y409600D01*
X297500Y353600D02*
X312500Y353600D01*
X312500Y363600D01*
X297500Y363600D01*
X297500Y353600D01*
X377500Y237200D02*
X392500Y237200D01*
X392500Y249200D01*
X377500Y249200D01*
X377500Y237200D01*
X377500Y181200D02*
X392500Y181200D01*
X392500Y193200D01*
X377500Y193200D01*
X377500Y181200D01*
X297500Y238200D02*
X312500Y238200D01*
X312500Y248200D01*
X297500Y248200D01*
X297500Y238200D01*
X297500Y182200D02*
X312500Y182200D01*
X312500Y192200D01*
X297500Y192200D01*
X297500Y182200D01*
X27500Y524000D02*
X42500Y524000D01*
X42500Y536000D01*
X27500Y536000D01*
X27500Y524000D01*
X27500Y580000D02*
X42500Y580000D01*
X42500Y592000D01*
X27500Y592000D01*
X27500Y580000D01*
X107500Y525000D02*
X122500Y525000D01*
X122500Y535000D01*
X107500Y535000D01*
X107500Y525000D01*
X107500Y10800D02*
X122500Y10800D01*
X122500Y20800D01*
X107500Y20800D01*
X107500Y10800D01*
X107500Y66800D02*
X122500Y66800D01*
X122500Y76800D01*
X107500Y76800D01*
X107500Y66800D01*
X27500Y65800D02*
X42500Y65800D01*
X42500Y77800D01*
X27500Y77800D01*
X27500Y65800D01*
X27500Y9800D02*
X42500Y9800D01*
X42500Y21800D01*
X27500Y21800D01*
X27500Y9800D01*
X297500Y525000D02*
X312500Y525000D01*
X312500Y535000D01*
X297500Y535000D01*
X297500Y525000D01*
X297500Y581000D02*
X312500Y581000D01*
X312500Y591000D01*
X297500Y591000D01*
X297500Y581000D01*
X377500Y524000D02*
X392500Y524000D01*
X392500Y536000D01*
X377500Y536000D01*
X377500Y524000D01*
X377500Y580000D02*
X392500Y580000D01*
X392500Y592000D01*
X377500Y592000D01*
X377500Y580000D01*
X107500Y238200D02*
X122500Y238200D01*
X122500Y248200D01*
X107500Y248200D01*
X107500Y238200D01*
X107500Y182200D02*
X122500Y182200D01*
X122500Y192200D01*
X107500Y192200D01*
X107500Y182200D01*
X27500Y237200D02*
X42500Y237200D01*
X42500Y249200D01*
X27500Y249200D01*
X27500Y237200D01*
X27500Y181200D02*
X42500Y181200D01*
X42500Y193200D01*
X27500Y193200D01*
X27500Y181200D01*
X107500Y581000D02*
X122500Y581000D01*
X122500Y591000D01*
X107500Y591000D01*
X107500Y581000D01*
X293100Y36500D02*
X303100Y36500D01*
X303100Y51500D01*
X293100Y51500D01*
X293100Y36500D01*
X273000Y107500D02*
X283000Y107500D01*
X283000Y122500D01*
X273000Y122500D01*
X273000Y107500D01*
X217000Y107500D02*
X227000Y107500D01*
X227000Y122500D01*
X217000Y122500D01*
X217000Y107500D01*
X193000Y107500D02*
X203000Y107500D01*
X203000Y122500D01*
X193000Y122500D01*
X193000Y107500D01*
X137000Y107500D02*
X147000Y107500D01*
X147000Y122500D01*
X137000Y122500D01*
X137000Y107500D01*
X117000Y379100D02*
X127000Y379100D01*
X127000Y394100D01*
X117000Y394100D01*
X117000Y379100D01*
X293000Y379100D02*
X303000Y379100D01*
X303000Y394100D01*
X293000Y394100D01*
X293000Y379100D01*
X293000Y207700D02*
X303000Y207700D01*
X303000Y222700D01*
X293000Y222700D01*
X293000Y207700D01*
X377600Y66000D02*
X392600Y66000D01*
X392600Y78000D01*
X377600Y78000D01*
X377600Y66000D01*
X377600Y10000D02*
X392600Y10000D01*
X392600Y22000D01*
X377600Y22000D01*
X377600Y10000D01*
X297600Y67000D02*
X312600Y67000D01*
X312600Y77000D01*
X297600Y77000D01*
X297600Y67000D01*
X297600Y11000D02*
X312600Y11000D01*
X312600Y21000D01*
X297600Y21000D01*
X297600Y11000D01*
X117000Y550500D02*
X127000Y550500D01*
X127000Y565500D01*
X117000Y565500D01*
X117000Y550500D01*
X117000Y36300D02*
X127000Y36300D01*
X127000Y51300D01*
X117000Y51300D01*
X117000Y36300D01*
X293000Y550500D02*
X303000Y550500D01*
X303000Y565500D01*
X293000Y565500D01*
X293000Y550500D01*
X117000Y207700D02*
X127000Y207700D01*
X127000Y222700D01*
X117000Y222700D01*
X117000Y207700D01*
X272000Y27500D02*
X284000Y27500D01*
X284000Y42500D01*
X272000Y42500D01*
X272000Y27500D01*
X216000Y27500D02*
X228000Y27500D01*
X228000Y42500D01*
X216000Y42500D01*
X216000Y27500D01*
X192000Y27500D02*
X204000Y27500D01*
X204000Y42500D01*
X192000Y42500D01*
X192000Y27500D01*
X136000Y27500D02*
X148000Y27500D01*
X148000Y42500D01*
X136000Y42500D01*
X136000Y27500D01*
X25500Y43491D02*
X25431Y42877D01*
X25293Y42275D01*
X25089Y41692D01*
X24821Y41135D01*
X24493Y40612D01*
X24108Y40129D01*
X23671Y39693D01*
X23188Y39307D01*
X22665Y38979D01*
X22108Y38711D01*
X21525Y38507D01*
X20923Y38369D01*
X20309Y38300D01*
X19691Y38300D01*
X19077Y38369D01*
X18475Y38507D01*
X17892Y38711D01*
X17335Y38979D01*
X16812Y39307D01*
X16329Y39693D01*
X15893Y40129D01*
X15507Y40612D01*
X15179Y41135D01*
X14911Y41692D01*
X14707Y42275D01*
X14569Y42877D01*
X14500Y43491D01*
X14500Y44109D01*
X14569Y44723D01*
X14707Y45325D01*
X14911Y45908D01*
X15179Y46465D01*
X15507Y46988D01*
X15893Y47471D01*
X16329Y47908D01*
X16812Y48293D01*
X17335Y48621D01*
X17892Y48889D01*
X18475Y49093D01*
X19077Y49231D01*
X19691Y49300D01*
X20309Y49300D01*
X20923Y49231D01*
X21525Y49093D01*
X22108Y48889D01*
X22665Y48621D01*
X23188Y48293D01*
X23671Y47908D01*
X24108Y47471D01*
X24493Y46988D01*
X24821Y46465D01*
X25089Y45908D01*
X25293Y45325D01*
X25431Y44723D01*
X25500Y44109D01*
X25500Y43491D01*
X90500Y43491D02*
X90431Y42877D01*
X90293Y42275D01*
X90089Y41692D01*
X89821Y41135D01*
X89493Y40612D01*
X89108Y40129D01*
X88671Y39693D01*
X88188Y39307D01*
X87665Y38979D01*
X87108Y38711D01*
X86525Y38507D01*
X85923Y38369D01*
X85309Y38300D01*
X84691Y38300D01*
X84077Y38369D01*
X83475Y38507D01*
X82892Y38711D01*
X82335Y38979D01*
X81812Y39307D01*
X81329Y39693D01*
X80893Y40129D01*
X80507Y40612D01*
X80179Y41135D01*
X79911Y41692D01*
X79707Y42275D01*
X79569Y42877D01*
X79500Y43491D01*
X79500Y44109D01*
X79569Y44723D01*
X79707Y45325D01*
X79911Y45908D01*
X80179Y46465D01*
X80507Y46988D01*
X80893Y47471D01*
X81329Y47908D01*
X81812Y48293D01*
X82335Y48621D01*
X82892Y48889D01*
X83475Y49093D01*
X84077Y49231D01*
X84691Y49300D01*
X85309Y49300D01*
X85923Y49231D01*
X86525Y49093D01*
X87108Y48889D01*
X87665Y48621D01*
X88188Y48293D01*
X88671Y47908D01*
X89108Y47471D01*
X89493Y46988D01*
X89821Y46465D01*
X90089Y45908D01*
X90293Y45325D01*
X90431Y44723D01*
X90500Y44109D01*
X90500Y43491D01*
X394500Y558309D02*
X394569Y558923D01*
X394707Y559525D01*
X394911Y560108D01*
X395179Y560665D01*
X395507Y561188D01*
X395893Y561671D01*
X396329Y562108D01*
X396812Y562493D01*
X397335Y562821D01*
X397892Y563089D01*
X398475Y563293D01*
X399077Y563431D01*
X399691Y563500D01*
X400309Y563500D01*
X400923Y563431D01*
X401525Y563293D01*
X402108Y563089D01*
X402665Y562821D01*
X403188Y562493D01*
X403671Y562108D01*
X404108Y561671D01*
X404493Y561188D01*
X404821Y560665D01*
X405089Y560108D01*
X405293Y559525D01*
X405431Y558923D01*
X405500Y558309D01*
X405500Y557691D01*
X405431Y557077D01*
X405293Y556475D01*
X405089Y555892D01*
X404821Y555335D01*
X404493Y554812D01*
X404108Y554329D01*
X403671Y553893D01*
X403188Y553507D01*
X402665Y553179D01*
X402108Y552911D01*
X401525Y552707D01*
X400923Y552569D01*
X400309Y552500D01*
X399691Y552500D01*
X399077Y552569D01*
X398475Y552707D01*
X397892Y552911D01*
X397335Y553179D01*
X396812Y553507D01*
X396329Y553893D01*
X395893Y554329D01*
X395507Y554812D01*
X395179Y555335D01*
X394911Y555892D01*
X394707Y556475D01*
X394569Y557077D01*
X394500Y557691D01*
X394500Y558309D01*
X329500Y558309D02*
X329569Y558923D01*
X329707Y559525D01*
X329911Y560108D01*
X330179Y560665D01*
X330507Y561188D01*
X330893Y561671D01*
X331329Y562108D01*
X331812Y562493D01*
X332335Y562821D01*
X332892Y563089D01*
X333475Y563293D01*
X334077Y563431D01*
X334691Y563500D01*
X335309Y563500D01*
X335923Y563431D01*
X336525Y563293D01*
X337108Y563089D01*
X337665Y562821D01*
X338188Y562493D01*
X338671Y562108D01*
X339108Y561671D01*
X339493Y561188D01*
X339821Y560665D01*
X340089Y560108D01*
X340293Y559525D01*
X340431Y558923D01*
X340500Y558309D01*
X340500Y557691D01*
X340431Y557077D01*
X340293Y556475D01*
X340089Y555892D01*
X339821Y555335D01*
X339493Y554812D01*
X339108Y554329D01*
X338671Y553893D01*
X338188Y553507D01*
X337665Y553179D01*
X337108Y552911D01*
X336525Y552707D01*
X335923Y552569D01*
X335309Y552500D01*
X334691Y552500D01*
X334077Y552569D01*
X333475Y552707D01*
X332892Y552911D01*
X332335Y553179D01*
X331812Y553507D01*
X331329Y553893D01*
X330893Y554329D01*
X330507Y554812D01*
X330179Y555335D01*
X329911Y555892D01*
X329707Y556475D01*
X329569Y557077D01*
X329500Y557691D01*
X329500Y558309D01*
X25500Y214891D02*
X25431Y214277D01*
X25293Y213675D01*
X25089Y213092D01*
X24821Y212535D01*
X24493Y212012D01*
X24108Y211529D01*
X23671Y211093D01*
X23188Y210707D01*
X22665Y210379D01*
X22108Y210111D01*
X21525Y209907D01*
X20923Y209769D01*
X20309Y209700D01*
X19691Y209700D01*
X19077Y209769D01*
X18475Y209907D01*
X17892Y210111D01*
X17335Y210379D01*
X16812Y210707D01*
X16329Y211093D01*
X15893Y211529D01*
X15507Y212012D01*
X15179Y212535D01*
X14911Y213092D01*
X14707Y213675D01*
X14569Y214277D01*
X14500Y214891D01*
X14500Y215509D01*
X14569Y216123D01*
X14707Y216725D01*
X14911Y217308D01*
X15179Y217865D01*
X15507Y218388D01*
X15893Y218871D01*
X16329Y219308D01*
X16812Y219693D01*
X17335Y220021D01*
X17892Y220289D01*
X18475Y220493D01*
X19077Y220631D01*
X19691Y220700D01*
X20309Y220700D01*
X20923Y220631D01*
X21525Y220493D01*
X22108Y220289D01*
X22665Y220021D01*
X23188Y219693D01*
X23671Y219308D01*
X24108Y218871D01*
X24493Y218388D01*
X24821Y217865D01*
X25089Y217308D01*
X25293Y216725D01*
X25431Y216123D01*
X25500Y215509D01*
X25500Y214891D01*
X90500Y214891D02*
X90431Y214277D01*
X90293Y213675D01*
X90089Y213092D01*
X89821Y212535D01*
X89493Y212012D01*
X89108Y211529D01*
X88671Y211093D01*
X88188Y210707D01*
X87665Y210379D01*
X87108Y210111D01*
X86525Y209907D01*
X85923Y209769D01*
X85309Y209700D01*
X84691Y209700D01*
X84077Y209769D01*
X83475Y209907D01*
X82892Y210111D01*
X82335Y210379D01*
X81812Y210707D01*
X81329Y211093D01*
X80893Y211529D01*
X80507Y212012D01*
X80179Y212535D01*
X79911Y213092D01*
X79707Y213675D01*
X79569Y214277D01*
X79500Y214891D01*
X79500Y215509D01*
X79569Y216123D01*
X79707Y216725D01*
X79911Y217308D01*
X80179Y217865D01*
X80507Y218388D01*
X80893Y218871D01*
X81329Y219308D01*
X81812Y219693D01*
X82335Y220021D01*
X82892Y220289D01*
X83475Y220493D01*
X84077Y220631D01*
X84691Y220700D01*
X85309Y220700D01*
X85923Y220631D01*
X86525Y220493D01*
X87108Y220289D01*
X87665Y220021D01*
X88188Y219693D01*
X88671Y219308D01*
X89108Y218871D01*
X89493Y218388D01*
X89821Y217865D01*
X90089Y217308D01*
X90293Y216725D01*
X90431Y216123D01*
X90500Y215509D01*
X90500Y214891D01*
X25500Y557691D02*
X25431Y557077D01*
X25293Y556475D01*
X25089Y555892D01*
X24821Y555335D01*
X24493Y554812D01*
X24108Y554329D01*
X23671Y553893D01*
X23188Y553507D01*
X22665Y553179D01*
X22108Y552911D01*
X21525Y552707D01*
X20923Y552569D01*
X20309Y552500D01*
X19691Y552500D01*
X19077Y552569D01*
X18475Y552707D01*
X17892Y552911D01*
X17335Y553179D01*
X16812Y553507D01*
X16329Y553893D01*
X15893Y554329D01*
X15507Y554812D01*
X15179Y555335D01*
X14911Y555892D01*
X14707Y556475D01*
X14569Y557077D01*
X14500Y557691D01*
X14500Y558309D01*
X14569Y558923D01*
X14707Y559525D01*
X14911Y560108D01*
X15179Y560665D01*
X15507Y561188D01*
X15893Y561671D01*
X16329Y562108D01*
X16812Y562493D01*
X17335Y562821D01*
X17892Y563089D01*
X18475Y563293D01*
X19077Y563431D01*
X19691Y563500D01*
X20309Y563500D01*
X20923Y563431D01*
X21525Y563293D01*
X22108Y563089D01*
X22665Y562821D01*
X23188Y562493D01*
X23671Y562108D01*
X24108Y561671D01*
X24493Y561188D01*
X24821Y560665D01*
X25089Y560108D01*
X25293Y559525D01*
X25431Y558923D01*
X25500Y558309D01*
X25500Y557691D01*
X90500Y557691D02*
X90431Y557077D01*
X90293Y556475D01*
X90089Y555892D01*
X89821Y555335D01*
X89493Y554812D01*
X89108Y554329D01*
X88671Y553893D01*
X88188Y553507D01*
X87665Y553179D01*
X87108Y552911D01*
X86525Y552707D01*
X85923Y552569D01*
X85309Y552500D01*
X84691Y552500D01*
X84077Y552569D01*
X83475Y552707D01*
X82892Y552911D01*
X82335Y553179D01*
X81812Y553507D01*
X81329Y553893D01*
X80893Y554329D01*
X80507Y554812D01*
X80179Y555335D01*
X79911Y555892D01*
X79707Y556475D01*
X79569Y557077D01*
X79500Y557691D01*
X79500Y558309D01*
X79569Y558923D01*
X79707Y559525D01*
X79911Y560108D01*
X80179Y560665D01*
X80507Y561188D01*
X80893Y561671D01*
X81329Y562108D01*
X81812Y562493D01*
X82335Y562821D01*
X82892Y563089D01*
X83475Y563293D01*
X84077Y563431D01*
X84691Y563500D01*
X85309Y563500D01*
X85923Y563431D01*
X86525Y563293D01*
X87108Y563089D01*
X87665Y562821D01*
X88188Y562493D01*
X88671Y562108D01*
X89108Y561671D01*
X89493Y561188D01*
X89821Y560665D01*
X90089Y560108D01*
X90293Y559525D01*
X90431Y558923D01*
X90500Y558309D01*
X90500Y557691D01*
X394600Y44309D02*
X394669Y44923D01*
X394807Y45525D01*
X395011Y46108D01*
X395279Y46665D01*
X395607Y47188D01*
X395993Y47671D01*
X396429Y48108D01*
X396912Y48493D01*
X397435Y48821D01*
X397992Y49089D01*
X398575Y49293D01*
X399177Y49431D01*
X399791Y49500D01*
X400409Y49500D01*
X401023Y49431D01*
X401625Y49293D01*
X402208Y49089D01*
X402765Y48821D01*
X403288Y48493D01*
X403771Y48108D01*
X404208Y47671D01*
X404593Y47188D01*
X404921Y46665D01*
X405189Y46108D01*
X405393Y45525D01*
X405531Y44923D01*
X405600Y44309D01*
X405600Y43691D01*
X405531Y43077D01*
X405393Y42475D01*
X405189Y41892D01*
X404921Y41335D01*
X404593Y40812D01*
X404208Y40329D01*
X403771Y39893D01*
X403288Y39507D01*
X402765Y39179D01*
X402208Y38911D01*
X401625Y38707D01*
X401023Y38569D01*
X400409Y38500D01*
X399791Y38500D01*
X399177Y38569D01*
X398575Y38707D01*
X397992Y38911D01*
X397435Y39179D01*
X396912Y39507D01*
X396429Y39893D01*
X395993Y40329D01*
X395607Y40812D01*
X395279Y41335D01*
X395011Y41892D01*
X394807Y42475D01*
X394669Y43077D01*
X394600Y43691D01*
X394600Y44309D01*
X329600Y44309D02*
X329669Y44923D01*
X329807Y45525D01*
X330011Y46108D01*
X330279Y46665D01*
X330607Y47188D01*
X330993Y47671D01*
X331429Y48108D01*
X331912Y48493D01*
X332435Y48821D01*
X332992Y49089D01*
X333575Y49293D01*
X334177Y49431D01*
X334791Y49500D01*
X335409Y49500D01*
X336023Y49431D01*
X336625Y49293D01*
X337208Y49089D01*
X337765Y48821D01*
X338288Y48493D01*
X338771Y48108D01*
X339208Y47671D01*
X339593Y47188D01*
X339921Y46665D01*
X340189Y46108D01*
X340393Y45525D01*
X340531Y44923D01*
X340600Y44309D01*
X340600Y43691D01*
X340531Y43077D01*
X340393Y42475D01*
X340189Y41892D01*
X339921Y41335D01*
X339593Y40812D01*
X339208Y40329D01*
X338771Y39893D01*
X338288Y39507D01*
X337765Y39179D01*
X337208Y38911D01*
X336625Y38707D01*
X336023Y38569D01*
X335409Y38500D01*
X334791Y38500D01*
X334177Y38569D01*
X333575Y38707D01*
X332992Y38911D01*
X332435Y39179D01*
X331912Y39507D01*
X331429Y39893D01*
X330993Y40329D01*
X330607Y40812D01*
X330279Y41335D01*
X330011Y41892D01*
X329807Y42475D01*
X329669Y43077D01*
X329600Y43691D01*
X329600Y44309D01*
X394500Y215509D02*
X394569Y216123D01*
X394707Y216725D01*
X394911Y217308D01*
X395179Y217865D01*
X395507Y218388D01*
X395893Y218871D01*
X396329Y219308D01*
X396812Y219693D01*
X397335Y220021D01*
X397892Y220289D01*
X398475Y220493D01*
X399077Y220631D01*
X399691Y220700D01*
X400309Y220700D01*
X400923Y220631D01*
X401525Y220493D01*
X402108Y220289D01*
X402665Y220021D01*
X403188Y219693D01*
X403671Y219308D01*
X404108Y218871D01*
X404493Y218388D01*
X404821Y217865D01*
X405089Y217308D01*
X405293Y216725D01*
X405431Y216123D01*
X405500Y215509D01*
X405500Y214891D01*
X405431Y214277D01*
X405293Y213675D01*
X405089Y213092D01*
X404821Y212535D01*
X404493Y212012D01*
X404108Y211529D01*
X403671Y211093D01*
X403188Y210707D01*
X402665Y210379D01*
X402108Y210111D01*
X401525Y209907D01*
X400923Y209769D01*
X400309Y209700D01*
X399691Y209700D01*
X399077Y209769D01*
X398475Y209907D01*
X397892Y210111D01*
X397335Y210379D01*
X396812Y210707D01*
X396329Y211093D01*
X395893Y211529D01*
X395507Y212012D01*
X395179Y212535D01*
X394911Y213092D01*
X394707Y213675D01*
X394569Y214277D01*
X394500Y214891D01*
X394500Y215509D01*
X329500Y215509D02*
X329569Y216123D01*
X329707Y216725D01*
X329911Y217308D01*
X330179Y217865D01*
X330507Y218388D01*
X330893Y218871D01*
X331329Y219308D01*
X331812Y219693D01*
X332335Y220021D01*
X332892Y220289D01*
X333475Y220493D01*
X334077Y220631D01*
X334691Y220700D01*
X335309Y220700D01*
X335923Y220631D01*
X336525Y220493D01*
X337108Y220289D01*
X337665Y220021D01*
X338188Y219693D01*
X338671Y219308D01*
X339108Y218871D01*
X339493Y218388D01*
X339821Y217865D01*
X340089Y217308D01*
X340293Y216725D01*
X340431Y216123D01*
X340500Y215509D01*
X340500Y214891D01*
X340431Y214277D01*
X340293Y213675D01*
X340089Y213092D01*
X339821Y212535D01*
X339493Y212012D01*
X339108Y211529D01*
X338671Y211093D01*
X338188Y210707D01*
X337665Y210379D01*
X337108Y210111D01*
X336525Y209907D01*
X335923Y209769D01*
X335309Y209700D01*
X334691Y209700D01*
X334077Y209769D01*
X333475Y209907D01*
X332892Y210111D01*
X332335Y210379D01*
X331812Y210707D01*
X331329Y211093D01*
X330893Y211529D01*
X330507Y212012D01*
X330179Y212535D01*
X329911Y213092D01*
X329707Y213675D01*
X329569Y214277D01*
X329500Y214891D01*
X329500Y215509D01*
X394500Y386909D02*
X394569Y387523D01*
X394707Y388125D01*
X394911Y388708D01*
X395179Y389265D01*
X395507Y389788D01*
X395893Y390271D01*
X396329Y390708D01*
X396812Y391093D01*
X397335Y391421D01*
X397892Y391689D01*
X398475Y391893D01*
X399077Y392031D01*
X399691Y392100D01*
X400309Y392100D01*
X400923Y392031D01*
X401525Y391893D01*
X402108Y391689D01*
X402665Y391421D01*
X403188Y391093D01*
X403671Y390708D01*
X404108Y390271D01*
X404493Y389788D01*
X404821Y389265D01*
X405089Y388708D01*
X405293Y388125D01*
X405431Y387523D01*
X405500Y386909D01*
X405500Y386291D01*
X405431Y385677D01*
X405293Y385075D01*
X405089Y384492D01*
X404821Y383935D01*
X404493Y383412D01*
X404108Y382929D01*
X403671Y382493D01*
X403188Y382107D01*
X402665Y381779D01*
X402108Y381511D01*
X401525Y381307D01*
X400923Y381169D01*
X400309Y381100D01*
X399691Y381100D01*
X399077Y381169D01*
X398475Y381307D01*
X397892Y381511D01*
X397335Y381779D01*
X396812Y382107D01*
X396329Y382493D01*
X395893Y382929D01*
X395507Y383412D01*
X395179Y383935D01*
X394911Y384492D01*
X394707Y385075D01*
X394569Y385677D01*
X394500Y386291D01*
X394500Y386909D01*
X329500Y386909D02*
X329569Y387523D01*
X329707Y388125D01*
X329911Y388708D01*
X330179Y389265D01*
X330507Y389788D01*
X330893Y390271D01*
X331329Y390708D01*
X331812Y391093D01*
X332335Y391421D01*
X332892Y391689D01*
X333475Y391893D01*
X334077Y392031D01*
X334691Y392100D01*
X335309Y392100D01*
X335923Y392031D01*
X336525Y391893D01*
X337108Y391689D01*
X337665Y391421D01*
X338188Y391093D01*
X338671Y390708D01*
X339108Y390271D01*
X339493Y389788D01*
X339821Y389265D01*
X340089Y388708D01*
X340293Y388125D01*
X340431Y387523D01*
X340500Y386909D01*
X340500Y386291D01*
X340431Y385677D01*
X340293Y385075D01*
X340089Y384492D01*
X339821Y383935D01*
X339493Y383412D01*
X339108Y382929D01*
X338671Y382493D01*
X338188Y382107D01*
X337665Y381779D01*
X337108Y381511D01*
X336525Y381307D01*
X335923Y381169D01*
X335309Y381100D01*
X334691Y381100D01*
X334077Y381169D01*
X333475Y381307D01*
X332892Y381511D01*
X332335Y381779D01*
X331812Y382107D01*
X331329Y382493D01*
X330893Y382929D01*
X330507Y383412D01*
X330179Y383935D01*
X329911Y384492D01*
X329707Y385075D01*
X329569Y385677D01*
X329500Y386291D01*
X329500Y386909D01*
X25500Y386291D02*
X25431Y385677D01*
X25293Y385075D01*
X25089Y384492D01*
X24821Y383935D01*
X24493Y383412D01*
X24108Y382929D01*
X23671Y382493D01*
X23188Y382107D01*
X22665Y381779D01*
X22108Y381511D01*
X21525Y381307D01*
X20923Y381169D01*
X20309Y381100D01*
X19691Y381100D01*
X19077Y381169D01*
X18475Y381307D01*
X17892Y381511D01*
X17335Y381779D01*
X16812Y382107D01*
X16329Y382493D01*
X15893Y382929D01*
X15507Y383412D01*
X15179Y383935D01*
X14911Y384492D01*
X14707Y385075D01*
X14569Y385677D01*
X14500Y386291D01*
X14500Y386909D01*
X14569Y387523D01*
X14707Y388125D01*
X14911Y388708D01*
X15179Y389265D01*
X15507Y389788D01*
X15893Y390271D01*
X16329Y390708D01*
X16812Y391093D01*
X17335Y391421D01*
X17892Y391689D01*
X18475Y391893D01*
X19077Y392031D01*
X19691Y392100D01*
X20309Y392100D01*
X20923Y392031D01*
X21525Y391893D01*
X22108Y391689D01*
X22665Y391421D01*
X23188Y391093D01*
X23671Y390708D01*
X24108Y390271D01*
X24493Y389788D01*
X24821Y389265D01*
X25089Y388708D01*
X25293Y388125D01*
X25431Y387523D01*
X25500Y386909D01*
X25500Y386291D01*
X90500Y386291D02*
X90431Y385677D01*
X90293Y385075D01*
X90089Y384492D01*
X89821Y383935D01*
X89493Y383412D01*
X89108Y382929D01*
X88671Y382493D01*
X88188Y382107D01*
X87665Y381779D01*
X87108Y381511D01*
X86525Y381307D01*
X85923Y381169D01*
X85309Y381100D01*
X84691Y381100D01*
X84077Y381169D01*
X83475Y381307D01*
X82892Y381511D01*
X82335Y381779D01*
X81812Y382107D01*
X81329Y382493D01*
X80893Y382929D01*
X80507Y383412D01*
X80179Y383935D01*
X79911Y384492D01*
X79707Y385075D01*
X79569Y385677D01*
X79500Y386291D01*
X79500Y386909D01*
X79569Y387523D01*
X79707Y388125D01*
X79911Y388708D01*
X80179Y389265D01*
X80507Y389788D01*
X80893Y390271D01*
X81329Y390708D01*
X81812Y391093D01*
X82335Y391421D01*
X82892Y391689D01*
X83475Y391893D01*
X84077Y392031D01*
X84691Y392100D01*
X85309Y392100D01*
X85923Y392031D01*
X86525Y391893D01*
X87108Y391689D01*
X87665Y391421D01*
X88188Y391093D01*
X88671Y390708D01*
X89108Y390271D01*
X89493Y389788D01*
X89821Y389265D01*
X90089Y388708D01*
X90293Y388125D01*
X90431Y387523D01*
X90500Y386909D01*
X90500Y386291D01*
X170309Y25500D02*
X170923Y25431D01*
X171525Y25293D01*
X172108Y25089D01*
X172665Y24821D01*
X173188Y24493D01*
X173671Y24108D01*
X174108Y23671D01*
X174493Y23188D01*
X174821Y22665D01*
X175089Y22108D01*
X175293Y21525D01*
X175431Y20923D01*
X175500Y20309D01*
X175500Y19691D01*
X175431Y19077D01*
X175293Y18475D01*
X175089Y17892D01*
X174821Y17335D01*
X174493Y16812D01*
X174108Y16329D01*
X173671Y15893D01*
X173188Y15507D01*
X172665Y15179D01*
X172108Y14911D01*
X171525Y14707D01*
X170923Y14569D01*
X170309Y14500D01*
X169691Y14500D01*
X169077Y14569D01*
X168475Y14707D01*
X167892Y14911D01*
X167335Y15179D01*
X166812Y15507D01*
X166329Y15893D01*
X165893Y16329D01*
X165507Y16812D01*
X165179Y17335D01*
X164911Y17892D01*
X164707Y18475D01*
X164569Y19077D01*
X164500Y19691D01*
X164500Y20309D01*
X164569Y20923D01*
X164707Y21525D01*
X164911Y22108D01*
X165179Y22665D01*
X165507Y23188D01*
X165893Y23671D01*
X166329Y24108D01*
X166812Y24493D01*
X167335Y24821D01*
X167892Y25089D01*
X168475Y25293D01*
X169077Y25431D01*
X169691Y25500D01*
X170309Y25500D01*
X170309Y90500D02*
X170923Y90431D01*
X171525Y90293D01*
X172108Y90089D01*
X172665Y89821D01*
X173188Y89493D01*
X173671Y89108D01*
X174108Y88671D01*
X174493Y88188D01*
X174821Y87665D01*
X175089Y87108D01*
X175293Y86525D01*
X175431Y85923D01*
X175500Y85309D01*
X175500Y84691D01*
X175431Y84077D01*
X175293Y83475D01*
X175089Y82892D01*
X174821Y82335D01*
X174493Y81812D01*
X174108Y81329D01*
X173671Y80893D01*
X173188Y80507D01*
X172665Y80179D01*
X172108Y79911D01*
X171525Y79707D01*
X170923Y79569D01*
X170309Y79500D01*
X169691Y79500D01*
X169077Y79569D01*
X168475Y79707D01*
X167892Y79911D01*
X167335Y80179D01*
X166812Y80507D01*
X166329Y80893D01*
X165893Y81329D01*
X165507Y81812D01*
X165179Y82335D01*
X164911Y82892D01*
X164707Y83475D01*
X164569Y84077D01*
X164500Y84691D01*
X164500Y85309D01*
X164569Y85923D01*
X164707Y86525D01*
X164911Y87108D01*
X165179Y87665D01*
X165507Y88188D01*
X165893Y88671D01*
X166329Y89108D01*
X166812Y89493D01*
X167335Y89821D01*
X167892Y90089D01*
X168475Y90293D01*
X169077Y90431D01*
X169691Y90500D01*
X170309Y90500D01*
X250309Y25500D02*
X250923Y25431D01*
X251525Y25293D01*
X252108Y25089D01*
X252665Y24821D01*
X253188Y24493D01*
X253671Y24108D01*
X254108Y23671D01*
X254493Y23188D01*
X254821Y22665D01*
X255089Y22108D01*
X255293Y21525D01*
X255431Y20923D01*
X255500Y20309D01*
X255500Y19691D01*
X255431Y19077D01*
X255293Y18475D01*
X255089Y17892D01*
X254821Y17335D01*
X254493Y16812D01*
X254108Y16329D01*
X253671Y15893D01*
X253188Y15507D01*
X252665Y15179D01*
X252108Y14911D01*
X251525Y14707D01*
X250923Y14569D01*
X250309Y14500D01*
X249691Y14500D01*
X249077Y14569D01*
X248475Y14707D01*
X247892Y14911D01*
X247335Y15179D01*
X246812Y15507D01*
X246329Y15893D01*
X245893Y16329D01*
X245507Y16812D01*
X245179Y17335D01*
X244911Y17892D01*
X244707Y18475D01*
X244569Y19077D01*
X244500Y19691D01*
X244500Y20309D01*
X244569Y20923D01*
X244707Y21525D01*
X244911Y22108D01*
X245179Y22665D01*
X245507Y23188D01*
X245893Y23671D01*
X246329Y24108D01*
X246812Y24493D01*
X247335Y24821D01*
X247892Y25089D01*
X248475Y25293D01*
X249077Y25431D01*
X249691Y25500D01*
X250309Y25500D01*
X250309Y90500D02*
X250923Y90431D01*
X251525Y90293D01*
X252108Y90089D01*
X252665Y89821D01*
X253188Y89493D01*
X253671Y89108D01*
X254108Y88671D01*
X254493Y88188D01*
X254821Y87665D01*
X255089Y87108D01*
X255293Y86525D01*
X255431Y85923D01*
X255500Y85309D01*
X255500Y84691D01*
X255431Y84077D01*
X255293Y83475D01*
X255089Y82892D01*
X254821Y82335D01*
X254493Y81812D01*
X254108Y81329D01*
X253671Y80893D01*
X253188Y80507D01*
X252665Y80179D01*
X252108Y79911D01*
X251525Y79707D01*
X250923Y79569D01*
X250309Y79500D01*
X249691Y79500D01*
X249077Y79569D01*
X248475Y79707D01*
X247892Y79911D01*
X247335Y80179D01*
X246812Y80507D01*
X246329Y80893D01*
X245893Y81329D01*
X245507Y81812D01*
X245179Y82335D01*
X244911Y82892D01*
X244707Y83475D01*
X244569Y84077D01*
X244500Y84691D01*
X244500Y85309D01*
X244569Y85923D01*
X244707Y86525D01*
X244911Y87108D01*
X245179Y87665D01*
X245507Y88188D01*
X245893Y88671D01*
X246329Y89108D01*
X246812Y89493D01*
X247335Y89821D01*
X247892Y90089D01*
X248475Y90293D01*
X249077Y90431D01*
X249691Y90500D01*
X250309Y90500D01*
M02*
