M48
;GenerationSoftware,Autodesk,EAGLE,9.6.2*%
;CreationDate,2021-04-25T18:47:49Z*%
FMAT,2
ICI,OFF
METRIC,TZ,000.000
T10C0.350
T9C0.400
T8C0.700
T7C0.770
T6C0.800
T5C0.813
T4C0.900
T3C1.000
T2C1.100
T1C1.200
%
G90
M71
T1
X3500Y58600
X38500Y35860
X3500Y7180
X3500Y1580
X3500Y24320
X3500Y18720
X38500Y53000
X38500Y58600
X27800Y3500
X38510Y7200
X3500Y53000
X38500Y24320
X38500Y18720
X19800Y3500
X14200Y3500
X22200Y3500
X3500Y35860
X3500Y41460
X38500Y41460
X38510Y1600
T2
X33500Y21520
X40000Y55800
X33500Y55800
X2000Y21520
X8500Y21520
X2000Y55800
X40000Y38660
X8500Y55800
X40010Y4400
X25000Y2000
X33500Y38660
X8500Y4380
X33510Y4400
X40000Y21520
X2000Y4380
X25000Y8500
X8500Y38660
X2000Y38660
X17000Y2000
X17000Y8500
T3
X11500Y53000
X30500Y18720
X29800Y21520
X30510Y7200
X30510Y1600
X29810Y4400
X30500Y24320
X19800Y11500
X14200Y11500
X17000Y12200
X12200Y21520
X11500Y24320
X11500Y35860
X11500Y41460
X12200Y38660
X27800Y11500
X22200Y11500
X30500Y41460
X30500Y35860
X29800Y38660
X11500Y18720
X11500Y7180
X11500Y1580
X25000Y12200
X12200Y55800
X29800Y55800
X30500Y53000
X30500Y58600
X11500Y58600
X12200Y4380
T4
X40460Y43415
X40460Y51035
T5
X17190Y28180
X17190Y25640
X17190Y23100
X17190Y20560
X17190Y18020
X24810Y15480
X24810Y18020
X24810Y20560
X24810Y23100
X24810Y25640
X24810Y28180
X24810Y30720
X24810Y33260
X24810Y35800
X24810Y38340
X24810Y40880
X24810Y43420
X24810Y45960
X24810Y48500
X14630Y24480
X14630Y21940
X29915Y27560
X17190Y15480
X29915Y32640
X29915Y30100
X17190Y48500
X17190Y45960
X17190Y43420
X17190Y40880
X17190Y38340
X17190Y35800
X17190Y33260
X17190Y30720
T6
X5347Y33860
X39440Y33850
X7887Y33860
X7893Y9200
X24200Y52420
X22200Y52420
X20200Y52420
X18200Y52420
X2470Y51065
X5010Y51065
X2813Y16820
X39440Y26230
X36900Y26230
X34360Y26230
X7550Y51065
X7887Y26240
X5347Y26240
X2807Y26240
X2807Y33860
X7893Y16820
X5353Y16820
X2470Y43445
X5010Y43445
X7550Y43445
X5353Y9200
X2813Y9200
X34360Y33850
X36900Y33850
T7
X29791Y49712
X37391Y49712
X34191Y49712
X31991Y49712
X29791Y44632
X31991Y44632
X34191Y44632
X37391Y44632
T8
X27030Y42630
X27030Y45170
X27040Y49790
X27040Y47250
X14340Y26450
X14340Y34070
X36840Y12960
X14350Y43150
X14350Y35530
X11517Y26464
X11709Y43343
X11709Y50963
X14301Y44630
X11517Y34084
X14301Y52250
X31180Y10280
X33720Y10280
X31140Y12850
X33680Y12850
X39380Y12960
X31110Y15430
X33650Y15430
X39410Y10260
X36870Y10260
X39400Y15540
X36860Y15540
T9
X29830Y46310
X37000Y30000
X33260Y47520
X31050Y46240
X32290Y48200
X21550Y49460
X19660Y49620
X22170Y48510
X20060Y48070
X28000Y56000
X31120Y37450
X9050Y46320
X19280Y39970
X27320Y54630
X28240Y51400
X23110Y39610
X22000Y57000
T10
X18000Y58000
X31530Y31220
X7000Y56000
X7000Y58000
X20000Y58000
M30