G04 EAGLE Gerber RS-274X export*
G75*
%MOMM*%
%FSLAX34Y34*%
%LPD*%
%INSoldermask Top*%
%IPPOS*%
%AMOC8*
5,1,8,0,0,1.08239X$1,22.5*%
G01*
%ADD10C,1.403200*%
%ADD11C,1.523200*%
%ADD12R,1.703200X1.703200*%
%ADD13C,1.703200*%
%ADD14C,1.703200*%
%ADD15C,1.803200*%
%ADD16C,2.003200*%
%ADD17C,1.303200*%
%ADD18C,1.625600*%
%ADD19C,1.553200*%
%ADD20C,1.879600*%
%ADD21P,1.539592X8X292.500000*%
%ADD22R,1.473200X1.473200*%
%ADD23C,1.473200*%


D10*
X143010Y522500D03*
X143010Y446300D03*
X117090Y509630D03*
X117090Y433430D03*
X115170Y340840D03*
X115170Y264640D03*
D11*
X373910Y497120D03*
X341910Y497120D03*
X319910Y497120D03*
X297910Y497120D03*
X297910Y446320D03*
X319910Y446320D03*
X341910Y446320D03*
X373910Y446320D03*
D12*
X78933Y168200D03*
D13*
X53533Y168200D03*
X28133Y168200D03*
X28133Y92000D03*
X53533Y92000D03*
X78933Y92000D03*
D14*
X122000Y51300D02*
X122000Y36300D01*
D15*
X123000Y71800D02*
X107000Y71800D01*
X107000Y15800D02*
X123000Y15800D01*
D16*
X44000Y71800D02*
X26000Y71800D01*
X26000Y15800D02*
X44000Y15800D01*
D17*
X20000Y43800D03*
X85000Y43800D03*
D14*
X298000Y550500D02*
X298000Y565500D01*
D15*
X297000Y530000D02*
X313000Y530000D01*
X313000Y586000D02*
X297000Y586000D01*
D16*
X376000Y530000D02*
X394000Y530000D01*
X394000Y586000D02*
X376000Y586000D01*
D17*
X400000Y558000D03*
X335000Y558000D03*
D14*
X122000Y222700D02*
X122000Y207700D01*
D15*
X123000Y243200D02*
X107000Y243200D01*
X107000Y187200D02*
X123000Y187200D01*
D16*
X44000Y243200D02*
X26000Y243200D01*
X26000Y187200D02*
X44000Y187200D01*
D17*
X20000Y215200D03*
X85000Y215200D03*
D14*
X122000Y550500D02*
X122000Y565500D01*
D15*
X123000Y586000D02*
X107000Y586000D01*
X107000Y530000D02*
X123000Y530000D01*
D16*
X44000Y586000D02*
X26000Y586000D01*
X26000Y530000D02*
X44000Y530000D01*
D17*
X20000Y558000D03*
X85000Y558000D03*
D12*
X78867Y338600D03*
D13*
X53467Y338600D03*
X28067Y338600D03*
X28067Y262400D03*
X53467Y262400D03*
X78867Y262400D03*
D12*
X343600Y262300D03*
D13*
X369000Y262300D03*
X394400Y262300D03*
X394400Y338500D03*
X369000Y338500D03*
X343600Y338500D03*
D18*
X299150Y275600D03*
X299150Y326400D03*
X299150Y301000D03*
D10*
X143400Y264500D03*
X143400Y340700D03*
D14*
X298100Y51500D02*
X298100Y36500D01*
D15*
X297100Y16000D02*
X313100Y16000D01*
X313100Y72000D02*
X297100Y72000D01*
D16*
X376100Y16000D02*
X394100Y16000D01*
X394100Y72000D02*
X376100Y72000D01*
D17*
X400100Y44000D03*
X335100Y44000D03*
D19*
X404600Y434150D03*
X404600Y510350D03*
D14*
X298000Y222700D02*
X298000Y207700D01*
D15*
X297000Y187200D02*
X313000Y187200D01*
X313000Y243200D02*
X297000Y243200D01*
D16*
X376000Y187200D02*
X394000Y187200D01*
X394000Y243200D02*
X376000Y243200D01*
D17*
X400000Y215200D03*
X335000Y215200D03*
D14*
X298000Y379100D02*
X298000Y394100D01*
D15*
X297000Y358600D02*
X313000Y358600D01*
X313000Y414600D02*
X297000Y414600D01*
D16*
X376000Y358600D02*
X394000Y358600D01*
X394000Y414600D02*
X376000Y414600D01*
D17*
X400000Y386600D03*
X335000Y386600D03*
D10*
X143500Y431500D03*
X143500Y355300D03*
D14*
X122000Y379100D02*
X122000Y394100D01*
D15*
X123000Y414600D02*
X107000Y414600D01*
X107000Y358600D02*
X123000Y358600D01*
D16*
X44000Y414600D02*
X26000Y414600D01*
X26000Y358600D02*
X44000Y358600D01*
D17*
X20000Y386600D03*
X85000Y386600D03*
D12*
X75500Y510650D03*
D13*
X50100Y510650D03*
X24700Y510650D03*
X24700Y434450D03*
X50100Y434450D03*
X75500Y434450D03*
D20*
X171900Y485000D03*
X171900Y459600D03*
X171900Y434200D03*
X171900Y408800D03*
X171900Y383400D03*
X171900Y358000D03*
X171900Y332600D03*
X171900Y307200D03*
X171900Y281800D03*
X171900Y256400D03*
X171900Y231000D03*
X171900Y205600D03*
X171900Y180200D03*
X171900Y154800D03*
X248100Y154800D03*
X248100Y180200D03*
X248100Y205600D03*
X248100Y231000D03*
X248100Y256400D03*
X248100Y281800D03*
X248100Y307200D03*
X248100Y332600D03*
X248100Y358000D03*
X248100Y383400D03*
X248100Y408800D03*
X248100Y434200D03*
X248100Y459600D03*
X248100Y485000D03*
D14*
X177500Y122000D02*
X162500Y122000D01*
D15*
X142000Y123000D02*
X142000Y107000D01*
X198000Y107000D02*
X198000Y123000D01*
D16*
X142000Y44000D02*
X142000Y26000D01*
X198000Y26000D02*
X198000Y44000D01*
D17*
X170000Y20000D03*
X170000Y85000D03*
D14*
X242500Y122000D02*
X257500Y122000D01*
D15*
X222000Y123000D02*
X222000Y107000D01*
X278000Y107000D02*
X278000Y123000D01*
D16*
X222000Y44000D02*
X222000Y26000D01*
X278000Y26000D02*
X278000Y44000D01*
D17*
X250000Y20000D03*
X250000Y85000D03*
D21*
X146300Y244800D03*
X146300Y219400D03*
D22*
X182000Y524200D03*
D23*
X202000Y524200D03*
X222000Y524200D03*
X242000Y524200D03*
D10*
X311800Y102800D03*
X337200Y102800D03*
X311400Y128500D03*
X336800Y128500D03*
X393800Y129600D03*
X368400Y129600D03*
X311100Y154300D03*
X336500Y154300D03*
X394100Y102600D03*
X368700Y102600D03*
X394000Y155400D03*
X368600Y155400D03*
X270300Y426300D03*
X270300Y451700D03*
X270400Y497900D03*
X270400Y472500D03*
M02*
