0
SECTION
2
HEADER
9
$INSUNITS
70
4
9
$ACADVER
1
AC1014
9
$HANDSEED
5
FFFF
0
ENDSEC
0
SECTION
2
TABLES
0
TABLE
2
VPORT
5
8
100
AcDbSymbolTable
0
ENDTAB
0
TABLE
2
LTYPE
5
5
100
AcDbSymbolTable
0
LTYPE
5
14
100
AcDbSymbolTableRecord
100
AcDbLinetypeTableRecord
2
BYBLOCK
70
0
0
LTYPE
5
15
100
AcDbSymbolTableRecord
100
AcDbLinetypeTableRecord
2
BYLAYER
70
0
0
ENDTAB
0
TABLE
2
LAYER
5
2
100
AcDbSymbolTable
70
2
0
LAYER
5
50
100
AcDbSymbolTableRecord
100
AcDbLayerTableRecord
2
0
70
0
6
CONTINUOUS
0
ENDTAB
0
TABLE
2
STYLE
5
3
100
AcDbSymbolTable
70
1
0
STYLE
5
11
100
AcDbSymbolTableRecord
100
AcDbTextStyleTableRecord
2
STANDARD
70
0
0
ENDTAB
0
TABLE
2
VIEW
5
6
100
AcDbSymbolTable
70
0
0
ENDTAB
0
TABLE
2
UCS
5
7
100
AcDbSymbolTable
70
0
0
ENDTAB
0
TABLE
2
APPID
5
9
100
AcDbSymbolTable
70
2
0
APPID
5
12
100
AcDbSymbolTableRecord
100
AcDbRegAppTableRecord
2
ACAD
70
0
0
ENDTAB
0
TABLE
2
DIMSTYLE
5
A
100
AcDbSymbolTable
70
1
0
ENDTAB
0
TABLE
2
BLOCK_RECORD
5
1
100
AcDbSymbolTable
70
1
0
BLOCK_RECORD
5
1F
100
AcDbSymbolTableRecord
100
AcDbBlockTableRecord
2
*MODEL_SPACE
0
BLOCK_RECORD
5
1B
100
AcDbSymbolTableRecord
100
AcDbBlockTableRecord
2
*PAPER_SPACE
0
ENDTAB
0
ENDSEC
0
SECTION
2
BLOCKS
0
BLOCK
5
20
100
AcDbEntity
100
AcDbBlockBegin
2
*MODEL_SPACE
0
ENDBLK
5
21
100
AcDbEntity
100
AcDbBlockEnd
0
BLOCK
5
1C
100
AcDbEntity
100
AcDbBlockBegin
2
*PAPER_SPACE
0
ENDBLK
5
1D
100
AcDbEntity
100
AcDbBlockEnd
0
ENDSEC
0
SECTION
2
ENTITIES
0
LWPOLYLINE
5
100
100
AcDbEntity
8
0
100
AcDbPolyline
90
32
70
1
43
0.0
10
12.430607966083871
20
-36.874999999956842
42
-0.26794919243112264
10
8.7499999999999964
20
-38.999999999956842
10
-8.7500000000000036
20
-38.999999999956827
42
-0.26794919243112308
10
-12.430607966083864
20
-36.874999999956827
10
-13.513139720737081
20
-35.000000000090779
42
0.26794919243136106
10
-16.111215932093081
20
-33.500000000090786
10
-20.581049040902862
20
-33.500000000094786
42
0.26794919242067294
10
-23.179125252196332
20
-34.999999999995794
10
-24.102885683006541
20
-36.600000000025645
42
-0.76732698797451604
10
-32.499999999997485
20
-34.349999999974848
10
-32.500000000043137
20
34.349999999908093
42
-0.76732698798199717
10
-24.102885682951012
20
36.599999999963188
10
-23.179125252167342
20
34.999999999902059
42
0.26794919242547488
10
-20.581049040845649
20
33.49999999995682
10
-16.111215932167738
20
33.49999999995682
42
0.26794919243112336
10
-13.513139720814422
20
34.999999999956813
10
-12.430607966083866
20
36.874999999956827
42
-0.26794919243112347
10
-8.7500000000000053
20
38.999999999956827
10
8.7499999999999947
20
38.999999999956835
42
-0.26794919243112164
10
12.430607966083862
20
36.874999999956835
10
13.513139720814426
20
34.999999999956827
42
0.2679491924311232
10
16.111215932167742
20
33.499999999956827
10
20.581049040819053
20
33.499999999956827
42
0.26794919242128096
10
23.179125252117274
20
34.999999999861387
10
24.102885682943509
20
36.599999999928741
42
-0.76732698797782106
10
32.499999999959442
20
34.349999999916008
10
32.49999999999558
20
-34.349999999995234
42
-0.76732698797861798
10
24.10288568290656
20
-36.600000000029773
10
23.179125252159807
20
-35.000000000015305
42
0.26794919242696719
10
20.581049040828418
20
-33.500000000057931
10
16.111215932104368
20
-33.500000000061931
42
0.26794919243088106
10
13.513139720753742
20
-35.000000000061938
0
LWPOLYLINE
5
101
100
AcDbEntity
8
0
100
AcDbPolyline
90
4
70
1
43
0.0
10
8.7499999999999858
20
35.999999999956806
42
-0.99999999999999989
10
8.7499999999999929
20
33.499999999956827
10
-8.7500000000000089
20
33.499999999956849
42
-0.99999999999999989
10
-8.7500000000000036
20
35.999999999956827
0
CIRCLE
5
102
100
AcDbEntity
8
0
100
AcDbCircle
10
-28.00000000000345
20
-34.349999999980298
30
0
40
1.749999999999998
210
-0
220
0
230
1
0
CIRCLE
5
103
100
AcDbEntity
8
0
100
AcDbCircle
10
27.999999999960909
20
-34.350000000002652
30
0
40
1.749999999999998
210
-0
220
0
230
1
0
CIRCLE
5
104
100
AcDbEntity
8
0
100
AcDbCircle
10
-28.000000000009287
20
34.349999999944515
30
0
40
1.749999999999998
210
-0
220
0
230
1
0
CIRCLE
5
105
100
AcDbEntity
8
0
100
AcDbCircle
10
24.250000000000004
20
-26.5
30
0
40
3.0000000000000027
210
-0
220
0
230
1
0
CIRCLE
5
106
100
AcDbEntity
8
0
100
AcDbCircle
10
27.999999999963027
20
34.349999999917799
30
0
40
1.749999999999998
210
-0
220
0
230
1
0
LWPOLYLINE
5
107
100
AcDbEntity
8
0
100
AcDbPolyline
90
4
70
1
43
0.0
10
-8.75
20
-35.99999999995682
42
-0.99999999999999989
10
-8.7500000000000089
20
-33.499999999956849
10
8.7500000000000089
20
-33.499999999956856
42
-0.99999999999999989
10
8.7499999999999858
20
-35.999999999956806
0
CIRCLE
5
108
100
AcDbEntity
8
0
100
AcDbCircle
10
0
20
0
30
0
40
5.5
210
-0
220
0
230
1
0
CIRCLE
5
109
100
AcDbEntity
8
0
100
AcDbCircle
10
0
20
0
30
0
40
4
210
0
220
-0
230
1
0
ENDSEC
0
SECTION
2
OBJECTS
0
DICTIONARY
5
C
100
AcDbDictionary
3
ACAD_GROUP
350
D
3
ACAD_MLINESTYLE
350
17
0
DICTIONARY
5
D
100
AcDbDictionary
0
DICTIONARY
5
1A
330
C
100
AcDbDictionary
0
DICTIONARY
5
17
100
AcDbDictionary
0
ENDSEC
0
EOF
