G04 EAGLE Gerber RS-274X export*
G75*
%MOMM*%
%FSLAX34Y34*%
%LPD*%
%IN*%
%IPPOS*%
%AMOC8*
5,1,8,0,0,1.08239X$1,22.5*%
G01*
%ADD10C,0.127000*%
%ADD11C,0.254000*%


D10*
X0Y20000D02*
X6Y19517D01*
X23Y19034D01*
X53Y18551D01*
X93Y18070D01*
X146Y17589D01*
X210Y17110D01*
X285Y16633D01*
X373Y16157D01*
X471Y15684D01*
X581Y15214D01*
X702Y14746D01*
X835Y14281D01*
X979Y13820D01*
X1134Y13362D01*
X1300Y12908D01*
X1477Y12458D01*
X1664Y12013D01*
X1863Y11572D01*
X2071Y11136D01*
X2291Y10706D01*
X2521Y10280D01*
X2761Y9861D01*
X3011Y9447D01*
X3271Y9040D01*
X3540Y8639D01*
X3820Y8244D01*
X4108Y7857D01*
X4407Y7476D01*
X4714Y7103D01*
X5030Y6738D01*
X5355Y6380D01*
X5688Y6030D01*
X6030Y5688D01*
X6380Y5355D01*
X6738Y5030D01*
X7103Y4714D01*
X7476Y4407D01*
X7857Y4108D01*
X8244Y3820D01*
X8639Y3540D01*
X9040Y3271D01*
X9447Y3011D01*
X9861Y2761D01*
X10280Y2521D01*
X10706Y2291D01*
X11136Y2071D01*
X11572Y1863D01*
X12013Y1664D01*
X12458Y1477D01*
X12908Y1300D01*
X13362Y1134D01*
X13820Y979D01*
X14281Y835D01*
X14746Y702D01*
X15214Y581D01*
X15684Y471D01*
X16157Y373D01*
X16633Y285D01*
X17110Y210D01*
X17589Y146D01*
X18070Y93D01*
X18551Y53D01*
X19034Y23D01*
X19517Y6D01*
X20000Y0D01*
X0Y20000D02*
X0Y580000D01*
X6Y580483D01*
X23Y580966D01*
X53Y581449D01*
X93Y581930D01*
X146Y582411D01*
X210Y582890D01*
X285Y583367D01*
X373Y583843D01*
X471Y584316D01*
X581Y584786D01*
X702Y585254D01*
X835Y585719D01*
X979Y586180D01*
X1134Y586638D01*
X1300Y587092D01*
X1477Y587542D01*
X1664Y587987D01*
X1863Y588428D01*
X2071Y588864D01*
X2291Y589294D01*
X2521Y589720D01*
X2761Y590139D01*
X3011Y590553D01*
X3271Y590960D01*
X3540Y591361D01*
X3820Y591756D01*
X4108Y592143D01*
X4407Y592524D01*
X4714Y592897D01*
X5030Y593262D01*
X5355Y593620D01*
X5688Y593970D01*
X6030Y594312D01*
X6380Y594645D01*
X6738Y594970D01*
X7103Y595286D01*
X7476Y595593D01*
X7857Y595892D01*
X8244Y596180D01*
X8639Y596460D01*
X9040Y596729D01*
X9447Y596989D01*
X9861Y597239D01*
X10280Y597479D01*
X10706Y597709D01*
X11136Y597929D01*
X11572Y598137D01*
X12013Y598336D01*
X12458Y598523D01*
X12908Y598700D01*
X13362Y598866D01*
X13820Y599021D01*
X14281Y599165D01*
X14746Y599298D01*
X15214Y599419D01*
X15684Y599529D01*
X16157Y599627D01*
X16633Y599715D01*
X17110Y599790D01*
X17589Y599854D01*
X18070Y599907D01*
X18551Y599947D01*
X19034Y599977D01*
X19517Y599994D01*
X20000Y600000D01*
X225800Y600000D01*
X226283Y599994D01*
X226766Y599977D01*
X227249Y599947D01*
X227730Y599907D01*
X228211Y599854D01*
X228690Y599790D01*
X229167Y599715D01*
X229643Y599627D01*
X230116Y599529D01*
X230586Y599419D01*
X231054Y599298D01*
X231519Y599165D01*
X231980Y599021D01*
X232438Y598866D01*
X232892Y598700D01*
X233342Y598523D01*
X233787Y598336D01*
X234228Y598137D01*
X234664Y597929D01*
X235094Y597709D01*
X235520Y597479D01*
X235939Y597239D01*
X236353Y596989D01*
X236760Y596729D01*
X237161Y596460D01*
X237556Y596180D01*
X237943Y595892D01*
X238324Y595593D01*
X238697Y595286D01*
X239062Y594970D01*
X239420Y594645D01*
X239770Y594312D01*
X240112Y593970D01*
X240445Y593620D01*
X240770Y593262D01*
X241086Y592897D01*
X241393Y592524D01*
X241692Y592143D01*
X241980Y591756D01*
X242260Y591361D01*
X242529Y590960D01*
X242789Y590553D01*
X243039Y590139D01*
X243279Y589720D01*
X243509Y589294D01*
X243729Y588864D01*
X243937Y588428D01*
X244136Y587987D01*
X244323Y587542D01*
X244500Y587092D01*
X244666Y586638D01*
X244821Y586180D01*
X244965Y585719D01*
X245098Y585254D01*
X245219Y584786D01*
X245329Y584316D01*
X245427Y583843D01*
X245515Y583367D01*
X245590Y582890D01*
X245654Y582411D01*
X245707Y581930D01*
X245747Y581449D01*
X245777Y580966D01*
X245794Y580483D01*
X245800Y580000D01*
X245800Y20000D01*
X245794Y19517D01*
X245777Y19034D01*
X245747Y18551D01*
X245707Y18070D01*
X245654Y17589D01*
X245590Y17110D01*
X245515Y16633D01*
X245427Y16157D01*
X245329Y15684D01*
X245219Y15214D01*
X245098Y14746D01*
X244965Y14281D01*
X244821Y13820D01*
X244666Y13362D01*
X244500Y12908D01*
X244323Y12458D01*
X244136Y12013D01*
X243937Y11572D01*
X243729Y11136D01*
X243509Y10706D01*
X243279Y10280D01*
X243039Y9861D01*
X242789Y9447D01*
X242529Y9040D01*
X242260Y8639D01*
X241980Y8244D01*
X241692Y7857D01*
X241393Y7476D01*
X241086Y7103D01*
X240770Y6738D01*
X240445Y6380D01*
X240112Y6030D01*
X239770Y5688D01*
X239420Y5355D01*
X239062Y5030D01*
X238697Y4714D01*
X238324Y4407D01*
X237943Y4108D01*
X237556Y3820D01*
X237161Y3540D01*
X236760Y3271D01*
X236353Y3011D01*
X235939Y2761D01*
X235520Y2521D01*
X235094Y2291D01*
X234664Y2071D01*
X234228Y1863D01*
X233787Y1664D01*
X233342Y1477D01*
X232892Y1300D01*
X232438Y1134D01*
X231980Y979D01*
X231519Y835D01*
X231054Y702D01*
X230586Y581D01*
X230116Y471D01*
X229643Y373D01*
X229167Y285D01*
X228690Y210D01*
X228211Y146D01*
X227730Y93D01*
X227249Y53D01*
X226766Y23D01*
X226283Y6D01*
X225800Y0D01*
X20000Y0D01*
D11*
X0Y20000D02*
X76Y18257D01*
X304Y16527D01*
X681Y14824D01*
X1206Y13160D01*
X1874Y11548D01*
X2680Y10000D01*
X3617Y8528D01*
X4679Y7144D01*
X5858Y5858D01*
X7144Y4679D01*
X8528Y3617D01*
X10000Y2680D01*
X11548Y1874D01*
X13160Y1206D01*
X14824Y681D01*
X16527Y304D01*
X18257Y76D01*
X20000Y0D01*
X225800Y0D01*
X227543Y76D01*
X229273Y304D01*
X230976Y681D01*
X232640Y1206D01*
X234252Y1874D01*
X235800Y2680D01*
X237272Y3617D01*
X238656Y4679D01*
X239942Y5858D01*
X241121Y7144D01*
X242183Y8528D01*
X243121Y10000D01*
X243926Y11548D01*
X244594Y13160D01*
X245119Y14824D01*
X245496Y16527D01*
X245724Y18257D01*
X245800Y20000D01*
X245800Y580000D01*
X245724Y581743D01*
X245496Y583473D01*
X245119Y585176D01*
X244594Y586840D01*
X243926Y588452D01*
X243121Y590000D01*
X242183Y591472D01*
X241121Y592856D01*
X239942Y594142D01*
X238656Y595321D01*
X237272Y596383D01*
X235800Y597321D01*
X234252Y598126D01*
X232640Y598794D01*
X230976Y599319D01*
X229273Y599696D01*
X227543Y599924D01*
X225800Y600000D01*
X20000Y600000D01*
X18257Y599924D01*
X16527Y599696D01*
X14824Y599319D01*
X13160Y598794D01*
X11548Y598126D01*
X10000Y597321D01*
X8528Y596383D01*
X7144Y595321D01*
X5858Y594142D01*
X4679Y592856D01*
X3617Y591472D01*
X2680Y590000D01*
X1874Y588452D01*
X1206Y586840D01*
X681Y585176D01*
X304Y583473D01*
X76Y581743D01*
X0Y580000D01*
X0Y20000D01*
X137000Y168800D02*
X137030Y168103D01*
X137122Y167411D01*
X137273Y166729D01*
X137482Y166064D01*
X137750Y165419D01*
X138072Y164800D01*
X138447Y164211D01*
X138872Y163658D01*
X139343Y163143D01*
X139858Y162672D01*
X140411Y162247D01*
X141000Y161872D01*
X141619Y161550D01*
X142264Y161282D01*
X142929Y161073D01*
X143611Y160922D01*
X144303Y160830D01*
X145000Y160800D01*
X145697Y160830D01*
X146389Y160922D01*
X147071Y161073D01*
X147736Y161282D01*
X148381Y161550D01*
X149000Y161872D01*
X149589Y162247D01*
X150142Y162672D01*
X150657Y163143D01*
X151128Y163658D01*
X151553Y164211D01*
X151928Y164800D01*
X152250Y165419D01*
X152518Y166064D01*
X152727Y166729D01*
X152878Y167411D01*
X152970Y168103D01*
X153000Y168800D01*
X153000Y184800D01*
X152970Y185497D01*
X152878Y186189D01*
X152727Y186871D01*
X152518Y187536D01*
X152250Y188181D01*
X151928Y188800D01*
X151553Y189389D01*
X151128Y189942D01*
X150657Y190457D01*
X150142Y190928D01*
X149589Y191353D01*
X149000Y191728D01*
X148381Y192050D01*
X147736Y192318D01*
X147071Y192527D01*
X146389Y192678D01*
X145697Y192770D01*
X145000Y192800D01*
X144303Y192770D01*
X143611Y192678D01*
X142929Y192527D01*
X142264Y192318D01*
X141619Y192050D01*
X141000Y191728D01*
X140411Y191353D01*
X139858Y190928D01*
X139343Y190457D01*
X138872Y189942D01*
X138447Y189389D01*
X138072Y188800D01*
X137750Y188181D01*
X137482Y187536D01*
X137273Y186871D01*
X137122Y186189D01*
X137030Y185497D01*
X137000Y184800D01*
X137000Y168800D01*
X137000Y418800D02*
X137030Y418103D01*
X137122Y417411D01*
X137273Y416729D01*
X137482Y416064D01*
X137750Y415419D01*
X138072Y414800D01*
X138447Y414211D01*
X138872Y413658D01*
X139343Y413143D01*
X139858Y412672D01*
X140411Y412247D01*
X141000Y411872D01*
X141619Y411550D01*
X142264Y411282D01*
X142929Y411073D01*
X143611Y410922D01*
X144303Y410830D01*
X145000Y410800D01*
X145697Y410830D01*
X146389Y410922D01*
X147071Y411073D01*
X147736Y411282D01*
X148381Y411550D01*
X149000Y411872D01*
X149589Y412247D01*
X150142Y412672D01*
X150657Y413143D01*
X151128Y413658D01*
X151553Y414211D01*
X151928Y414800D01*
X152250Y415419D01*
X152518Y416064D01*
X152727Y416729D01*
X152878Y417411D01*
X152970Y418103D01*
X153000Y418800D01*
X153000Y434800D01*
X152970Y435497D01*
X152878Y436189D01*
X152727Y436871D01*
X152518Y437536D01*
X152250Y438181D01*
X151928Y438800D01*
X151553Y439389D01*
X151128Y439942D01*
X150657Y440457D01*
X150142Y440928D01*
X149589Y441353D01*
X149000Y441728D01*
X148381Y442050D01*
X147736Y442318D01*
X147071Y442527D01*
X146389Y442678D01*
X145697Y442770D01*
X145000Y442800D01*
X144303Y442770D01*
X143611Y442678D01*
X142929Y442527D01*
X142264Y442318D01*
X141619Y442050D01*
X141000Y441728D01*
X140411Y441353D01*
X139858Y440928D01*
X139343Y440457D01*
X138872Y439942D01*
X138447Y439389D01*
X138072Y438800D01*
X137750Y438181D01*
X137482Y437536D01*
X137273Y436871D01*
X137122Y436189D01*
X137030Y435497D01*
X137000Y434800D01*
X137000Y418800D01*
M02*
