G04 EAGLE Gerber RS-274X export*
G75*
%MOMM*%
%FSLAX34Y34*%
%LPD*%
%INSoldermask Top*%
%IPPOS*%
%AMOC8*
5,1,8,0,0,1.08239X$1,22.5*%
G01*
%ADD10R,1.138600X1.214400*%
%ADD11R,1.057000X1.214400*%
%ADD12C,1.981200*%
%ADD13C,3.403200*%
%ADD14C,0.504181*%
%ADD15R,1.173400X1.124100*%
%ADD16R,1.453200X1.423200*%
%ADD17R,1.003200X1.153200*%
%ADD18R,1.177100X1.001900*%
%ADD19C,1.603200*%
%ADD20C,2.453200*%
%ADD21R,1.001900X1.177100*%
%ADD22R,1.003200X1.003200*%
%ADD23C,1.653200*%
%ADD24C,1.422400*%
%ADD25R,1.303200X1.203200*%
%ADD26P,1.951982X8X22.500000*%
%ADD27C,2.082800*%


D10*
X97820Y351370D03*
D11*
X81612Y351370D03*
D12*
X130800Y357200D03*
X130800Y329500D03*
X130800Y301800D03*
X130800Y274100D03*
X130800Y246400D03*
X159200Y343350D03*
X159200Y315650D03*
X159200Y287950D03*
X159200Y260250D03*
D13*
X145000Y192800D02*
X145000Y160800D01*
X145000Y410800D02*
X145000Y442800D01*
D14*
X129095Y561045D02*
X118505Y561045D01*
X129095Y561045D02*
X129095Y557955D01*
X118505Y557955D01*
X118505Y561045D01*
X118505Y551545D02*
X129095Y551545D01*
X129095Y548455D01*
X118505Y548455D01*
X118505Y551545D01*
X118505Y542045D02*
X129095Y542045D01*
X129095Y538955D01*
X118505Y538955D01*
X118505Y542045D01*
X140905Y538955D02*
X151495Y538955D01*
X140905Y538955D02*
X140905Y542045D01*
X151495Y542045D01*
X151495Y538955D01*
X151495Y557955D02*
X140905Y557955D01*
X140905Y561045D01*
X151495Y561045D01*
X151495Y557955D01*
D15*
X162800Y542154D03*
X162800Y557646D03*
X104400Y542754D03*
X104400Y558246D03*
D16*
X143450Y478800D03*
X113950Y478800D03*
D17*
X114400Y498000D03*
X133400Y498000D03*
X123900Y520000D03*
D18*
X163300Y513048D03*
X163300Y529352D03*
X162800Y569348D03*
X162800Y585652D03*
D19*
X219700Y509000D03*
X219700Y529000D03*
X219700Y549000D03*
D20*
X219700Y488000D03*
X219700Y570000D03*
D21*
X12248Y571500D03*
X28552Y571500D03*
D22*
X27400Y556500D03*
X12400Y556500D03*
D23*
X63000Y497700D03*
X63000Y517700D03*
D24*
X25800Y48496D02*
X25800Y36304D01*
X51200Y36304D02*
X51200Y48496D01*
X76600Y48496D02*
X76600Y36304D01*
X102000Y36304D02*
X102000Y48496D01*
X127400Y48496D02*
X127400Y36304D01*
X152800Y36304D02*
X152800Y48496D01*
X178200Y48496D02*
X178200Y36304D01*
X203600Y36304D02*
X203600Y48496D01*
X229000Y48496D02*
X229000Y36304D01*
X229000Y112504D02*
X229000Y124696D01*
X203600Y124696D02*
X203600Y112504D01*
X178200Y112504D02*
X178200Y124696D01*
X152800Y124696D02*
X152800Y112504D01*
X127400Y112504D02*
X127400Y124696D01*
X102000Y124696D02*
X102000Y112504D01*
X76600Y112504D02*
X76600Y124696D01*
X51200Y124696D02*
X51200Y112504D01*
X25800Y112504D02*
X25800Y124696D01*
D25*
X127700Y21000D03*
X110700Y21000D03*
D26*
X80000Y420000D03*
X40000Y420000D03*
X60000Y450000D03*
D27*
X58300Y249600D03*
X32900Y249600D03*
X58300Y275000D03*
X32900Y275000D03*
X58300Y300400D03*
X32900Y300400D03*
X58300Y325800D03*
X32900Y325800D03*
X58300Y351200D03*
X32900Y351200D03*
M02*
