M48
;GenerationSoftware,Autodesk,EAGLE,9.6.2*%
;CreationDate,2021-04-26T01:02:29Z*%
FMAT,2
ICI,OFF
METRIC,TZ,000.000
T8C0.350
T7C0.400
T6C0.800
T5C0.813
T4C1.000
T3C1.016
T2C1.500
T1C1.600
%
G90
M71
T1
X14500Y17680
X14500Y42680
T2
X21970Y48800
X21970Y57000
T3
X5830Y35120
X5830Y27500
X3290Y32580
X5830Y32580
X3290Y30040
X3290Y35120
X5830Y30040
X3290Y27500
X3290Y24960
X5830Y24960
T4
X13080Y35720
X13080Y27410
X13080Y24640
X15920Y34335
X15920Y31565
X15920Y26025
X15920Y28795
X13080Y32950
X13080Y30180
T5
X10200Y11860
X4000Y42000
X6000Y45000
X5120Y4240
X2580Y4240
X10200Y4240
X12740Y4240
X15280Y4240
X17820Y4240
X20360Y4240
X22900Y4240
X22900Y11860
X20360Y11860
X17820Y11860
X15280Y11860
X12740Y11860
X5120Y11860
X7660Y11860
X7660Y4240
X2580Y11860
X8000Y42000
T6
X6300Y51770
X6300Y49770
X21970Y54900
X21970Y52900
X21970Y50900
T7
X16330Y50190
X17330Y55760
X3850Y57170
X14630Y52790
X10420Y56890
X13570Y55010
T8
X14730Y49860
M30