G04 EAGLE Gerber RS-274X export*
G75*
%MOMM*%
%FSLAX34Y34*%
%LPD*%
%INSolderpaste Top*%
%IPPOS*%
%AMOC8*
5,1,8,0,0,1.08239X$1,22.5*%
G01*
%ADD10R,0.935400X1.011200*%
%ADD11R,0.853800X1.011200*%
%ADD12C,0.298900*%
%ADD13R,0.970200X0.920900*%
%ADD14R,1.250000X1.220000*%
%ADD15R,0.800000X0.950000*%
%ADD16R,0.973900X0.798700*%
%ADD17R,0.798700X0.973900*%
%ADD18R,0.800000X0.800000*%
%ADD19R,1.100000X1.000000*%


D10*
X97820Y351370D03*
D11*
X81612Y351370D03*
D12*
X118494Y561056D02*
X129106Y561056D01*
X129106Y557944D01*
X118494Y557944D01*
X118494Y561056D01*
X118494Y560784D02*
X129106Y560784D01*
X129106Y551556D02*
X118494Y551556D01*
X129106Y551556D02*
X129106Y548444D01*
X118494Y548444D01*
X118494Y551556D01*
X118494Y551284D02*
X129106Y551284D01*
X129106Y542056D02*
X118494Y542056D01*
X129106Y542056D02*
X129106Y538944D01*
X118494Y538944D01*
X118494Y542056D01*
X118494Y541784D02*
X129106Y541784D01*
X140894Y538944D02*
X151506Y538944D01*
X140894Y538944D02*
X140894Y542056D01*
X151506Y542056D01*
X151506Y538944D01*
X151506Y541784D02*
X140894Y541784D01*
X140894Y557944D02*
X151506Y557944D01*
X140894Y557944D02*
X140894Y561056D01*
X151506Y561056D01*
X151506Y557944D01*
X151506Y560784D02*
X140894Y560784D01*
D13*
X162800Y542154D03*
X162800Y557646D03*
X104400Y542754D03*
X104400Y558246D03*
D14*
X143450Y478800D03*
X113950Y478800D03*
D15*
X114400Y498000D03*
X133400Y498000D03*
X123900Y520000D03*
D16*
X163300Y513048D03*
X163300Y529352D03*
X162800Y569348D03*
X162800Y585652D03*
D17*
X12248Y571500D03*
X28552Y571500D03*
D18*
X27400Y556500D03*
X12400Y556500D03*
D19*
X127700Y21000D03*
X110700Y21000D03*
M02*
